solid OpenSCAD_Model
  facet normal 0 0 1
    outer loop
      vertex 0 3 -1.7999999970197678
      vertex 10 5.5 -1.7999999970197678
      vertex 0 5.5 -1.7999999970197678
    endloop
  endfacet
  facet normal 0 0 1
    outer loop
      vertex 0 3 -1.7999999970197678
      vertex 10 3 -1.7999999970197678
      vertex 10 5.5 -1.7999999970197678
    endloop
  endfacet
  facet normal 0 1 0
    outer loop
      vertex 0 3 0
      vertex 10 3 -1.7999999970197678
      vertex 0 3 -1.7999999970197678
    endloop
  endfacet
  facet normal 0 1 0
    outer loop
      vertex 0 3 0
      vertex 10 3 0
      vertex 10 3 -1.7999999970197678
    endloop
  endfacet
  facet normal 0 0 -1
    outer loop
      vertex 0 8 0
      vertex 10 3 0
      vertex 0 3 0
    endloop
  endfacet
  facet normal 0 0 -1
    outer loop
      vertex 0 8 0
      vertex 10 8 0
      vertex 10 3 0
    endloop
  endfacet
  facet normal 0 1 0
    outer loop
      vertex 0 8 5.600000001490116
      vertex 10 8 0
      vertex 0 8 0
    endloop
  endfacet
  facet normal 0 1 0
    outer loop
      vertex 0 8 5.600000001490116
      vertex 10 8 5.600000001490116
      vertex 10 8 0
    endloop
  endfacet
  facet normal 0 0 1
    outer loop
      vertex 0 5.799999997019768 5.600000001490116
      vertex 10 8 5.600000001490116
      vertex 0 8 5.600000001490116
    endloop
  endfacet
  facet normal 0 0 1
    outer loop
      vertex 0 5.799999997019768 5.600000001490116
      vertex 10 5.799999997019768 5.600000001490116
      vertex 10 8 5.600000001490116
    endloop
  endfacet
  facet normal 0 -1 0
    outer loop
      vertex 0 5.799999997019768 3
      vertex 10 5.799999997019768 5.600000001490116
      vertex 0 5.799999997019768 5.600000001490116
    endloop
  endfacet
  facet normal 0 -1 0
    outer loop
      vertex 0 5.799999997019768 3
      vertex 10 5.799999997019768 3
      vertex 10 5.799999997019768 5.600000001490116
    endloop
  endfacet
  facet normal 0 0 1
    outer loop
      vertex 0 0.20000000298023224 3
      vertex 10 5.799999997019768 3
      vertex 0 5.799999997019768 3
    endloop
  endfacet
  facet normal 0 0 1
    outer loop
      vertex 0 0.20000000298023224 3
      vertex 10 0.20000000298023224 3
      vertex 10 5.799999997019768 3
    endloop
  endfacet
  facet normal 0 1 0
    outer loop
      vertex 0 0.20000000298023224 5.600000001490116
      vertex 10 0.20000000298023224 3
      vertex 0 0.20000000298023224 3
    endloop
  endfacet
  facet normal 0 1 0
    outer loop
      vertex 0 0.20000000298023224 5.600000001490116
      vertex 10 0.20000000298023224 5.600000001490116
      vertex 10 0.20000000298023224 3
    endloop
  endfacet
  facet normal 0 0 1
    outer loop
      vertex 0 -8 5.600000001490116
      vertex 10 0.20000000298023224 5.600000001490116
      vertex 0 0.20000000298023224 5.600000001490116
    endloop
  endfacet
  facet normal 0 0 1
    outer loop
      vertex 0 -8 5.600000001490116
      vertex 10 -8 5.600000001490116
      vertex 10 0.20000000298023224 5.600000001490116
    endloop
  endfacet
  facet normal 0 -1 0
    outer loop
      vertex 0 -8 0
      vertex 10 -8 5.600000001490116
      vertex 0 -8 5.600000001490116
    endloop
  endfacet
  facet normal 0 -1 0
    outer loop
      vertex 0 -8 0
      vertex 10 -8 0
      vertex 10 -8 5.600000001490116
    endloop
  endfacet
  facet normal 0 0 -1
    outer loop
      vertex 0 -3 0
      vertex 10 -8 0
      vertex 0 -8 0
    endloop
  endfacet
  facet normal 0 0 -1
    outer loop
      vertex 0 -3 0
      vertex 10 -3 0
      vertex 10 -8 0
    endloop
  endfacet
  facet normal 0 -1 0
    outer loop
      vertex 0 -3 -1.7999999970197678
      vertex 10 -3 0
      vertex 0 -3 0
    endloop
  endfacet
  facet normal 0 -1 0
    outer loop
      vertex 0 -3 -1.7999999970197678
      vertex 10 -3 -1.7999999970197678
      vertex 10 -3 0
    endloop
  endfacet
  facet normal 0 0 1
    outer loop
      vertex 0 -5.5 -1.7999999970197678
      vertex 10 -3 -1.7999999970197678
      vertex 0 -3 -1.7999999970197678
    endloop
  endfacet
  facet normal 0 0 1
    outer loop
      vertex 0 -5.5 -1.7999999970197678
      vertex 10 -5.5 -1.7999999970197678
      vertex 10 -3 -1.7999999970197678
    endloop
  endfacet
  facet normal 0 -1 0
    outer loop
      vertex 0 -5.5 -5.899999998509884
      vertex 10 -5.5 -1.7999999970197678
      vertex 0 -5.5 -1.7999999970197678
    endloop
  endfacet
  facet normal 0 -1 0
    outer loop
      vertex 0 -5.5 -5.899999998509884
      vertex 10 -5.5 -5.899999998509884
      vertex 10 -5.5 -1.7999999970197678
    endloop
  endfacet
  facet normal 0 0 -1
    outer loop
      vertex 0 5.5 -5.899999998509884
      vertex 10 -5.5 -5.899999998509884
      vertex 0 -5.5 -5.899999998509884
    endloop
  endfacet
  facet normal 0 0 -1
    outer loop
      vertex 0 5.5 -5.899999998509884
      vertex 10 5.5 -5.899999998509884
      vertex 10 -5.5 -5.899999998509884
    endloop
  endfacet
  facet normal 0 1 0
    outer loop
      vertex 0 5.5 -1.7999999970197678
      vertex 10 5.5 -5.899999998509884
      vertex 0 5.5 -5.899999998509884
    endloop
  endfacet
  facet normal 0 1 0
    outer loop
      vertex 0 5.5 -1.7999999970197678
      vertex 10 5.5 -1.7999999970197678
      vertex 10 5.5 -5.899999998509884
    endloop
  endfacet
  facet normal 1 0 0
    outer loop
      vertex 10 0.20000000298023224 3
      vertex 10 0.20000000298023224 5.600000001490116
      vertex 10 -8 5.600000001490116
    endloop
  endfacet
  facet normal 1 0 0
    outer loop
      vertex 10 -8 5.600000001490116
      vertex 10 -8 0
      vertex 10 -3 0
    endloop
  endfacet
  facet normal 1 0 0
    outer loop
      vertex 10 0.20000000298023224 3
      vertex 10 -8 5.600000001490116
      vertex 10 -3 0
    endloop
  endfacet
  facet normal 1 0 0
    outer loop
      vertex 10 -3 -1.7999999970197678
      vertex 10 -5.5 -1.7999999970197678
      vertex 10 -5.5 -5.899999998509884
    endloop
  endfacet
  facet normal 1 0 0
    outer loop
      vertex 10 5.5 -5.899999998509884
      vertex 10 5.5 -1.7999999970197678
      vertex 10 3 -1.7999999970197678
    endloop
  endfacet
  facet normal 1 0 0
    outer loop
      vertex 10 8 5.600000001490116
      vertex 10 5.799999997019768 5.600000001490116
      vertex 10 5.799999997019768 3
    endloop
  endfacet
  facet normal 1 0 0
    outer loop
      vertex 10 8 0
      vertex 10 8 5.600000001490116
      vertex 10 5.799999997019768 3
    endloop
  endfacet
  facet normal 1 0 0
    outer loop
      vertex 10 3 0
      vertex 10 8 0
      vertex 10 5.799999997019768 3
    endloop
  endfacet
  facet normal 1 0 0
    outer loop
      vertex 10 3 0
      vertex 10 5.799999997019768 3
      vertex 10 0.20000000298023224 3
    endloop
  endfacet
  facet normal 1 0 0
    outer loop
      vertex 10 3 0
      vertex 10 0.20000000298023224 3
      vertex 10 -3 0
    endloop
  endfacet
  facet normal 1 0 0
    outer loop
      vertex 10 3 -1.7999999970197678
      vertex 10 3 0
      vertex 10 -3 0
    endloop
  endfacet
  facet normal 1 0 0
    outer loop
      vertex 10 3 -1.7999999970197678
      vertex 10 -3 0
      vertex 10 -3 -1.7999999970197678
    endloop
  endfacet
  facet normal 1 0 0
    outer loop
      vertex 10 5.5 -5.899999998509884
      vertex 10 3 -1.7999999970197678
      vertex 10 -3 -1.7999999970197678
    endloop
  endfacet
  facet normal 1 0 0
    outer loop
      vertex 10 -5.5 -5.899999998509884
      vertex 10 5.5 -5.899999998509884
      vertex 10 -3 -1.7999999970197678
    endloop
  endfacet
  facet normal -1 0 0
    outer loop
      vertex 0 -8 5.600000001490116
      vertex 0 0.20000000298023224 5.600000001490116
      vertex 0 0.20000000298023224 3
    endloop
  endfacet
  facet normal -1 0 0
    outer loop
      vertex 0 -3 0
      vertex 0 -8 0
      vertex 0 -8 5.600000001490116
    endloop
  endfacet
  facet normal -1 0 0
    outer loop
      vertex 0 -3 0
      vertex 0 -8 5.600000001490116
      vertex 0 0.20000000298023224 3
    endloop
  endfacet
  facet normal -1 0 0
    outer loop
      vertex 0 -5.5 -5.899999998509884
      vertex 0 -5.5 -1.7999999970197678
      vertex 0 -3 -1.7999999970197678
    endloop
  endfacet
  facet normal -1 0 0
    outer loop
      vertex 0 3 -1.7999999970197678
      vertex 0 5.5 -1.7999999970197678
      vertex 0 5.5 -5.899999998509884
    endloop
  endfacet
  facet normal -1 0 0
    outer loop
      vertex 0 5.799999997019768 3
      vertex 0 5.799999997019768 5.600000001490116
      vertex 0 8 5.600000001490116
    endloop
  endfacet
  facet normal -1 0 0
    outer loop
      vertex 0 5.799999997019768 3
      vertex 0 8 5.600000001490116
      vertex 0 8 0
    endloop
  endfacet
  facet normal -1 0 0
    outer loop
      vertex 0 5.799999997019768 3
      vertex 0 8 0
      vertex 0 3 0
    endloop
  endfacet
  facet normal -1 0 0
    outer loop
      vertex 0 0.20000000298023224 3
      vertex 0 5.799999997019768 3
      vertex 0 3 0
    endloop
  endfacet
  facet normal -1 0 0
    outer loop
      vertex 0 -3 0
      vertex 0 0.20000000298023224 3
      vertex 0 3 0
    endloop
  endfacet
  facet normal -1 0 0
    outer loop
      vertex 0 -3 0
      vertex 0 3 0
      vertex 0 3 -1.7999999970197678
    endloop
  endfacet
  facet normal -1 0 0
    outer loop
      vertex 0 -3 -1.7999999970197678
      vertex 0 -3 0
      vertex 0 3 -1.7999999970197678
    endloop
  endfacet
  facet normal -1 0 0
    outer loop
      vertex 0 -3 -1.7999999970197678
      vertex 0 3 -1.7999999970197678
      vertex 0 5.5 -5.899999998509884
    endloop
  endfacet
  facet normal -1 0 0
    outer loop
      vertex 0 -3 -1.7999999970197678
      vertex 0 5.5 -5.899999998509884
      vertex 0 -5.5 -5.899999998509884
    endloop
  endfacet
endsolid OpenSCAD_Model
