%TF.GenerationSoftware,KiCad,Pcbnew,10.0.4*%
%TF.CreationDate,2026-08-03T16:17:01-04:00*%
%TF.ProjectId,eurorack-psu-twobrick,6575726f-7261-4636-9b2d-7073752d7477,rev?*%
%TF.SameCoordinates,Original*%
%TF.FileFunction,Other,User*%
%FSLAX46Y46*%
G04 Gerber Fmt 4.6, Leading zero omitted, Abs format (unit mm)*
G04 Created by KiCad (PCBNEW 10.0.4) date 2026-08-03 16:17:01*
%MOMM*%
%LPD*%
G01*
G04 APERTURE LIST*
%ADD10C,0.050000*%
G04 APERTURE END LIST*
%TO.C,VR1*%
D10*
X14339646Y-68788600D02*
X14339646Y-77638600D01*
X14339646Y-77638600D02*
X25249646Y-77638600D01*
X25249646Y-68788600D02*
X14339646Y-68788600D01*
X25249646Y-77638600D02*
X25249646Y-68788600D01*
%TO.C,R2*%
X8665000Y-28908600D02*
X13755000Y-28908600D01*
X13755000Y-31908600D01*
X8665000Y-31908600D01*
X8665000Y-28908600D01*
%TO.C,C4*%
X10675000Y-64738600D02*
X17775000Y-64738600D01*
X17775000Y-67738600D01*
X10675000Y-67738600D01*
X10675000Y-64738600D01*
%TO.C,D2*%
X13355000Y-58188599D02*
X23135000Y-58188599D01*
X23135000Y-63888599D01*
X13355000Y-63888599D01*
X13355000Y-58188599D01*
%TO.C,J1*%
X14248600Y-8286799D02*
G75*
G02*
X2725000Y-8286799I-5761800J0D01*
G01*
X2725000Y-8286799D02*
G75*
G02*
X14248600Y-8286799I5761800J0D01*
G01*
%TO.C,D5*%
X14105000Y-23438600D02*
X18945000Y-23438600D01*
X18945000Y-27858600D01*
X14105000Y-27858600D01*
X14105000Y-23438600D01*
%TO.C,J2*%
X26835400Y-8286799D02*
G75*
G02*
X15311800Y-8286799I-5761800J0D01*
G01*
X15311800Y-8286799D02*
G75*
G02*
X26835400Y-8286799I5761800J0D01*
G01*
%TO.C,J5*%
X2725000Y-87678599D02*
X2725000Y-102488599D01*
X2725000Y-102488599D02*
X8515000Y-102488599D01*
X8515000Y-84188599D02*
X8515000Y-87678599D01*
X8515000Y-87678599D02*
X2725000Y-87678599D01*
X8515000Y-102488599D02*
X8515000Y-105988599D01*
X8515000Y-105988599D02*
X14725000Y-105988599D01*
X14725000Y-84188599D02*
X8515000Y-84188599D01*
X14725000Y-105988599D02*
X14725000Y-84188599D01*
%TO.C,D3*%
X2725000Y-23438600D02*
X7565000Y-23438600D01*
X7565000Y-27858600D01*
X2725000Y-27858600D01*
X2725000Y-23438600D01*
%TO.C,F2*%
X2725000Y-51248599D02*
X15225000Y-51248599D01*
X15225000Y-54748599D01*
X2725000Y-54748599D01*
X2725000Y-51248599D01*
%TO.C,SW1A*%
X16075000Y-44308600D02*
X19615000Y-44308600D01*
X19615000Y-50398600D01*
X16075000Y-50398600D01*
X16075000Y-44308600D01*
%TO.C,R3*%
X14605000Y-28908600D02*
X19695000Y-28908600D01*
X19695000Y-31908600D01*
X14605000Y-31908600D01*
X14605000Y-28908600D01*
%TO.C,C3*%
X25104292Y-38208600D02*
G75*
G02*
X14604292Y-38208600I-5250000J0D01*
G01*
X14604292Y-38208600D02*
G75*
G02*
X25104292Y-38208600I5250000J0D01*
G01*
%TO.C,R1*%
X2725000Y-28908600D02*
X7815000Y-28908600D01*
X7815000Y-31908600D01*
X2725000Y-31908600D01*
X2725000Y-28908600D01*
%TO.C,J6*%
X15575000Y-87678599D02*
X15575000Y-102488599D01*
X15575000Y-102488599D02*
X21365000Y-102488599D01*
X21365000Y-84188599D02*
X21365000Y-87678599D01*
X21365000Y-87678599D02*
X15575000Y-87678599D01*
X21365000Y-102488599D02*
X21365000Y-105988599D01*
X21365000Y-105988599D02*
X27575000Y-105988599D01*
X27575000Y-84188599D02*
X21365000Y-84188599D01*
X27575000Y-105988599D02*
X27575000Y-84188599D01*
%TO.C,C6*%
X10675000Y-80138600D02*
X17775000Y-80138600D01*
X17775000Y-83138600D01*
X10675000Y-83138600D01*
X10675000Y-80138600D01*
%TO.C,F1*%
X2725000Y-44308600D02*
X15225000Y-44308600D01*
X15225000Y-47808600D01*
X2725000Y-47808600D01*
X2725000Y-44308600D01*
%TO.C,J3*%
X2725000Y-14898600D02*
X18765000Y-14898600D01*
X2725000Y-22588600D02*
X2725000Y-14898600D01*
X18765000Y-14898600D02*
X18765000Y-22588600D01*
X18765000Y-22588600D02*
X2725000Y-22588600D01*
%TO.C,C2*%
X2725000Y-64738600D02*
X9825000Y-64738600D01*
X9825000Y-67738600D01*
X2725000Y-67738600D01*
X2725000Y-64738600D01*
%TO.C,D4*%
X8415000Y-23438600D02*
X13255000Y-23438600D01*
X13255000Y-27858600D01*
X8415000Y-27858600D01*
X8415000Y-23438600D01*
%TO.C,C1*%
X13489646Y-38208600D02*
G75*
G02*
X2989646Y-38208600I-5250000J0D01*
G01*
X2989646Y-38208600D02*
G75*
G02*
X13489646Y-38208600I5250000J0D01*
G01*
%TO.C,SW1B*%
X16075000Y-51248600D02*
X19615000Y-51248600D01*
X19615000Y-57338600D01*
X16075000Y-57338600D01*
X16075000Y-51248600D01*
%TO.C,D1*%
X2725000Y-58188599D02*
X12505000Y-58188599D01*
X12505000Y-63888599D01*
X2725000Y-63888599D01*
X2725000Y-58188599D01*
%TO.C,C5*%
X2725000Y-80138600D02*
X9825000Y-80138600D01*
X9825000Y-83138600D01*
X2725000Y-83138600D01*
X2725000Y-80138600D01*
%TO.C,C7*%
X13489646Y-74038600D02*
G75*
G02*
X2989646Y-74038600I-5250000J0D01*
G01*
X2989646Y-74038600D02*
G75*
G02*
X13489646Y-74038600I5250000J0D01*
G01*
%TD*%
M02*
