%TF.GenerationSoftware,KiCad,Pcbnew,10.0.4*%
%TF.CreationDate,2026-08-03T16:17:01-04:00*%
%TF.ProjectId,eurorack-psu-twobrick,6575726f-7261-4636-9b2d-7073752d7477,rev?*%
%TF.SameCoordinates,Original*%
%TF.FileFunction,Soldermask,Bot*%
%TF.FilePolarity,Negative*%
%FSLAX46Y46*%
G04 Gerber Fmt 4.6, Leading zero omitted, Abs format (unit mm)*
G04 Created by KiCad (PCBNEW 10.0.4) date 2026-08-03 16:17:01*
%MOMM*%
%LPD*%
G01*
G04 APERTURE LIST*
G04 Aperture macros list*
%AMRoundRect*
0 Rectangle with rounded corners*
0 $1 Rounding radius*
0 $2 $3 $4 $5 $6 $7 $8 $9 X,Y pos of 4 corners*
0 Add a 4 corners polygon primitive as box body*
4,1,4,$2,$3,$4,$5,$6,$7,$8,$9,$2,$3,0*
0 Add four circle primitives for the rounded corners*
1,1,$1+$1,$2,$3*
1,1,$1+$1,$4,$5*
1,1,$1+$1,$6,$7*
1,1,$1+$1,$8,$9*
0 Add four rect primitives between the rounded corners*
20,1,$1+$1,$2,$3,$4,$5,0*
20,1,$1+$1,$4,$5,$6,$7,0*
20,1,$1+$1,$6,$7,$8,$9,0*
20,1,$1+$1,$8,$9,$2,$3,0*%
G04 Aperture macros list end*
%ADD10R,1.800000X1.800000*%
%ADD11C,1.800000*%
%ADD12C,1.600000*%
%ADD13RoundRect,0.250000X-1.350000X-1.350000X1.350000X-1.350000X1.350000X1.350000X-1.350000X1.350000X0*%
%ADD14C,3.200000*%
%ADD15RoundRect,0.338220X-0.944880X-0.944880X0.944880X-0.944880X0.944880X0.944880X-0.944880X0.944880X0*%
%ADD16C,2.566200*%
%ADD17C,3.000000*%
%ADD18RoundRect,0.250001X1.399999X-1.099999X1.399999X1.099999X-1.399999X1.099999X-1.399999X-1.099999X0*%
%ADD19O,3.300000X2.700000*%
%ADD20C,2.000000*%
%ADD21R,1.700000X1.700000*%
%ADD22C,1.700000*%
%ADD23RoundRect,0.250000X-0.750000X-0.750000X0.750000X-0.750000X0.750000X0.750000X-0.750000X0.750000X0*%
%ADD24RoundRect,0.250000X-0.400000X-0.400000X0.400000X-0.400000X0.400000X0.400000X-0.400000X0.400000X0*%
%ADD25C,1.300000*%
%ADD26O,1.900000X2.900000*%
%ADD27O,2.900000X1.900000*%
G04 APERTURE END LIST*
D10*
%TO.C,VR1*%
X17249646Y-74228600D03*
D11*
X19789646Y-74228600D03*
X22329646Y-74228600D03*
%TD*%
D12*
%TO.C,R2*%
X10165000Y-30408600D03*
X12705000Y-30408600D03*
%TD*%
%TO.C,C4*%
X11725000Y-66238600D03*
X16725000Y-66238600D03*
%TD*%
D13*
%TO.C,D2*%
X16205000Y-61038599D03*
D14*
X21285000Y-61038599D03*
%TD*%
D15*
%TO.C,J1*%
X12449200Y-9302799D03*
D16*
X4676800Y-8286799D03*
X8486800Y-4324399D03*
%TD*%
D10*
%TO.C,D5*%
X15255000Y-25648600D03*
D11*
X17795000Y-25648600D03*
%TD*%
D15*
%TO.C,J2*%
X25036000Y-9302799D03*
D16*
X17263600Y-8286799D03*
X21073600Y-4324399D03*
%TD*%
D17*
%TO.C,J5*%
X10515000Y-103988599D03*
X10515000Y-86188599D03*
D18*
X5475000Y-99288599D03*
D19*
X5475000Y-95088599D03*
X5475000Y-90888599D03*
X10975000Y-99288599D03*
X10975000Y-95088599D03*
X10975000Y-90888599D03*
%TD*%
D10*
%TO.C,D3*%
X3875000Y-25648600D03*
D11*
X6415000Y-25648600D03*
%TD*%
D20*
%TO.C,F2*%
X6425000Y-52998599D03*
X11525000Y-52998599D03*
%TD*%
D21*
%TO.C,SW1A*%
X17845000Y-46078600D03*
D22*
X17845000Y-48618600D03*
%TD*%
D12*
%TO.C,R3*%
X16105000Y-30408600D03*
X18645000Y-30408600D03*
%TD*%
D23*
%TO.C,C3*%
X17354292Y-38208600D03*
D20*
X22354292Y-38208600D03*
%TD*%
D12*
%TO.C,R1*%
X4225000Y-30408600D03*
X6765000Y-30408600D03*
%TD*%
D17*
%TO.C,J6*%
X23365000Y-103988599D03*
X23365000Y-86188599D03*
D18*
X18325000Y-99288599D03*
D19*
X18325000Y-95088599D03*
X18325000Y-90888599D03*
X23825000Y-99288599D03*
X23825000Y-95088599D03*
X23825000Y-90888599D03*
%TD*%
D12*
%TO.C,C6*%
X11725000Y-81638600D03*
X16725000Y-81638600D03*
%TD*%
D20*
%TO.C,F1*%
X6425000Y-46058600D03*
X11525000Y-46058600D03*
%TD*%
D24*
%TO.C,J3*%
X7245000Y-21128600D03*
D25*
X9745000Y-21128600D03*
X11745000Y-21128600D03*
X14245000Y-21128600D03*
D26*
X4175000Y-20528600D03*
D27*
X10745000Y-16348600D03*
D26*
X17315000Y-20528600D03*
%TD*%
D12*
%TO.C,C2*%
X3775000Y-66238600D03*
X8775000Y-66238600D03*
%TD*%
D10*
%TO.C,D4*%
X9565000Y-25648600D03*
D11*
X12105000Y-25648600D03*
%TD*%
D23*
%TO.C,C1*%
X5739646Y-38208600D03*
D20*
X10739646Y-38208600D03*
%TD*%
D21*
%TO.C,SW1B*%
X17845000Y-53018600D03*
D22*
X17845000Y-55558600D03*
%TD*%
D13*
%TO.C,D1*%
X5575000Y-61038599D03*
D14*
X10655000Y-61038599D03*
%TD*%
D12*
%TO.C,C5*%
X3775000Y-81638600D03*
X8775000Y-81638600D03*
%TD*%
D23*
%TO.C,C7*%
X5739646Y-74038600D03*
D20*
X10739646Y-74038600D03*
%TD*%
M02*
