M48
; DRILL file KiCad 10.0.4 date 2026-08-03T16:17:01
; FORMAT={-:-/ absolute / metric / decimal}
; #@! TF.CreationDate,2026-08-03T16:17:01-04:00
; #@! TF.GenerationSoftware,Kicad,Pcbnew,10.0.4
; #@! TF.FileFunction,MixedPlating,1,2
FMAT,2
METRIC
; #@! TA.AperFunction,Plated,PTH,ViaDrill
T1C0.500
; #@! TA.AperFunction,Plated,PTH,ComponentDrill
T2C0.800
; #@! TA.AperFunction,Plated,PTH,ComponentDrill
T3C0.900
; #@! TA.AperFunction,Plated,PTH,ComponentDrill
T4C1.000
; #@! TA.AperFunction,Plated,PTH,ComponentDrill
T5C1.300
; #@! TA.AperFunction,Plated,PTH,ComponentDrill
T6C1.400
; #@! TA.AperFunction,Plated,PTH,ComponentDrill
T7C1.575
; #@! TA.AperFunction,Plated,PTH,ComponentDrill
T8C1.600
; #@! TA.AperFunction,NonPlated,NPTH,ComponentDrill
T9C3.000
%
G90
G05
T1
X2.0Y-84.4
X19.0Y-32.6
X19.4Y-22.2
T2
X3.775Y-66.239
X3.775Y-81.639
X4.225Y-30.409
X6.765Y-30.409
X8.775Y-66.239
X8.775Y-81.639
X10.165Y-30.409
X11.725Y-66.239
X11.725Y-81.639
X12.705Y-30.409
X16.105Y-30.409
X16.725Y-66.239
X16.725Y-81.639
X18.645Y-30.409
T3
X3.875Y-25.649
X6.415Y-25.649
X7.245Y-21.129
X9.565Y-25.649
X9.745Y-21.129
X11.745Y-21.129
X12.105Y-25.649
X14.245Y-21.129
X15.255Y-25.649
X17.795Y-25.649
T4
X5.74Y-38.209
X5.74Y-74.039
X6.425Y-46.059
X6.425Y-52.999
X10.74Y-38.209
X10.74Y-74.039
X11.525Y-46.059
X11.525Y-52.999
X17.25Y-74.229
X17.354Y-38.209
X17.845Y-46.079
X17.845Y-48.619
X17.845Y-53.019
X17.845Y-55.559
X19.79Y-74.229
X22.33Y-74.229
X22.354Y-38.209
T6
X5.475Y-90.889
X5.475Y-95.089
X5.475Y-99.289
X10.975Y-90.889
X10.975Y-95.089
X10.975Y-99.289
X18.325Y-90.889
X18.325Y-95.089
X18.325Y-99.289
X23.825Y-90.889
X23.825Y-95.089
X23.825Y-99.289
T7
X4.677Y-8.287
X8.487Y-4.324
X12.449Y-9.303
X17.264Y-8.287
X21.074Y-4.324
X25.036Y-9.303
T8
X5.575Y-61.039
X10.655Y-61.039
X16.205Y-61.039
X21.285Y-61.039
T9
X10.515Y-86.189
X10.515Y-103.989
X23.365Y-86.189
X23.365Y-103.989
T5
X4.175Y-21.029G85X4.175Y-20.029
G05
X10.245Y-16.349G85X11.245Y-16.349
G05
X17.315Y-20.029G85X17.315Y-21.029
G05
M30
