%TF.GenerationSoftware,KiCad,Pcbnew,10.0.4*%
%TF.CreationDate,2026-08-03T16:17:01-04:00*%
%TF.ProjectId,eurorack-psu-twobrick,6575726f-7261-4636-9b2d-7073752d7477,rev?*%
%TF.SameCoordinates,Original*%
%TF.FileFunction,Copper,L1,Top*%
%TF.FilePolarity,Positive*%
%FSLAX46Y46*%
G04 Gerber Fmt 4.6, Leading zero omitted, Abs format (unit mm)*
G04 Created by KiCad (PCBNEW 10.0.4) date 2026-08-03 16:17:01*
%MOMM*%
%LPD*%
G01*
G04 APERTURE LIST*
G04 Aperture macros list*
%AMRoundRect*
0 Rectangle with rounded corners*
0 $1 Rounding radius*
0 $2 $3 $4 $5 $6 $7 $8 $9 X,Y pos of 4 corners*
0 Add a 4 corners polygon primitive as box body*
4,1,4,$2,$3,$4,$5,$6,$7,$8,$9,$2,$3,0*
0 Add four circle primitives for the rounded corners*
1,1,$1+$1,$2,$3*
1,1,$1+$1,$4,$5*
1,1,$1+$1,$6,$7*
1,1,$1+$1,$8,$9*
0 Add four rect primitives between the rounded corners*
20,1,$1+$1,$2,$3,$4,$5,0*
20,1,$1+$1,$4,$5,$6,$7,0*
20,1,$1+$1,$6,$7,$8,$9,0*
20,1,$1+$1,$8,$9,$2,$3,0*%
G04 Aperture macros list end*
%TA.AperFunction,ComponentPad*%
%ADD10R,1.800000X1.800000*%
%TD*%
%TA.AperFunction,ComponentPad*%
%ADD11C,1.800000*%
%TD*%
%TA.AperFunction,ComponentPad*%
%ADD12C,1.600000*%
%TD*%
%TA.AperFunction,ComponentPad*%
%ADD13RoundRect,0.250000X-1.350000X-1.350000X1.350000X-1.350000X1.350000X1.350000X-1.350000X1.350000X0*%
%TD*%
%TA.AperFunction,ComponentPad*%
%ADD14C,3.200000*%
%TD*%
%TA.AperFunction,ComponentPad*%
%ADD15RoundRect,0.236220X-0.944880X-0.944880X0.944880X-0.944880X0.944880X0.944880X-0.944880X0.944880X0*%
%TD*%
%TA.AperFunction,ComponentPad*%
%ADD16C,2.362200*%
%TD*%
%TA.AperFunction,ComponentPad*%
%ADD17RoundRect,0.250001X1.399999X-1.099999X1.399999X1.099999X-1.399999X1.099999X-1.399999X-1.099999X0*%
%TD*%
%TA.AperFunction,ComponentPad*%
%ADD18O,3.300000X2.700000*%
%TD*%
%TA.AperFunction,ComponentPad*%
%ADD19C,2.000000*%
%TD*%
%TA.AperFunction,ComponentPad*%
%ADD20R,1.700000X1.700000*%
%TD*%
%TA.AperFunction,ComponentPad*%
%ADD21C,1.700000*%
%TD*%
%TA.AperFunction,ComponentPad*%
%ADD22RoundRect,0.250000X-0.750000X-0.750000X0.750000X-0.750000X0.750000X0.750000X-0.750000X0.750000X0*%
%TD*%
%TA.AperFunction,ComponentPad*%
%ADD23RoundRect,0.250000X-0.400000X-0.400000X0.400000X-0.400000X0.400000X0.400000X-0.400000X0.400000X0*%
%TD*%
%TA.AperFunction,ComponentPad*%
%ADD24C,1.300000*%
%TD*%
%TA.AperFunction,ComponentPad*%
%ADD25O,1.900000X2.900000*%
%TD*%
%TA.AperFunction,ComponentPad*%
%ADD26O,2.900000X1.900000*%
%TD*%
%TA.AperFunction,ViaPad*%
%ADD27C,1.000000*%
%TD*%
%TA.AperFunction,Conductor*%
%ADD28C,2.000000*%
%TD*%
%TA.AperFunction,Conductor*%
%ADD29C,1.000000*%
%TD*%
%TA.AperFunction,Conductor*%
%ADD30C,0.600000*%
%TD*%
%TA.AperFunction,Conductor*%
%ADD31C,1.500000*%
%TD*%
G04 APERTURE END LIST*
D10*
%TO.P,VR1,1*%
%TO.N,+12V*%
X17249646Y-74228600D03*
D11*
%TO.P,VR1,2*%
%TO.N,GND*%
X19789646Y-74228600D03*
%TO.P,VR1,3*%
%TO.N,+5V*%
X22329646Y-74228600D03*
%TD*%
D12*
%TO.P,R2,1*%
%TO.N,GND*%
X10165000Y-30408600D03*
%TO.P,R2,2*%
%TO.N,N_L2*%
X12705000Y-30408600D03*
%TD*%
%TO.P,C4,1*%
%TO.N,GND*%
X11725000Y-66238600D03*
%TO.P,C4,2*%
%TO.N,-12V*%
X16725000Y-66238600D03*
%TD*%
D13*
%TO.P,D2,1*%
%TO.N,GND*%
X16205000Y-61038599D03*
D14*
%TO.P,D2,2*%
%TO.N,N_SB*%
X21285000Y-61038599D03*
%TD*%
D15*
%TO.P,J1,1*%
%TO.N,VIN_A*%
X12449200Y-9302799D03*
D16*
%TO.P,J1,2*%
%TO.N,GND*%
X4676800Y-8286799D03*
X8486800Y-4324399D03*
%TD*%
D10*
%TO.P,D5,1*%
%TO.N,GND*%
X15255000Y-25648600D03*
D11*
%TO.P,D5,2*%
%TO.N,N_L3*%
X17795000Y-25648600D03*
%TD*%
D15*
%TO.P,J2,1*%
%TO.N,VIN_B*%
X25036000Y-9302799D03*
D16*
%TO.P,J2,2*%
%TO.N,-12V*%
X17263600Y-8286799D03*
X21073600Y-4324399D03*
%TD*%
D17*
%TO.P,J5,1*%
%TO.N,-12V*%
X5475000Y-99288599D03*
D18*
%TO.P,J5,2*%
%TO.N,GND*%
X5475000Y-95088599D03*
%TO.P,J5,3*%
%TO.N,+5V*%
X5475000Y-90888599D03*
%TO.P,J5,4*%
%TO.N,GND*%
X10975000Y-99288599D03*
%TO.P,J5,5*%
X10975000Y-95088599D03*
%TO.P,J5,6*%
%TO.N,+12V*%
X10975000Y-90888599D03*
%TD*%
D10*
%TO.P,D3,1*%
%TO.N,GND*%
X3875000Y-25648600D03*
D11*
%TO.P,D3,2*%
%TO.N,N_L1*%
X6415000Y-25648600D03*
%TD*%
D19*
%TO.P,F2,1*%
%TO.N,VIN_B*%
X6425000Y-52998599D03*
%TO.P,F2,2*%
%TO.N,N_FB*%
X11525000Y-52998599D03*
%TD*%
D20*
%TO.P,SW1A,1*%
%TO.N,N_FA*%
X17845000Y-46078600D03*
D21*
%TO.P,SW1A,2*%
%TO.N,N_SA*%
X17845000Y-48618600D03*
%TD*%
D12*
%TO.P,R3,1*%
%TO.N,+5V*%
X16105000Y-30408600D03*
%TO.P,R3,2*%
%TO.N,N_L3*%
X18645000Y-30408600D03*
%TD*%
D22*
%TO.P,C3,1*%
%TO.N,GND*%
X17354292Y-38208600D03*
D19*
%TO.P,C3,2*%
%TO.N,-12V*%
X22354292Y-38208600D03*
%TD*%
D12*
%TO.P,R1,1*%
%TO.N,+12V*%
X4225000Y-30408600D03*
%TO.P,R1,2*%
%TO.N,N_L1*%
X6765000Y-30408600D03*
%TD*%
D17*
%TO.P,J6,1*%
%TO.N,-12V*%
X18325000Y-99288599D03*
D18*
%TO.P,J6,2*%
%TO.N,GND*%
X18325000Y-95088599D03*
%TO.P,J6,3*%
%TO.N,+5V*%
X18325000Y-90888599D03*
%TO.P,J6,4*%
%TO.N,GND*%
X23825000Y-99288599D03*
%TO.P,J6,5*%
X23825000Y-95088599D03*
%TO.P,J6,6*%
%TO.N,+12V*%
X23825000Y-90888599D03*
%TD*%
D12*
%TO.P,C6,1*%
%TO.N,+5V*%
X11725000Y-81638600D03*
%TO.P,C6,2*%
%TO.N,GND*%
X16725000Y-81638600D03*
%TD*%
D19*
%TO.P,F1,1*%
%TO.N,VIN_A*%
X6425000Y-46058600D03*
%TO.P,F1,2*%
%TO.N,N_FA*%
X11525000Y-46058600D03*
%TD*%
D23*
%TO.P,J3,1*%
%TO.N,+5V*%
X7245000Y-21128600D03*
D24*
%TO.P,J3,2*%
%TO.N,USB_DP*%
X9745000Y-21128600D03*
%TO.P,J3,3*%
X11745000Y-21128600D03*
%TO.P,J3,4*%
%TO.N,GND*%
X14245000Y-21128600D03*
D25*
%TO.P,J3,SH*%
X4175000Y-20528600D03*
D26*
X10745000Y-16348600D03*
D25*
X17315000Y-20528600D03*
%TD*%
D12*
%TO.P,C2,1*%
%TO.N,+12V*%
X3775000Y-66238600D03*
%TO.P,C2,2*%
%TO.N,GND*%
X8775000Y-66238600D03*
%TD*%
D10*
%TO.P,D4,1*%
%TO.N,-12V*%
X9565000Y-25648600D03*
D11*
%TO.P,D4,2*%
%TO.N,N_L2*%
X12105000Y-25648600D03*
%TD*%
D22*
%TO.P,C1,1*%
%TO.N,+12V*%
X5739646Y-38208600D03*
D19*
%TO.P,C1,2*%
%TO.N,GND*%
X10739646Y-38208600D03*
%TD*%
D20*
%TO.P,SW1B,1*%
%TO.N,N_FB*%
X17845000Y-53018600D03*
D21*
%TO.P,SW1B,2*%
%TO.N,N_SB*%
X17845000Y-55558600D03*
%TD*%
D13*
%TO.P,D1,1*%
%TO.N,+12V*%
X5575000Y-61038599D03*
D14*
%TO.P,D1,2*%
%TO.N,N_SA*%
X10655000Y-61038599D03*
%TD*%
D12*
%TO.P,C5,1*%
%TO.N,+12V*%
X3775000Y-81638600D03*
%TO.P,C5,2*%
%TO.N,GND*%
X8775000Y-81638600D03*
%TD*%
D22*
%TO.P,C7,1*%
%TO.N,+5V*%
X5739646Y-74038600D03*
D19*
%TO.P,C7,2*%
%TO.N,GND*%
X10739646Y-74038600D03*
%TD*%
D27*
%TO.N,+5V*%
X2000000Y-84400000D03*
%TO.N,N_L3*%
X19400000Y-22200000D03*
%TO.N,VIN_B*%
X19000000Y-32600000D03*
%TD*%
%TO.N,+12V*%
D28*
X13200000Y-89400000D02*
X12800000Y-89400000D01*
X4600000Y-80800000D02*
X8800000Y-76600000D01*
X26200000Y-83200000D02*
X26400000Y-83400000D01*
X3800000Y-65400000D02*
X3775000Y-66238600D01*
X3800000Y-62800000D02*
X5575000Y-61038599D01*
X26400000Y-83400000D02*
X26400000Y-89000000D01*
X2800000Y-67200000D02*
X2800000Y-80800000D01*
X2800000Y-67200000D02*
X3775000Y-66238600D01*
X25600000Y-89400000D02*
X23825000Y-90888599D01*
X26000000Y-89400000D02*
X25600000Y-89400000D01*
X14000000Y-88600000D02*
X13200000Y-89400000D01*
X4400000Y-31400000D02*
X4225000Y-30408600D01*
X4600000Y-37200000D02*
X5739646Y-38208600D01*
X14800000Y-76600000D02*
X16200000Y-75200000D01*
X8800000Y-76600000D02*
X14800000Y-76600000D01*
X14000000Y-84000000D02*
X19800000Y-84000000D01*
X4600000Y-39400000D02*
X5739646Y-38208600D01*
X19800000Y-84000000D02*
X20600000Y-83200000D01*
X4600000Y-80800000D02*
X3775000Y-81638600D01*
X14000000Y-76600000D02*
X14000000Y-88600000D01*
X20600000Y-83200000D02*
X26200000Y-83200000D01*
X4600000Y-39400000D02*
X3800000Y-40200000D01*
X3800000Y-59400000D02*
X5575000Y-61038599D01*
X3800000Y-62800000D02*
X3800000Y-65400000D01*
X4400000Y-37000000D02*
X4600000Y-37200000D01*
X12800000Y-89400000D02*
X10975000Y-90888599D01*
X4400000Y-31400000D02*
X4400000Y-37000000D01*
X16200000Y-75200000D02*
X17249646Y-74228600D01*
X26400000Y-89000000D02*
X26000000Y-89400000D01*
X2800000Y-80800000D02*
X3775000Y-81638600D01*
X3800000Y-40200000D02*
X3800000Y-59400000D01*
%TO.N,+5V*%
D29*
X2000000Y-84400000D02*
X3800000Y-86200000D01*
X21400000Y-72000000D02*
X7800000Y-72000000D01*
X6800000Y-73000000D02*
X5739646Y-74038600D01*
X6600000Y-83400000D02*
X10400000Y-83400000D01*
X3800000Y-86200000D02*
X6600000Y-83400000D01*
X10400000Y-83400000D02*
X10800000Y-83000000D01*
X10800000Y-82600000D02*
X11725000Y-81638600D01*
X3800000Y-89400000D02*
X5475000Y-90888599D01*
X10800000Y-83000000D02*
X10800000Y-82600000D01*
X3800000Y-86200000D02*
X3800000Y-89400000D01*
X21800000Y-73200000D02*
X22329646Y-74228600D01*
X21800000Y-72400000D02*
X21400000Y-72000000D01*
X7800000Y-72000000D02*
X6800000Y-73000000D01*
X21800000Y-73200000D02*
X21800000Y-72400000D01*
%TO.N,-12V*%
D28*
X23400000Y-39400000D02*
X22354292Y-38208600D01*
X21200000Y-37200000D02*
X22354292Y-38208600D01*
X9800000Y-28000000D02*
X9600000Y-27800000D01*
X9600000Y-27800000D02*
X9600000Y-26600000D01*
X21200000Y-28000000D02*
X9800000Y-28000000D01*
X23000000Y-65400000D02*
X17600000Y-65400000D01*
X24400000Y-64000000D02*
X23000000Y-65400000D01*
X17600000Y-65400000D02*
X16725000Y-66238600D01*
X18600000Y-9600000D02*
X17263600Y-8286799D01*
X23400000Y-39400000D02*
X24400000Y-40400000D01*
X9600000Y-26600000D02*
X9565000Y-25648600D01*
X21200000Y-12200000D02*
X21200000Y-37200000D01*
X18600000Y-9600000D02*
X21200000Y-12200000D01*
X24400000Y-40400000D02*
X24400000Y-64000000D01*
%TO.N,N_SB*%
X18800000Y-56600000D02*
X19600000Y-57400000D01*
X18800000Y-56600000D02*
X17845000Y-55558600D01*
X19600000Y-57400000D02*
X19600000Y-59400000D01*
X19600000Y-59400000D02*
X21285000Y-61038599D01*
%TO.N,N_L3*%
D30*
X19400000Y-24000000D02*
X19400000Y-22200000D01*
X18800000Y-24600000D02*
X17795000Y-25648600D01*
X18800000Y-24600000D02*
X19400000Y-24000000D01*
%TO.N,VIN_B*%
D31*
X9400000Y-43800000D02*
X8800000Y-44400000D01*
X8800000Y-50600000D02*
X7600000Y-51800000D01*
X13000000Y-40400000D02*
X9600000Y-43800000D01*
X18600000Y-32600000D02*
X13000000Y-38200000D01*
X13000000Y-38200000D02*
X13000000Y-40400000D01*
X19000000Y-32600000D02*
X18600000Y-32600000D01*
X8800000Y-44400000D02*
X8800000Y-50600000D01*
X9600000Y-43800000D02*
X9400000Y-43800000D01*
X7600000Y-51800000D02*
X6425000Y-52998599D01*
%TO.N,N_L1*%
D29*
X6400000Y-26600000D02*
X6400000Y-29600000D01*
X6400000Y-26600000D02*
X6415000Y-25648600D01*
X6400000Y-29600000D02*
X6765000Y-30408600D01*
%TO.N,N_FB*%
D28*
X12600000Y-52000000D02*
X11525000Y-52998599D01*
X16800000Y-52000000D02*
X17845000Y-53018600D01*
X12600000Y-52000000D02*
X16800000Y-52000000D01*
%TO.N,N_FA*%
X16800000Y-45200000D02*
X17845000Y-46078600D01*
X12600000Y-45200000D02*
X11525000Y-46058600D01*
X12600000Y-45200000D02*
X16800000Y-45200000D01*
%TO.N,USB_DP*%
D30*
X10400000Y-20400000D02*
X11000000Y-20400000D01*
X10400000Y-20400000D02*
X9745000Y-21128600D01*
X11000000Y-20400000D02*
X11745000Y-21128600D01*
%TD*%
%TA.AperFunction,Conductor*%
%TO.N,GND*%
G36*
X16325000Y-81691261D02*
G01*
X16352259Y-81792994D01*
X16404920Y-81884206D01*
X16479394Y-81958680D01*
X16570606Y-82011341D01*
X16672339Y-82038600D01*
X16678553Y-82038600D01*
X16003970Y-82713181D01*
X15942647Y-82746666D01*
X15916289Y-82749500D01*
X15374500Y-82749500D01*
X15307461Y-82729815D01*
X15261706Y-82677011D01*
X15250500Y-82625500D01*
X15250500Y-82090349D01*
X15270185Y-82023310D01*
X15322989Y-81977555D01*
X15392147Y-81967611D01*
X15455703Y-81996636D01*
X15492431Y-82052030D01*
X15520244Y-82137631D01*
X15613141Y-82319950D01*
X15613147Y-82319959D01*
X15645523Y-82364521D01*
X15645524Y-82364522D01*
X16325000Y-81685046D01*
X16325000Y-81691261D01*
G37*
%TD.AperFunction*%
%TA.AperFunction,Conductor*%
G36*
X17063712Y-72770185D02*
G01*
X17109467Y-72822989D01*
X17119411Y-72892147D01*
X17090386Y-72955703D01*
X17031608Y-72993477D01*
X17011318Y-72997632D01*
X17004227Y-72998475D01*
X16814822Y-73052010D01*
X16814817Y-73052011D01*
X16814813Y-73052013D01*
X16814808Y-73052014D01*
X16814806Y-73052016D01*
X16783046Y-73066680D01*
X16731068Y-73078100D01*
X16324969Y-73078100D01*
X16251910Y-73092632D01*
X16251906Y-73092633D01*
X16169045Y-73147999D01*
X16113679Y-73230860D01*
X16113678Y-73230864D01*
X16099146Y-73303921D01*
X16099146Y-73535304D01*
X16079461Y-73602343D01*
X16059370Y-73626312D01*
X15410415Y-74226891D01*
X15405020Y-74231882D01*
X15385354Y-74246172D01*
X15332865Y-74298659D01*
X15331108Y-74300286D01*
X15278401Y-74349065D01*
X15267901Y-74362398D01*
X15258165Y-74373359D01*
X14318345Y-75313181D01*
X14257022Y-75346666D01*
X14230664Y-75349500D01*
X11735949Y-75349500D01*
X11668910Y-75329815D01*
X11623155Y-75277011D01*
X11622865Y-75275372D01*
X10869054Y-74521562D01*
X10932639Y-74504525D01*
X11046653Y-74438699D01*
X11139745Y-74345607D01*
X11205571Y-74231593D01*
X11222608Y-74168009D01*
X11962304Y-74907705D01*
X11962304Y-74907704D01*
X12022560Y-74824769D01*
X12022564Y-74824763D01*
X12129748Y-74614402D01*
X12202711Y-74389847D01*
X12239646Y-74156652D01*
X12239646Y-73920547D01*
X12202711Y-73687352D01*
X12129748Y-73462797D01*
X12022560Y-73252428D01*
X11962304Y-73169494D01*
X11962304Y-73169493D01*
X11222608Y-73909190D01*
X11205571Y-73845607D01*
X11139745Y-73731593D01*
X11046653Y-73638501D01*
X10932639Y-73572675D01*
X10869055Y-73555637D01*
X11637873Y-72786819D01*
X11699196Y-72753334D01*
X11725554Y-72750500D01*
X16996673Y-72750500D01*
X17063712Y-72770185D01*
G37*
%TD.AperFunction*%
%TA.AperFunction,Conductor*%
G36*
X19157358Y-72770185D02*
G01*
X19203113Y-72822989D01*
X19213057Y-72892147D01*
X19184032Y-72955703D01*
X19146614Y-72984985D01*
X19055879Y-73031216D01*
X18992131Y-73077531D01*
X18992131Y-73077532D01*
X19660236Y-73745637D01*
X19596653Y-73762675D01*
X19482639Y-73828501D01*
X19389547Y-73921593D01*
X19323721Y-74035607D01*
X19306683Y-74099190D01*
X18638578Y-73431085D01*
X18638577Y-73431085D01*
X18624465Y-73450510D01*
X18569136Y-73493177D01*
X18499522Y-73499157D01*
X18437727Y-73466551D01*
X18403369Y-73405713D01*
X18400146Y-73377626D01*
X18400146Y-73303923D01*
X18400145Y-73303921D01*
X18385613Y-73230864D01*
X18385612Y-73230860D01*
X18330247Y-73147999D01*
X18247386Y-73092634D01*
X18247385Y-73092633D01*
X18247381Y-73092632D01*
X18174323Y-73078100D01*
X18174320Y-73078100D01*
X17766236Y-73078100D01*
X17723384Y-73070460D01*
X17589436Y-73021131D01*
X17589438Y-73021131D01*
X17463368Y-72996131D01*
X17401439Y-72963782D01*
X17366829Y-72903087D01*
X17370528Y-72833315D01*
X17411362Y-72776619D01*
X17476365Y-72751000D01*
X17487489Y-72750500D01*
X19090319Y-72750500D01*
X19157358Y-72770185D01*
G37*
%TD.AperFunction*%
%TA.AperFunction,Conductor*%
G36*
X20992539Y-72770185D02*
G01*
X21038294Y-72822989D01*
X21049500Y-72874500D01*
X21049500Y-73157352D01*
X21045958Y-73188415D01*
X21049500Y-73231087D01*
X21049500Y-73273920D01*
X21051033Y-73281629D01*
X21044801Y-73351220D01*
X21001934Y-73406394D01*
X20945496Y-73426300D01*
X20272608Y-74099189D01*
X20255571Y-74035607D01*
X20189745Y-73921593D01*
X20096653Y-73828501D01*
X19982639Y-73762675D01*
X19919053Y-73745637D01*
X20587159Y-73077532D01*
X20523402Y-73031211D01*
X20432679Y-72984985D01*
X20381883Y-72937010D01*
X20365088Y-72869189D01*
X20387626Y-72803054D01*
X20442341Y-72759603D01*
X20488974Y-72750500D01*
X20925500Y-72750500D01*
X20992539Y-72770185D01*
G37*
%TD.AperFunction*%
%TA.AperFunction,Conductor*%
G36*
X12205635Y-29270185D02*
G01*
X12251390Y-29322989D01*
X12261334Y-29392147D01*
X12232309Y-29455703D01*
X12207486Y-29477602D01*
X12035349Y-29592619D01*
X12035341Y-29592625D01*
X11889024Y-29738942D01*
X11774058Y-29911003D01*
X11694870Y-30102179D01*
X11694868Y-30102184D01*
X11684366Y-30154983D01*
X11651980Y-30216893D01*
X11591264Y-30251467D01*
X11521495Y-30247726D01*
X11464823Y-30206859D01*
X11440275Y-30150186D01*
X11432988Y-30104177D01*
X11369755Y-29909568D01*
X11276859Y-29727250D01*
X11244474Y-29682677D01*
X11244474Y-29682676D01*
X10565000Y-30362151D01*
X10565000Y-30355939D01*
X10537741Y-30254206D01*
X10485080Y-30162994D01*
X10410606Y-30088520D01*
X10319394Y-30035859D01*
X10217661Y-30008600D01*
X10211446Y-30008600D01*
X10931344Y-29288703D01*
X10933883Y-29291242D01*
X10958690Y-29266086D01*
X11018877Y-29250500D01*
X12138596Y-29250500D01*
X12205635Y-29270185D01*
G37*
%TD.AperFunction*%
%TA.AperFunction,Conductor*%
G36*
X29873039Y-569685D02*
G01*
X29918794Y-622489D01*
X29930000Y-674000D01*
X29930000Y-107836000D01*
X29910315Y-107903039D01*
X29857511Y-107948794D01*
X29806000Y-107960000D01*
X674000Y-107960000D01*
X606961Y-107940315D01*
X561206Y-107887511D01*
X550000Y-107836000D01*
X550000Y-103873857D01*
X8764500Y-103873857D01*
X8764500Y-104103340D01*
X8789446Y-104292814D01*
X8794452Y-104330837D01*
X8794453Y-104330839D01*
X8853842Y-104552486D01*
X8941650Y-104764475D01*
X8941657Y-104764489D01*
X9056392Y-104963216D01*
X9196081Y-105145260D01*
X9196089Y-105145269D01*
X9358330Y-105307510D01*
X9358338Y-105307517D01*
X9540382Y-105447206D01*
X9540385Y-105447207D01*
X9540388Y-105447210D01*
X9739112Y-105561943D01*
X9739117Y-105561945D01*
X9739123Y-105561948D01*
X9830480Y-105599789D01*
X9951113Y-105649757D01*
X10172762Y-105709147D01*
X10400266Y-105739099D01*
X10400273Y-105739099D01*
X10629727Y-105739099D01*
X10629734Y-105739099D01*
X10857238Y-105709147D01*
X11078887Y-105649757D01*
X11290888Y-105561943D01*
X11489612Y-105447210D01*
X11671661Y-105307518D01*
X11671665Y-105307513D01*
X11671670Y-105307510D01*
X11833911Y-105145269D01*
X11833914Y-105145264D01*
X11833919Y-105145260D01*
X11973611Y-104963211D01*
X12088344Y-104764487D01*
X12176158Y-104552486D01*
X12235548Y-104330837D01*
X12265500Y-104103333D01*
X12265500Y-103873865D01*
X12265499Y-103873857D01*
X21614500Y-103873857D01*
X21614500Y-104103340D01*
X21639446Y-104292814D01*
X21644452Y-104330837D01*
X21644453Y-104330839D01*
X21703842Y-104552486D01*
X21791650Y-104764475D01*
X21791657Y-104764489D01*
X21906392Y-104963216D01*
X22046081Y-105145260D01*
X22046089Y-105145269D01*
X22208330Y-105307510D01*
X22208338Y-105307517D01*
X22390382Y-105447206D01*
X22390385Y-105447207D01*
X22390388Y-105447210D01*
X22589112Y-105561943D01*
X22589117Y-105561945D01*
X22589123Y-105561948D01*
X22680480Y-105599789D01*
X22801113Y-105649757D01*
X23022762Y-105709147D01*
X23250266Y-105739099D01*
X23250273Y-105739099D01*
X23479727Y-105739099D01*
X23479734Y-105739099D01*
X23707238Y-105709147D01*
X23928887Y-105649757D01*
X24140888Y-105561943D01*
X24339612Y-105447210D01*
X24521661Y-105307518D01*
X24521665Y-105307513D01*
X24521670Y-105307510D01*
X24683911Y-105145269D01*
X24683914Y-105145264D01*
X24683919Y-105145260D01*
X24823611Y-104963211D01*
X24938344Y-104764487D01*
X25026158Y-104552486D01*
X25085548Y-104330837D01*
X25115500Y-104103333D01*
X25115500Y-103873865D01*
X25085548Y-103646361D01*
X25026158Y-103424712D01*
X24938344Y-103212711D01*
X24823611Y-103013987D01*
X24823608Y-103013984D01*
X24823607Y-103013981D01*
X24683918Y-102831937D01*
X24683911Y-102831929D01*
X24521670Y-102669688D01*
X24521661Y-102669680D01*
X24339617Y-102529991D01*
X24140890Y-102415256D01*
X24140876Y-102415249D01*
X23928887Y-102327441D01*
X23707238Y-102268051D01*
X23669215Y-102263045D01*
X23479741Y-102238099D01*
X23479734Y-102238099D01*
X23250266Y-102238099D01*
X23250258Y-102238099D01*
X23033715Y-102266608D01*
X23022762Y-102268051D01*
X22929076Y-102293153D01*
X22801112Y-102327441D01*
X22589123Y-102415249D01*
X22589109Y-102415256D01*
X22390382Y-102529991D01*
X22208338Y-102669680D01*
X22046081Y-102831937D01*
X21906392Y-103013981D01*
X21791657Y-103212708D01*
X21791650Y-103212722D01*
X21703842Y-103424711D01*
X21644453Y-103646358D01*
X21644451Y-103646369D01*
X21614500Y-103873857D01*
X12265499Y-103873857D01*
X12235548Y-103646361D01*
X12176158Y-103424712D01*
X12088344Y-103212711D01*
X11973611Y-103013987D01*
X11973608Y-103013984D01*
X11973607Y-103013981D01*
X11833918Y-102831937D01*
X11833911Y-102831929D01*
X11671670Y-102669688D01*
X11671661Y-102669680D01*
X11489617Y-102529991D01*
X11290890Y-102415256D01*
X11290876Y-102415249D01*
X11078887Y-102327441D01*
X10857238Y-102268051D01*
X10819215Y-102263045D01*
X10629741Y-102238099D01*
X10629734Y-102238099D01*
X10400266Y-102238099D01*
X10400258Y-102238099D01*
X10183715Y-102266608D01*
X10172762Y-102268051D01*
X10079076Y-102293153D01*
X9951112Y-102327441D01*
X9739123Y-102415249D01*
X9739109Y-102415256D01*
X9540382Y-102529991D01*
X9358338Y-102669680D01*
X9196081Y-102831937D01*
X9056392Y-103013981D01*
X8941657Y-103212708D01*
X8941650Y-103212722D01*
X8853842Y-103424711D01*
X8794453Y-103646358D01*
X8794451Y-103646369D01*
X8764500Y-103873857D01*
X550000Y-103873857D01*
X550000Y-98140735D01*
X3574500Y-98140735D01*
X3574500Y-100436462D01*
X3574501Y-100436481D01*
X3580908Y-100496080D01*
X3631202Y-100630926D01*
X3631203Y-100630927D01*
X3631204Y-100630929D01*
X3717454Y-100746145D01*
X3832670Y-100832395D01*
X3832671Y-100832395D01*
X3832672Y-100832396D01*
X3967518Y-100882690D01*
X3967517Y-100882690D01*
X3974445Y-100883434D01*
X4027128Y-100889099D01*
X4027137Y-100889099D01*
X6922863Y-100889099D01*
X6922872Y-100889099D01*
X6982482Y-100882690D01*
X7117330Y-100832395D01*
X7232546Y-100746145D01*
X7318796Y-100630929D01*
X7369091Y-100496081D01*
X7375500Y-100436471D01*
X7375500Y-99038599D01*
X8841950Y-99038599D01*
X10320879Y-99038599D01*
X10301901Y-99084417D01*
X10275000Y-99219655D01*
X10275000Y-99357543D01*
X10301901Y-99492781D01*
X10320879Y-99538599D01*
X8841950Y-99538599D01*
X8856653Y-99650286D01*
X8919421Y-99884538D01*
X9012220Y-100108577D01*
X9012227Y-100108592D01*
X9133480Y-100318608D01*
X9281110Y-100511004D01*
X9281116Y-100511011D01*
X9452587Y-100682482D01*
X9452594Y-100682488D01*
X9644990Y-100830118D01*
X9855006Y-100951371D01*
X9855021Y-100951378D01*
X10079060Y-101044177D01*
X10313312Y-101106945D01*
X10553735Y-101138597D01*
X10553752Y-101138599D01*
X10725000Y-101138599D01*
X10725000Y-99942719D01*
X10770818Y-99961698D01*
X10906056Y-99988599D01*
X11043944Y-99988599D01*
X11179182Y-99961698D01*
X11225000Y-99942719D01*
X11225000Y-101138599D01*
X11396248Y-101138599D01*
X11396264Y-101138597D01*
X11636687Y-101106945D01*
X11870939Y-101044177D01*
X12094978Y-100951378D01*
X12094993Y-100951371D01*
X12305009Y-100830118D01*
X12497405Y-100682488D01*
X12497412Y-100682482D01*
X12668883Y-100511011D01*
X12668889Y-100511004D01*
X12816519Y-100318608D01*
X12937772Y-100108592D01*
X12937779Y-100108577D01*
X13030578Y-99884538D01*
X13093346Y-99650286D01*
X13108050Y-99538599D01*
X11629121Y-99538599D01*
X11648099Y-99492781D01*
X11675000Y-99357543D01*
X11675000Y-99219655D01*
X11648099Y-99084417D01*
X11629121Y-99038599D01*
X13108049Y-99038599D01*
X13093346Y-98926911D01*
X13030578Y-98692659D01*
X12937779Y-98468620D01*
X12937772Y-98468605D01*
X12816519Y-98258589D01*
X12781455Y-98212892D01*
X12726087Y-98140735D01*
X16424500Y-98140735D01*
X16424500Y-100436462D01*
X16424501Y-100436481D01*
X16430908Y-100496080D01*
X16481202Y-100630926D01*
X16481203Y-100630927D01*
X16481204Y-100630929D01*
X16567454Y-100746145D01*
X16682670Y-100832395D01*
X16682671Y-100832395D01*
X16682672Y-100832396D01*
X16817518Y-100882690D01*
X16817517Y-100882690D01*
X16824445Y-100883434D01*
X16877128Y-100889099D01*
X16877137Y-100889099D01*
X19772863Y-100889099D01*
X19772872Y-100889099D01*
X19832482Y-100882690D01*
X19967330Y-100832395D01*
X20082546Y-100746145D01*
X20168796Y-100630929D01*
X20219091Y-100496081D01*
X20225500Y-100436471D01*
X20225500Y-99038599D01*
X21691950Y-99038599D01*
X23170879Y-99038599D01*
X23151901Y-99084417D01*
X23125000Y-99219655D01*
X23125000Y-99357543D01*
X23151901Y-99492781D01*
X23170879Y-99538599D01*
X21691950Y-99538599D01*
X21706653Y-99650286D01*
X21769421Y-99884538D01*
X21862220Y-100108577D01*
X21862227Y-100108592D01*
X21983480Y-100318608D01*
X22131110Y-100511004D01*
X22131116Y-100511011D01*
X22302587Y-100682482D01*
X22302594Y-100682488D01*
X22494990Y-100830118D01*
X22705006Y-100951371D01*
X22705021Y-100951378D01*
X22929060Y-101044177D01*
X23163312Y-101106945D01*
X23403735Y-101138597D01*
X23403752Y-101138599D01*
X23575000Y-101138599D01*
X23575000Y-99942719D01*
X23620818Y-99961698D01*
X23756056Y-99988599D01*
X23893944Y-99988599D01*
X24029182Y-99961698D01*
X24075000Y-99942719D01*
X24075000Y-101138599D01*
X24246248Y-101138599D01*
X24246264Y-101138597D01*
X24486687Y-101106945D01*
X24720939Y-101044177D01*
X24944978Y-100951378D01*
X24944993Y-100951371D01*
X25155009Y-100830118D01*
X25347405Y-100682488D01*
X25347412Y-100682482D01*
X25518883Y-100511011D01*
X25518889Y-100511004D01*
X25666519Y-100318608D01*
X25787772Y-100108592D01*
X25787779Y-100108577D01*
X25880578Y-99884538D01*
X25943346Y-99650286D01*
X25958050Y-99538599D01*
X24479121Y-99538599D01*
X24498099Y-99492781D01*
X24525000Y-99357543D01*
X24525000Y-99219655D01*
X24498099Y-99084417D01*
X24479121Y-99038599D01*
X25958049Y-99038599D01*
X25943346Y-98926911D01*
X25880578Y-98692659D01*
X25787779Y-98468620D01*
X25787772Y-98468605D01*
X25666519Y-98258589D01*
X25518889Y-98066193D01*
X25518883Y-98066186D01*
X25347412Y-97894715D01*
X25347405Y-97894709D01*
X25155009Y-97747079D01*
X24944993Y-97625826D01*
X24944978Y-97625819D01*
X24720939Y-97533020D01*
X24486687Y-97470252D01*
X24246264Y-97438600D01*
X24246248Y-97438599D01*
X24075000Y-97438599D01*
X24075000Y-98634478D01*
X24029182Y-98615500D01*
X23893944Y-98588599D01*
X23756056Y-98588599D01*
X23620818Y-98615500D01*
X23575000Y-98634478D01*
X23575000Y-97438599D01*
X23403752Y-97438599D01*
X23403735Y-97438600D01*
X23163312Y-97470252D01*
X22929060Y-97533020D01*
X22705021Y-97625819D01*
X22705006Y-97625826D01*
X22494990Y-97747079D01*
X22302594Y-97894709D01*
X22302587Y-97894715D01*
X22131116Y-98066186D01*
X22131110Y-98066193D01*
X21983480Y-98258589D01*
X21862227Y-98468605D01*
X21862220Y-98468620D01*
X21769421Y-98692659D01*
X21706653Y-98926911D01*
X21691950Y-99038599D01*
X20225500Y-99038599D01*
X20225500Y-98140727D01*
X20219091Y-98081117D01*
X20168796Y-97946269D01*
X20082546Y-97831053D01*
X19967330Y-97744803D01*
X19967328Y-97744802D01*
X19967327Y-97744801D01*
X19832481Y-97694507D01*
X19832482Y-97694507D01*
X19772882Y-97688100D01*
X19772880Y-97688099D01*
X19772872Y-97688099D01*
X16877128Y-97688099D01*
X16877120Y-97688099D01*
X16877117Y-97688100D01*
X16817518Y-97694507D01*
X16682672Y-97744801D01*
X16682670Y-97744803D01*
X16567454Y-97831053D01*
X16481204Y-97946269D01*
X16481202Y-97946271D01*
X16430908Y-98081117D01*
X16424501Y-98140716D01*
X16424500Y-98140735D01*
X12726087Y-98140735D01*
X12668889Y-98066193D01*
X12668883Y-98066186D01*
X12497412Y-97894715D01*
X12497405Y-97894709D01*
X12305009Y-97747079D01*
X12094993Y-97625826D01*
X12094978Y-97625819D01*
X11870939Y-97533020D01*
X11636687Y-97470252D01*
X11396264Y-97438600D01*
X11396248Y-97438599D01*
X11225000Y-97438599D01*
X11225000Y-98634478D01*
X11179182Y-98615500D01*
X11043944Y-98588599D01*
X10906056Y-98588599D01*
X10770818Y-98615500D01*
X10725000Y-98634478D01*
X10725000Y-97438599D01*
X10553752Y-97438599D01*
X10553735Y-97438600D01*
X10313312Y-97470252D01*
X10079060Y-97533020D01*
X9855021Y-97625819D01*
X9855006Y-97625826D01*
X9644990Y-97747079D01*
X9452594Y-97894709D01*
X9452587Y-97894715D01*
X9281116Y-98066186D01*
X9281110Y-98066193D01*
X9133480Y-98258589D01*
X9012227Y-98468605D01*
X9012220Y-98468620D01*
X8919421Y-98692659D01*
X8856653Y-98926911D01*
X8841950Y-99038599D01*
X7375500Y-99038599D01*
X7375500Y-98140727D01*
X7369091Y-98081117D01*
X7318796Y-97946269D01*
X7232546Y-97831053D01*
X7117330Y-97744803D01*
X7117328Y-97744802D01*
X7117327Y-97744801D01*
X6982481Y-97694507D01*
X6982482Y-97694507D01*
X6922882Y-97688100D01*
X6922880Y-97688099D01*
X6922872Y-97688099D01*
X4027128Y-97688099D01*
X4027120Y-97688099D01*
X4027117Y-97688100D01*
X3967518Y-97694507D01*
X3832672Y-97744801D01*
X3832670Y-97744803D01*
X3717454Y-97831053D01*
X3631204Y-97946269D01*
X3631202Y-97946271D01*
X3580908Y-98081117D01*
X3574501Y-98140716D01*
X3574500Y-98140735D01*
X550000Y-98140735D01*
X550000Y-94838599D01*
X3341950Y-94838599D01*
X4820879Y-94838599D01*
X4801901Y-94884417D01*
X4775000Y-95019655D01*
X4775000Y-95157543D01*
X4801901Y-95292781D01*
X4820879Y-95338599D01*
X3341950Y-95338599D01*
X3356653Y-95450286D01*
X3419421Y-95684538D01*
X3512220Y-95908577D01*
X3512227Y-95908592D01*
X3633480Y-96118608D01*
X3781110Y-96311004D01*
X3781116Y-96311011D01*
X3952587Y-96482482D01*
X3952594Y-96482488D01*
X4144990Y-96630118D01*
X4355006Y-96751371D01*
X4355021Y-96751378D01*
X4579060Y-96844177D01*
X4813312Y-96906945D01*
X5053735Y-96938597D01*
X5053752Y-96938599D01*
X5225000Y-96938599D01*
X5225000Y-95742719D01*
X5270818Y-95761698D01*
X5406056Y-95788599D01*
X5543944Y-95788599D01*
X5679182Y-95761698D01*
X5725000Y-95742719D01*
X5725000Y-96938599D01*
X5896248Y-96938599D01*
X5896264Y-96938597D01*
X6136687Y-96906945D01*
X6370939Y-96844177D01*
X6594978Y-96751378D01*
X6594993Y-96751371D01*
X6805009Y-96630118D01*
X6997405Y-96482488D01*
X6997412Y-96482482D01*
X7168883Y-96311011D01*
X7168889Y-96311004D01*
X7316519Y-96118608D01*
X7437772Y-95908592D01*
X7437779Y-95908577D01*
X7530578Y-95684538D01*
X7593346Y-95450286D01*
X7608050Y-95338599D01*
X6129121Y-95338599D01*
X6148099Y-95292781D01*
X6175000Y-95157543D01*
X6175000Y-95019655D01*
X6148099Y-94884417D01*
X6129121Y-94838599D01*
X7608049Y-94838599D01*
X8841950Y-94838599D01*
X10320879Y-94838599D01*
X10301901Y-94884417D01*
X10275000Y-95019655D01*
X10275000Y-95157543D01*
X10301901Y-95292781D01*
X10320879Y-95338599D01*
X8841950Y-95338599D01*
X8856653Y-95450286D01*
X8919421Y-95684538D01*
X9012220Y-95908577D01*
X9012227Y-95908592D01*
X9133480Y-96118608D01*
X9281110Y-96311004D01*
X9281116Y-96311011D01*
X9452587Y-96482482D01*
X9452594Y-96482488D01*
X9644990Y-96630118D01*
X9855006Y-96751371D01*
X9855021Y-96751378D01*
X10079060Y-96844177D01*
X10313312Y-96906945D01*
X10553735Y-96938597D01*
X10553752Y-96938599D01*
X10725000Y-96938599D01*
X10725000Y-95742719D01*
X10770818Y-95761698D01*
X10906056Y-95788599D01*
X11043944Y-95788599D01*
X11179182Y-95761698D01*
X11225000Y-95742719D01*
X11225000Y-96938599D01*
X11396248Y-96938599D01*
X11396264Y-96938597D01*
X11636687Y-96906945D01*
X11870939Y-96844177D01*
X12094978Y-96751378D01*
X12094993Y-96751371D01*
X12305009Y-96630118D01*
X12497405Y-96482488D01*
X12497412Y-96482482D01*
X12668883Y-96311011D01*
X12668889Y-96311004D01*
X12816519Y-96118608D01*
X12937772Y-95908592D01*
X12937779Y-95908577D01*
X13030578Y-95684538D01*
X13093346Y-95450286D01*
X13108050Y-95338599D01*
X11629121Y-95338599D01*
X11648099Y-95292781D01*
X11675000Y-95157543D01*
X11675000Y-95019655D01*
X11648099Y-94884417D01*
X11629121Y-94838599D01*
X13108049Y-94838599D01*
X16191950Y-94838599D01*
X17670879Y-94838599D01*
X17651901Y-94884417D01*
X17625000Y-95019655D01*
X17625000Y-95157543D01*
X17651901Y-95292781D01*
X17670879Y-95338599D01*
X16191950Y-95338599D01*
X16206653Y-95450286D01*
X16269421Y-95684538D01*
X16362220Y-95908577D01*
X16362227Y-95908592D01*
X16483480Y-96118608D01*
X16631110Y-96311004D01*
X16631116Y-96311011D01*
X16802587Y-96482482D01*
X16802594Y-96482488D01*
X16994990Y-96630118D01*
X17205006Y-96751371D01*
X17205021Y-96751378D01*
X17429060Y-96844177D01*
X17663312Y-96906945D01*
X17903735Y-96938597D01*
X17903752Y-96938599D01*
X18075000Y-96938599D01*
X18075000Y-95742719D01*
X18120818Y-95761698D01*
X18256056Y-95788599D01*
X18393944Y-95788599D01*
X18529182Y-95761698D01*
X18575000Y-95742719D01*
X18575000Y-96938599D01*
X18746248Y-96938599D01*
X18746264Y-96938597D01*
X18986687Y-96906945D01*
X19220939Y-96844177D01*
X19444978Y-96751378D01*
X19444993Y-96751371D01*
X19655009Y-96630118D01*
X19847405Y-96482488D01*
X19847412Y-96482482D01*
X20018883Y-96311011D01*
X20018889Y-96311004D01*
X20166519Y-96118608D01*
X20287772Y-95908592D01*
X20287779Y-95908577D01*
X20380578Y-95684538D01*
X20443346Y-95450286D01*
X20458050Y-95338599D01*
X18979121Y-95338599D01*
X18998099Y-95292781D01*
X19025000Y-95157543D01*
X19025000Y-95019655D01*
X18998099Y-94884417D01*
X18979121Y-94838599D01*
X20458049Y-94838599D01*
X21691950Y-94838599D01*
X23170879Y-94838599D01*
X23151901Y-94884417D01*
X23125000Y-95019655D01*
X23125000Y-95157543D01*
X23151901Y-95292781D01*
X23170879Y-95338599D01*
X21691950Y-95338599D01*
X21706653Y-95450286D01*
X21769421Y-95684538D01*
X21862220Y-95908577D01*
X21862227Y-95908592D01*
X21983480Y-96118608D01*
X22131110Y-96311004D01*
X22131116Y-96311011D01*
X22302587Y-96482482D01*
X22302594Y-96482488D01*
X22494990Y-96630118D01*
X22705006Y-96751371D01*
X22705021Y-96751378D01*
X22929060Y-96844177D01*
X23163312Y-96906945D01*
X23403735Y-96938597D01*
X23403752Y-96938599D01*
X23575000Y-96938599D01*
X23575000Y-95742719D01*
X23620818Y-95761698D01*
X23756056Y-95788599D01*
X23893944Y-95788599D01*
X24029182Y-95761698D01*
X24075000Y-95742719D01*
X24075000Y-96938599D01*
X24246248Y-96938599D01*
X24246264Y-96938597D01*
X24486687Y-96906945D01*
X24720939Y-96844177D01*
X24944978Y-96751378D01*
X24944993Y-96751371D01*
X25155009Y-96630118D01*
X25347405Y-96482488D01*
X25347412Y-96482482D01*
X25518883Y-96311011D01*
X25518889Y-96311004D01*
X25666519Y-96118608D01*
X25787772Y-95908592D01*
X25787779Y-95908577D01*
X25880578Y-95684538D01*
X25943346Y-95450286D01*
X25958050Y-95338599D01*
X24479121Y-95338599D01*
X24498099Y-95292781D01*
X24525000Y-95157543D01*
X24525000Y-95019655D01*
X24498099Y-94884417D01*
X24479121Y-94838599D01*
X25958049Y-94838599D01*
X25943346Y-94726911D01*
X25880578Y-94492659D01*
X25787779Y-94268620D01*
X25787772Y-94268605D01*
X25666519Y-94058589D01*
X25518889Y-93866193D01*
X25518883Y-93866186D01*
X25347412Y-93694715D01*
X25347405Y-93694709D01*
X25155009Y-93547079D01*
X24944993Y-93425826D01*
X24944978Y-93425819D01*
X24720939Y-93333020D01*
X24486687Y-93270252D01*
X24246264Y-93238600D01*
X24246248Y-93238599D01*
X24075000Y-93238599D01*
X24075000Y-94434478D01*
X24029182Y-94415500D01*
X23893944Y-94388599D01*
X23756056Y-94388599D01*
X23620818Y-94415500D01*
X23575000Y-94434478D01*
X23575000Y-93238599D01*
X23403752Y-93238599D01*
X23403735Y-93238600D01*
X23163312Y-93270252D01*
X22929060Y-93333020D01*
X22705021Y-93425819D01*
X22705006Y-93425826D01*
X22494990Y-93547079D01*
X22302594Y-93694709D01*
X22302587Y-93694715D01*
X22131116Y-93866186D01*
X22131110Y-93866193D01*
X21983480Y-94058589D01*
X21862227Y-94268605D01*
X21862220Y-94268620D01*
X21769421Y-94492659D01*
X21706653Y-94726911D01*
X21691950Y-94838599D01*
X20458049Y-94838599D01*
X20443346Y-94726911D01*
X20380578Y-94492659D01*
X20287779Y-94268620D01*
X20287772Y-94268605D01*
X20166519Y-94058589D01*
X20018889Y-93866193D01*
X20018883Y-93866186D01*
X19847412Y-93694715D01*
X19847405Y-93694709D01*
X19655009Y-93547079D01*
X19444993Y-93425826D01*
X19444978Y-93425819D01*
X19220939Y-93333020D01*
X18986687Y-93270252D01*
X18746264Y-93238600D01*
X18746248Y-93238599D01*
X18575000Y-93238599D01*
X18575000Y-94434478D01*
X18529182Y-94415500D01*
X18393944Y-94388599D01*
X18256056Y-94388599D01*
X18120818Y-94415500D01*
X18075000Y-94434478D01*
X18075000Y-93238599D01*
X17903752Y-93238599D01*
X17903735Y-93238600D01*
X17663312Y-93270252D01*
X17429060Y-93333020D01*
X17205021Y-93425819D01*
X17205006Y-93425826D01*
X16994990Y-93547079D01*
X16802594Y-93694709D01*
X16802587Y-93694715D01*
X16631116Y-93866186D01*
X16631110Y-93866193D01*
X16483480Y-94058589D01*
X16362227Y-94268605D01*
X16362220Y-94268620D01*
X16269421Y-94492659D01*
X16206653Y-94726911D01*
X16191950Y-94838599D01*
X13108049Y-94838599D01*
X13093346Y-94726911D01*
X13030578Y-94492659D01*
X12937779Y-94268620D01*
X12937772Y-94268605D01*
X12816519Y-94058589D01*
X12668889Y-93866193D01*
X12668883Y-93866186D01*
X12497412Y-93694715D01*
X12497405Y-93694709D01*
X12305009Y-93547079D01*
X12094993Y-93425826D01*
X12094978Y-93425819D01*
X11870939Y-93333020D01*
X11636687Y-93270252D01*
X11396264Y-93238600D01*
X11396248Y-93238599D01*
X11225000Y-93238599D01*
X11225000Y-94434478D01*
X11179182Y-94415500D01*
X11043944Y-94388599D01*
X10906056Y-94388599D01*
X10770818Y-94415500D01*
X10725000Y-94434478D01*
X10725000Y-93238599D01*
X10553752Y-93238599D01*
X10553735Y-93238600D01*
X10313312Y-93270252D01*
X10079060Y-93333020D01*
X9855021Y-93425819D01*
X9855006Y-93425826D01*
X9644990Y-93547079D01*
X9452594Y-93694709D01*
X9452587Y-93694715D01*
X9281116Y-93866186D01*
X9281110Y-93866193D01*
X9133480Y-94058589D01*
X9012227Y-94268605D01*
X9012220Y-94268620D01*
X8919421Y-94492659D01*
X8856653Y-94726911D01*
X8841950Y-94838599D01*
X7608049Y-94838599D01*
X7593346Y-94726911D01*
X7530578Y-94492659D01*
X7437779Y-94268620D01*
X7437772Y-94268605D01*
X7316519Y-94058589D01*
X7168889Y-93866193D01*
X7168883Y-93866186D01*
X6997412Y-93694715D01*
X6997405Y-93694709D01*
X6805009Y-93547079D01*
X6594993Y-93425826D01*
X6594978Y-93425819D01*
X6370939Y-93333020D01*
X6136687Y-93270252D01*
X5896264Y-93238600D01*
X5896248Y-93238599D01*
X5725000Y-93238599D01*
X5725000Y-94434478D01*
X5679182Y-94415500D01*
X5543944Y-94388599D01*
X5406056Y-94388599D01*
X5270818Y-94415500D01*
X5225000Y-94434478D01*
X5225000Y-93238599D01*
X5053752Y-93238599D01*
X5053735Y-93238600D01*
X4813312Y-93270252D01*
X4579060Y-93333020D01*
X4355021Y-93425819D01*
X4355006Y-93425826D01*
X4144990Y-93547079D01*
X3952594Y-93694709D01*
X3952587Y-93694715D01*
X3781116Y-93866186D01*
X3781110Y-93866193D01*
X3633480Y-94058589D01*
X3512227Y-94268605D01*
X3512220Y-94268620D01*
X3419421Y-94492659D01*
X3356653Y-94726911D01*
X3341950Y-94838599D01*
X550000Y-94838599D01*
X550000Y-84473920D01*
X1249499Y-84473920D01*
X1278340Y-84618907D01*
X1278343Y-84618917D01*
X1324352Y-84729991D01*
X1334916Y-84755495D01*
X1355052Y-84785631D01*
X1364986Y-84800499D01*
X1417049Y-84878418D01*
X1417052Y-84878421D01*
X3013181Y-86474548D01*
X3046666Y-86535871D01*
X3049500Y-86562229D01*
X3049500Y-89348326D01*
X3046452Y-89370354D01*
X3049500Y-89422087D01*
X3049500Y-89473920D01*
X3050715Y-89480029D01*
X3053838Y-89495730D01*
X3055147Y-89517933D01*
X3068225Y-89568064D01*
X3068937Y-89571642D01*
X3068942Y-89571662D01*
X3078341Y-89618910D01*
X3078342Y-89618914D01*
X3083585Y-89631572D01*
X3089006Y-89647716D01*
X3092466Y-89660979D01*
X3113492Y-89704335D01*
X3113491Y-89704335D01*
X3115091Y-89707635D01*
X3134916Y-89755495D01*
X3147270Y-89773983D01*
X3150997Y-89781668D01*
X3156975Y-89793995D01*
X3156977Y-89793998D01*
X3186056Y-89832419D01*
X3186057Y-89832419D01*
X3188255Y-89835323D01*
X3217049Y-89878416D01*
X3232772Y-89894139D01*
X3246197Y-89911876D01*
X3284944Y-89946311D01*
X3321584Y-89982951D01*
X3340072Y-89995304D01*
X3622658Y-90246442D01*
X3659692Y-90305690D01*
X3658815Y-90375554D01*
X3658217Y-90377446D01*
X3613910Y-90513810D01*
X3574500Y-90762637D01*
X3574500Y-91014560D01*
X3613910Y-91263384D01*
X3691760Y-91502982D01*
X3806132Y-91727447D01*
X3954201Y-91931248D01*
X3954205Y-91931253D01*
X4132345Y-92109393D01*
X4132350Y-92109397D01*
X4310117Y-92238551D01*
X4336155Y-92257469D01*
X4479184Y-92330346D01*
X4560616Y-92371838D01*
X4560618Y-92371838D01*
X4560621Y-92371840D01*
X4800215Y-92449689D01*
X5049038Y-92489099D01*
X5049039Y-92489099D01*
X5900961Y-92489099D01*
X5900962Y-92489099D01*
X6149785Y-92449689D01*
X6389379Y-92371840D01*
X6613845Y-92257469D01*
X6817656Y-92109392D01*
X6995793Y-91931255D01*
X7143870Y-91727444D01*
X7258241Y-91502978D01*
X7336090Y-91263384D01*
X7375500Y-91014561D01*
X7375500Y-90762637D01*
X7336090Y-90513814D01*
X7258241Y-90274220D01*
X7258239Y-90274217D01*
X7258239Y-90274215D01*
X7216747Y-90192783D01*
X7143870Y-90049754D01*
X7095335Y-89982951D01*
X6995798Y-89845949D01*
X6995794Y-89845944D01*
X6817654Y-89667804D01*
X6817649Y-89667800D01*
X6613848Y-89519731D01*
X6613847Y-89519730D01*
X6613845Y-89519729D01*
X6535929Y-89480029D01*
X6389383Y-89405359D01*
X6149785Y-89327509D01*
X5994575Y-89302926D01*
X5900962Y-89288099D01*
X5049038Y-89288099D01*
X5049033Y-89288099D01*
X4898876Y-89311881D01*
X4829582Y-89302926D01*
X4797106Y-89282095D01*
X4592128Y-89099927D01*
X4555094Y-89040679D01*
X4550500Y-89007240D01*
X4550500Y-86562230D01*
X4570185Y-86495191D01*
X4586819Y-86474549D01*
X4987511Y-86073857D01*
X8764500Y-86073857D01*
X8764500Y-86303340D01*
X8787041Y-86474548D01*
X8794452Y-86530837D01*
X8802864Y-86562230D01*
X8853842Y-86752486D01*
X8941650Y-86964475D01*
X8941657Y-86964489D01*
X9056392Y-87163216D01*
X9196081Y-87345260D01*
X9196089Y-87345269D01*
X9358330Y-87507510D01*
X9358338Y-87507517D01*
X9540382Y-87647206D01*
X9540385Y-87647207D01*
X9540388Y-87647210D01*
X9739112Y-87761943D01*
X9739117Y-87761945D01*
X9739123Y-87761948D01*
X9830480Y-87799789D01*
X9951113Y-87849757D01*
X10172762Y-87909147D01*
X10400266Y-87939099D01*
X10400273Y-87939099D01*
X10629727Y-87939099D01*
X10629734Y-87939099D01*
X10857238Y-87909147D01*
X11078887Y-87849757D01*
X11290888Y-87761943D01*
X11489612Y-87647210D01*
X11671661Y-87507518D01*
X11671665Y-87507513D01*
X11671670Y-87507510D01*
X11833911Y-87345269D01*
X11833914Y-87345264D01*
X11833919Y-87345260D01*
X11973611Y-87163211D01*
X12088344Y-86964487D01*
X12176158Y-86752486D01*
X12235548Y-86530837D01*
X12265500Y-86303333D01*
X12265500Y-86073865D01*
X12235548Y-85846361D01*
X12176158Y-85624712D01*
X12088344Y-85412711D01*
X11973611Y-85213987D01*
X11973608Y-85213984D01*
X11973607Y-85213981D01*
X11862759Y-85069523D01*
X11833919Y-85031938D01*
X11833918Y-85031937D01*
X11833911Y-85031929D01*
X11671670Y-84869688D01*
X11671661Y-84869680D01*
X11489617Y-84729991D01*
X11290890Y-84615256D01*
X11290876Y-84615249D01*
X11078887Y-84527441D01*
X11062272Y-84522989D01*
X10857238Y-84468051D01*
X10819215Y-84463045D01*
X10629741Y-84438099D01*
X10629734Y-84438099D01*
X10400266Y-84438099D01*
X10400258Y-84438099D01*
X10183715Y-84466608D01*
X10172762Y-84468051D01*
X10102718Y-84486819D01*
X9951112Y-84527441D01*
X9739123Y-84615249D01*
X9739109Y-84615256D01*
X9540382Y-84729991D01*
X9358338Y-84869680D01*
X9196081Y-85031937D01*
X9056392Y-85213981D01*
X8941657Y-85412708D01*
X8941650Y-85412722D01*
X8853842Y-85624711D01*
X8794453Y-85846358D01*
X8794451Y-85846369D01*
X8764500Y-86073857D01*
X4987511Y-86073857D01*
X6874549Y-84186819D01*
X6935872Y-84153334D01*
X6962230Y-84150500D01*
X10473920Y-84150500D01*
X10571462Y-84131096D01*
X10618913Y-84121658D01*
X10755495Y-84065084D01*
X10804729Y-84032186D01*
X10878416Y-83982952D01*
X11382951Y-83478416D01*
X11465084Y-83355495D01*
X11521658Y-83218913D01*
X11550500Y-83073918D01*
X11550500Y-82952383D01*
X11558821Y-82924043D01*
X11564542Y-82895066D01*
X11569255Y-82888509D01*
X11570185Y-82885344D01*
X11585136Y-82866419D01*
X11719156Y-82727125D01*
X11779821Y-82692465D01*
X11808511Y-82689100D01*
X11828466Y-82689100D01*
X11828467Y-82689099D01*
X12031420Y-82648730D01*
X12222598Y-82569541D01*
X12394655Y-82454577D01*
X12460981Y-82388251D01*
X12537819Y-82311414D01*
X12599142Y-82277929D01*
X12668834Y-82282913D01*
X12724767Y-82324785D01*
X12749184Y-82390249D01*
X12749500Y-82399095D01*
X12749500Y-88030662D01*
X12740853Y-88060108D01*
X12734321Y-88090110D01*
X12730575Y-88095111D01*
X12729815Y-88097701D01*
X12713164Y-88118360D01*
X12710566Y-88120957D01*
X12649237Y-88154430D01*
X12636669Y-88156137D01*
X12636691Y-88156299D01*
X12631857Y-88156952D01*
X12573230Y-88169631D01*
X12566421Y-88170906D01*
X12507173Y-88180291D01*
X12479759Y-88189198D01*
X12467660Y-88192463D01*
X12439479Y-88198558D01*
X12383553Y-88220252D01*
X12383554Y-88220253D01*
X12380318Y-88221508D01*
X12319975Y-88241116D01*
X12288708Y-88257045D01*
X12282852Y-88259318D01*
X12282854Y-88259318D01*
X12255972Y-88269747D01*
X12204129Y-88299924D01*
X12198046Y-88303240D01*
X12144591Y-88330477D01*
X12144589Y-88330478D01*
X12121269Y-88347420D01*
X12121270Y-88347421D01*
X12116189Y-88351112D01*
X12085859Y-88368768D01*
X12036705Y-88408859D01*
X12033884Y-88410910D01*
X12033880Y-88410914D01*
X11985354Y-88446172D01*
X11964974Y-88466551D01*
X11955673Y-88474955D01*
X10992991Y-89260188D01*
X10928599Y-89287308D01*
X10914614Y-89288099D01*
X10549038Y-89288099D01*
X10455425Y-89302926D01*
X10300214Y-89327509D01*
X10060616Y-89405359D01*
X9836151Y-89519731D01*
X9632350Y-89667800D01*
X9632345Y-89667804D01*
X9454205Y-89845944D01*
X9454201Y-89845949D01*
X9306132Y-90049750D01*
X9191760Y-90274215D01*
X9113910Y-90513813D01*
X9074500Y-90762637D01*
X9074500Y-91014560D01*
X9113910Y-91263384D01*
X9191760Y-91502982D01*
X9306132Y-91727447D01*
X9454201Y-91931248D01*
X9454205Y-91931253D01*
X9632345Y-92109393D01*
X9632350Y-92109397D01*
X9810117Y-92238551D01*
X9836155Y-92257469D01*
X9979184Y-92330346D01*
X10060616Y-92371838D01*
X10060618Y-92371838D01*
X10060621Y-92371840D01*
X10300215Y-92449689D01*
X10549038Y-92489099D01*
X10549039Y-92489099D01*
X11400961Y-92489099D01*
X11400962Y-92489099D01*
X11649785Y-92449689D01*
X11889379Y-92371840D01*
X12113845Y-92257469D01*
X12317656Y-92109392D01*
X12495793Y-91931255D01*
X12643870Y-91727444D01*
X12758241Y-91502978D01*
X12836090Y-91263384D01*
X12875500Y-91014561D01*
X12875500Y-91011027D01*
X12875880Y-91009731D01*
X12875883Y-91009698D01*
X12875890Y-91009698D01*
X12895185Y-90943988D01*
X12921120Y-90914940D01*
X13107842Y-90762637D01*
X16424500Y-90762637D01*
X16424500Y-91014560D01*
X16463910Y-91263384D01*
X16541760Y-91502982D01*
X16656132Y-91727447D01*
X16804201Y-91931248D01*
X16804205Y-91931253D01*
X16982345Y-92109393D01*
X16982350Y-92109397D01*
X17160117Y-92238551D01*
X17186155Y-92257469D01*
X17329184Y-92330346D01*
X17410616Y-92371838D01*
X17410618Y-92371838D01*
X17410621Y-92371840D01*
X17650215Y-92449689D01*
X17899038Y-92489099D01*
X17899039Y-92489099D01*
X18750961Y-92489099D01*
X18750962Y-92489099D01*
X18999785Y-92449689D01*
X19239379Y-92371840D01*
X19463845Y-92257469D01*
X19667656Y-92109392D01*
X19845793Y-91931255D01*
X19993870Y-91727444D01*
X20108241Y-91502978D01*
X20186090Y-91263384D01*
X20225500Y-91014561D01*
X20225500Y-90762637D01*
X20186090Y-90513814D01*
X20108241Y-90274220D01*
X20108239Y-90274217D01*
X20108239Y-90274215D01*
X20066747Y-90192783D01*
X19993870Y-90049754D01*
X19945335Y-89982951D01*
X19845798Y-89845949D01*
X19845794Y-89845944D01*
X19667654Y-89667804D01*
X19667649Y-89667800D01*
X19463848Y-89519731D01*
X19463847Y-89519730D01*
X19463845Y-89519729D01*
X19385929Y-89480029D01*
X19239383Y-89405359D01*
X18999785Y-89327509D01*
X18844575Y-89302926D01*
X18750962Y-89288099D01*
X17899038Y-89288099D01*
X17805425Y-89302926D01*
X17650214Y-89327509D01*
X17410616Y-89405359D01*
X17186151Y-89519731D01*
X16982350Y-89667800D01*
X16982345Y-89667804D01*
X16804205Y-89845944D01*
X16804201Y-89845949D01*
X16656132Y-90049750D01*
X16541760Y-90274215D01*
X16463910Y-90513813D01*
X16424500Y-90762637D01*
X13107842Y-90762637D01*
X13211103Y-90678411D01*
X13226821Y-90671598D01*
X13238990Y-90661245D01*
X13262011Y-90656345D01*
X13272942Y-90651608D01*
X13281176Y-90650500D01*
X13298417Y-90650500D01*
X13395853Y-90635067D01*
X13395874Y-90635065D01*
X13492826Y-90619709D01*
X13680026Y-90558884D01*
X13855405Y-90469524D01*
X14014646Y-90353828D01*
X14953828Y-89414646D01*
X15069524Y-89255405D01*
X15158884Y-89080026D01*
X15219709Y-88892826D01*
X15243186Y-88744595D01*
X15250500Y-88698417D01*
X15250500Y-85374500D01*
X15270185Y-85307461D01*
X15322989Y-85261706D01*
X15374500Y-85250500D01*
X19898422Y-85250500D01*
X20092826Y-85219709D01*
X20110455Y-85213981D01*
X20280026Y-85158884D01*
X20455405Y-85069524D01*
X20614646Y-84953828D01*
X21081655Y-84486819D01*
X21142978Y-84453334D01*
X21169336Y-84450500D01*
X22411702Y-84450500D01*
X22478741Y-84470185D01*
X22524496Y-84522989D01*
X22534440Y-84592147D01*
X22505415Y-84655703D01*
X22473702Y-84681887D01*
X22390382Y-84729991D01*
X22208338Y-84869680D01*
X22046081Y-85031937D01*
X21906392Y-85213981D01*
X21791657Y-85412708D01*
X21791650Y-85412722D01*
X21703842Y-85624711D01*
X21644453Y-85846358D01*
X21644451Y-85846369D01*
X21614500Y-86073857D01*
X21614500Y-86303340D01*
X21637041Y-86474548D01*
X21644452Y-86530837D01*
X21652864Y-86562230D01*
X21703842Y-86752486D01*
X21791650Y-86964475D01*
X21791657Y-86964489D01*
X21906392Y-87163216D01*
X22046081Y-87345260D01*
X22046089Y-87345269D01*
X22208330Y-87507510D01*
X22208338Y-87507517D01*
X22390382Y-87647206D01*
X22390385Y-87647207D01*
X22390388Y-87647210D01*
X22589112Y-87761943D01*
X22589117Y-87761945D01*
X22589123Y-87761948D01*
X22680480Y-87799789D01*
X22801113Y-87849757D01*
X23022762Y-87909147D01*
X23250266Y-87939099D01*
X23250273Y-87939099D01*
X23479727Y-87939099D01*
X23479734Y-87939099D01*
X23707238Y-87909147D01*
X23928887Y-87849757D01*
X24140888Y-87761943D01*
X24339612Y-87647210D01*
X24521661Y-87507518D01*
X24521665Y-87507513D01*
X24521670Y-87507510D01*
X24683911Y-87345269D01*
X24683914Y-87345264D01*
X24683919Y-87345260D01*
X24823611Y-87163211D01*
X24918113Y-86999527D01*
X24968680Y-86951312D01*
X25037287Y-86938089D01*
X25102152Y-86964057D01*
X25142680Y-87020972D01*
X25149500Y-87061528D01*
X25149500Y-88149647D01*
X25145276Y-88164029D01*
X25145975Y-88179002D01*
X25135632Y-88196875D01*
X25129815Y-88216686D01*
X25117913Y-88227494D01*
X25110980Y-88239476D01*
X25089460Y-88253334D01*
X25082210Y-88259919D01*
X25077167Y-88262512D01*
X25040602Y-88277275D01*
X24993731Y-88305420D01*
X24990091Y-88307293D01*
X24990044Y-88307301D01*
X24989676Y-88307506D01*
X24944591Y-88330478D01*
X24913668Y-88352945D01*
X24909277Y-88356136D01*
X24871857Y-88378607D01*
X24829784Y-88413889D01*
X24826291Y-88416428D01*
X24826288Y-88416428D01*
X24785360Y-88446166D01*
X24785358Y-88446168D01*
X24758319Y-88473205D01*
X24750323Y-88480530D01*
X23821947Y-89259110D01*
X23757933Y-89287106D01*
X23742268Y-89288099D01*
X23399038Y-89288099D01*
X23305425Y-89302926D01*
X23150214Y-89327509D01*
X22910616Y-89405359D01*
X22686151Y-89519731D01*
X22482350Y-89667800D01*
X22482345Y-89667804D01*
X22304205Y-89845944D01*
X22304201Y-89845949D01*
X22156132Y-90049750D01*
X22041760Y-90274215D01*
X21963910Y-90513813D01*
X21924500Y-90762637D01*
X21924500Y-91014560D01*
X21963910Y-91263384D01*
X22041760Y-91502982D01*
X22156132Y-91727447D01*
X22304201Y-91931248D01*
X22304205Y-91931253D01*
X22482345Y-92109393D01*
X22482350Y-92109397D01*
X22660117Y-92238551D01*
X22686155Y-92257469D01*
X22829184Y-92330346D01*
X22910616Y-92371838D01*
X22910618Y-92371838D01*
X22910621Y-92371840D01*
X23150215Y-92449689D01*
X23399038Y-92489099D01*
X23399039Y-92489099D01*
X24250961Y-92489099D01*
X24250962Y-92489099D01*
X24499785Y-92449689D01*
X24739379Y-92371840D01*
X24963845Y-92257469D01*
X25167656Y-92109392D01*
X25345793Y-91931255D01*
X25493870Y-91727444D01*
X25608241Y-91502978D01*
X25686090Y-91263384D01*
X25725500Y-91014561D01*
X25725500Y-90984640D01*
X25745185Y-90917601D01*
X25769820Y-90889629D01*
X26020391Y-90679489D01*
X26084406Y-90651493D01*
X26093569Y-90650912D01*
X26093567Y-90650882D01*
X26098420Y-90650500D01*
X26292826Y-90619709D01*
X26480026Y-90558884D01*
X26655405Y-90469524D01*
X26814646Y-90353828D01*
X27353828Y-89814646D01*
X27460514Y-89667806D01*
X27469524Y-89655405D01*
X27558884Y-89480025D01*
X27619709Y-89292826D01*
X27625636Y-89255405D01*
X27650500Y-89098422D01*
X27650500Y-83301577D01*
X27619709Y-83107175D01*
X27608904Y-83073918D01*
X27599347Y-83044506D01*
X27558884Y-82919974D01*
X27469524Y-82744595D01*
X27353829Y-82585355D01*
X27014646Y-82246172D01*
X26855405Y-82130476D01*
X26851813Y-82128646D01*
X26680030Y-82041117D01*
X26492826Y-81980290D01*
X26298422Y-81949500D01*
X26298417Y-81949500D01*
X20501583Y-81949500D01*
X20501578Y-81949500D01*
X20307173Y-81980290D01*
X20119969Y-82041117D01*
X19944594Y-82130476D01*
X19863945Y-82189072D01*
X19785354Y-82246172D01*
X19785352Y-82246174D01*
X19785351Y-82246174D01*
X19318345Y-82713181D01*
X19257022Y-82746666D01*
X19230664Y-82749500D01*
X17533710Y-82749500D01*
X17466671Y-82729815D01*
X17446029Y-82713181D01*
X16771447Y-82038600D01*
X16777661Y-82038600D01*
X16879394Y-82011341D01*
X16970606Y-81958680D01*
X17045080Y-81884206D01*
X17097741Y-81792994D01*
X17125000Y-81691261D01*
X17125000Y-81685048D01*
X17804474Y-82364522D01*
X17804474Y-82364521D01*
X17836859Y-82319949D01*
X17929755Y-82137631D01*
X17992990Y-81943017D01*
X18025000Y-81740917D01*
X18025000Y-81536282D01*
X17992990Y-81334182D01*
X17929755Y-81139568D01*
X17836859Y-80957250D01*
X17804474Y-80912677D01*
X17804474Y-80912676D01*
X17125000Y-81592151D01*
X17125000Y-81585939D01*
X17097741Y-81484206D01*
X17045080Y-81392994D01*
X16970606Y-81318520D01*
X16879394Y-81265859D01*
X16777661Y-81238600D01*
X16771446Y-81238600D01*
X17450922Y-80559124D01*
X17450921Y-80559123D01*
X17406359Y-80526747D01*
X17406350Y-80526741D01*
X17224031Y-80433844D01*
X17029417Y-80370609D01*
X16827317Y-80338600D01*
X16622683Y-80338600D01*
X16420582Y-80370609D01*
X16225968Y-80433844D01*
X16043644Y-80526743D01*
X15999077Y-80559123D01*
X15999077Y-80559124D01*
X16678554Y-81238600D01*
X16672339Y-81238600D01*
X16570606Y-81265859D01*
X16479394Y-81318520D01*
X16404920Y-81392994D01*
X16352259Y-81484206D01*
X16325000Y-81585939D01*
X16325000Y-81592153D01*
X15645524Y-80912677D01*
X15645523Y-80912677D01*
X15613143Y-80957244D01*
X15520244Y-81139568D01*
X15492431Y-81225169D01*
X15452993Y-81282844D01*
X15388634Y-81310042D01*
X15319788Y-81298127D01*
X15268312Y-81250882D01*
X15250500Y-81186850D01*
X15250500Y-77849915D01*
X15270185Y-77782876D01*
X15318205Y-77739430D01*
X15455405Y-77669524D01*
X15614646Y-77553828D01*
X17065459Y-76103013D01*
X17068864Y-76099737D01*
X17811901Y-75412091D01*
X17874472Y-75381005D01*
X17896123Y-75379100D01*
X18174322Y-75379100D01*
X18174323Y-75379099D01*
X18247386Y-75364566D01*
X18330247Y-75309201D01*
X18385612Y-75226340D01*
X18400146Y-75153274D01*
X18400146Y-75079572D01*
X18419831Y-75012533D01*
X18472635Y-74966778D01*
X18541793Y-74956834D01*
X18605349Y-74985859D01*
X18624465Y-75006688D01*
X18638578Y-75026113D01*
X19306683Y-74358008D01*
X19323721Y-74421593D01*
X19389547Y-74535607D01*
X19482639Y-74628699D01*
X19596653Y-74694525D01*
X19660236Y-74711562D01*
X18992131Y-75379665D01*
X18992131Y-75379666D01*
X19055889Y-75425988D01*
X19252235Y-75526032D01*
X19461810Y-75594126D01*
X19679465Y-75628600D01*
X19899827Y-75628600D01*
X20117481Y-75594126D01*
X20327056Y-75526032D01*
X20523406Y-75425986D01*
X20587159Y-75379666D01*
X20587160Y-75379666D01*
X19919055Y-74711562D01*
X19982639Y-74694525D01*
X20096653Y-74628699D01*
X20189745Y-74535607D01*
X20255571Y-74421593D01*
X20272608Y-74358010D01*
X20940712Y-75026114D01*
X20940712Y-75026113D01*
X20987034Y-74962358D01*
X21089170Y-74761904D01*
X21137144Y-74711107D01*
X21204965Y-74694312D01*
X21271100Y-74716849D01*
X21310139Y-74761902D01*
X21345650Y-74831595D01*
X21452087Y-74978094D01*
X21452091Y-74978099D01*
X21580146Y-75106154D01*
X21580151Y-75106158D01*
X21645007Y-75153278D01*
X21726652Y-75212596D01*
X21832130Y-75266340D01*
X21888006Y-75294811D01*
X21888009Y-75294812D01*
X21944545Y-75313181D01*
X22060237Y-75350771D01*
X22143075Y-75363891D01*
X22239095Y-75379100D01*
X22239100Y-75379100D01*
X22420197Y-75379100D01*
X22511956Y-75364566D01*
X22599055Y-75350771D01*
X22771285Y-75294811D01*
X22932640Y-75212596D01*
X23079147Y-75106153D01*
X23207199Y-74978101D01*
X23313642Y-74831594D01*
X23395857Y-74670239D01*
X23451817Y-74498009D01*
X23473296Y-74362398D01*
X23480146Y-74319151D01*
X23480146Y-74138048D01*
X23453968Y-73972774D01*
X23451817Y-73959191D01*
X23418250Y-73855882D01*
X23395858Y-73786963D01*
X23395857Y-73786960D01*
X23320212Y-73638501D01*
X23313642Y-73625606D01*
X23246663Y-73533417D01*
X23207204Y-73479105D01*
X23207200Y-73479100D01*
X23079145Y-73351045D01*
X23079140Y-73351041D01*
X22932643Y-73244606D01*
X22932642Y-73244605D01*
X22932640Y-73244604D01*
X22880946Y-73218264D01*
X22771285Y-73162388D01*
X22771279Y-73162386D01*
X22643905Y-73121001D01*
X22618787Y-73103826D01*
X22592436Y-73088595D01*
X22588576Y-73083169D01*
X22586229Y-73081564D01*
X22571978Y-73059835D01*
X22564256Y-73044838D01*
X22550500Y-72988073D01*
X22550500Y-72326079D01*
X22521659Y-72181092D01*
X22521658Y-72181091D01*
X22521658Y-72181087D01*
X22521656Y-72181082D01*
X22465087Y-72044511D01*
X22465080Y-72044498D01*
X22382952Y-71921585D01*
X22382951Y-71921584D01*
X22278416Y-71817049D01*
X21878421Y-71417052D01*
X21878414Y-71417046D01*
X21804729Y-71367812D01*
X21804729Y-71367813D01*
X21755491Y-71334913D01*
X21618917Y-71278343D01*
X21618907Y-71278340D01*
X21473920Y-71249500D01*
X21473918Y-71249500D01*
X7726082Y-71249500D01*
X7726076Y-71249500D01*
X7697242Y-71255234D01*
X7697243Y-71255235D01*
X7581093Y-71278339D01*
X7581083Y-71278342D01*
X7501081Y-71311479D01*
X7501082Y-71311480D01*
X7444505Y-71334915D01*
X7362372Y-71389795D01*
X7321585Y-71417047D01*
X7321581Y-71417050D01*
X6272512Y-72466118D01*
X6271599Y-72467022D01*
X5979953Y-72752685D01*
X5918286Y-72785533D01*
X5893185Y-72788100D01*
X4941775Y-72788100D01*
X4941769Y-72788101D01*
X4882162Y-72794508D01*
X4747317Y-72844802D01*
X4747310Y-72844806D01*
X4632101Y-72931052D01*
X4632098Y-72931055D01*
X4545852Y-73046264D01*
X4545848Y-73046271D01*
X4495554Y-73181117D01*
X4489147Y-73240716D01*
X4489146Y-73240735D01*
X4489146Y-74836470D01*
X4489147Y-74836476D01*
X4495554Y-74896083D01*
X4545848Y-75030928D01*
X4545852Y-75030935D01*
X4632098Y-75146144D01*
X4632101Y-75146147D01*
X4747310Y-75232393D01*
X4747317Y-75232397D01*
X4882163Y-75282691D01*
X4882162Y-75282691D01*
X4889090Y-75283435D01*
X4941773Y-75289100D01*
X6537518Y-75289099D01*
X6597129Y-75282691D01*
X6731977Y-75232396D01*
X6847192Y-75146146D01*
X6933442Y-75030931D01*
X6983737Y-74896083D01*
X6990146Y-74836473D01*
X6990145Y-73916407D01*
X6993268Y-73905770D01*
X6992155Y-73898028D01*
X7000446Y-73879872D01*
X7005920Y-73855882D01*
X7009161Y-73851641D01*
X7009829Y-73849369D01*
X7020185Y-73836649D01*
X7021180Y-73834472D01*
X7026966Y-73828321D01*
X7027350Y-73827849D01*
X7275151Y-73585133D01*
X7278416Y-73582952D01*
X7327950Y-73533417D01*
X7377962Y-73484432D01*
X7377963Y-73484429D01*
X7379771Y-73482273D01*
X7387125Y-73474241D01*
X8074548Y-72786819D01*
X8135871Y-72753334D01*
X8162229Y-72750500D01*
X9753738Y-72750500D01*
X9820777Y-72770185D01*
X9841419Y-72786819D01*
X10610237Y-73555637D01*
X10546653Y-73572675D01*
X10432639Y-73638501D01*
X10339547Y-73731593D01*
X10273721Y-73845607D01*
X10256683Y-73909191D01*
X9516986Y-73169494D01*
X9456730Y-73252430D01*
X9349543Y-73462797D01*
X9276580Y-73687352D01*
X9239646Y-73920547D01*
X9239646Y-74156652D01*
X9276580Y-74389847D01*
X9349543Y-74614402D01*
X9456733Y-74824774D01*
X9516984Y-74907704D01*
X9516986Y-74907705D01*
X10256683Y-74168008D01*
X10273721Y-74231593D01*
X10339547Y-74345607D01*
X10432639Y-74438699D01*
X10546653Y-74504525D01*
X10610236Y-74521562D01*
X9853910Y-75277887D01*
X9852595Y-75284150D01*
X9803543Y-75333906D01*
X9743342Y-75349500D01*
X8701578Y-75349500D01*
X8507173Y-75380290D01*
X8319969Y-75441117D01*
X8144594Y-75530476D01*
X8056989Y-75594126D01*
X7985354Y-75646172D01*
X7985352Y-75646174D01*
X7985351Y-75646174D01*
X4262181Y-79369345D01*
X4200858Y-79402830D01*
X4131166Y-79397846D01*
X4075233Y-79355974D01*
X4050816Y-79290510D01*
X4050500Y-79281664D01*
X4050500Y-67774999D01*
X4070185Y-67707960D01*
X4087437Y-67686704D01*
X4237636Y-67538600D01*
X4641875Y-67139998D01*
X4643838Y-67138105D01*
X4704129Y-67081307D01*
X4712886Y-67069979D01*
X4723083Y-67059925D01*
X4773036Y-66992176D01*
X4824519Y-66925584D01*
X4827385Y-66920349D01*
X4836354Y-66906301D01*
X4839894Y-66901501D01*
X4878638Y-66826763D01*
X4919065Y-66752945D01*
X4923892Y-66739467D01*
X4930484Y-66726753D01*
X4934049Y-66716039D01*
X4936248Y-66709425D01*
X4957056Y-66646884D01*
X4985442Y-66567641D01*
X4988102Y-66553569D01*
X4992622Y-66539986D01*
X5006141Y-66458339D01*
X5006632Y-66455573D01*
X5022012Y-66374236D01*
X5022438Y-66359924D01*
X5024778Y-66345797D01*
X5025368Y-66261628D01*
X5029105Y-66136282D01*
X7475000Y-66136282D01*
X7475000Y-66340917D01*
X7507009Y-66543017D01*
X7570244Y-66737631D01*
X7663141Y-66919950D01*
X7663147Y-66919959D01*
X7695523Y-66964521D01*
X7695524Y-66964522D01*
X8375000Y-66285046D01*
X8375000Y-66291261D01*
X8402259Y-66392994D01*
X8454920Y-66484206D01*
X8529394Y-66558680D01*
X8620606Y-66611341D01*
X8722339Y-66638600D01*
X8728553Y-66638600D01*
X8049076Y-67318074D01*
X8093650Y-67350459D01*
X8275968Y-67443355D01*
X8470582Y-67506590D01*
X8672683Y-67538600D01*
X8877317Y-67538600D01*
X9079417Y-67506590D01*
X9274031Y-67443355D01*
X9456349Y-67350459D01*
X9500921Y-67318074D01*
X8821447Y-66638600D01*
X8827661Y-66638600D01*
X8929394Y-66611341D01*
X9020606Y-66558680D01*
X9095080Y-66484206D01*
X9147741Y-66392994D01*
X9175000Y-66291261D01*
X9175000Y-66285047D01*
X9854474Y-66964521D01*
X9886859Y-66919949D01*
X9979755Y-66737631D01*
X10042990Y-66543017D01*
X10075000Y-66340917D01*
X10075000Y-66136282D01*
X10425000Y-66136282D01*
X10425000Y-66340917D01*
X10457009Y-66543017D01*
X10520244Y-66737631D01*
X10613141Y-66919950D01*
X10613147Y-66919959D01*
X10645523Y-66964521D01*
X10645524Y-66964522D01*
X11325000Y-66285046D01*
X11325000Y-66291261D01*
X11352259Y-66392994D01*
X11404920Y-66484206D01*
X11479394Y-66558680D01*
X11570606Y-66611341D01*
X11672339Y-66638600D01*
X11678553Y-66638600D01*
X10999076Y-67318074D01*
X11043650Y-67350459D01*
X11225968Y-67443355D01*
X11420582Y-67506590D01*
X11622683Y-67538600D01*
X11827317Y-67538600D01*
X12029417Y-67506590D01*
X12224031Y-67443355D01*
X12406349Y-67350459D01*
X12450921Y-67318074D01*
X11771447Y-66638600D01*
X11777661Y-66638600D01*
X11879394Y-66611341D01*
X11970606Y-66558680D01*
X12045080Y-66484206D01*
X12097741Y-66392994D01*
X12125000Y-66291261D01*
X12125000Y-66285048D01*
X12804474Y-66964522D01*
X12804474Y-66964521D01*
X12836859Y-66919949D01*
X12929755Y-66737631D01*
X12992990Y-66543017D01*
X13025000Y-66340917D01*
X13025000Y-66136282D01*
X12992990Y-65934182D01*
X12929755Y-65739568D01*
X12836859Y-65557250D01*
X12804474Y-65512677D01*
X12804474Y-65512676D01*
X12125000Y-66192151D01*
X12125000Y-66185939D01*
X12097741Y-66084206D01*
X12045080Y-65992994D01*
X11970606Y-65918520D01*
X11879394Y-65865859D01*
X11777661Y-65838600D01*
X11771446Y-65838600D01*
X12450922Y-65159124D01*
X12450921Y-65159123D01*
X12406359Y-65126747D01*
X12406350Y-65126741D01*
X12224031Y-65033844D01*
X12029417Y-64970609D01*
X11827317Y-64938600D01*
X11622683Y-64938600D01*
X11420582Y-64970609D01*
X11225968Y-65033844D01*
X11043644Y-65126743D01*
X10999077Y-65159123D01*
X10999077Y-65159124D01*
X11678554Y-65838600D01*
X11672339Y-65838600D01*
X11570606Y-65865859D01*
X11479394Y-65918520D01*
X11404920Y-65992994D01*
X11352259Y-66084206D01*
X11325000Y-66185939D01*
X11325000Y-66192153D01*
X10645524Y-65512677D01*
X10645523Y-65512677D01*
X10613143Y-65557244D01*
X10520244Y-65739568D01*
X10457009Y-65934182D01*
X10425000Y-66136282D01*
X10075000Y-66136282D01*
X10042990Y-65934182D01*
X9979755Y-65739568D01*
X9886859Y-65557250D01*
X9854474Y-65512677D01*
X9854474Y-65512676D01*
X9175000Y-66192151D01*
X9175000Y-66185939D01*
X9147741Y-66084206D01*
X9095080Y-65992994D01*
X9020606Y-65918520D01*
X8929394Y-65865859D01*
X8827661Y-65838600D01*
X8821446Y-65838600D01*
X9500922Y-65159124D01*
X9500921Y-65159123D01*
X9456359Y-65126747D01*
X9456350Y-65126741D01*
X9274031Y-65033844D01*
X9079417Y-64970609D01*
X8877317Y-64938600D01*
X8672683Y-64938600D01*
X8470582Y-64970609D01*
X8275968Y-65033844D01*
X8093644Y-65126743D01*
X8049077Y-65159123D01*
X8049077Y-65159124D01*
X8728554Y-65838600D01*
X8722339Y-65838600D01*
X8620606Y-65865859D01*
X8529394Y-65918520D01*
X8454920Y-65992994D01*
X8402259Y-66084206D01*
X8375000Y-66185939D01*
X8375000Y-66192153D01*
X7695524Y-65512677D01*
X7695523Y-65512677D01*
X7663143Y-65557244D01*
X7570244Y-65739568D01*
X7507009Y-65934182D01*
X7475000Y-66136282D01*
X5029105Y-66136282D01*
X5047569Y-65516918D01*
X5050500Y-65498417D01*
X5050500Y-65418623D01*
X5052877Y-65338889D01*
X5051503Y-65328149D01*
X5050500Y-65312413D01*
X5050500Y-63372435D01*
X5070185Y-63305396D01*
X5087157Y-63284417D01*
X5449268Y-62925080D01*
X5510719Y-62891831D01*
X5536611Y-62889098D01*
X6972871Y-62889098D01*
X6972872Y-62889098D01*
X7032483Y-62882690D01*
X7167331Y-62832395D01*
X7282546Y-62746145D01*
X7368796Y-62630930D01*
X7419091Y-62496082D01*
X7425500Y-62436472D01*
X7425499Y-60917310D01*
X8804500Y-60917310D01*
X8804500Y-61159887D01*
X8836161Y-61400384D01*
X8898947Y-61634703D01*
X8991773Y-61858804D01*
X8991776Y-61858811D01*
X9113064Y-62068888D01*
X9113066Y-62068891D01*
X9113067Y-62068892D01*
X9260733Y-62261335D01*
X9260739Y-62261342D01*
X9432256Y-62432859D01*
X9432263Y-62432865D01*
X9514648Y-62496081D01*
X9624711Y-62580535D01*
X9834788Y-62701823D01*
X10058900Y-62794653D01*
X10293211Y-62857437D01*
X10473586Y-62881183D01*
X10533711Y-62889099D01*
X10533712Y-62889099D01*
X10776289Y-62889099D01*
X10824970Y-62882690D01*
X11016789Y-62857437D01*
X11251100Y-62794653D01*
X11475212Y-62701823D01*
X11685289Y-62580535D01*
X11877738Y-62432864D01*
X12049265Y-62261337D01*
X12196936Y-62068888D01*
X12318224Y-61858811D01*
X12411054Y-61634699D01*
X12473838Y-61400388D01*
X12505500Y-61159887D01*
X12505500Y-60917311D01*
X12473838Y-60676810D01*
X12411054Y-60442499D01*
X12318224Y-60218387D01*
X12196936Y-60008310D01*
X12133711Y-59925913D01*
X12049266Y-59815862D01*
X12049260Y-59815855D01*
X11877743Y-59644338D01*
X11877736Y-59644332D01*
X11685293Y-59496666D01*
X11685292Y-59496665D01*
X11685289Y-59496663D01*
X11475212Y-59375375D01*
X11417790Y-59351590D01*
X11251104Y-59282546D01*
X11016785Y-59219760D01*
X10776289Y-59188099D01*
X10776288Y-59188099D01*
X10533712Y-59188099D01*
X10533711Y-59188099D01*
X10293214Y-59219760D01*
X10058895Y-59282546D01*
X9834794Y-59375372D01*
X9834785Y-59375376D01*
X9624706Y-59496666D01*
X9432263Y-59644332D01*
X9432256Y-59644338D01*
X9260739Y-59815855D01*
X9260733Y-59815862D01*
X9113067Y-60008305D01*
X8991777Y-60218384D01*
X8991773Y-60218393D01*
X8898947Y-60442494D01*
X8836161Y-60676813D01*
X8804500Y-60917310D01*
X7425499Y-60917310D01*
X7425499Y-59640727D01*
X7419091Y-59581116D01*
X7391480Y-59507088D01*
X7368797Y-59446270D01*
X7368793Y-59446263D01*
X7282547Y-59331054D01*
X7282544Y-59331051D01*
X7167335Y-59244805D01*
X7167328Y-59244801D01*
X7032482Y-59194507D01*
X7032483Y-59194507D01*
X6972883Y-59188100D01*
X6972881Y-59188099D01*
X6972873Y-59188099D01*
X6972865Y-59188099D01*
X5462495Y-59188099D01*
X5395456Y-59168414D01*
X5378384Y-59155211D01*
X5090389Y-58889346D01*
X5054483Y-58829409D01*
X5050500Y-58798234D01*
X5050500Y-53571951D01*
X5070185Y-53504912D01*
X5122989Y-53459157D01*
X5192147Y-53449213D01*
X5255703Y-53478238D01*
X5284985Y-53515657D01*
X5355474Y-53654002D01*
X5356692Y-53655678D01*
X5471172Y-53813245D01*
X5610354Y-53952427D01*
X5769595Y-54068123D01*
X5836774Y-54102352D01*
X5944970Y-54157481D01*
X5944972Y-54157481D01*
X5944975Y-54157483D01*
X6025136Y-54183529D01*
X6132173Y-54218308D01*
X6326578Y-54249099D01*
X6326583Y-54249099D01*
X6523422Y-54249099D01*
X6717826Y-54218308D01*
X6739834Y-54211157D01*
X6905025Y-54157483D01*
X7080405Y-54068123D01*
X7239646Y-53952427D01*
X7378828Y-53813245D01*
X7494524Y-53654004D01*
X7583884Y-53478624D01*
X7644709Y-53291425D01*
X7658882Y-53201932D01*
X7688809Y-53138803D01*
X7692781Y-53134553D01*
X8310735Y-52504189D01*
X8311401Y-52503517D01*
X9577139Y-51237782D01*
X9612170Y-51185354D01*
X9686632Y-51073914D01*
X9742536Y-50938948D01*
X9762051Y-50891836D01*
X9790093Y-50750861D01*
X9800500Y-50698541D01*
X9800500Y-46017322D01*
X10271313Y-46017322D01*
X10274371Y-46084304D01*
X10274500Y-46089959D01*
X10274500Y-46157019D01*
X10277900Y-46178492D01*
X10279297Y-46192225D01*
X10280289Y-46213947D01*
X10280290Y-46213958D01*
X10293789Y-46279634D01*
X10294359Y-46282406D01*
X10305291Y-46351426D01*
X10314147Y-46378682D01*
X10319917Y-46406755D01*
X10343535Y-46469542D01*
X10345385Y-46474824D01*
X10366116Y-46538625D01*
X10366117Y-46538626D01*
X10366121Y-46538636D01*
X10375984Y-46557993D01*
X10375985Y-46557994D01*
X10379126Y-46564158D01*
X10389217Y-46590985D01*
X10423737Y-46651716D01*
X10425029Y-46654251D01*
X10453230Y-46709597D01*
X10455476Y-46714005D01*
X10462569Y-46723768D01*
X10468261Y-46731603D01*
X10472325Y-46737196D01*
X10486484Y-46762105D01*
X10530089Y-46816700D01*
X10571172Y-46873246D01*
X10571174Y-46873248D01*
X10586545Y-46888619D01*
X10595753Y-46898915D01*
X10609323Y-46915905D01*
X10660944Y-46963018D01*
X10710354Y-47012428D01*
X10733535Y-47029270D01*
X10754707Y-47048593D01*
X10754712Y-47048596D01*
X10754713Y-47048597D01*
X10762172Y-47053513D01*
X10813061Y-47087050D01*
X10869595Y-47128124D01*
X10895130Y-47141134D01*
X10919060Y-47156905D01*
X10982713Y-47185760D01*
X11044975Y-47217484D01*
X11072228Y-47226339D01*
X11098333Y-47238173D01*
X11162990Y-47255964D01*
X11168391Y-47257583D01*
X11232174Y-47278309D01*
X11260486Y-47282793D01*
X11288112Y-47290395D01*
X11357540Y-47298164D01*
X11360347Y-47298609D01*
X11390028Y-47303310D01*
X11426583Y-47309100D01*
X11455247Y-47309100D01*
X11483724Y-47312287D01*
X11553531Y-47309100D01*
X11623417Y-47309100D01*
X11644903Y-47305696D01*
X11658623Y-47304301D01*
X11680352Y-47303310D01*
X11746058Y-47289804D01*
X11751567Y-47288802D01*
X11817826Y-47278309D01*
X11838510Y-47271587D01*
X11851846Y-47268061D01*
X11873155Y-47263683D01*
X11935926Y-47240070D01*
X11935927Y-47240070D01*
X11938571Y-47239075D01*
X12005025Y-47217484D01*
X12030558Y-47204473D01*
X12057385Y-47194383D01*
X12115684Y-47161243D01*
X12120625Y-47158582D01*
X12180405Y-47128124D01*
X12203596Y-47111274D01*
X12228505Y-47097116D01*
X12283097Y-47053513D01*
X12339646Y-47012428D01*
X12355027Y-46997045D01*
X12365305Y-46987852D01*
X13004150Y-46477611D01*
X13068817Y-46451154D01*
X13081535Y-46450500D01*
X16298963Y-46450500D01*
X16366002Y-46470185D01*
X16378761Y-46479588D01*
X16700298Y-46749926D01*
X16738944Y-46808135D01*
X16744500Y-46844837D01*
X16744500Y-46953278D01*
X16759032Y-47026335D01*
X16759033Y-47026339D01*
X16764104Y-47033928D01*
X16814399Y-47109201D01*
X16888288Y-47158571D01*
X16897260Y-47164566D01*
X16897264Y-47164567D01*
X16970321Y-47179099D01*
X16970324Y-47179100D01*
X16970326Y-47179100D01*
X17214002Y-47179100D01*
X17277972Y-47196875D01*
X17284204Y-47200628D01*
X17284209Y-47200630D01*
X17420770Y-47255959D01*
X17466636Y-47274542D01*
X17589591Y-47303055D01*
X17650450Y-47337374D01*
X17683094Y-47399149D01*
X17677158Y-47468766D01*
X17634526Y-47524122D01*
X17590537Y-47544420D01*
X17587306Y-47545195D01*
X17422552Y-47598728D01*
X17268211Y-47677368D01*
X17188256Y-47735459D01*
X17128072Y-47779186D01*
X17128070Y-47779188D01*
X17128069Y-47779188D01*
X17005588Y-47901669D01*
X17005588Y-47901670D01*
X17005586Y-47901672D01*
X16961859Y-47961856D01*
X16903768Y-48041811D01*
X16825128Y-48196152D01*
X16771597Y-48360902D01*
X16744500Y-48531989D01*
X16744500Y-48705211D01*
X16771598Y-48876301D01*
X16825127Y-49041045D01*
X16903768Y-49195388D01*
X17005586Y-49335528D01*
X17128072Y-49458014D01*
X17268212Y-49559832D01*
X17422555Y-49638473D01*
X17587299Y-49692002D01*
X17758389Y-49719100D01*
X17758390Y-49719100D01*
X17931610Y-49719100D01*
X17931611Y-49719100D01*
X18102701Y-49692002D01*
X18267445Y-49638473D01*
X18421788Y-49559832D01*
X18561928Y-49458014D01*
X18684414Y-49335528D01*
X18786232Y-49195388D01*
X18864873Y-49041045D01*
X18918402Y-48876301D01*
X18945500Y-48705211D01*
X18945500Y-48531989D01*
X18918402Y-48360899D01*
X18864873Y-48196155D01*
X18786232Y-48041812D01*
X18684414Y-47901672D01*
X18561928Y-47779186D01*
X18421788Y-47677368D01*
X18267445Y-47598727D01*
X18178679Y-47569885D01*
X18102705Y-47545199D01*
X18100724Y-47544724D01*
X18100050Y-47544337D01*
X18098068Y-47543693D01*
X18098203Y-47543276D01*
X18040134Y-47509930D01*
X18007973Y-47447903D01*
X18014452Y-47378334D01*
X18057514Y-47323312D01*
X18099797Y-47303805D01*
X18102822Y-47303054D01*
X18241854Y-47268534D01*
X18341530Y-47226339D01*
X18427602Y-47189903D01*
X18428165Y-47191233D01*
X18477853Y-47179100D01*
X18719676Y-47179100D01*
X18719677Y-47179099D01*
X18792740Y-47164566D01*
X18875601Y-47109201D01*
X18930966Y-47026340D01*
X18945500Y-46953274D01*
X18945500Y-46709597D01*
X18963275Y-46645627D01*
X18967028Y-46639394D01*
X18967030Y-46639389D01*
X18970043Y-46631952D01*
X19040942Y-46456964D01*
X19085407Y-46265219D01*
X19090583Y-46192225D01*
X19099329Y-46068881D01*
X19093000Y-45995718D01*
X19082365Y-45872778D01*
X19034934Y-45681745D01*
X19013848Y-45631935D01*
X18956303Y-45495997D01*
X18957633Y-45495433D01*
X18945500Y-45445746D01*
X18945500Y-45203923D01*
X18945499Y-45203921D01*
X18930967Y-45130864D01*
X18930966Y-45130860D01*
X18913531Y-45104766D01*
X18875601Y-45047999D01*
X18792740Y-44992634D01*
X18792739Y-44992633D01*
X18792735Y-44992632D01*
X18719677Y-44978100D01*
X18719674Y-44978100D01*
X18524446Y-44978100D01*
X18457407Y-44958415D01*
X18444648Y-44949012D01*
X17650157Y-44281031D01*
X17650156Y-44281030D01*
X17646061Y-44277587D01*
X17614646Y-44246172D01*
X17570852Y-44214354D01*
X17567483Y-44211521D01*
X17529412Y-44179513D01*
X17529408Y-44179510D01*
X17499472Y-44161483D01*
X17495932Y-44159351D01*
X17487025Y-44153449D01*
X17455405Y-44130476D01*
X17453069Y-44129286D01*
X17411083Y-44107892D01*
X17403413Y-44103636D01*
X17360792Y-44077971D01*
X17360788Y-44077969D01*
X17341747Y-44070254D01*
X17324574Y-44063296D01*
X17314848Y-44058859D01*
X17280029Y-44041117D01*
X17259609Y-44034482D01*
X17228539Y-44024387D01*
X17178364Y-44004058D01*
X17135087Y-43994022D01*
X17129994Y-43992367D01*
X17129992Y-43992365D01*
X17092829Y-43980291D01*
X17092831Y-43980291D01*
X17043691Y-43972508D01*
X17043691Y-43972507D01*
X17039335Y-43971817D01*
X16986619Y-43959593D01*
X16942309Y-43956450D01*
X16937040Y-43955616D01*
X16937024Y-43955614D01*
X16898417Y-43949500D01*
X16898416Y-43949500D01*
X16844279Y-43949500D01*
X16790279Y-43945671D01*
X16746016Y-43949500D01*
X12676683Y-43949500D01*
X12662892Y-43948731D01*
X12654061Y-43947742D01*
X12641278Y-43946312D01*
X12641277Y-43946312D01*
X12611550Y-43947669D01*
X12574280Y-43949371D01*
X12571454Y-43949500D01*
X12501583Y-43949500D01*
X12473289Y-43953980D01*
X12466378Y-43954296D01*
X12466374Y-43954297D01*
X12444652Y-43955289D01*
X12444644Y-43955290D01*
X12387191Y-43967098D01*
X12376193Y-43969359D01*
X12307174Y-43980291D01*
X12279931Y-43989142D01*
X12273160Y-43990534D01*
X12273150Y-43990537D01*
X12251848Y-43994916D01*
X12251833Y-43994920D01*
X12189079Y-44018524D01*
X12189080Y-44018525D01*
X12186408Y-44019529D01*
X12119975Y-44041116D01*
X12094440Y-44054126D01*
X12087968Y-44056561D01*
X12067615Y-44064217D01*
X12067605Y-44064221D01*
X12009315Y-44097352D01*
X12009316Y-44097353D01*
X12006842Y-44098758D01*
X11944595Y-44130476D01*
X11921418Y-44147313D01*
X11915400Y-44150735D01*
X11915399Y-44150737D01*
X11896495Y-44161482D01*
X11844093Y-44203333D01*
X11844094Y-44203334D01*
X11841877Y-44205104D01*
X11785354Y-44246172D01*
X11765090Y-44266434D01*
X11759686Y-44270751D01*
X11759683Y-44270751D01*
X10769108Y-45061922D01*
X10764611Y-45065349D01*
X10710360Y-45104766D01*
X10710354Y-45104772D01*
X10694972Y-45120152D01*
X10684689Y-45129349D01*
X10667698Y-45142920D01*
X10667691Y-45142926D01*
X10622483Y-45192457D01*
X10622484Y-45192458D01*
X10620571Y-45194553D01*
X10571172Y-45243954D01*
X10554332Y-45267130D01*
X10549669Y-45272240D01*
X10549667Y-45272243D01*
X10535007Y-45288306D01*
X10498099Y-45344307D01*
X10496534Y-45346680D01*
X10455476Y-45403195D01*
X10442472Y-45428716D01*
X10438665Y-45434493D01*
X10438663Y-45434498D01*
X10426694Y-45452661D01*
X10399008Y-45513733D01*
X10397833Y-45516322D01*
X10366116Y-45578575D01*
X10357260Y-45605828D01*
X10345427Y-45631933D01*
X10345426Y-45631935D01*
X10345425Y-45631935D01*
X10327637Y-45696580D01*
X10326013Y-45701996D01*
X10305290Y-45765777D01*
X10301887Y-45787261D01*
X10301886Y-45787260D01*
X10300803Y-45794095D01*
X10293205Y-45821712D01*
X10285438Y-45891104D01*
X10284994Y-45893911D01*
X10284991Y-45893934D01*
X10274500Y-45960181D01*
X10274500Y-45981926D01*
X10273731Y-45995718D01*
X10271313Y-46017322D01*
X9800500Y-46017322D01*
X9800500Y-44881721D01*
X9806349Y-44861798D01*
X9807356Y-44841061D01*
X9815994Y-44828952D01*
X9820185Y-44814682D01*
X9835875Y-44801085D01*
X9847935Y-44784183D01*
X9866591Y-44774470D01*
X9872989Y-44768927D01*
X9878516Y-44766563D01*
X9887809Y-44762851D01*
X9891836Y-44762051D01*
X9945165Y-44739961D01*
X10073914Y-44686632D01*
X10237782Y-44577139D01*
X10377139Y-44437782D01*
X10377140Y-44437779D01*
X10384206Y-44430714D01*
X10384209Y-44430710D01*
X13637778Y-41177141D01*
X13637782Y-41177139D01*
X13777139Y-41037782D01*
X13886632Y-40873914D01*
X13939961Y-40745165D01*
X13962051Y-40691836D01*
X13990673Y-40547943D01*
X14000500Y-40498541D01*
X14000500Y-38665782D01*
X14020185Y-38598743D01*
X14036819Y-38578101D01*
X15206307Y-37408613D01*
X15854292Y-37408613D01*
X15854292Y-37958600D01*
X16921280Y-37958600D01*
X16888367Y-38015607D01*
X16854292Y-38142774D01*
X16854292Y-38274426D01*
X16888367Y-38401593D01*
X16921280Y-38458600D01*
X15854293Y-38458600D01*
X15854293Y-39008586D01*
X15864786Y-39111297D01*
X15919933Y-39277719D01*
X15919935Y-39277724D01*
X16011976Y-39426945D01*
X16135946Y-39550915D01*
X16285167Y-39642956D01*
X16285172Y-39642958D01*
X16451594Y-39698105D01*
X16451601Y-39698106D01*
X16554311Y-39708599D01*
X17104291Y-39708599D01*
X17104292Y-39708598D01*
X17104292Y-38641612D01*
X17161299Y-38674525D01*
X17288466Y-38708600D01*
X17420118Y-38708600D01*
X17547285Y-38674525D01*
X17604292Y-38641612D01*
X17604292Y-39708599D01*
X18154264Y-39708599D01*
X18154278Y-39708598D01*
X18256989Y-39698105D01*
X18423411Y-39642958D01*
X18423416Y-39642956D01*
X18572637Y-39550915D01*
X18696607Y-39426945D01*
X18788648Y-39277724D01*
X18788650Y-39277719D01*
X18843797Y-39111297D01*
X18843798Y-39111290D01*
X18854291Y-39008586D01*
X18854292Y-39008573D01*
X18854292Y-38458600D01*
X17787304Y-38458600D01*
X17820217Y-38401593D01*
X17854292Y-38274426D01*
X17854292Y-38142774D01*
X17820217Y-38015607D01*
X17787304Y-37958600D01*
X18854291Y-37958600D01*
X18854291Y-37408628D01*
X18854290Y-37408613D01*
X18843797Y-37305902D01*
X18788650Y-37139480D01*
X18788648Y-37139475D01*
X18696607Y-36990254D01*
X18572637Y-36866284D01*
X18423416Y-36774243D01*
X18423411Y-36774241D01*
X18256989Y-36719094D01*
X18256982Y-36719093D01*
X18154278Y-36708600D01*
X17604292Y-36708600D01*
X17604292Y-37775588D01*
X17547285Y-37742675D01*
X17420118Y-37708600D01*
X17288466Y-37708600D01*
X17161299Y-37742675D01*
X17104292Y-37775588D01*
X17104292Y-36708600D01*
X16554320Y-36708600D01*
X16554304Y-36708601D01*
X16451594Y-36719094D01*
X16285172Y-36774241D01*
X16285167Y-36774243D01*
X16135946Y-36866284D01*
X16011976Y-36990254D01*
X15919935Y-37139475D01*
X15919933Y-37139480D01*
X15864786Y-37305902D01*
X15864785Y-37305909D01*
X15854292Y-37408613D01*
X15206307Y-37408613D01*
X18978101Y-33636819D01*
X19039424Y-33603334D01*
X19065782Y-33600500D01*
X19098543Y-33600500D01*
X19228582Y-33574632D01*
X19291835Y-33562051D01*
X19473914Y-33486632D01*
X19637782Y-33377139D01*
X19658983Y-33355938D01*
X19737819Y-33277103D01*
X19799142Y-33243618D01*
X19868834Y-33248602D01*
X19924767Y-33290474D01*
X19949184Y-33355938D01*
X19949500Y-33364784D01*
X19949500Y-37143800D01*
X19945713Y-37185849D01*
X19949500Y-37242068D01*
X19949500Y-37298417D01*
X19954769Y-37331690D01*
X19955234Y-37334624D01*
X19955233Y-37334624D01*
X19956104Y-37340127D01*
X19958942Y-37382237D01*
X19971471Y-37437152D01*
X19972125Y-37441276D01*
X19972127Y-37441286D01*
X19980291Y-37492830D01*
X19991613Y-37527675D01*
X19994574Y-37538404D01*
X20002727Y-37574131D01*
X20002733Y-37574150D01*
X20022150Y-37622564D01*
X20023707Y-37626446D01*
X20041116Y-37680025D01*
X20060278Y-37717635D01*
X20062352Y-37722804D01*
X20062354Y-37722808D01*
X20075998Y-37756825D01*
X20075999Y-37756828D01*
X20102749Y-37801606D01*
X20106780Y-37808899D01*
X20130476Y-37855405D01*
X20155294Y-37889564D01*
X20176943Y-37925803D01*
X20213041Y-37969047D01*
X20215492Y-37972420D01*
X20215499Y-37972429D01*
X20246171Y-38014645D01*
X20272081Y-38040555D01*
X20279593Y-38048773D01*
X20303079Y-38076908D01*
X20345506Y-38113980D01*
X20385354Y-38153828D01*
X20419511Y-38178644D01*
X20423706Y-38182310D01*
X21462915Y-39090354D01*
X21474519Y-39101932D01*
X22418409Y-40177327D01*
X22425532Y-40186238D01*
X22446171Y-40214645D01*
X22484140Y-40252614D01*
X22489652Y-40258496D01*
X22525089Y-40298870D01*
X22552099Y-40321315D01*
X22560529Y-40329003D01*
X23113181Y-40881655D01*
X23146666Y-40942978D01*
X23149500Y-40969336D01*
X23149500Y-60104233D01*
X23129815Y-60171272D01*
X23077011Y-60217027D01*
X23007853Y-60226971D01*
X22944297Y-60197946D01*
X22918113Y-60166233D01*
X22904565Y-60142767D01*
X22826936Y-60008310D01*
X22763711Y-59925913D01*
X22679266Y-59815862D01*
X22679260Y-59815855D01*
X22507743Y-59644338D01*
X22507736Y-59644332D01*
X22315293Y-59496666D01*
X22315292Y-59496665D01*
X22315289Y-59496663D01*
X22105212Y-59375375D01*
X22047790Y-59351590D01*
X21881104Y-59282546D01*
X21646785Y-59219760D01*
X21406289Y-59188099D01*
X21406288Y-59188099D01*
X21226139Y-59188099D01*
X21159100Y-59168414D01*
X21139690Y-59152996D01*
X20888051Y-58908286D01*
X20853714Y-58847436D01*
X20850500Y-58819389D01*
X20850500Y-57301577D01*
X20832586Y-57188483D01*
X20819709Y-57107174D01*
X20819708Y-57107170D01*
X20819708Y-57107169D01*
X20760391Y-56924612D01*
X20759329Y-56920847D01*
X20669523Y-56744594D01*
X20553828Y-56585354D01*
X19705254Y-55736780D01*
X19701545Y-55732907D01*
X18700131Y-54640892D01*
X18700129Y-54640891D01*
X18700127Y-54640890D01*
X18700125Y-54640887D01*
X18546036Y-54518414D01*
X18374684Y-54421555D01*
X18332937Y-54405964D01*
X18316962Y-54393995D01*
X18298519Y-54386357D01*
X18289573Y-54373474D01*
X18277023Y-54364071D01*
X18270054Y-54345364D01*
X18258668Y-54328966D01*
X18258107Y-54313292D01*
X18252633Y-54298596D01*
X18256884Y-54279092D01*
X18256171Y-54259141D01*
X18264174Y-54245651D01*
X18267514Y-54230330D01*
X18281634Y-54216221D01*
X18291821Y-54199051D01*
X18309213Y-54188665D01*
X18316940Y-54180945D01*
X18320812Y-54178920D01*
X18328422Y-54175110D01*
X18339811Y-54171248D01*
X18413006Y-54132765D01*
X18414101Y-54132218D01*
X18422903Y-54130629D01*
X18469610Y-54119100D01*
X18719676Y-54119100D01*
X18719677Y-54119099D01*
X18792740Y-54104566D01*
X18875601Y-54049201D01*
X18930966Y-53966340D01*
X18945500Y-53893274D01*
X18945500Y-53643245D01*
X18958304Y-53588368D01*
X19009929Y-53483761D01*
X19068355Y-53295800D01*
X19070121Y-53283650D01*
X19096656Y-53101017D01*
X19096657Y-53101012D01*
X19094139Y-52904195D01*
X19060863Y-52710195D01*
X18997648Y-52523789D01*
X18994906Y-52518574D01*
X18959744Y-52451692D01*
X18945500Y-52393989D01*
X18945500Y-52143923D01*
X18945499Y-52143921D01*
X18930967Y-52070864D01*
X18930966Y-52070860D01*
X18875601Y-51987999D01*
X18792740Y-51932634D01*
X18792739Y-51932633D01*
X18792735Y-51932632D01*
X18719677Y-51918100D01*
X18719674Y-51918100D01*
X18557952Y-51918100D01*
X18490913Y-51898415D01*
X18471400Y-51882896D01*
X17679129Y-51110641D01*
X17679128Y-51110640D01*
X17678573Y-51110099D01*
X17614646Y-51046172D01*
X17608146Y-51041450D01*
X17602386Y-51035835D01*
X17602381Y-51035831D01*
X17529196Y-50984077D01*
X17528564Y-50983630D01*
X17455405Y-50930476D01*
X17448235Y-50926823D01*
X17441670Y-50922180D01*
X17360609Y-50882175D01*
X17280025Y-50841116D01*
X17272372Y-50838629D01*
X17265162Y-50835071D01*
X17222339Y-50821759D01*
X17179587Y-50808470D01*
X17178079Y-50807990D01*
X17092836Y-50780293D01*
X17092806Y-50780286D01*
X17084873Y-50779029D01*
X17077200Y-50776645D01*
X16987827Y-50763659D01*
X16986953Y-50763521D01*
X16986929Y-50763518D01*
X16898420Y-50749499D01*
X16893567Y-50749118D01*
X16893569Y-50749083D01*
X16887278Y-50748628D01*
X16887276Y-50748663D01*
X16882417Y-50748343D01*
X16882412Y-50748343D01*
X16792758Y-50749490D01*
X16791172Y-50749500D01*
X12623030Y-50749500D01*
X12547693Y-50746724D01*
X12524719Y-50749500D01*
X12501581Y-50749500D01*
X12429360Y-50760937D01*
X12429359Y-50760936D01*
X12427068Y-50761298D01*
X12352282Y-50770336D01*
X12330037Y-50776667D01*
X12322668Y-50777835D01*
X12322658Y-50777838D01*
X12307176Y-50780290D01*
X12237649Y-50802880D01*
X12233286Y-50804209D01*
X12162969Y-50824227D01*
X12148751Y-50830824D01*
X12134896Y-50836267D01*
X12119970Y-50841117D01*
X12054822Y-50874310D01*
X12054823Y-50874311D01*
X12052794Y-50875345D01*
X11984419Y-50907070D01*
X11965214Y-50919969D01*
X11958561Y-50923359D01*
X11958559Y-50923359D01*
X11944600Y-50930472D01*
X11944596Y-50930475D01*
X11944595Y-50930476D01*
X11885442Y-50973452D01*
X11881714Y-50976057D01*
X11821024Y-51016824D01*
X11821020Y-51016827D01*
X11809536Y-51027495D01*
X11804066Y-51032576D01*
X11785354Y-51046172D01*
X11732070Y-51099454D01*
X11730382Y-51101023D01*
X10734539Y-52026092D01*
X10723034Y-52035558D01*
X10710353Y-52044771D01*
X10710347Y-52044776D01*
X10658664Y-52096459D01*
X10655379Y-52099626D01*
X10601810Y-52149388D01*
X10592134Y-52161724D01*
X10587530Y-52167594D01*
X10571172Y-52183953D01*
X10526889Y-52244900D01*
X10525472Y-52246708D01*
X10525456Y-52246730D01*
X10480331Y-52304262D01*
X10472703Y-52317960D01*
X10472702Y-52317959D01*
X10469068Y-52324483D01*
X10455476Y-52343194D01*
X10421262Y-52410341D01*
X10420137Y-52412362D01*
X10384579Y-52476223D01*
X10384577Y-52476227D01*
X10379190Y-52490941D01*
X10373237Y-52504596D01*
X10366120Y-52518563D01*
X10366114Y-52518578D01*
X10343518Y-52588115D01*
X10343519Y-52588116D01*
X10342813Y-52590287D01*
X10316900Y-52661062D01*
X10312441Y-52683762D01*
X10310136Y-52690858D01*
X10305294Y-52705762D01*
X10305292Y-52705768D01*
X10305291Y-52705773D01*
X10293496Y-52780242D01*
X10278972Y-52854206D01*
X10278120Y-52877309D01*
X10276953Y-52884681D01*
X10276953Y-52884690D01*
X10274500Y-52900180D01*
X10274500Y-52973282D01*
X10274416Y-52977847D01*
X10271724Y-53050906D01*
X10274500Y-53073880D01*
X10274500Y-53097016D01*
X10286290Y-53171462D01*
X10286562Y-53173706D01*
X10286561Y-53173709D01*
X10295335Y-53246313D01*
X10295336Y-53246320D01*
X10299626Y-53261392D01*
X10299627Y-53261392D01*
X10301671Y-53268574D01*
X10305291Y-53291425D01*
X10328587Y-53363122D01*
X10349228Y-53435630D01*
X10358965Y-53456617D01*
X10366116Y-53478624D01*
X10400343Y-53545800D01*
X10432070Y-53614180D01*
X10440807Y-53627187D01*
X10448355Y-53640029D01*
X10455475Y-53654003D01*
X10455478Y-53654008D01*
X10498445Y-53713147D01*
X10499801Y-53715013D01*
X10541823Y-53777573D01*
X10557573Y-53794528D01*
X10571172Y-53813245D01*
X10622843Y-53864916D01*
X10626012Y-53868203D01*
X10675787Y-53921786D01*
X10693995Y-53936068D01*
X10710354Y-53952427D01*
X10771323Y-53996724D01*
X10773117Y-53998131D01*
X10773125Y-53998137D01*
X10796108Y-54016164D01*
X10830660Y-54043266D01*
X10836945Y-54046765D01*
X10844351Y-54050890D01*
X10850878Y-54054524D01*
X10869595Y-54068123D01*
X10936774Y-54102352D01*
X10974314Y-54123255D01*
X11002624Y-54139019D01*
X11002626Y-54139019D01*
X11002630Y-54139022D01*
X11017338Y-54144407D01*
X11031007Y-54150365D01*
X11044975Y-54157483D01*
X11116676Y-54180780D01*
X11187463Y-54206699D01*
X11210166Y-54211157D01*
X11232174Y-54218308D01*
X11267950Y-54223974D01*
X11304398Y-54229747D01*
X11304397Y-54229747D01*
X11306661Y-54230105D01*
X11380607Y-54244627D01*
X11403726Y-54245478D01*
X11426583Y-54249099D01*
X11499684Y-54249099D01*
X11504249Y-54249183D01*
X11505898Y-54249243D01*
X11577307Y-54251875D01*
X11591055Y-54250213D01*
X11592875Y-54249994D01*
X11600281Y-54249099D01*
X11623417Y-54249099D01*
X11697864Y-54237307D01*
X11772719Y-54228263D01*
X11794975Y-54221927D01*
X11817826Y-54218308D01*
X11889523Y-54195011D01*
X11962031Y-54174371D01*
X11976248Y-54167774D01*
X11990114Y-54162327D01*
X12005025Y-54157483D01*
X12072201Y-54123255D01*
X12140581Y-54091529D01*
X12159783Y-54078630D01*
X12166437Y-54075240D01*
X12166440Y-54075238D01*
X12180405Y-54068123D01*
X12239554Y-54025147D01*
X12243282Y-54022543D01*
X12281705Y-53996734D01*
X12303974Y-53981776D01*
X12320930Y-53966024D01*
X12339646Y-53952427D01*
X12392942Y-53899130D01*
X12967601Y-53365313D01*
X13055512Y-53283650D01*
X13118026Y-53252445D01*
X13139905Y-53250500D01*
X16240936Y-53250500D01*
X16307975Y-53270185D01*
X16327488Y-53285704D01*
X16337842Y-53295796D01*
X16705333Y-53654003D01*
X16707052Y-53655678D01*
X16741319Y-53716568D01*
X16744500Y-53744474D01*
X16744500Y-53893278D01*
X16759032Y-53966335D01*
X16759033Y-53966339D01*
X16759034Y-53966340D01*
X16814399Y-54049201D01*
X16895611Y-54103464D01*
X16897260Y-54104566D01*
X16897264Y-54104567D01*
X16970321Y-54119099D01*
X16970324Y-54119100D01*
X16970326Y-54119100D01*
X17220354Y-54119100D01*
X17232654Y-54121969D01*
X17241680Y-54120948D01*
X17275230Y-54131904D01*
X17369668Y-54178510D01*
X17421074Y-54225830D01*
X17438736Y-54293431D01*
X17417047Y-54359849D01*
X17366257Y-54402521D01*
X17236458Y-54461733D01*
X17072356Y-54570440D01*
X16927286Y-54703476D01*
X16804815Y-54857562D01*
X16804814Y-54857564D01*
X16707955Y-55028916D01*
X16639093Y-55213310D01*
X16639091Y-55213316D01*
X16599926Y-55406195D01*
X16599925Y-55406208D01*
X16591413Y-55602850D01*
X16591413Y-55602851D01*
X16591414Y-55602856D01*
X16613771Y-55798415D01*
X16666445Y-55988070D01*
X16748138Y-56167149D01*
X16856840Y-56331243D01*
X16856842Y-56331246D01*
X17825424Y-57387456D01*
X17830202Y-57392666D01*
X17846172Y-57414646D01*
X17896638Y-57465112D01*
X17898451Y-57467089D01*
X17944874Y-57517712D01*
X17944881Y-57517718D01*
X17960614Y-57530223D01*
X17971142Y-57539616D01*
X18313181Y-57881655D01*
X18346666Y-57942978D01*
X18349500Y-57969336D01*
X18349500Y-59123076D01*
X18329815Y-59190115D01*
X18277011Y-59235870D01*
X18207853Y-59245814D01*
X18144297Y-59216789D01*
X18137819Y-59210757D01*
X18023345Y-59096283D01*
X17874124Y-59004242D01*
X17874119Y-59004240D01*
X17707697Y-58949093D01*
X17707690Y-58949092D01*
X17604986Y-58938599D01*
X16455000Y-58938599D01*
X16455000Y-60276238D01*
X16438351Y-60269342D01*
X16283793Y-60238599D01*
X16126207Y-60238599D01*
X15971649Y-60269342D01*
X15955000Y-60276238D01*
X15955000Y-58938599D01*
X14805028Y-58938599D01*
X14805012Y-58938600D01*
X14702302Y-58949093D01*
X14535880Y-59004240D01*
X14535875Y-59004242D01*
X14386654Y-59096283D01*
X14262684Y-59220253D01*
X14170643Y-59369474D01*
X14170641Y-59369479D01*
X14115494Y-59535901D01*
X14115493Y-59535908D01*
X14105000Y-59638612D01*
X14105000Y-60788599D01*
X15442639Y-60788599D01*
X15435743Y-60805248D01*
X15405000Y-60959806D01*
X15405000Y-61117392D01*
X15435743Y-61271950D01*
X15442639Y-61288599D01*
X14105001Y-61288599D01*
X14105001Y-62438585D01*
X14115494Y-62541296D01*
X14170641Y-62707718D01*
X14170643Y-62707723D01*
X14262684Y-62856944D01*
X14386654Y-62980914D01*
X14535875Y-63072955D01*
X14535880Y-63072957D01*
X14702302Y-63128104D01*
X14702309Y-63128105D01*
X14805019Y-63138598D01*
X15954999Y-63138598D01*
X15955000Y-63138597D01*
X15955000Y-61800959D01*
X15971649Y-61807856D01*
X16126207Y-61838599D01*
X16283793Y-61838599D01*
X16438351Y-61807856D01*
X16455000Y-61800959D01*
X16455000Y-63138598D01*
X17604972Y-63138598D01*
X17604986Y-63138597D01*
X17707697Y-63128104D01*
X17874119Y-63072957D01*
X17874124Y-63072955D01*
X18023345Y-62980914D01*
X18147315Y-62856944D01*
X18239356Y-62707723D01*
X18239358Y-62707718D01*
X18294505Y-62541296D01*
X18294506Y-62541289D01*
X18304999Y-62438585D01*
X18305000Y-62438572D01*
X18305000Y-61288599D01*
X16967361Y-61288599D01*
X16974257Y-61271950D01*
X17005000Y-61117392D01*
X17005000Y-60959806D01*
X16974257Y-60805248D01*
X16967361Y-60788599D01*
X18304999Y-60788599D01*
X18304999Y-60126695D01*
X18313880Y-60096449D01*
X18321019Y-60065733D01*
X18323650Y-60063174D01*
X18324684Y-60059656D01*
X18348500Y-60039018D01*
X18371119Y-60017032D01*
X18374716Y-60016302D01*
X18377488Y-60013901D01*
X18408693Y-60009414D01*
X18439595Y-60003149D01*
X18443013Y-60004479D01*
X18446646Y-60003957D01*
X18475333Y-60017057D01*
X18504707Y-60028490D01*
X18508172Y-60032055D01*
X18510202Y-60032982D01*
X18529308Y-60053797D01*
X18530401Y-60055301D01*
X18539090Y-60069261D01*
X18539729Y-60070272D01*
X18592921Y-60141374D01*
X18593940Y-60142754D01*
X18646172Y-60214646D01*
X18646179Y-60214653D01*
X18646956Y-60215564D01*
X18656829Y-60226961D01*
X18657636Y-60227880D01*
X18721329Y-60289820D01*
X18721946Y-60290420D01*
X18785354Y-60353828D01*
X18792458Y-60358989D01*
X19366590Y-60917310D01*
X19396949Y-60946833D01*
X19431286Y-61007683D01*
X19434500Y-61035730D01*
X19434500Y-61159887D01*
X19466161Y-61400384D01*
X19528947Y-61634703D01*
X19621773Y-61858804D01*
X19621776Y-61858811D01*
X19743064Y-62068888D01*
X19743066Y-62068891D01*
X19743067Y-62068892D01*
X19890733Y-62261335D01*
X19890739Y-62261342D01*
X20062256Y-62432859D01*
X20062263Y-62432865D01*
X20144648Y-62496081D01*
X20254711Y-62580535D01*
X20464788Y-62701823D01*
X20688900Y-62794653D01*
X20923211Y-62857437D01*
X21103586Y-62881183D01*
X21163711Y-62889099D01*
X21163712Y-62889099D01*
X21406289Y-62889099D01*
X21454970Y-62882690D01*
X21646789Y-62857437D01*
X21881100Y-62794653D01*
X22105212Y-62701823D01*
X22315289Y-62580535D01*
X22507738Y-62432864D01*
X22679265Y-62261337D01*
X22826936Y-62068888D01*
X22918114Y-61910963D01*
X22968680Y-61862748D01*
X23037287Y-61849525D01*
X23102152Y-61875493D01*
X23142680Y-61932408D01*
X23149500Y-61972964D01*
X23149500Y-63430664D01*
X23129815Y-63497703D01*
X23113181Y-63518345D01*
X22518345Y-64113181D01*
X22457022Y-64146666D01*
X22430664Y-64149500D01*
X17613281Y-64149500D01*
X17528163Y-64147692D01*
X17514935Y-64149500D01*
X17501583Y-64149500D01*
X17418802Y-64162610D01*
X17416200Y-64162993D01*
X17333154Y-64174344D01*
X17333130Y-64174350D01*
X17328406Y-64175774D01*
X17328405Y-64175773D01*
X17320344Y-64178204D01*
X17307174Y-64180291D01*
X17226259Y-64206581D01*
X17224986Y-64206965D01*
X17224984Y-64206965D01*
X17144706Y-64231178D01*
X17144692Y-64231183D01*
X17140252Y-64233328D01*
X17136959Y-64234918D01*
X17132670Y-64236990D01*
X17119975Y-64241116D01*
X17044207Y-64279720D01*
X17042981Y-64280313D01*
X17042948Y-64280330D01*
X16967457Y-64316797D01*
X16967449Y-64316802D01*
X16963403Y-64319612D01*
X16948986Y-64328237D01*
X16944600Y-64330472D01*
X16944593Y-64330476D01*
X16876758Y-64379759D01*
X16876759Y-64379760D01*
X16875695Y-64380533D01*
X16805795Y-64429086D01*
X16796156Y-64438322D01*
X16789343Y-64443273D01*
X16785354Y-64446171D01*
X16726065Y-64505459D01*
X16724184Y-64507300D01*
X15788694Y-65403873D01*
X15788682Y-65403887D01*
X15669637Y-65560626D01*
X15576572Y-65734070D01*
X15511784Y-65919939D01*
X15511783Y-65919941D01*
X15476871Y-66113650D01*
X15476871Y-66113653D01*
X15473099Y-66291261D01*
X15472692Y-66310437D01*
X15481412Y-66374236D01*
X15499347Y-66505459D01*
X15499348Y-66505461D01*
X15525494Y-66592153D01*
X15556183Y-66693906D01*
X15556184Y-66693910D01*
X15556186Y-66693913D01*
X15641797Y-66871140D01*
X15641801Y-66871147D01*
X15754086Y-67032806D01*
X15856853Y-67140033D01*
X15890282Y-67174913D01*
X15890285Y-67174915D01*
X15890287Y-67174917D01*
X15935837Y-67209513D01*
X16047029Y-67293964D01*
X16220471Y-67387028D01*
X16406337Y-67451815D01*
X16406340Y-67451815D01*
X16406341Y-67451816D01*
X16475348Y-67464253D01*
X16600049Y-67486728D01*
X16796837Y-67490908D01*
X16991857Y-67464253D01*
X17180306Y-67407417D01*
X17357544Y-67321801D01*
X17519205Y-67209514D01*
X17703583Y-67032806D01*
X18066512Y-66684976D01*
X18128532Y-66652801D01*
X18152311Y-66650500D01*
X23098422Y-66650500D01*
X23292826Y-66619709D01*
X23318580Y-66611341D01*
X23480026Y-66558884D01*
X23655405Y-66469524D01*
X23814646Y-66353828D01*
X25353828Y-64814646D01*
X25469524Y-64655405D01*
X25558884Y-64480026D01*
X25619709Y-64292826D01*
X25627899Y-64241116D01*
X25650500Y-64098422D01*
X25650500Y-40301577D01*
X25619709Y-40107173D01*
X25580200Y-39985580D01*
X25558884Y-39919975D01*
X25558882Y-39919972D01*
X25558882Y-39919970D01*
X25512593Y-39829123D01*
X25469524Y-39744595D01*
X25451530Y-39719828D01*
X25353829Y-39585355D01*
X24315860Y-38547386D01*
X24310347Y-38541503D01*
X24295500Y-38524588D01*
X24121769Y-38326652D01*
X23335879Y-37431268D01*
X23334890Y-37430127D01*
X23331665Y-37426362D01*
X23308120Y-37393954D01*
X23278819Y-37364653D01*
X23275707Y-37361019D01*
X23275628Y-37360843D01*
X23274698Y-37359826D01*
X23267427Y-37351116D01*
X23251213Y-37331692D01*
X23245642Y-37326824D01*
X23243951Y-37325318D01*
X23238722Y-37320575D01*
X23229203Y-37309730D01*
X23200131Y-37285571D01*
X23198134Y-37283760D01*
X23197889Y-37283360D01*
X23193761Y-37279595D01*
X23168937Y-37254771D01*
X23139283Y-37233226D01*
X23130580Y-37226285D01*
X22994649Y-37107511D01*
X22580386Y-36745534D01*
X22492910Y-36669099D01*
X22455379Y-36610165D01*
X22450500Y-36575723D01*
X22450500Y-12101577D01*
X22419709Y-11907173D01*
X22358882Y-11719970D01*
X22269523Y-11544594D01*
X22153828Y-11385354D01*
X22014646Y-11246172D01*
X19549936Y-8781462D01*
X19546660Y-8777035D01*
X19480357Y-8711883D01*
X19414646Y-8646172D01*
X19414643Y-8646170D01*
X19410938Y-8643005D01*
X19411102Y-8642812D01*
X19403622Y-8636480D01*
X19159391Y-8396489D01*
X19072745Y-8311347D01*
X23604400Y-8311347D01*
X23604400Y-10294230D01*
X23604401Y-10294239D01*
X23610631Y-10352201D01*
X23659544Y-10483340D01*
X23693018Y-10528055D01*
X23743418Y-10595381D01*
X23855461Y-10679256D01*
X23855460Y-10679256D01*
X23986589Y-10728165D01*
X23986592Y-10728165D01*
X23986596Y-10728167D01*
X24044565Y-10734399D01*
X26027434Y-10734398D01*
X26085404Y-10728167D01*
X26216539Y-10679256D01*
X26328582Y-10595381D01*
X26412457Y-10483338D01*
X26461368Y-10352203D01*
X26464816Y-10320129D01*
X26467599Y-10294250D01*
X26467599Y-10294239D01*
X26467600Y-10294234D01*
X26467599Y-8311365D01*
X26461368Y-8253395D01*
X26412457Y-8122260D01*
X26328582Y-8010217D01*
X26216539Y-7926342D01*
X26216537Y-7926341D01*
X26216539Y-7926341D01*
X26085410Y-7877432D01*
X26085405Y-7877431D01*
X26027443Y-7871199D01*
X24044568Y-7871199D01*
X24044559Y-7871200D01*
X23986597Y-7877430D01*
X23855458Y-7926343D01*
X23743418Y-8010217D01*
X23659542Y-8122260D01*
X23610633Y-8253388D01*
X23610632Y-8253393D01*
X23604400Y-8311347D01*
X19072745Y-8311347D01*
X18659709Y-7905481D01*
X18628688Y-7855352D01*
X18590318Y-7737260D01*
X18590316Y-7737254D01*
X18490659Y-7541669D01*
X18488014Y-7536477D01*
X18355563Y-7354174D01*
X18196225Y-7194836D01*
X18013922Y-7062385D01*
X17813144Y-6960082D01*
X17813141Y-6960081D01*
X17598835Y-6890450D01*
X17487551Y-6872824D01*
X17376269Y-6855199D01*
X17150931Y-6855199D01*
X17076742Y-6866949D01*
X16928364Y-6890450D01*
X16714058Y-6960081D01*
X16714055Y-6960082D01*
X16513277Y-7062385D01*
X16409267Y-7137953D01*
X16330975Y-7194836D01*
X16330973Y-7194838D01*
X16330972Y-7194838D01*
X16171639Y-7354171D01*
X16171639Y-7354172D01*
X16171637Y-7354174D01*
X16114754Y-7432466D01*
X16039186Y-7536476D01*
X15936883Y-7737254D01*
X15936882Y-7737257D01*
X15867251Y-7951563D01*
X15832000Y-8174130D01*
X15832000Y-8399467D01*
X15867251Y-8622034D01*
X15936882Y-8836340D01*
X15936883Y-8836343D01*
X15968510Y-8898413D01*
X16039186Y-9037121D01*
X16171637Y-9219424D01*
X16330975Y-9378762D01*
X16513278Y-9511213D01*
X16611753Y-9561388D01*
X16714055Y-9613515D01*
X16714061Y-9613517D01*
X16782091Y-9635620D01*
X16858896Y-9660575D01*
X16907486Y-9690059D01*
X17102918Y-9882098D01*
X17719309Y-10487789D01*
X17720080Y-10488554D01*
X19913181Y-12681655D01*
X19946666Y-12742978D01*
X19949500Y-12769336D01*
X19949500Y-21432557D01*
X19929815Y-21499596D01*
X19877011Y-21545351D01*
X19807853Y-21555295D01*
X19761089Y-21537377D01*
X19760870Y-21537789D01*
X19757595Y-21536039D01*
X19756617Y-21535664D01*
X19755508Y-21534923D01*
X19755488Y-21534912D01*
X19618917Y-21478343D01*
X19618907Y-21478340D01*
X19473920Y-21449500D01*
X19473918Y-21449500D01*
X19326082Y-21449500D01*
X19326080Y-21449500D01*
X19181092Y-21478340D01*
X19181082Y-21478343D01*
X19044511Y-21534912D01*
X19044498Y-21534919D01*
X18921584Y-21617048D01*
X18921579Y-21617052D01*
X18882165Y-21656466D01*
X18820842Y-21689951D01*
X18751150Y-21684965D01*
X18695217Y-21643093D01*
X18670801Y-21577629D01*
X18676554Y-21530466D01*
X18729295Y-21368144D01*
X18765000Y-21142716D01*
X18765000Y-20778600D01*
X17965000Y-20778600D01*
X17965000Y-20278600D01*
X18765000Y-20278600D01*
X18765000Y-19914483D01*
X18729295Y-19689055D01*
X18658769Y-19471995D01*
X18555150Y-19268633D01*
X18420995Y-19083985D01*
X18259614Y-18922604D01*
X18074966Y-18788449D01*
X17871602Y-18684829D01*
X17654541Y-18614303D01*
X17565000Y-18600121D01*
X17565000Y-19428598D01*
X17504598Y-19403579D01*
X17379019Y-19378600D01*
X17250981Y-19378600D01*
X17125402Y-19403579D01*
X17065000Y-19428598D01*
X17065000Y-18600121D01*
X17064999Y-18600121D01*
X16975458Y-18614303D01*
X16758397Y-18684829D01*
X16555033Y-18788449D01*
X16370385Y-18922604D01*
X16209004Y-19083985D01*
X16074849Y-19268633D01*
X15971230Y-19471995D01*
X15900704Y-19689055D01*
X15865000Y-19914483D01*
X15865000Y-20278600D01*
X16665000Y-20278600D01*
X16665000Y-20778600D01*
X15865000Y-20778600D01*
X15865000Y-21142716D01*
X15900704Y-21368144D01*
X15971230Y-21585204D01*
X16074849Y-21788566D01*
X16209004Y-21973214D01*
X16370385Y-22134595D01*
X16555033Y-22268750D01*
X16758395Y-22372369D01*
X16975455Y-22442895D01*
X17065000Y-22457078D01*
X17065000Y-21628601D01*
X17125402Y-21653621D01*
X17250981Y-21678600D01*
X17379019Y-21678600D01*
X17504598Y-21653621D01*
X17565000Y-21628601D01*
X17565000Y-22457077D01*
X17654544Y-22442895D01*
X17871604Y-22372369D01*
X18074966Y-22268750D01*
X18259614Y-22134595D01*
X18420998Y-21973211D01*
X18445321Y-21939733D01*
X18500650Y-21897066D01*
X18570264Y-21891086D01*
X18632059Y-21923692D01*
X18666417Y-21984530D01*
X18667257Y-22036808D01*
X18649500Y-22126077D01*
X18649500Y-22126082D01*
X18649500Y-22273918D01*
X18649500Y-22273920D01*
X18649499Y-22273920D01*
X18678340Y-22418907D01*
X18678343Y-22418917D01*
X18734912Y-22555488D01*
X18734919Y-22555501D01*
X18817048Y-22678415D01*
X18820914Y-22683126D01*
X18818787Y-22684870D01*
X18846636Y-22735733D01*
X18849500Y-22762229D01*
X18849500Y-23720612D01*
X18829815Y-23787651D01*
X18813181Y-23808293D01*
X18467607Y-24153866D01*
X18457784Y-24163688D01*
X18452711Y-24166764D01*
X18406655Y-24214816D01*
X18405714Y-24215758D01*
X18405669Y-24215805D01*
X18359486Y-24261989D01*
X18355758Y-24266847D01*
X18346914Y-24277149D01*
X18147126Y-24485605D01*
X18086527Y-24520384D01*
X18038205Y-24522278D01*
X17885551Y-24498100D01*
X17885546Y-24498100D01*
X17704454Y-24498100D01*
X17704449Y-24498100D01*
X17525589Y-24526429D01*
X17353363Y-24582387D01*
X17353360Y-24582388D01*
X17192002Y-24664606D01*
X17045505Y-24771041D01*
X17045500Y-24771045D01*
X16917445Y-24899100D01*
X16917441Y-24899105D01*
X16879318Y-24951578D01*
X16823988Y-24994244D01*
X16754375Y-25000223D01*
X16692580Y-24967618D01*
X16658223Y-24906779D01*
X16655000Y-24878693D01*
X16655000Y-24700772D01*
X16654999Y-24700755D01*
X16648598Y-24641227D01*
X16648596Y-24641220D01*
X16598354Y-24506513D01*
X16598350Y-24506506D01*
X16512190Y-24391412D01*
X16512187Y-24391409D01*
X16397093Y-24305249D01*
X16397086Y-24305245D01*
X16262379Y-24255003D01*
X16262372Y-24255001D01*
X16202844Y-24248600D01*
X15505000Y-24248600D01*
X15505000Y-25273322D01*
X15428694Y-25229267D01*
X15314244Y-25198600D01*
X15195756Y-25198600D01*
X15081306Y-25229267D01*
X15005000Y-25273322D01*
X15005000Y-24248600D01*
X14307155Y-24248600D01*
X14247627Y-24255001D01*
X14247620Y-24255003D01*
X14112913Y-24305245D01*
X14112906Y-24305249D01*
X13997812Y-24391409D01*
X13997809Y-24391412D01*
X13911649Y-24506506D01*
X13911645Y-24506513D01*
X13861403Y-24641220D01*
X13861401Y-24641227D01*
X13855000Y-24700755D01*
X13855000Y-25398600D01*
X14879722Y-25398600D01*
X14835667Y-25474906D01*
X14805000Y-25589356D01*
X14805000Y-25707844D01*
X14835667Y-25822294D01*
X14879722Y-25898600D01*
X13855000Y-25898600D01*
X13855000Y-26596439D01*
X13856700Y-26612242D01*
X13844296Y-26681002D01*
X13796687Y-26732140D01*
X13733411Y-26749500D01*
X12928724Y-26749500D01*
X12861685Y-26729815D01*
X12815930Y-26677011D01*
X12805986Y-26607853D01*
X12835011Y-26544297D01*
X12851023Y-26529600D01*
X12850788Y-26529325D01*
X12854495Y-26526157D01*
X12854501Y-26526153D01*
X12982553Y-26398101D01*
X13088996Y-26251594D01*
X13171211Y-26090239D01*
X13227171Y-25918009D01*
X13249885Y-25774600D01*
X13255500Y-25739151D01*
X13255500Y-25558048D01*
X13230245Y-25398600D01*
X13227171Y-25379191D01*
X13197707Y-25288510D01*
X13171212Y-25206963D01*
X13171211Y-25206960D01*
X13131857Y-25129725D01*
X13088996Y-25045606D01*
X13075396Y-25026887D01*
X12982558Y-24899105D01*
X12982554Y-24899100D01*
X12854499Y-24771045D01*
X12854494Y-24771041D01*
X12707997Y-24664606D01*
X12707996Y-24664605D01*
X12707994Y-24664604D01*
X12656300Y-24638264D01*
X12546639Y-24582388D01*
X12546636Y-24582387D01*
X12374410Y-24526429D01*
X12195551Y-24498100D01*
X12195546Y-24498100D01*
X12014454Y-24498100D01*
X12014449Y-24498100D01*
X11835589Y-24526429D01*
X11663363Y-24582387D01*
X11663360Y-24582388D01*
X11502002Y-24664606D01*
X11355505Y-24771041D01*
X11355500Y-24771045D01*
X11227445Y-24899100D01*
X11227441Y-24899105D01*
X11121006Y-25045602D01*
X11038788Y-25206960D01*
X11038787Y-25206963D01*
X11006883Y-25305158D01*
X10990319Y-25329381D01*
X10976099Y-25355052D01*
X10970826Y-25357889D01*
X10967446Y-25362833D01*
X10940415Y-25374256D01*
X10914574Y-25388164D01*
X10908603Y-25387700D01*
X10903087Y-25390032D01*
X10874164Y-25385026D01*
X10844914Y-25382756D01*
X10840143Y-25379139D01*
X10834241Y-25378118D01*
X10812617Y-25358271D01*
X10789235Y-25340546D01*
X10785264Y-25333167D01*
X10782765Y-25330874D01*
X10772509Y-25309467D01*
X10769093Y-25300137D01*
X10736645Y-25211500D01*
X10723057Y-25174381D01*
X10715500Y-25131754D01*
X10715500Y-24723923D01*
X10715499Y-24723921D01*
X10700967Y-24650864D01*
X10700966Y-24650860D01*
X10645601Y-24567999D01*
X10562740Y-24512634D01*
X10562739Y-24512633D01*
X10562735Y-24512632D01*
X10489677Y-24498100D01*
X10489674Y-24498100D01*
X10083875Y-24498100D01*
X10031681Y-24486580D01*
X10002099Y-24472853D01*
X10002094Y-24472851D01*
X9812788Y-24418950D01*
X9617378Y-24395327D01*
X9617374Y-24395327D01*
X9617373Y-24395327D01*
X9420681Y-24402562D01*
X9420668Y-24402564D01*
X9227543Y-24440478D01*
X9227530Y-24440481D01*
X9090781Y-24490543D01*
X9048154Y-24498100D01*
X8640323Y-24498100D01*
X8567264Y-24512632D01*
X8567260Y-24512633D01*
X8484399Y-24567999D01*
X8429033Y-24650860D01*
X8429032Y-24650864D01*
X8414500Y-24723921D01*
X8414500Y-25129725D01*
X8402980Y-25181919D01*
X8389253Y-25211500D01*
X8389251Y-25211505D01*
X8335350Y-25400811D01*
X8311727Y-25596223D01*
X8311727Y-25596228D01*
X8349416Y-26620721D01*
X8349500Y-26625280D01*
X8349500Y-27898422D01*
X8380290Y-28092826D01*
X8441117Y-28280030D01*
X8530476Y-28455405D01*
X8646172Y-28614646D01*
X8985355Y-28953829D01*
X9144595Y-29069524D01*
X9230613Y-29113352D01*
X9319973Y-29158884D01*
X9319979Y-29158886D01*
X9356201Y-29170655D01*
X9413877Y-29210091D01*
X9441076Y-29274450D01*
X9441502Y-29298315D01*
X9439077Y-29329124D01*
X10118554Y-30008600D01*
X10112339Y-30008600D01*
X10010606Y-30035859D01*
X9919394Y-30088520D01*
X9844920Y-30162994D01*
X9792259Y-30254206D01*
X9765000Y-30355939D01*
X9765000Y-30362153D01*
X9085524Y-29682677D01*
X9085523Y-29682677D01*
X9053143Y-29727244D01*
X8960244Y-29909568D01*
X8897009Y-30104182D01*
X8865000Y-30306282D01*
X8865000Y-30510917D01*
X8897009Y-30713017D01*
X8960244Y-30907631D01*
X9053141Y-31089950D01*
X9053147Y-31089959D01*
X9085523Y-31134521D01*
X9085524Y-31134522D01*
X9765000Y-30455046D01*
X9765000Y-30461261D01*
X9792259Y-30562994D01*
X9844920Y-30654206D01*
X9919394Y-30728680D01*
X10010606Y-30781341D01*
X10112339Y-30808600D01*
X10118553Y-30808600D01*
X9439076Y-31488074D01*
X9483650Y-31520459D01*
X9665968Y-31613355D01*
X9860582Y-31676590D01*
X10062683Y-31708600D01*
X10267317Y-31708600D01*
X10469417Y-31676590D01*
X10664031Y-31613355D01*
X10846349Y-31520459D01*
X10890921Y-31488074D01*
X10211447Y-30808600D01*
X10217661Y-30808600D01*
X10319394Y-30781341D01*
X10410606Y-30728680D01*
X10485080Y-30654206D01*
X10537741Y-30562994D01*
X10565000Y-30461261D01*
X10565000Y-30455047D01*
X11244474Y-31134521D01*
X11276859Y-31089949D01*
X11369755Y-30907631D01*
X11432988Y-30713022D01*
X11440275Y-30667013D01*
X11470204Y-30603878D01*
X11529515Y-30566946D01*
X11599377Y-30567942D01*
X11657611Y-30606551D01*
X11684366Y-30662217D01*
X11694868Y-30715014D01*
X11694870Y-30715020D01*
X11769637Y-30895524D01*
X11774059Y-30906198D01*
X11813034Y-30964529D01*
X11889024Y-31078257D01*
X12035342Y-31224575D01*
X12035345Y-31224577D01*
X12207402Y-31339541D01*
X12398580Y-31418730D01*
X12562422Y-31451320D01*
X12601530Y-31459099D01*
X12601534Y-31459100D01*
X12601535Y-31459100D01*
X12808466Y-31459100D01*
X12808467Y-31459099D01*
X13011420Y-31418730D01*
X13202598Y-31339541D01*
X13374655Y-31224577D01*
X13520977Y-31078255D01*
X13635941Y-30906198D01*
X13715130Y-30715020D01*
X13755500Y-30512065D01*
X13755500Y-30305135D01*
X13715130Y-30102180D01*
X13635941Y-29911002D01*
X13520977Y-29738945D01*
X13520975Y-29738942D01*
X13374658Y-29592625D01*
X13374650Y-29592619D01*
X13202514Y-29477602D01*
X13157708Y-29423990D01*
X13149001Y-29354665D01*
X13179155Y-29291638D01*
X13238598Y-29254918D01*
X13271404Y-29250500D01*
X15538596Y-29250500D01*
X15605635Y-29270185D01*
X15651390Y-29322989D01*
X15661334Y-29392147D01*
X15632309Y-29455703D01*
X15607486Y-29477602D01*
X15435349Y-29592619D01*
X15435341Y-29592625D01*
X15289024Y-29738942D01*
X15174058Y-29911003D01*
X15094870Y-30102179D01*
X15094868Y-30102187D01*
X15054500Y-30305130D01*
X15054500Y-30512069D01*
X15094868Y-30715012D01*
X15094870Y-30715020D01*
X15169637Y-30895524D01*
X15174059Y-30906198D01*
X15213034Y-30964529D01*
X15289024Y-31078257D01*
X15435342Y-31224575D01*
X15435345Y-31224577D01*
X15607402Y-31339541D01*
X15798580Y-31418730D01*
X15962422Y-31451320D01*
X16001530Y-31459099D01*
X16001534Y-31459100D01*
X16001535Y-31459100D01*
X16208466Y-31459100D01*
X16208467Y-31459099D01*
X16411420Y-31418730D01*
X16602598Y-31339541D01*
X16774655Y-31224577D01*
X16920977Y-31078255D01*
X17035941Y-30906198D01*
X17115130Y-30715020D01*
X17155500Y-30512065D01*
X17155500Y-30305135D01*
X17115130Y-30102180D01*
X17035941Y-29911002D01*
X16920977Y-29738945D01*
X16920975Y-29738942D01*
X16774658Y-29592625D01*
X16774650Y-29592619D01*
X16602514Y-29477602D01*
X16557708Y-29423990D01*
X16549001Y-29354665D01*
X16579155Y-29291638D01*
X16638598Y-29254918D01*
X16671404Y-29250500D01*
X18078596Y-29250500D01*
X18145635Y-29270185D01*
X18191390Y-29322989D01*
X18201334Y-29392147D01*
X18172309Y-29455703D01*
X18147486Y-29477602D01*
X17975349Y-29592619D01*
X17975341Y-29592625D01*
X17829024Y-29738942D01*
X17714058Y-29911003D01*
X17634870Y-30102179D01*
X17634868Y-30102187D01*
X17594500Y-30305130D01*
X17594500Y-30512069D01*
X17634868Y-30715012D01*
X17634870Y-30715020D01*
X17709637Y-30895524D01*
X17714059Y-30906198D01*
X17753034Y-30964529D01*
X17829024Y-31078257D01*
X17975342Y-31224575D01*
X18147403Y-31339542D01*
X18311418Y-31407479D01*
X18365821Y-31451320D01*
X18387886Y-31517614D01*
X18370607Y-31585314D01*
X18319469Y-31632924D01*
X18311417Y-31636601D01*
X18254834Y-31660037D01*
X18254834Y-31660038D01*
X18214875Y-31676590D01*
X18126089Y-31713366D01*
X18126079Y-31713371D01*
X17962219Y-31822859D01*
X17892540Y-31892538D01*
X17822861Y-31962218D01*
X12362217Y-37422862D01*
X12258036Y-37527041D01*
X12196713Y-37560525D01*
X12127021Y-37555540D01*
X12071088Y-37513668D01*
X12059871Y-37495654D01*
X12022560Y-37422428D01*
X11962304Y-37339494D01*
X11962304Y-37339493D01*
X11222608Y-38079190D01*
X11205571Y-38015607D01*
X11139745Y-37901593D01*
X11046653Y-37808501D01*
X10932639Y-37742675D01*
X10869055Y-37725637D01*
X11608751Y-36985940D01*
X11608750Y-36985938D01*
X11525820Y-36925687D01*
X11315448Y-36818497D01*
X11090893Y-36745534D01*
X11090894Y-36745534D01*
X10857698Y-36708600D01*
X10621594Y-36708600D01*
X10388398Y-36745534D01*
X10163843Y-36818497D01*
X9953476Y-36925684D01*
X9870540Y-36985940D01*
X10610237Y-37725637D01*
X10546653Y-37742675D01*
X10432639Y-37808501D01*
X10339547Y-37901593D01*
X10273721Y-38015607D01*
X10256683Y-38079191D01*
X9516986Y-37339494D01*
X9456730Y-37422430D01*
X9349543Y-37632797D01*
X9276580Y-37857352D01*
X9239646Y-38090547D01*
X9239646Y-38326652D01*
X9276580Y-38559847D01*
X9349543Y-38784402D01*
X9456733Y-38994774D01*
X9516984Y-39077704D01*
X9516986Y-39077705D01*
X10256683Y-38338008D01*
X10273721Y-38401593D01*
X10339547Y-38515607D01*
X10432639Y-38608699D01*
X10546653Y-38674525D01*
X10610236Y-38691562D01*
X9870539Y-39431258D01*
X9953474Y-39491514D01*
X10163843Y-39598702D01*
X10388398Y-39671665D01*
X10388397Y-39671665D01*
X10621594Y-39708600D01*
X10857698Y-39708600D01*
X11090893Y-39671665D01*
X11315448Y-39598702D01*
X11525809Y-39491518D01*
X11525815Y-39491514D01*
X11608750Y-39431258D01*
X11608751Y-39431258D01*
X10869054Y-38691562D01*
X10932639Y-38674525D01*
X11046653Y-38608699D01*
X11139745Y-38515607D01*
X11205571Y-38401593D01*
X11222608Y-38338008D01*
X11963181Y-39078581D01*
X11996666Y-39139904D01*
X11999500Y-39166262D01*
X11999500Y-39934217D01*
X11979815Y-40001256D01*
X11963181Y-40021898D01*
X9183403Y-42801675D01*
X9122080Y-42835160D01*
X9119916Y-42835611D01*
X9108162Y-42837949D01*
X9108158Y-42837950D01*
X9054834Y-42860037D01*
X9054834Y-42860038D01*
X9009315Y-42878892D01*
X8926089Y-42913366D01*
X8926079Y-42913371D01*
X8762219Y-43022859D01*
X8692540Y-43092538D01*
X8622861Y-43162218D01*
X8622858Y-43162221D01*
X8162221Y-43622858D01*
X8162218Y-43622861D01*
X8092538Y-43692540D01*
X8022859Y-43762219D01*
X7913371Y-43926080D01*
X7913364Y-43926092D01*
X7878583Y-44010064D01*
X7878583Y-44010066D01*
X7850457Y-44077969D01*
X7844714Y-44091834D01*
X7844713Y-44091837D01*
X7837948Y-44108167D01*
X7837947Y-44108171D01*
X7799500Y-44301454D01*
X7799500Y-45485247D01*
X7779815Y-45552286D01*
X7727011Y-45598041D01*
X7657853Y-45607985D01*
X7594297Y-45578960D01*
X7565015Y-45541542D01*
X7519728Y-45452661D01*
X7494524Y-45403195D01*
X7378828Y-45243954D01*
X7239646Y-45104772D01*
X7080405Y-44989076D01*
X7058863Y-44978100D01*
X6905029Y-44899717D01*
X6717826Y-44838890D01*
X6523422Y-44808100D01*
X6523417Y-44808100D01*
X6326583Y-44808100D01*
X6326578Y-44808100D01*
X6132173Y-44838890D01*
X5944970Y-44899717D01*
X5769594Y-44989076D01*
X5688495Y-45047999D01*
X5610354Y-45104772D01*
X5610352Y-45104774D01*
X5610351Y-45104774D01*
X5471174Y-45243951D01*
X5471174Y-45243952D01*
X5471172Y-45243954D01*
X5421485Y-45312341D01*
X5355476Y-45403194D01*
X5284985Y-45541542D01*
X5237011Y-45592338D01*
X5169190Y-45609133D01*
X5103055Y-45586596D01*
X5059603Y-45531881D01*
X5050500Y-45485247D01*
X5050500Y-40769335D01*
X5070185Y-40702296D01*
X5086815Y-40681658D01*
X5424511Y-40343962D01*
X5435617Y-40335511D01*
X5494059Y-40274414D01*
X5553828Y-40214646D01*
X5557105Y-40210134D01*
X5567812Y-40197312D01*
X6237333Y-39497385D01*
X6297898Y-39462548D01*
X6326939Y-39459099D01*
X6537517Y-39459099D01*
X6537518Y-39459099D01*
X6597129Y-39452691D01*
X6731977Y-39402396D01*
X6847192Y-39316146D01*
X6933442Y-39200931D01*
X6983737Y-39066083D01*
X6990146Y-39006473D01*
X6990145Y-38301447D01*
X6990221Y-38297108D01*
X6990438Y-38290910D01*
X6992023Y-38279235D01*
X6991566Y-38258693D01*
X6991690Y-38255159D01*
X6991935Y-38254420D01*
X6992188Y-38247587D01*
X6993817Y-38230700D01*
X6993818Y-38230689D01*
X6990375Y-38174258D01*
X6990145Y-38166707D01*
X6990145Y-37410729D01*
X6990144Y-37410723D01*
X6989917Y-37408613D01*
X6983737Y-37351117D01*
X6976491Y-37331690D01*
X6933443Y-37216271D01*
X6933441Y-37216268D01*
X6847192Y-37101054D01*
X6843669Y-37098417D01*
X6731981Y-37014806D01*
X6731974Y-37014802D01*
X6597128Y-36964508D01*
X6597129Y-36964508D01*
X6537529Y-36958101D01*
X6537527Y-36958100D01*
X6537519Y-36958100D01*
X6537511Y-36958100D01*
X6260523Y-36958100D01*
X6193484Y-36938415D01*
X6178343Y-36926957D01*
X5692320Y-36496820D01*
X5655163Y-36437650D01*
X5650500Y-36403963D01*
X5650500Y-31487331D01*
X5652042Y-31476345D01*
X5650500Y-31388940D01*
X5650500Y-31301583D01*
X5650121Y-31299193D01*
X5648612Y-31281970D01*
X5648570Y-31279544D01*
X5633380Y-31193492D01*
X5619709Y-31107174D01*
X5616281Y-31096625D01*
X5592964Y-30964529D01*
X5600695Y-30895089D01*
X5644742Y-30840852D01*
X5711119Y-30819038D01*
X5778753Y-30836574D01*
X5826169Y-30887891D01*
X5829638Y-30895524D01*
X5834058Y-30906197D01*
X5949024Y-31078257D01*
X6095342Y-31224575D01*
X6095345Y-31224577D01*
X6267402Y-31339541D01*
X6458580Y-31418730D01*
X6622422Y-31451320D01*
X6661530Y-31459099D01*
X6661534Y-31459100D01*
X6661535Y-31459100D01*
X6868466Y-31459100D01*
X6868467Y-31459099D01*
X7071420Y-31418730D01*
X7262598Y-31339541D01*
X7434655Y-31224577D01*
X7580977Y-31078255D01*
X7695941Y-30906198D01*
X7775130Y-30715020D01*
X7815500Y-30512065D01*
X7815500Y-30305135D01*
X7775130Y-30102180D01*
X7695941Y-29911002D01*
X7580977Y-29738945D01*
X7580975Y-29738942D01*
X7434657Y-29592624D01*
X7377302Y-29554301D01*
X7262598Y-29477659D01*
X7262595Y-29477657D01*
X7262594Y-29477657D01*
X7227045Y-29462931D01*
X7172642Y-29419089D01*
X7150579Y-29352794D01*
X7150500Y-29348371D01*
X7150500Y-26606890D01*
X7150515Y-26604937D01*
X7150761Y-26589317D01*
X7171499Y-26522596D01*
X7187065Y-26503589D01*
X7219353Y-26471301D01*
X7292553Y-26398101D01*
X7398996Y-26251594D01*
X7481211Y-26090239D01*
X7537171Y-25918009D01*
X7559885Y-25774600D01*
X7565500Y-25739151D01*
X7565500Y-25558048D01*
X7540245Y-25398600D01*
X7537171Y-25379191D01*
X7507707Y-25288510D01*
X7481212Y-25206963D01*
X7481211Y-25206960D01*
X7441857Y-25129725D01*
X7398996Y-25045606D01*
X7385396Y-25026887D01*
X7292558Y-24899105D01*
X7292554Y-24899100D01*
X7164499Y-24771045D01*
X7164494Y-24771041D01*
X7017997Y-24664606D01*
X7017996Y-24664605D01*
X7017994Y-24664604D01*
X6966300Y-24638264D01*
X6856639Y-24582388D01*
X6856636Y-24582387D01*
X6684410Y-24526429D01*
X6505551Y-24498100D01*
X6505546Y-24498100D01*
X6324454Y-24498100D01*
X6324449Y-24498100D01*
X6145589Y-24526429D01*
X5973363Y-24582387D01*
X5973360Y-24582388D01*
X5812002Y-24664606D01*
X5665505Y-24771041D01*
X5665500Y-24771045D01*
X5537445Y-24899100D01*
X5537441Y-24899105D01*
X5499318Y-24951578D01*
X5443988Y-24994244D01*
X5374375Y-25000223D01*
X5312580Y-24967618D01*
X5278223Y-24906779D01*
X5275000Y-24878693D01*
X5275000Y-24700772D01*
X5274999Y-24700755D01*
X5268598Y-24641227D01*
X5268596Y-24641220D01*
X5218354Y-24506513D01*
X5218350Y-24506506D01*
X5132190Y-24391412D01*
X5132187Y-24391409D01*
X5017093Y-24305249D01*
X5017086Y-24305245D01*
X4882379Y-24255003D01*
X4882372Y-24255001D01*
X4822844Y-24248600D01*
X4125000Y-24248600D01*
X4125000Y-25273322D01*
X4048694Y-25229267D01*
X3934244Y-25198600D01*
X3815756Y-25198600D01*
X3701306Y-25229267D01*
X3625000Y-25273322D01*
X3625000Y-24248600D01*
X2927155Y-24248600D01*
X2867627Y-24255001D01*
X2867620Y-24255003D01*
X2732913Y-24305245D01*
X2732906Y-24305249D01*
X2617812Y-24391409D01*
X2617809Y-24391412D01*
X2531649Y-24506506D01*
X2531645Y-24506513D01*
X2481403Y-24641220D01*
X2481401Y-24641227D01*
X2475000Y-24700755D01*
X2475000Y-25398600D01*
X3499722Y-25398600D01*
X3455667Y-25474906D01*
X3425000Y-25589356D01*
X3425000Y-25707844D01*
X3455667Y-25822294D01*
X3499722Y-25898600D01*
X2475000Y-25898600D01*
X2475000Y-26596444D01*
X2481401Y-26655972D01*
X2481403Y-26655979D01*
X2531645Y-26790686D01*
X2531649Y-26790693D01*
X2617809Y-26905787D01*
X2617812Y-26905790D01*
X2732906Y-26991950D01*
X2732913Y-26991954D01*
X2867620Y-27042196D01*
X2867627Y-27042198D01*
X2927155Y-27048599D01*
X2927172Y-27048600D01*
X3625000Y-27048600D01*
X3625000Y-26023877D01*
X3701306Y-26067933D01*
X3815756Y-26098600D01*
X3934244Y-26098600D01*
X4048694Y-26067933D01*
X4125000Y-26023877D01*
X4125000Y-27048600D01*
X4822828Y-27048600D01*
X4822844Y-27048599D01*
X4882372Y-27042198D01*
X4882379Y-27042196D01*
X5017086Y-26991954D01*
X5017093Y-26991950D01*
X5132187Y-26905790D01*
X5132190Y-26905787D01*
X5218350Y-26790693D01*
X5218354Y-26790686D01*
X5268596Y-26655979D01*
X5268598Y-26655972D01*
X5274999Y-26596444D01*
X5275000Y-26596427D01*
X5275000Y-26418506D01*
X5282272Y-26393739D01*
X5285685Y-26368150D01*
X5291955Y-26360762D01*
X5294685Y-26351467D01*
X5314190Y-26334565D01*
X5330898Y-26314881D01*
X5340167Y-26312055D01*
X5347489Y-26305712D01*
X5373036Y-26302038D01*
X5397733Y-26294512D01*
X5407057Y-26297146D01*
X5416647Y-26295768D01*
X5440128Y-26306491D01*
X5464970Y-26313511D01*
X5474015Y-26321967D01*
X5480203Y-26324793D01*
X5491878Y-26336350D01*
X5495821Y-26340808D01*
X5537447Y-26398101D01*
X5615864Y-26476518D01*
X5618378Y-26479360D01*
X5631668Y-26507691D01*
X5646666Y-26535158D01*
X5647294Y-26541003D01*
X5648051Y-26542616D01*
X5647728Y-26545036D01*
X5649500Y-26561516D01*
X5649500Y-26593082D01*
X5649485Y-26595037D01*
X5648427Y-26662083D01*
X5648929Y-26668150D01*
X5648504Y-26668185D01*
X5649500Y-26679179D01*
X5649500Y-29537932D01*
X5647554Y-29549617D01*
X5649500Y-29611735D01*
X5649500Y-29673922D01*
X5649811Y-29675485D01*
X5651812Y-29685546D01*
X5652183Y-29697380D01*
X5666204Y-29757905D01*
X5666587Y-29759828D01*
X5666593Y-29759853D01*
X5669042Y-29772164D01*
X5678342Y-29818913D01*
X5678953Y-29820388D01*
X5685186Y-29839835D01*
X5685548Y-29841398D01*
X5685552Y-29841409D01*
X5710335Y-29896317D01*
X5710336Y-29896317D01*
X5711149Y-29898119D01*
X5734916Y-29955495D01*
X5741495Y-29965342D01*
X5745714Y-29974687D01*
X5745714Y-29974688D01*
X5745715Y-29974690D01*
X5755953Y-29997371D01*
X5765593Y-30066573D01*
X5757498Y-30095834D01*
X5754871Y-30102175D01*
X5754868Y-30102186D01*
X5717325Y-30290929D01*
X5684940Y-30352840D01*
X5624224Y-30387414D01*
X5554455Y-30383675D01*
X5497783Y-30342808D01*
X5473596Y-30288293D01*
X5467579Y-30254206D01*
X5439354Y-30094306D01*
X5375237Y-29908209D01*
X5282798Y-29734434D01*
X5282796Y-29734431D01*
X5282796Y-29734430D01*
X5164312Y-29577256D01*
X5164310Y-29577255D01*
X5022700Y-29440555D01*
X4999033Y-29423990D01*
X4861439Y-29327683D01*
X4861435Y-29327681D01*
X4684516Y-29241431D01*
X4684508Y-29241428D01*
X4658805Y-29233575D01*
X4496267Y-29183916D01*
X4496263Y-29183915D01*
X4496262Y-29183915D01*
X4301347Y-29156557D01*
X4114781Y-29159849D01*
X4104543Y-29160030D01*
X4104538Y-29160030D01*
X3910709Y-29194245D01*
X3910701Y-29194247D01*
X3724610Y-29258362D01*
X3550831Y-29350803D01*
X3550830Y-29350803D01*
X3393656Y-29469287D01*
X3393655Y-29469289D01*
X3256955Y-29610899D01*
X3144085Y-29772157D01*
X3144081Y-29772164D01*
X3057831Y-29949083D01*
X3057828Y-29949091D01*
X3039647Y-30008600D01*
X3010445Y-30104182D01*
X3000315Y-30137337D01*
X2972957Y-30332250D01*
X2976430Y-30529053D01*
X2976430Y-30529062D01*
X3147612Y-31498826D01*
X3149500Y-31520381D01*
X3149500Y-37098422D01*
X3180290Y-37292826D01*
X3241117Y-37480030D01*
X3315716Y-37626437D01*
X3330476Y-37655405D01*
X3446172Y-37814646D01*
X3673218Y-38041692D01*
X3697544Y-38071211D01*
X3742705Y-38111179D01*
X3745380Y-38113854D01*
X3785351Y-38153826D01*
X3785352Y-38153827D01*
X3811470Y-38172803D01*
X3820764Y-38180264D01*
X3840940Y-38198120D01*
X3878097Y-38257290D01*
X3877365Y-38327156D01*
X3848366Y-38376690D01*
X3706893Y-38524588D01*
X3704968Y-38526556D01*
X2846174Y-39385351D01*
X2846172Y-39385354D01*
X2815954Y-39426945D01*
X2730476Y-39544594D01*
X2640669Y-39720851D01*
X2639608Y-39724612D01*
X2580291Y-39907169D01*
X2580291Y-39907172D01*
X2549500Y-40101577D01*
X2549500Y-40101583D01*
X2549500Y-59326674D01*
X2546568Y-59351590D01*
X2549500Y-59424964D01*
X2549500Y-59498420D01*
X2552287Y-59516023D01*
X2553425Y-59523210D01*
X2554427Y-59548266D01*
X2568793Y-59620244D01*
X2569184Y-59622710D01*
X2569186Y-59622718D01*
X2580290Y-59692824D01*
X2580291Y-59692828D01*
X2585797Y-59709773D01*
X2588044Y-59716691D01*
X2592955Y-59741291D01*
X2618413Y-59810158D01*
X2619182Y-59812524D01*
X2641114Y-59880019D01*
X2641116Y-59880026D01*
X2649205Y-59895901D01*
X2649335Y-59896157D01*
X2652506Y-59902379D01*
X2661206Y-59925913D01*
X2697129Y-59989959D01*
X2698246Y-59992150D01*
X2698257Y-59992171D01*
X2730475Y-60055404D01*
X2740948Y-60069818D01*
X2740948Y-60069819D01*
X2745225Y-60075706D01*
X2757497Y-60097585D01*
X2802987Y-60155211D01*
X2804438Y-60157207D01*
X2804450Y-60157222D01*
X2846171Y-60214645D01*
X2858766Y-60227240D01*
X2868412Y-60238087D01*
X2868816Y-60238599D01*
X2879458Y-60252079D01*
X2933423Y-60301897D01*
X2985354Y-60353828D01*
X3005649Y-60368573D01*
X3010992Y-60373506D01*
X3671608Y-60983356D01*
X3707514Y-61043293D01*
X3705316Y-61113128D01*
X3674840Y-61162486D01*
X2992392Y-61839705D01*
X2985605Y-61845956D01*
X2985356Y-61846168D01*
X2917646Y-61913877D01*
X2917310Y-61914212D01*
X2849311Y-61981690D01*
X2849066Y-61981976D01*
X2849065Y-61981975D01*
X2848084Y-61983114D01*
X2848014Y-61983197D01*
X2847734Y-61983523D01*
X2846536Y-61984914D01*
X2846400Y-61985086D01*
X2846174Y-61985350D01*
X2789902Y-62062800D01*
X2789623Y-62063182D01*
X2733000Y-62140492D01*
X2732815Y-62140789D01*
X2732816Y-62140790D01*
X2731609Y-62142742D01*
X2730783Y-62144077D01*
X2730675Y-62144269D01*
X2730480Y-62144587D01*
X2686961Y-62229995D01*
X2686783Y-62230343D01*
X2642971Y-62315521D01*
X2642214Y-62317818D01*
X2641116Y-62319975D01*
X2641113Y-62319981D01*
X2611502Y-62411115D01*
X2611501Y-62411114D01*
X2611306Y-62411712D01*
X2581426Y-62502486D01*
X2581038Y-62504873D01*
X2580291Y-62507173D01*
X2565307Y-62601771D01*
X2565262Y-62602061D01*
X2549888Y-62696776D01*
X2549878Y-62699191D01*
X2549500Y-62701583D01*
X2549500Y-62797661D01*
X2549131Y-62893607D01*
X2549500Y-62895996D01*
X2549500Y-65379514D01*
X2549445Y-65383209D01*
X2541476Y-65650500D01*
X2519802Y-65716923D01*
X2504594Y-65735100D01*
X2047378Y-66185939D01*
X1988927Y-66243575D01*
X1985354Y-66246172D01*
X1918946Y-66312578D01*
X1918517Y-66313002D01*
X1851913Y-66378677D01*
X1849012Y-66382026D01*
X1846174Y-66385349D01*
X1791118Y-66461123D01*
X1791119Y-66461124D01*
X1790815Y-66461541D01*
X1735106Y-66537099D01*
X1733073Y-66541020D01*
X1730476Y-66544595D01*
X1730475Y-66544597D01*
X1730472Y-66544601D01*
X1687974Y-66628006D01*
X1687578Y-66628776D01*
X1644514Y-66711850D01*
X1642786Y-66715940D01*
X1641115Y-66719975D01*
X1612173Y-66809043D01*
X1612174Y-66809044D01*
X1612017Y-66809527D01*
X1582378Y-66898615D01*
X1581656Y-66902970D01*
X1580291Y-66907174D01*
X1580290Y-66907177D01*
X1580289Y-66907182D01*
X1580289Y-66907183D01*
X1565642Y-66999659D01*
X1565503Y-67000517D01*
X1550222Y-67092800D01*
X1549841Y-67097227D01*
X1549500Y-67101579D01*
X1549500Y-67101583D01*
X1549500Y-67195632D01*
X1548840Y-67289632D01*
X1549500Y-67293997D01*
X1549500Y-80743609D01*
X1549083Y-80753766D01*
X1545641Y-80795643D01*
X1549151Y-80842315D01*
X1549500Y-80851614D01*
X1549500Y-80898420D01*
X1556073Y-80939917D01*
X1557250Y-80950009D01*
X1560403Y-80991924D01*
X1560403Y-80991927D01*
X1560404Y-80991929D01*
X1571169Y-81037467D01*
X1572968Y-81046595D01*
X1580290Y-81092821D01*
X1580292Y-81092833D01*
X1593276Y-81132794D01*
X1594848Y-81137634D01*
X1605687Y-81183477D01*
X1625213Y-81231085D01*
X1626650Y-81235507D01*
X1641114Y-81280020D01*
X1641117Y-81280028D01*
X1642552Y-81282844D01*
X1662502Y-81321999D01*
X1680381Y-81365588D01*
X1707110Y-81409548D01*
X1709231Y-81413710D01*
X1729132Y-81452768D01*
X1730476Y-81455405D01*
X1730479Y-81455409D01*
X1755170Y-81489393D01*
X1760802Y-81497853D01*
X1782642Y-81533771D01*
X1782645Y-81533774D01*
X1782646Y-81533776D01*
X1812918Y-81569471D01*
X1815931Y-81573024D01*
X1846172Y-81614646D01*
X1879481Y-81647955D01*
X1909954Y-81683886D01*
X1945452Y-81714418D01*
X1952259Y-81720733D01*
X1985354Y-81753828D01*
X2019358Y-81778534D01*
X2027329Y-81784841D01*
X2924692Y-82556665D01*
X2924693Y-82556665D01*
X2927847Y-82559378D01*
X2968179Y-82599056D01*
X3002350Y-82623458D01*
X3034184Y-82650839D01*
X3078800Y-82678393D01*
X3085680Y-82682967D01*
X3128360Y-82713446D01*
X3128363Y-82713447D01*
X3128364Y-82713448D01*
X3160913Y-82729698D01*
X3170686Y-82735141D01*
X3201646Y-82754262D01*
X3201647Y-82754262D01*
X3201653Y-82754266D01*
X3253851Y-82776099D01*
X3304464Y-82801369D01*
X3344500Y-82814016D01*
X3383240Y-82830221D01*
X3434177Y-82842636D01*
X3442142Y-82844862D01*
X3492154Y-82860662D01*
X3533681Y-82866891D01*
X3574474Y-82876835D01*
X3630855Y-82881469D01*
X3686809Y-82889863D01*
X3728802Y-82889519D01*
X3770646Y-82892959D01*
X3827054Y-82888716D01*
X3883636Y-82888254D01*
X3925058Y-82881345D01*
X3966924Y-82878197D01*
X4021982Y-82865180D01*
X4077787Y-82855874D01*
X4112302Y-82844345D01*
X4123033Y-82841291D01*
X4158477Y-82832913D01*
X4165038Y-82830222D01*
X4206995Y-82813013D01*
X4206995Y-82813012D01*
X4210829Y-82811440D01*
X4264483Y-82793521D01*
X4301736Y-82774154D01*
X4340588Y-82758219D01*
X4388934Y-82728822D01*
X4439126Y-82702730D01*
X4472886Y-82677777D01*
X4508772Y-82655958D01*
X4551929Y-82619356D01*
X4597416Y-82585737D01*
X4626857Y-82555809D01*
X4658887Y-82528646D01*
X4693099Y-82488868D01*
X4698689Y-82482794D01*
X5487604Y-81680872D01*
X5488075Y-81680397D01*
X9281655Y-77886819D01*
X9342978Y-77853334D01*
X9369336Y-77850500D01*
X12625500Y-77850500D01*
X12692539Y-77870185D01*
X12738294Y-77922989D01*
X12749500Y-77974500D01*
X12749500Y-80878105D01*
X12729815Y-80945144D01*
X12677011Y-80990899D01*
X12607853Y-81000843D01*
X12544297Y-80971818D01*
X12537819Y-80965786D01*
X12394657Y-80822624D01*
X12276401Y-80743609D01*
X12222598Y-80707659D01*
X12031420Y-80628470D01*
X12031412Y-80628468D01*
X11828469Y-80588100D01*
X11828465Y-80588100D01*
X11621535Y-80588100D01*
X11621530Y-80588100D01*
X11418587Y-80628468D01*
X11418579Y-80628470D01*
X11227403Y-80707658D01*
X11055342Y-80822624D01*
X10909024Y-80968942D01*
X10794058Y-81141003D01*
X10714870Y-81332179D01*
X10714868Y-81332187D01*
X10674500Y-81535130D01*
X10674500Y-81598020D01*
X10654815Y-81665059D01*
X10639856Y-81683993D01*
X10265026Y-82073572D01*
X10263353Y-82075278D01*
X10238490Y-82100142D01*
X10177168Y-82133629D01*
X10107476Y-82128646D01*
X10051541Y-82086775D01*
X10027123Y-82021312D01*
X10032877Y-81974143D01*
X10042988Y-81943024D01*
X10042989Y-81943018D01*
X10075000Y-81740917D01*
X10075000Y-81536282D01*
X10042990Y-81334182D01*
X9979755Y-81139568D01*
X9886859Y-80957250D01*
X9854474Y-80912677D01*
X9854474Y-80912676D01*
X9175000Y-81592151D01*
X9175000Y-81585939D01*
X9147741Y-81484206D01*
X9095080Y-81392994D01*
X9020606Y-81318520D01*
X8929394Y-81265859D01*
X8827661Y-81238600D01*
X8821446Y-81238600D01*
X9500922Y-80559124D01*
X9500921Y-80559123D01*
X9456359Y-80526747D01*
X9456350Y-80526741D01*
X9274031Y-80433844D01*
X9079417Y-80370609D01*
X8877317Y-80338600D01*
X8672683Y-80338600D01*
X8470582Y-80370609D01*
X8275968Y-80433844D01*
X8093644Y-80526743D01*
X8049077Y-80559123D01*
X8049077Y-80559124D01*
X8728554Y-81238600D01*
X8722339Y-81238600D01*
X8620606Y-81265859D01*
X8529394Y-81318520D01*
X8454920Y-81392994D01*
X8402259Y-81484206D01*
X8375000Y-81585939D01*
X8375000Y-81592153D01*
X7695524Y-80912677D01*
X7695523Y-80912677D01*
X7663143Y-80957244D01*
X7570244Y-81139568D01*
X7507009Y-81334182D01*
X7475000Y-81536282D01*
X7475000Y-81740917D01*
X7507009Y-81943017D01*
X7570244Y-82137631D01*
X7663140Y-82319949D01*
X7759528Y-82452614D01*
X7783008Y-82518420D01*
X7767183Y-82586474D01*
X7717077Y-82635169D01*
X7659210Y-82649500D01*
X6526080Y-82649500D01*
X6381092Y-82678340D01*
X6381082Y-82678343D01*
X6244509Y-82734913D01*
X6215546Y-82754266D01*
X6121582Y-82817049D01*
X6121581Y-82817050D01*
X3887680Y-85050950D01*
X3826357Y-85084435D01*
X3756665Y-85079451D01*
X3712318Y-85050950D01*
X2478421Y-83817052D01*
X2478414Y-83817046D01*
X2404729Y-83767812D01*
X2404729Y-83767813D01*
X2355491Y-83734913D01*
X2218917Y-83678343D01*
X2218907Y-83678340D01*
X2073920Y-83649500D01*
X2073918Y-83649500D01*
X1926082Y-83649500D01*
X1926080Y-83649500D01*
X1781092Y-83678340D01*
X1781086Y-83678342D01*
X1644508Y-83734914D01*
X1644496Y-83734921D01*
X1595269Y-83767813D01*
X1521588Y-83817044D01*
X1417046Y-83921586D01*
X1396546Y-83952267D01*
X1376045Y-83982951D01*
X1334919Y-84044499D01*
X1334912Y-84044511D01*
X1278343Y-84181082D01*
X1278340Y-84181092D01*
X1249500Y-84326079D01*
X1249500Y-84326082D01*
X1249500Y-84473918D01*
X1249500Y-84473920D01*
X1249499Y-84473920D01*
X550000Y-84473920D01*
X550000Y-19914483D01*
X2725000Y-19914483D01*
X2725000Y-20278600D01*
X3525000Y-20278600D01*
X3525000Y-20778600D01*
X2725000Y-20778600D01*
X2725000Y-21142716D01*
X2760704Y-21368144D01*
X2831230Y-21585204D01*
X2934849Y-21788566D01*
X3069004Y-21973214D01*
X3230385Y-22134595D01*
X3415033Y-22268750D01*
X3618395Y-22372369D01*
X3835455Y-22442895D01*
X3925000Y-22457078D01*
X3925000Y-21628601D01*
X3985402Y-21653621D01*
X4110981Y-21678600D01*
X4239019Y-21678600D01*
X4364598Y-21653621D01*
X4425000Y-21628601D01*
X4425000Y-22457077D01*
X4514544Y-22442895D01*
X4731604Y-22372369D01*
X4934966Y-22268750D01*
X5119614Y-22134595D01*
X5280995Y-21973214D01*
X5415150Y-21788566D01*
X5518769Y-21585204D01*
X5589295Y-21368144D01*
X5625000Y-21142716D01*
X5625000Y-20778600D01*
X4825000Y-20778600D01*
X4825000Y-20680735D01*
X6344500Y-20680735D01*
X6344500Y-21576470D01*
X6344501Y-21576476D01*
X6350908Y-21636083D01*
X6401202Y-21770928D01*
X6401206Y-21770935D01*
X6487452Y-21886144D01*
X6487455Y-21886147D01*
X6602664Y-21972393D01*
X6602671Y-21972397D01*
X6737517Y-22022691D01*
X6737516Y-22022691D01*
X6744444Y-22023435D01*
X6797127Y-22029100D01*
X7692872Y-22029099D01*
X7752483Y-22022691D01*
X7887331Y-21972396D01*
X8002546Y-21886146D01*
X8088796Y-21770931D01*
X8139091Y-21636083D01*
X8145500Y-21576473D01*
X8145499Y-21039904D01*
X8844500Y-21039904D01*
X8844500Y-21217295D01*
X8879103Y-21391258D01*
X8879106Y-21391267D01*
X8946983Y-21555140D01*
X8946990Y-21555153D01*
X9045535Y-21702634D01*
X9045538Y-21702638D01*
X9170961Y-21828061D01*
X9170965Y-21828064D01*
X9318446Y-21926609D01*
X9318459Y-21926616D01*
X9430952Y-21973211D01*
X9482334Y-21994494D01*
X9482336Y-21994494D01*
X9482341Y-21994496D01*
X9656304Y-22029099D01*
X9656307Y-22029100D01*
X9656309Y-22029100D01*
X9833693Y-22029100D01*
X9833694Y-22029099D01*
X9891682Y-22017564D01*
X10007658Y-21994496D01*
X10007661Y-21994494D01*
X10007666Y-21994494D01*
X10171547Y-21926613D01*
X10319035Y-21828064D01*
X10444464Y-21702635D01*
X10543013Y-21555147D01*
X10550374Y-21537377D01*
X10586773Y-21449500D01*
X10610894Y-21391266D01*
X10615494Y-21368144D01*
X10623383Y-21328482D01*
X10655768Y-21266571D01*
X10716483Y-21231997D01*
X10786253Y-21235736D01*
X10842925Y-21276603D01*
X10866617Y-21328482D01*
X10879103Y-21391258D01*
X10879106Y-21391267D01*
X10946983Y-21555140D01*
X10946990Y-21555153D01*
X11045535Y-21702634D01*
X11045538Y-21702638D01*
X11170961Y-21828061D01*
X11170965Y-21828064D01*
X11318446Y-21926609D01*
X11318459Y-21926616D01*
X11430952Y-21973211D01*
X11482334Y-21994494D01*
X11482336Y-21994494D01*
X11482341Y-21994496D01*
X11656304Y-22029099D01*
X11656307Y-22029100D01*
X11656309Y-22029100D01*
X11833693Y-22029100D01*
X11833694Y-22029099D01*
X11891682Y-22017564D01*
X12007658Y-21994496D01*
X12007661Y-21994494D01*
X12007666Y-21994494D01*
X12078587Y-21965117D01*
X12141969Y-21938865D01*
X12171540Y-21926616D01*
X12171540Y-21926615D01*
X12171547Y-21926613D01*
X12319035Y-21828064D01*
X12444464Y-21702635D01*
X12543013Y-21555147D01*
X12550374Y-21537377D01*
X12586773Y-21449500D01*
X12610894Y-21391266D01*
X12615494Y-21368144D01*
X12645139Y-21219106D01*
X12645500Y-21217291D01*
X12645500Y-21039909D01*
X12645500Y-21039905D01*
X12645140Y-21038093D01*
X13095000Y-21038093D01*
X13095000Y-21219106D01*
X13123317Y-21397893D01*
X13179251Y-21570044D01*
X13179252Y-21570047D01*
X13261431Y-21731330D01*
X13272913Y-21747132D01*
X13272913Y-21747133D01*
X13802861Y-21217184D01*
X13825667Y-21302294D01*
X13884910Y-21404906D01*
X13968694Y-21488690D01*
X14071306Y-21547933D01*
X14156414Y-21570737D01*
X13626466Y-22100685D01*
X13626466Y-22100686D01*
X13642267Y-22112166D01*
X13642275Y-22112171D01*
X13803552Y-22194347D01*
X13803555Y-22194348D01*
X13975706Y-22250282D01*
X14154494Y-22278600D01*
X14335506Y-22278600D01*
X14514293Y-22250282D01*
X14686444Y-22194348D01*
X14686452Y-22194345D01*
X14847730Y-22112168D01*
X14863532Y-22100685D01*
X14863533Y-22100685D01*
X14333585Y-21570737D01*
X14418694Y-21547933D01*
X14521306Y-21488690D01*
X14605090Y-21404906D01*
X14664333Y-21302294D01*
X14687137Y-21217185D01*
X15217085Y-21747133D01*
X15217085Y-21747132D01*
X15228568Y-21731330D01*
X15310745Y-21570052D01*
X15310748Y-21570044D01*
X15366682Y-21397893D01*
X15395000Y-21219106D01*
X15395000Y-21038093D01*
X15366682Y-20859306D01*
X15336222Y-20765556D01*
X15310748Y-20687155D01*
X15310747Y-20687152D01*
X15228571Y-20525875D01*
X15228566Y-20525867D01*
X15217085Y-20510066D01*
X14687137Y-21040014D01*
X14664333Y-20954906D01*
X14605090Y-20852294D01*
X14521306Y-20768510D01*
X14418694Y-20709267D01*
X14333584Y-20686461D01*
X14863533Y-20156513D01*
X14847730Y-20145031D01*
X14686447Y-20062852D01*
X14686444Y-20062851D01*
X14577771Y-20027542D01*
X14514293Y-20006917D01*
X14335506Y-19978600D01*
X14154494Y-19978600D01*
X13975706Y-20006917D01*
X13803555Y-20062851D01*
X13803547Y-20062854D01*
X13642269Y-20145032D01*
X13626466Y-20156512D01*
X13626466Y-20156513D01*
X14156415Y-20686461D01*
X14071306Y-20709267D01*
X13968694Y-20768510D01*
X13884910Y-20852294D01*
X13825667Y-20954906D01*
X13802861Y-21040015D01*
X13272912Y-20510066D01*
X13261432Y-20525869D01*
X13179254Y-20687147D01*
X13179251Y-20687155D01*
X13123317Y-20859306D01*
X13095000Y-21038093D01*
X12645140Y-21038093D01*
X12610896Y-20865941D01*
X12610893Y-20865932D01*
X12608148Y-20859306D01*
X12593923Y-20824963D01*
X12543016Y-20702059D01*
X12543009Y-20702046D01*
X12444464Y-20554565D01*
X12444461Y-20554561D01*
X12319038Y-20429138D01*
X12319034Y-20429135D01*
X12171553Y-20330590D01*
X12171540Y-20330583D01*
X12141964Y-20318333D01*
X12007667Y-20262706D01*
X12007658Y-20262703D01*
X11833694Y-20228100D01*
X11833691Y-20228100D01*
X11662123Y-20228100D01*
X11595084Y-20208415D01*
X11575423Y-20192752D01*
X11387513Y-20008979D01*
X11387513Y-20008978D01*
X11387012Y-20008488D01*
X11338015Y-19959491D01*
X11335324Y-19957937D01*
X11333095Y-19955757D01*
X11273126Y-19922018D01*
X11273126Y-19922017D01*
X11272436Y-19921629D01*
X11212485Y-19887016D01*
X11209485Y-19886212D01*
X11206769Y-19884684D01*
X11140257Y-19867653D01*
X11138925Y-19867304D01*
X11072472Y-19849499D01*
X11068722Y-19849005D01*
X11068721Y-19849004D01*
X11066591Y-19848724D01*
X10997693Y-19849492D01*
X10996312Y-19849500D01*
X10457639Y-19849500D01*
X10443130Y-19846428D01*
X10385383Y-19849500D01*
X10327525Y-19849500D01*
X10327523Y-19849500D01*
X10327515Y-19849501D01*
X10325733Y-19849978D01*
X10325734Y-19849979D01*
X10313190Y-19853340D01*
X10298386Y-19854128D01*
X10243408Y-19872038D01*
X10240226Y-19872891D01*
X10240225Y-19872890D01*
X10187512Y-19887016D01*
X10185911Y-19887940D01*
X10185912Y-19887941D01*
X10174766Y-19894375D01*
X10174669Y-19894432D01*
X10160566Y-19899027D01*
X10112086Y-19930563D01*
X10109222Y-19932217D01*
X10061985Y-19959490D01*
X10061983Y-19959491D01*
X10060666Y-19960809D01*
X10040629Y-19977047D01*
X10039065Y-19978064D01*
X10039064Y-19978065D01*
X10002583Y-20018642D01*
X10002584Y-20018643D01*
X10000376Y-20021098D01*
X9959491Y-20061985D01*
X9952076Y-20074825D01*
X9943397Y-20084480D01*
X9943397Y-20084481D01*
X9851234Y-20187000D01*
X9791780Y-20223695D01*
X9759021Y-20228100D01*
X9656306Y-20228100D01*
X9482341Y-20262703D01*
X9482332Y-20262706D01*
X9318459Y-20330583D01*
X9318446Y-20330590D01*
X9170965Y-20429135D01*
X9170961Y-20429138D01*
X9045538Y-20554561D01*
X9045535Y-20554565D01*
X8946990Y-20702046D01*
X8946983Y-20702059D01*
X8879106Y-20865932D01*
X8879103Y-20865941D01*
X8844500Y-21039904D01*
X8145499Y-21039904D01*
X8145499Y-20680728D01*
X8139091Y-20621117D01*
X8114267Y-20554561D01*
X8088797Y-20486271D01*
X8088793Y-20486264D01*
X8002547Y-20371055D01*
X8002544Y-20371052D01*
X7887335Y-20284806D01*
X7887328Y-20284802D01*
X7752482Y-20234508D01*
X7752483Y-20234508D01*
X7692883Y-20228101D01*
X7692881Y-20228100D01*
X7692873Y-20228100D01*
X7692864Y-20228100D01*
X6797129Y-20228100D01*
X6797123Y-20228101D01*
X6737516Y-20234508D01*
X6602671Y-20284802D01*
X6602664Y-20284806D01*
X6487455Y-20371052D01*
X6487452Y-20371055D01*
X6401206Y-20486264D01*
X6401202Y-20486271D01*
X6350908Y-20621117D01*
X6344501Y-20680716D01*
X6344501Y-20680723D01*
X6344500Y-20680735D01*
X4825000Y-20680735D01*
X4825000Y-20278600D01*
X5625000Y-20278600D01*
X5625000Y-19914483D01*
X5589295Y-19689055D01*
X5518769Y-19471995D01*
X5415150Y-19268633D01*
X5280995Y-19083985D01*
X5119614Y-18922604D01*
X4934966Y-18788449D01*
X4731602Y-18684829D01*
X4514541Y-18614303D01*
X4425000Y-18600121D01*
X4425000Y-19428598D01*
X4364598Y-19403579D01*
X4239019Y-19378600D01*
X4110981Y-19378600D01*
X3985402Y-19403579D01*
X3925000Y-19428598D01*
X3925000Y-18600121D01*
X3924999Y-18600121D01*
X3835458Y-18614303D01*
X3618397Y-18684829D01*
X3415033Y-18788449D01*
X3230385Y-18922604D01*
X3069004Y-19083985D01*
X2934849Y-19268633D01*
X2831230Y-19471995D01*
X2760704Y-19689055D01*
X2725000Y-19914483D01*
X550000Y-19914483D01*
X550000Y-16098600D01*
X8816522Y-16098600D01*
X9644999Y-16098600D01*
X9619979Y-16159002D01*
X9595000Y-16284581D01*
X9595000Y-16412619D01*
X9619979Y-16538198D01*
X9644999Y-16598600D01*
X8816522Y-16598600D01*
X8830704Y-16688144D01*
X8901230Y-16905204D01*
X9004849Y-17108566D01*
X9139004Y-17293214D01*
X9300385Y-17454595D01*
X9485033Y-17588750D01*
X9688395Y-17692369D01*
X9905455Y-17762895D01*
X10130884Y-17798600D01*
X10495000Y-17798600D01*
X10495000Y-16998600D01*
X10995000Y-16998600D01*
X10995000Y-17798600D01*
X11359116Y-17798600D01*
X11584544Y-17762895D01*
X11801604Y-17692369D01*
X12004966Y-17588750D01*
X12189614Y-17454595D01*
X12350995Y-17293214D01*
X12485150Y-17108566D01*
X12588769Y-16905204D01*
X12659295Y-16688144D01*
X12673478Y-16598600D01*
X11845001Y-16598600D01*
X11870021Y-16538198D01*
X11895000Y-16412619D01*
X11895000Y-16284581D01*
X11870021Y-16159002D01*
X11845001Y-16098600D01*
X12673478Y-16098600D01*
X12659295Y-16009055D01*
X12588769Y-15791995D01*
X12485150Y-15588633D01*
X12350995Y-15403985D01*
X12189614Y-15242604D01*
X12004966Y-15108449D01*
X11801604Y-15004830D01*
X11584544Y-14934304D01*
X11359116Y-14898600D01*
X10995000Y-14898600D01*
X10995000Y-15698600D01*
X10495000Y-15698600D01*
X10495000Y-14898600D01*
X10130884Y-14898600D01*
X9905455Y-14934304D01*
X9688395Y-15004830D01*
X9485033Y-15108449D01*
X9300385Y-15242604D01*
X9139004Y-15403985D01*
X9004849Y-15588633D01*
X8901230Y-15791995D01*
X8830704Y-16009055D01*
X8816522Y-16098600D01*
X550000Y-16098600D01*
X550000Y-8176620D01*
X2995700Y-8176620D01*
X2995700Y-8396977D01*
X2995701Y-8396993D01*
X3024463Y-8615467D01*
X3081500Y-8828332D01*
X3165829Y-9031919D01*
X3165833Y-9031928D01*
X3276017Y-9222772D01*
X3324321Y-9285722D01*
X3970596Y-8639448D01*
X3979015Y-8659773D01*
X4065186Y-8788737D01*
X4174862Y-8898413D01*
X4303826Y-8984584D01*
X4324149Y-8993002D01*
X3677875Y-9639276D01*
X3740826Y-9687580D01*
X3740833Y-9687585D01*
X3931670Y-9797765D01*
X3931679Y-9797769D01*
X4135266Y-9882098D01*
X4348131Y-9939135D01*
X4566605Y-9967897D01*
X4566622Y-9967899D01*
X4786978Y-9967899D01*
X4786994Y-9967897D01*
X5005468Y-9939135D01*
X5218333Y-9882098D01*
X5421920Y-9797769D01*
X5421929Y-9797765D01*
X5612769Y-9687583D01*
X5675723Y-9639276D01*
X5675723Y-9639275D01*
X5029449Y-8993002D01*
X5049774Y-8984584D01*
X5178738Y-8898413D01*
X5288414Y-8788737D01*
X5374585Y-8659773D01*
X5383003Y-8639448D01*
X6029276Y-9285722D01*
X6029277Y-9285722D01*
X6077584Y-9222768D01*
X6187766Y-9031928D01*
X6187770Y-9031919D01*
X6272099Y-8828332D01*
X6329136Y-8615467D01*
X6357898Y-8396993D01*
X6357900Y-8396977D01*
X6357900Y-8311347D01*
X11017600Y-8311347D01*
X11017600Y-10294230D01*
X11017601Y-10294239D01*
X11023831Y-10352201D01*
X11072744Y-10483340D01*
X11106218Y-10528055D01*
X11156618Y-10595381D01*
X11268661Y-10679256D01*
X11268660Y-10679256D01*
X11399789Y-10728165D01*
X11399792Y-10728165D01*
X11399796Y-10728167D01*
X11457765Y-10734399D01*
X13440634Y-10734398D01*
X13498604Y-10728167D01*
X13629739Y-10679256D01*
X13741782Y-10595381D01*
X13825657Y-10483338D01*
X13874568Y-10352203D01*
X13878016Y-10320129D01*
X13880799Y-10294250D01*
X13880799Y-10294239D01*
X13880800Y-10294234D01*
X13880799Y-8311365D01*
X13874568Y-8253395D01*
X13825657Y-8122260D01*
X13741782Y-8010217D01*
X13629739Y-7926342D01*
X13629737Y-7926341D01*
X13629739Y-7926341D01*
X13498610Y-7877432D01*
X13498605Y-7877431D01*
X13440643Y-7871199D01*
X11457768Y-7871199D01*
X11457759Y-7871200D01*
X11399797Y-7877430D01*
X11268658Y-7926343D01*
X11156618Y-8010217D01*
X11072742Y-8122260D01*
X11023833Y-8253388D01*
X11023832Y-8253393D01*
X11017600Y-8311347D01*
X6357900Y-8311347D01*
X6357900Y-8176620D01*
X6357898Y-8176604D01*
X6329136Y-7958130D01*
X6272099Y-7745265D01*
X6187770Y-7541678D01*
X6187766Y-7541669D01*
X6077586Y-7350832D01*
X6077581Y-7350825D01*
X6029277Y-7287874D01*
X5383003Y-7934148D01*
X5374585Y-7913825D01*
X5288414Y-7784861D01*
X5178738Y-7675185D01*
X5049774Y-7589014D01*
X5029449Y-7580595D01*
X5675723Y-6934320D01*
X5612773Y-6886016D01*
X5421929Y-6775832D01*
X5421920Y-6775828D01*
X5218333Y-6691499D01*
X5005468Y-6634462D01*
X4786994Y-6605700D01*
X4786978Y-6605699D01*
X4566622Y-6605699D01*
X4566605Y-6605700D01*
X4348131Y-6634462D01*
X4135266Y-6691499D01*
X3931679Y-6775828D01*
X3931669Y-6775832D01*
X3740836Y-6886009D01*
X3740829Y-6886015D01*
X3677875Y-6934319D01*
X3677875Y-6934320D01*
X4324150Y-7580595D01*
X4303826Y-7589014D01*
X4174862Y-7675185D01*
X4065186Y-7784861D01*
X3979015Y-7913825D01*
X3970596Y-7934149D01*
X3324321Y-7287874D01*
X3324320Y-7287874D01*
X3276016Y-7350828D01*
X3276010Y-7350835D01*
X3165833Y-7541668D01*
X3165829Y-7541678D01*
X3081500Y-7745265D01*
X3024463Y-7958130D01*
X2995701Y-8176604D01*
X2995700Y-8176620D01*
X550000Y-8176620D01*
X550000Y-4214220D01*
X6805700Y-4214220D01*
X6805700Y-4434577D01*
X6805701Y-4434593D01*
X6834463Y-4653067D01*
X6891500Y-4865932D01*
X6975829Y-5069519D01*
X6975833Y-5069528D01*
X7086017Y-5260372D01*
X7134321Y-5323322D01*
X7780596Y-4677048D01*
X7789015Y-4697373D01*
X7875186Y-4826337D01*
X7984862Y-4936013D01*
X8113826Y-5022184D01*
X8134149Y-5030602D01*
X7487875Y-5676876D01*
X7550826Y-5725180D01*
X7550833Y-5725185D01*
X7741670Y-5835365D01*
X7741679Y-5835369D01*
X7945266Y-5919698D01*
X8158131Y-5976735D01*
X8376605Y-6005497D01*
X8376622Y-6005499D01*
X8596978Y-6005499D01*
X8596994Y-6005497D01*
X8815468Y-5976735D01*
X9028333Y-5919698D01*
X9231920Y-5835369D01*
X9231929Y-5835365D01*
X9422769Y-5725183D01*
X9485723Y-5676876D01*
X9485723Y-5676875D01*
X8839449Y-5030602D01*
X8859774Y-5022184D01*
X8988738Y-4936013D01*
X9098414Y-4826337D01*
X9184585Y-4697373D01*
X9193003Y-4677048D01*
X9839276Y-5323322D01*
X9839277Y-5323322D01*
X9887584Y-5260368D01*
X9997766Y-5069528D01*
X9997770Y-5069519D01*
X10082099Y-4865932D01*
X10139136Y-4653067D01*
X10167898Y-4434593D01*
X10167900Y-4434577D01*
X10167900Y-4214212D01*
X10167573Y-4211730D01*
X19642000Y-4211730D01*
X19642000Y-4437067D01*
X19677251Y-4659634D01*
X19746882Y-4873940D01*
X19746883Y-4873943D01*
X19778510Y-4936013D01*
X19849186Y-5074721D01*
X19981637Y-5257024D01*
X20140975Y-5416362D01*
X20323278Y-5548813D01*
X20421753Y-5598988D01*
X20524055Y-5651115D01*
X20524058Y-5651116D01*
X20603341Y-5676876D01*
X20738366Y-5720748D01*
X20960931Y-5755999D01*
X20960932Y-5755999D01*
X21186268Y-5755999D01*
X21186269Y-5755999D01*
X21408834Y-5720748D01*
X21623144Y-5651115D01*
X21823922Y-5548813D01*
X22006225Y-5416362D01*
X22165563Y-5257024D01*
X22298014Y-5074721D01*
X22400316Y-4873943D01*
X22469949Y-4659633D01*
X22505200Y-4437068D01*
X22505200Y-4211730D01*
X22469949Y-3989165D01*
X22400316Y-3774855D01*
X22400316Y-3774854D01*
X22300659Y-3579269D01*
X22298014Y-3574077D01*
X22165563Y-3391774D01*
X22006225Y-3232436D01*
X21823922Y-3099985D01*
X21623144Y-2997682D01*
X21623141Y-2997681D01*
X21408835Y-2928050D01*
X21297551Y-2910424D01*
X21186269Y-2892799D01*
X20960931Y-2892799D01*
X20886742Y-2904549D01*
X20738364Y-2928050D01*
X20524058Y-2997681D01*
X20524055Y-2997682D01*
X20323277Y-3099985D01*
X20219267Y-3175553D01*
X20140975Y-3232436D01*
X20140973Y-3232438D01*
X20140972Y-3232438D01*
X19981639Y-3391771D01*
X19981639Y-3391772D01*
X19981637Y-3391774D01*
X19924754Y-3470066D01*
X19849186Y-3574076D01*
X19746883Y-3774854D01*
X19746882Y-3774857D01*
X19677251Y-3989163D01*
X19642000Y-4211730D01*
X10167573Y-4211730D01*
X10139136Y-3995730D01*
X10082099Y-3782865D01*
X9997770Y-3579278D01*
X9997766Y-3579269D01*
X9887586Y-3388432D01*
X9887581Y-3388425D01*
X9839277Y-3325474D01*
X9193003Y-3971748D01*
X9184585Y-3951425D01*
X9098414Y-3822461D01*
X8988738Y-3712785D01*
X8859774Y-3626614D01*
X8839449Y-3618195D01*
X9485723Y-2971920D01*
X9422773Y-2923616D01*
X9231929Y-2813432D01*
X9231920Y-2813428D01*
X9028333Y-2729099D01*
X8815468Y-2672062D01*
X8596994Y-2643300D01*
X8596978Y-2643299D01*
X8376622Y-2643299D01*
X8376605Y-2643300D01*
X8158131Y-2672062D01*
X7945266Y-2729099D01*
X7741679Y-2813428D01*
X7741669Y-2813432D01*
X7550836Y-2923609D01*
X7550829Y-2923615D01*
X7487875Y-2971919D01*
X7487875Y-2971920D01*
X8134150Y-3618195D01*
X8113826Y-3626614D01*
X7984862Y-3712785D01*
X7875186Y-3822461D01*
X7789015Y-3951425D01*
X7780596Y-3971749D01*
X7134321Y-3325474D01*
X7134320Y-3325474D01*
X7086016Y-3388428D01*
X7086010Y-3388435D01*
X6975833Y-3579268D01*
X6975829Y-3579278D01*
X6891500Y-3782865D01*
X6834463Y-3995730D01*
X6805701Y-4214204D01*
X6805700Y-4214220D01*
X550000Y-4214220D01*
X550000Y-674000D01*
X569685Y-606961D01*
X622489Y-561206D01*
X674000Y-550000D01*
X29806000Y-550000D01*
X29873039Y-569685D01*
G37*
%TD.AperFunction*%
%TD*%
M02*
