%TF.GenerationSoftware,KiCad,Pcbnew,10.0.4*%
%TF.CreationDate,2026-08-03T16:17:01-04:00*%
%TF.ProjectId,eurorack-psu-twobrick,6575726f-7261-4636-9b2d-7073752d7477,rev?*%
%TF.SameCoordinates,Original*%
%TF.FileFunction,Copper,L2,Bot*%
%TF.FilePolarity,Positive*%
%FSLAX46Y46*%
G04 Gerber Fmt 4.6, Leading zero omitted, Abs format (unit mm)*
G04 Created by KiCad (PCBNEW 10.0.4) date 2026-08-03 16:17:01*
%MOMM*%
%LPD*%
G01*
G04 APERTURE LIST*
G04 Aperture macros list*
%AMRoundRect*
0 Rectangle with rounded corners*
0 $1 Rounding radius*
0 $2 $3 $4 $5 $6 $7 $8 $9 X,Y pos of 4 corners*
0 Add a 4 corners polygon primitive as box body*
4,1,4,$2,$3,$4,$5,$6,$7,$8,$9,$2,$3,0*
0 Add four circle primitives for the rounded corners*
1,1,$1+$1,$2,$3*
1,1,$1+$1,$4,$5*
1,1,$1+$1,$6,$7*
1,1,$1+$1,$8,$9*
0 Add four rect primitives between the rounded corners*
20,1,$1+$1,$2,$3,$4,$5,0*
20,1,$1+$1,$4,$5,$6,$7,0*
20,1,$1+$1,$6,$7,$8,$9,0*
20,1,$1+$1,$8,$9,$2,$3,0*%
G04 Aperture macros list end*
%TA.AperFunction,ComponentPad*%
%ADD10R,1.800000X1.800000*%
%TD*%
%TA.AperFunction,ComponentPad*%
%ADD11C,1.800000*%
%TD*%
%TA.AperFunction,ComponentPad*%
%ADD12C,1.600000*%
%TD*%
%TA.AperFunction,ComponentPad*%
%ADD13RoundRect,0.250000X-1.350000X-1.350000X1.350000X-1.350000X1.350000X1.350000X-1.350000X1.350000X0*%
%TD*%
%TA.AperFunction,ComponentPad*%
%ADD14C,3.200000*%
%TD*%
%TA.AperFunction,ComponentPad*%
%ADD15RoundRect,0.236220X-0.944880X-0.944880X0.944880X-0.944880X0.944880X0.944880X-0.944880X0.944880X0*%
%TD*%
%TA.AperFunction,ComponentPad*%
%ADD16C,2.362200*%
%TD*%
%TA.AperFunction,ComponentPad*%
%ADD17RoundRect,0.250001X1.399999X-1.099999X1.399999X1.099999X-1.399999X1.099999X-1.399999X-1.099999X0*%
%TD*%
%TA.AperFunction,ComponentPad*%
%ADD18O,3.300000X2.700000*%
%TD*%
%TA.AperFunction,ComponentPad*%
%ADD19C,2.000000*%
%TD*%
%TA.AperFunction,ComponentPad*%
%ADD20R,1.700000X1.700000*%
%TD*%
%TA.AperFunction,ComponentPad*%
%ADD21C,1.700000*%
%TD*%
%TA.AperFunction,ComponentPad*%
%ADD22RoundRect,0.250000X-0.750000X-0.750000X0.750000X-0.750000X0.750000X0.750000X-0.750000X0.750000X0*%
%TD*%
%TA.AperFunction,ComponentPad*%
%ADD23RoundRect,0.250000X-0.400000X-0.400000X0.400000X-0.400000X0.400000X0.400000X-0.400000X0.400000X0*%
%TD*%
%TA.AperFunction,ComponentPad*%
%ADD24C,1.300000*%
%TD*%
%TA.AperFunction,ComponentPad*%
%ADD25O,1.900000X2.900000*%
%TD*%
%TA.AperFunction,ComponentPad*%
%ADD26O,2.900000X1.900000*%
%TD*%
%TA.AperFunction,ViaPad*%
%ADD27C,1.000000*%
%TD*%
%TA.AperFunction,Conductor*%
%ADD28C,1.000000*%
%TD*%
%TA.AperFunction,Conductor*%
%ADD29C,2.000000*%
%TD*%
%TA.AperFunction,Conductor*%
%ADD30C,1.500000*%
%TD*%
%TA.AperFunction,Conductor*%
%ADD31C,0.600000*%
%TD*%
G04 APERTURE END LIST*
D10*
%TO.P,VR1,1*%
%TO.N,+12V*%
X17249646Y-74228600D03*
D11*
%TO.P,VR1,2*%
%TO.N,GND*%
X19789646Y-74228600D03*
%TO.P,VR1,3*%
%TO.N,+5V*%
X22329646Y-74228600D03*
%TD*%
D12*
%TO.P,R2,1*%
%TO.N,GND*%
X10165000Y-30408600D03*
%TO.P,R2,2*%
%TO.N,N_L2*%
X12705000Y-30408600D03*
%TD*%
%TO.P,C4,1*%
%TO.N,GND*%
X11725000Y-66238600D03*
%TO.P,C4,2*%
%TO.N,-12V*%
X16725000Y-66238600D03*
%TD*%
D13*
%TO.P,D2,1*%
%TO.N,GND*%
X16205000Y-61038599D03*
D14*
%TO.P,D2,2*%
%TO.N,N_SB*%
X21285000Y-61038599D03*
%TD*%
D15*
%TO.P,J1,1*%
%TO.N,VIN_A*%
X12449200Y-9302799D03*
D16*
%TO.P,J1,2*%
%TO.N,GND*%
X4676800Y-8286799D03*
X8486800Y-4324399D03*
%TD*%
D10*
%TO.P,D5,1*%
%TO.N,GND*%
X15255000Y-25648600D03*
D11*
%TO.P,D5,2*%
%TO.N,N_L3*%
X17795000Y-25648600D03*
%TD*%
D15*
%TO.P,J2,1*%
%TO.N,VIN_B*%
X25036000Y-9302799D03*
D16*
%TO.P,J2,2*%
%TO.N,-12V*%
X17263600Y-8286799D03*
X21073600Y-4324399D03*
%TD*%
D17*
%TO.P,J5,1*%
%TO.N,-12V*%
X5475000Y-99288599D03*
D18*
%TO.P,J5,2*%
%TO.N,GND*%
X5475000Y-95088599D03*
%TO.P,J5,3*%
%TO.N,+5V*%
X5475000Y-90888599D03*
%TO.P,J5,4*%
%TO.N,GND*%
X10975000Y-99288599D03*
%TO.P,J5,5*%
X10975000Y-95088599D03*
%TO.P,J5,6*%
%TO.N,+12V*%
X10975000Y-90888599D03*
%TD*%
D10*
%TO.P,D3,1*%
%TO.N,GND*%
X3875000Y-25648600D03*
D11*
%TO.P,D3,2*%
%TO.N,N_L1*%
X6415000Y-25648600D03*
%TD*%
D19*
%TO.P,F2,1*%
%TO.N,VIN_B*%
X6425000Y-52998599D03*
%TO.P,F2,2*%
%TO.N,N_FB*%
X11525000Y-52998599D03*
%TD*%
D20*
%TO.P,SW1A,1*%
%TO.N,N_FA*%
X17845000Y-46078600D03*
D21*
%TO.P,SW1A,2*%
%TO.N,N_SA*%
X17845000Y-48618600D03*
%TD*%
D12*
%TO.P,R3,1*%
%TO.N,+5V*%
X16105000Y-30408600D03*
%TO.P,R3,2*%
%TO.N,N_L3*%
X18645000Y-30408600D03*
%TD*%
D22*
%TO.P,C3,1*%
%TO.N,GND*%
X17354292Y-38208600D03*
D19*
%TO.P,C3,2*%
%TO.N,-12V*%
X22354292Y-38208600D03*
%TD*%
D12*
%TO.P,R1,1*%
%TO.N,+12V*%
X4225000Y-30408600D03*
%TO.P,R1,2*%
%TO.N,N_L1*%
X6765000Y-30408600D03*
%TD*%
D17*
%TO.P,J6,1*%
%TO.N,-12V*%
X18325000Y-99288599D03*
D18*
%TO.P,J6,2*%
%TO.N,GND*%
X18325000Y-95088599D03*
%TO.P,J6,3*%
%TO.N,+5V*%
X18325000Y-90888599D03*
%TO.P,J6,4*%
%TO.N,GND*%
X23825000Y-99288599D03*
%TO.P,J6,5*%
X23825000Y-95088599D03*
%TO.P,J6,6*%
%TO.N,+12V*%
X23825000Y-90888599D03*
%TD*%
D12*
%TO.P,C6,1*%
%TO.N,+5V*%
X11725000Y-81638600D03*
%TO.P,C6,2*%
%TO.N,GND*%
X16725000Y-81638600D03*
%TD*%
D19*
%TO.P,F1,1*%
%TO.N,VIN_A*%
X6425000Y-46058600D03*
%TO.P,F1,2*%
%TO.N,N_FA*%
X11525000Y-46058600D03*
%TD*%
D23*
%TO.P,J3,1*%
%TO.N,+5V*%
X7245000Y-21128600D03*
D24*
%TO.P,J3,2*%
%TO.N,USB_DP*%
X9745000Y-21128600D03*
%TO.P,J3,3*%
X11745000Y-21128600D03*
%TO.P,J3,4*%
%TO.N,GND*%
X14245000Y-21128600D03*
D25*
%TO.P,J3,SH*%
X4175000Y-20528600D03*
D26*
X10745000Y-16348600D03*
D25*
X17315000Y-20528600D03*
%TD*%
D12*
%TO.P,C2,1*%
%TO.N,+12V*%
X3775000Y-66238600D03*
%TO.P,C2,2*%
%TO.N,GND*%
X8775000Y-66238600D03*
%TD*%
D10*
%TO.P,D4,1*%
%TO.N,-12V*%
X9565000Y-25648600D03*
D11*
%TO.P,D4,2*%
%TO.N,N_L2*%
X12105000Y-25648600D03*
%TD*%
D22*
%TO.P,C1,1*%
%TO.N,+12V*%
X5739646Y-38208600D03*
D19*
%TO.P,C1,2*%
%TO.N,GND*%
X10739646Y-38208600D03*
%TD*%
D20*
%TO.P,SW1B,1*%
%TO.N,N_FB*%
X17845000Y-53018600D03*
D21*
%TO.P,SW1B,2*%
%TO.N,N_SB*%
X17845000Y-55558600D03*
%TD*%
D13*
%TO.P,D1,1*%
%TO.N,+12V*%
X5575000Y-61038599D03*
D14*
%TO.P,D1,2*%
%TO.N,N_SA*%
X10655000Y-61038599D03*
%TD*%
D12*
%TO.P,C5,1*%
%TO.N,+12V*%
X3775000Y-81638600D03*
%TO.P,C5,2*%
%TO.N,GND*%
X8775000Y-81638600D03*
%TD*%
D22*
%TO.P,C7,1*%
%TO.N,+5V*%
X5739646Y-74038600D03*
D19*
%TO.P,C7,2*%
%TO.N,GND*%
X10739646Y-74038600D03*
%TD*%
D27*
%TO.N,+5V*%
X2000000Y-84400000D03*
%TO.N,N_L3*%
X19400000Y-22200000D03*
%TO.N,VIN_B*%
X19000000Y-32600000D03*
%TD*%
%TO.N,+5V*%
D28*
X24000000Y-58600000D02*
X24000000Y-72600000D01*
X20000000Y-89400000D02*
X18325000Y-90888599D01*
X4600000Y-75200000D02*
X2000000Y-77800000D01*
X8000000Y-21800000D02*
X7245000Y-21128600D01*
X23400000Y-73200000D02*
X22329646Y-74228600D01*
X21800000Y-75200000D02*
X22329646Y-74228600D01*
X18600000Y-28600000D02*
X17000000Y-28600000D01*
X2000000Y-77800000D02*
X2000000Y-84400000D01*
X19800000Y-27400000D02*
X18600000Y-28600000D01*
X16800000Y-31400000D02*
X16105000Y-30408600D01*
X19600000Y-23600000D02*
X19800000Y-23800000D01*
X20000000Y-84600000D02*
X20000000Y-89400000D01*
X8000000Y-22600000D02*
X9000000Y-23600000D01*
X17000000Y-28600000D02*
X16800000Y-28800000D01*
X4600000Y-75200000D02*
X5739646Y-74038600D01*
X19800000Y-23800000D02*
X19800000Y-27400000D01*
X16800000Y-33800000D02*
X20400000Y-37400000D01*
X21800000Y-82800000D02*
X20000000Y-84600000D01*
X16800000Y-28800000D02*
X16800000Y-29600000D01*
X21800000Y-75200000D02*
X21800000Y-82800000D01*
X16800000Y-29600000D02*
X16105000Y-30408600D01*
X16800000Y-31400000D02*
X16800000Y-33800000D01*
X24000000Y-72600000D02*
X23400000Y-73200000D01*
X9000000Y-23600000D02*
X19600000Y-23600000D01*
X20400000Y-37400000D02*
X20400000Y-55000000D01*
X20400000Y-55000000D02*
X24000000Y-58600000D01*
X8000000Y-21800000D02*
X8000000Y-22600000D01*
%TO.N,N_L2*%
X12000000Y-26600000D02*
X12000000Y-29600000D01*
X12000000Y-29600000D02*
X12705000Y-30408600D01*
X12000000Y-26600000D02*
X12105000Y-25648600D01*
%TO.N,-12V*%
D29*
X2200000Y-97800000D02*
X2400000Y-98000000D01*
X16600000Y-98000000D02*
X18325000Y-99288599D01*
X2200000Y-88200000D02*
X2200000Y-97800000D01*
X2400000Y-98000000D02*
X3800000Y-98000000D01*
X6200000Y-79600000D02*
X6200000Y-84200000D01*
X14400000Y-97000000D02*
X15400000Y-98000000D01*
X14400000Y-68600000D02*
X14400000Y-97000000D01*
X6200000Y-84200000D02*
X2200000Y-88200000D01*
X14400000Y-79200000D02*
X6600000Y-79200000D01*
X3800000Y-98000000D02*
X5475000Y-99288599D01*
X15800000Y-67200000D02*
X14400000Y-68600000D01*
X15800000Y-67200000D02*
X16725000Y-66238600D01*
X6600000Y-79200000D02*
X6200000Y-79600000D01*
X15400000Y-98000000D02*
X16600000Y-98000000D01*
%TO.N,VIN_A*%
D30*
X1600000Y-41200000D02*
X5400000Y-45000000D01*
X11200000Y-10600000D02*
X9400000Y-10600000D01*
X9400000Y-10600000D02*
X1600000Y-18400000D01*
X5400000Y-45000000D02*
X6425000Y-46058600D01*
X11200000Y-10600000D02*
X12449200Y-9302799D01*
X1600000Y-18400000D02*
X1600000Y-41200000D01*
%TO.N,N_L3*%
D31*
X19600000Y-30200000D02*
X18645000Y-30408600D01*
X21200000Y-28600000D02*
X19600000Y-30200000D01*
X19400000Y-22200000D02*
X20800000Y-22200000D01*
X21200000Y-22600000D02*
X21200000Y-28600000D01*
X20800000Y-22200000D02*
X21200000Y-22600000D01*
%TO.N,VIN_B*%
D30*
X23800000Y-10600000D02*
X25036000Y-9302799D01*
X23800000Y-29400000D02*
X20600000Y-32600000D01*
X23800000Y-10600000D02*
X23800000Y-29400000D01*
X20600000Y-32600000D02*
X19000000Y-32600000D01*
%TO.N,N_SA*%
D29*
X12400000Y-58600000D02*
X12400000Y-59400000D01*
X14000000Y-52200000D02*
X14000000Y-57000000D01*
X16800000Y-49400000D02*
X14000000Y-52200000D01*
X12400000Y-59400000D02*
X10655000Y-61038599D01*
X16800000Y-49400000D02*
X17845000Y-48618600D01*
X14000000Y-57000000D02*
X12400000Y-58600000D01*
%TD*%
%TA.AperFunction,Conductor*%
%TO.N,GND*%
G36*
X7990522Y-80470185D02*
G01*
X8036277Y-80522989D01*
X8041286Y-80551333D01*
X8728554Y-81238600D01*
X8722339Y-81238600D01*
X8620606Y-81265859D01*
X8529394Y-81318520D01*
X8454920Y-81392994D01*
X8402259Y-81484206D01*
X8375000Y-81585939D01*
X8375000Y-81592153D01*
X7695524Y-80912677D01*
X7695522Y-80912677D01*
X7674818Y-80941175D01*
X7619489Y-80983841D01*
X7549875Y-80989820D01*
X7488080Y-80957215D01*
X7453723Y-80896376D01*
X7450500Y-80868290D01*
X7450500Y-80574500D01*
X7470185Y-80507461D01*
X7522989Y-80461706D01*
X7574500Y-80450500D01*
X7923483Y-80450500D01*
X7990522Y-80470185D01*
G37*
%TD.AperFunction*%
%TA.AperFunction,Conductor*%
G36*
X29873039Y-569685D02*
G01*
X29918794Y-622489D01*
X29930000Y-674000D01*
X29930000Y-107836000D01*
X29910315Y-107903039D01*
X29857511Y-107948794D01*
X29806000Y-107960000D01*
X674000Y-107960000D01*
X606961Y-107940315D01*
X561206Y-107887511D01*
X550000Y-107836000D01*
X550000Y-103873857D01*
X8764500Y-103873857D01*
X8764500Y-104103340D01*
X8789446Y-104292814D01*
X8794452Y-104330837D01*
X8794453Y-104330839D01*
X8853842Y-104552486D01*
X8941650Y-104764475D01*
X8941657Y-104764489D01*
X9056392Y-104963216D01*
X9196081Y-105145260D01*
X9196089Y-105145269D01*
X9358330Y-105307510D01*
X9358338Y-105307517D01*
X9540382Y-105447206D01*
X9540385Y-105447207D01*
X9540388Y-105447210D01*
X9739112Y-105561943D01*
X9739117Y-105561945D01*
X9739123Y-105561948D01*
X9830480Y-105599789D01*
X9951113Y-105649757D01*
X10172762Y-105709147D01*
X10400266Y-105739099D01*
X10400273Y-105739099D01*
X10629727Y-105739099D01*
X10629734Y-105739099D01*
X10857238Y-105709147D01*
X11078887Y-105649757D01*
X11290888Y-105561943D01*
X11489612Y-105447210D01*
X11671661Y-105307518D01*
X11671665Y-105307513D01*
X11671670Y-105307510D01*
X11833911Y-105145269D01*
X11833914Y-105145264D01*
X11833919Y-105145260D01*
X11973611Y-104963211D01*
X12088344Y-104764487D01*
X12176158Y-104552486D01*
X12235548Y-104330837D01*
X12265500Y-104103333D01*
X12265500Y-103873865D01*
X12265499Y-103873857D01*
X21614500Y-103873857D01*
X21614500Y-104103340D01*
X21639446Y-104292814D01*
X21644452Y-104330837D01*
X21644453Y-104330839D01*
X21703842Y-104552486D01*
X21791650Y-104764475D01*
X21791657Y-104764489D01*
X21906392Y-104963216D01*
X22046081Y-105145260D01*
X22046089Y-105145269D01*
X22208330Y-105307510D01*
X22208338Y-105307517D01*
X22390382Y-105447206D01*
X22390385Y-105447207D01*
X22390388Y-105447210D01*
X22589112Y-105561943D01*
X22589117Y-105561945D01*
X22589123Y-105561948D01*
X22680480Y-105599789D01*
X22801113Y-105649757D01*
X23022762Y-105709147D01*
X23250266Y-105739099D01*
X23250273Y-105739099D01*
X23479727Y-105739099D01*
X23479734Y-105739099D01*
X23707238Y-105709147D01*
X23928887Y-105649757D01*
X24140888Y-105561943D01*
X24339612Y-105447210D01*
X24521661Y-105307518D01*
X24521665Y-105307513D01*
X24521670Y-105307510D01*
X24683911Y-105145269D01*
X24683914Y-105145264D01*
X24683919Y-105145260D01*
X24823611Y-104963211D01*
X24938344Y-104764487D01*
X25026158Y-104552486D01*
X25085548Y-104330837D01*
X25115500Y-104103333D01*
X25115500Y-103873865D01*
X25085548Y-103646361D01*
X25026158Y-103424712D01*
X24938344Y-103212711D01*
X24823611Y-103013987D01*
X24823608Y-103013984D01*
X24823607Y-103013981D01*
X24683918Y-102831937D01*
X24683911Y-102831929D01*
X24521670Y-102669688D01*
X24521661Y-102669680D01*
X24339617Y-102529991D01*
X24140890Y-102415256D01*
X24140876Y-102415249D01*
X23928887Y-102327441D01*
X23707238Y-102268051D01*
X23669215Y-102263045D01*
X23479741Y-102238099D01*
X23479734Y-102238099D01*
X23250266Y-102238099D01*
X23250258Y-102238099D01*
X23033715Y-102266608D01*
X23022762Y-102268051D01*
X22929076Y-102293153D01*
X22801112Y-102327441D01*
X22589123Y-102415249D01*
X22589109Y-102415256D01*
X22390382Y-102529991D01*
X22208338Y-102669680D01*
X22046081Y-102831937D01*
X21906392Y-103013981D01*
X21791657Y-103212708D01*
X21791650Y-103212722D01*
X21703842Y-103424711D01*
X21644453Y-103646358D01*
X21644451Y-103646369D01*
X21614500Y-103873857D01*
X12265499Y-103873857D01*
X12235548Y-103646361D01*
X12176158Y-103424712D01*
X12088344Y-103212711D01*
X11973611Y-103013987D01*
X11973608Y-103013984D01*
X11973607Y-103013981D01*
X11833918Y-102831937D01*
X11833911Y-102831929D01*
X11671670Y-102669688D01*
X11671661Y-102669680D01*
X11489617Y-102529991D01*
X11290890Y-102415256D01*
X11290876Y-102415249D01*
X11078887Y-102327441D01*
X10857238Y-102268051D01*
X10819215Y-102263045D01*
X10629741Y-102238099D01*
X10629734Y-102238099D01*
X10400266Y-102238099D01*
X10400258Y-102238099D01*
X10183715Y-102266608D01*
X10172762Y-102268051D01*
X10079076Y-102293153D01*
X9951112Y-102327441D01*
X9739123Y-102415249D01*
X9739109Y-102415256D01*
X9540382Y-102529991D01*
X9358338Y-102669680D01*
X9196081Y-102831937D01*
X9056392Y-103013981D01*
X8941657Y-103212708D01*
X8941650Y-103212722D01*
X8853842Y-103424711D01*
X8794453Y-103646358D01*
X8794451Y-103646369D01*
X8764500Y-103873857D01*
X550000Y-103873857D01*
X550000Y-88101577D01*
X949500Y-88101577D01*
X949500Y-97898422D01*
X980290Y-98092826D01*
X1041117Y-98280030D01*
X1130476Y-98455405D01*
X1246172Y-98614646D01*
X1585355Y-98953829D01*
X1744595Y-99069524D01*
X1919974Y-99158884D01*
X2067392Y-99206783D01*
X2067394Y-99206784D01*
X2107166Y-99219707D01*
X2107169Y-99219707D01*
X2107174Y-99219709D01*
X2197213Y-99233969D01*
X2301578Y-99250500D01*
X2301583Y-99250500D01*
X2301584Y-99250500D01*
X2498417Y-99250500D01*
X3332463Y-99250500D01*
X3354467Y-99256961D01*
X3377320Y-99258898D01*
X3395027Y-99268871D01*
X3399502Y-99270185D01*
X3408070Y-99276217D01*
X3513783Y-99357543D01*
X3526109Y-99367025D01*
X3567241Y-99423505D01*
X3574500Y-99465307D01*
X3574500Y-100436462D01*
X3574501Y-100436481D01*
X3580908Y-100496080D01*
X3631202Y-100630926D01*
X3631203Y-100630927D01*
X3631204Y-100630929D01*
X3717454Y-100746145D01*
X3832670Y-100832395D01*
X3832671Y-100832395D01*
X3832672Y-100832396D01*
X3967518Y-100882690D01*
X3967517Y-100882690D01*
X3974445Y-100883434D01*
X4027128Y-100889099D01*
X4027137Y-100889099D01*
X6922863Y-100889099D01*
X6922872Y-100889099D01*
X6982482Y-100882690D01*
X7117330Y-100832395D01*
X7232546Y-100746145D01*
X7318796Y-100630929D01*
X7369091Y-100496081D01*
X7375500Y-100436471D01*
X7375500Y-99038599D01*
X8841950Y-99038599D01*
X10320879Y-99038599D01*
X10301901Y-99084417D01*
X10275000Y-99219655D01*
X10275000Y-99357543D01*
X10301901Y-99492781D01*
X10320879Y-99538599D01*
X8841950Y-99538599D01*
X8856653Y-99650286D01*
X8919421Y-99884538D01*
X9012220Y-100108577D01*
X9012227Y-100108592D01*
X9133480Y-100318608D01*
X9281110Y-100511004D01*
X9281116Y-100511011D01*
X9452587Y-100682482D01*
X9452594Y-100682488D01*
X9644990Y-100830118D01*
X9855006Y-100951371D01*
X9855021Y-100951378D01*
X10079060Y-101044177D01*
X10313312Y-101106945D01*
X10553735Y-101138597D01*
X10553752Y-101138599D01*
X10725000Y-101138599D01*
X10725000Y-99942719D01*
X10770818Y-99961698D01*
X10906056Y-99988599D01*
X11043944Y-99988599D01*
X11179182Y-99961698D01*
X11225000Y-99942719D01*
X11225000Y-101138599D01*
X11396248Y-101138599D01*
X11396264Y-101138597D01*
X11636687Y-101106945D01*
X11870939Y-101044177D01*
X12094978Y-100951378D01*
X12094993Y-100951371D01*
X12305009Y-100830118D01*
X12497405Y-100682488D01*
X12497412Y-100682482D01*
X12668883Y-100511011D01*
X12668889Y-100511004D01*
X12816519Y-100318608D01*
X12937772Y-100108592D01*
X12937779Y-100108577D01*
X13030578Y-99884538D01*
X13093346Y-99650286D01*
X13108050Y-99538599D01*
X11629121Y-99538599D01*
X11648099Y-99492781D01*
X11675000Y-99357543D01*
X11675000Y-99219655D01*
X11648099Y-99084417D01*
X11629121Y-99038599D01*
X13108049Y-99038599D01*
X13093346Y-98926911D01*
X13030578Y-98692659D01*
X12937779Y-98468620D01*
X12937772Y-98468605D01*
X12816519Y-98258589D01*
X12668889Y-98066193D01*
X12668883Y-98066186D01*
X12497412Y-97894715D01*
X12497405Y-97894709D01*
X12305009Y-97747079D01*
X12094993Y-97625826D01*
X12094978Y-97625819D01*
X11870939Y-97533020D01*
X11636687Y-97470252D01*
X11396264Y-97438600D01*
X11396248Y-97438599D01*
X11225000Y-97438599D01*
X11225000Y-98634478D01*
X11179182Y-98615500D01*
X11043944Y-98588599D01*
X10906056Y-98588599D01*
X10770818Y-98615500D01*
X10725000Y-98634478D01*
X10725000Y-97438599D01*
X10553752Y-97438599D01*
X10553735Y-97438600D01*
X10313312Y-97470252D01*
X10079060Y-97533020D01*
X9855021Y-97625819D01*
X9855006Y-97625826D01*
X9644990Y-97747079D01*
X9452594Y-97894709D01*
X9452587Y-97894715D01*
X9281116Y-98066186D01*
X9281110Y-98066193D01*
X9133480Y-98258589D01*
X9012227Y-98468605D01*
X9012220Y-98468620D01*
X8919421Y-98692659D01*
X8856653Y-98926911D01*
X8841950Y-99038599D01*
X7375500Y-99038599D01*
X7375500Y-98140727D01*
X7369091Y-98081117D01*
X7318796Y-97946269D01*
X7232546Y-97831053D01*
X7117330Y-97744803D01*
X7117328Y-97744802D01*
X7117327Y-97744801D01*
X6982481Y-97694507D01*
X6982482Y-97694507D01*
X6922882Y-97688100D01*
X6922880Y-97688099D01*
X6922872Y-97688099D01*
X6922864Y-97688099D01*
X5487585Y-97688099D01*
X5420546Y-97668414D01*
X5411976Y-97662380D01*
X4716669Y-97127471D01*
X4675536Y-97070992D01*
X4671469Y-97001241D01*
X4705757Y-96940363D01*
X4767515Y-96907688D01*
X4809127Y-96907606D01*
X4809284Y-96906415D01*
X5053735Y-96938597D01*
X5053752Y-96938599D01*
X5225000Y-96938599D01*
X5225000Y-95742719D01*
X5270818Y-95761698D01*
X5406056Y-95788599D01*
X5543944Y-95788599D01*
X5679182Y-95761698D01*
X5725000Y-95742719D01*
X5725000Y-96938599D01*
X5896248Y-96938599D01*
X5896264Y-96938597D01*
X6136687Y-96906945D01*
X6370939Y-96844177D01*
X6594978Y-96751378D01*
X6594993Y-96751371D01*
X6805009Y-96630118D01*
X6997405Y-96482488D01*
X6997412Y-96482482D01*
X7168883Y-96311011D01*
X7168889Y-96311004D01*
X7316519Y-96118608D01*
X7437772Y-95908592D01*
X7437779Y-95908577D01*
X7530578Y-95684538D01*
X7593346Y-95450286D01*
X7608050Y-95338599D01*
X6129121Y-95338599D01*
X6148099Y-95292781D01*
X6175000Y-95157543D01*
X6175000Y-95019655D01*
X6148099Y-94884417D01*
X6129121Y-94838599D01*
X7608049Y-94838599D01*
X7593346Y-94726911D01*
X7530578Y-94492659D01*
X7437779Y-94268620D01*
X7437772Y-94268605D01*
X7316519Y-94058589D01*
X7168889Y-93866193D01*
X7168883Y-93866186D01*
X6997412Y-93694715D01*
X6997405Y-93694709D01*
X6805009Y-93547079D01*
X6594993Y-93425826D01*
X6594978Y-93425819D01*
X6370939Y-93333020D01*
X6136687Y-93270252D01*
X5896264Y-93238600D01*
X5896248Y-93238599D01*
X5725000Y-93238599D01*
X5725000Y-94434478D01*
X5679182Y-94415500D01*
X5543944Y-94388599D01*
X5406056Y-94388599D01*
X5270818Y-94415500D01*
X5225000Y-94434478D01*
X5225000Y-93238599D01*
X5053752Y-93238599D01*
X5053735Y-93238600D01*
X4813312Y-93270252D01*
X4579060Y-93333020D01*
X4355021Y-93425819D01*
X4355006Y-93425826D01*
X4144990Y-93547079D01*
X3952594Y-93694709D01*
X3952587Y-93694715D01*
X3781116Y-93866186D01*
X3781110Y-93866193D01*
X3672876Y-94007247D01*
X3616448Y-94048450D01*
X3546702Y-94052605D01*
X3485782Y-94018393D01*
X3453029Y-93956675D01*
X3450500Y-93931761D01*
X3450500Y-91543363D01*
X3470185Y-91476324D01*
X3522989Y-91430569D01*
X3592147Y-91420625D01*
X3655703Y-91449650D01*
X3688472Y-91499075D01*
X3689898Y-91498485D01*
X3691757Y-91502976D01*
X3806132Y-91727447D01*
X3954201Y-91931248D01*
X3954205Y-91931253D01*
X4132345Y-92109393D01*
X4132350Y-92109397D01*
X4310117Y-92238551D01*
X4336155Y-92257469D01*
X4479184Y-92330346D01*
X4560616Y-92371838D01*
X4560618Y-92371838D01*
X4560621Y-92371840D01*
X4800215Y-92449689D01*
X5049038Y-92489099D01*
X5049039Y-92489099D01*
X5900961Y-92489099D01*
X5900962Y-92489099D01*
X6149785Y-92449689D01*
X6389379Y-92371840D01*
X6613845Y-92257469D01*
X6817656Y-92109392D01*
X6995793Y-91931255D01*
X7143870Y-91727444D01*
X7258241Y-91502978D01*
X7336090Y-91263384D01*
X7375500Y-91014561D01*
X7375500Y-90762637D01*
X9074500Y-90762637D01*
X9074500Y-91014560D01*
X9113910Y-91263384D01*
X9191760Y-91502982D01*
X9306132Y-91727447D01*
X9454201Y-91931248D01*
X9454205Y-91931253D01*
X9632345Y-92109393D01*
X9632350Y-92109397D01*
X9810117Y-92238551D01*
X9836155Y-92257469D01*
X9979184Y-92330346D01*
X10060616Y-92371838D01*
X10060618Y-92371838D01*
X10060621Y-92371840D01*
X10300215Y-92449689D01*
X10549038Y-92489099D01*
X10549039Y-92489099D01*
X11400961Y-92489099D01*
X11400962Y-92489099D01*
X11649785Y-92449689D01*
X11889379Y-92371840D01*
X12113845Y-92257469D01*
X12317656Y-92109392D01*
X12495793Y-91931255D01*
X12643870Y-91727444D01*
X12758241Y-91502978D01*
X12836090Y-91263384D01*
X12875500Y-91014561D01*
X12875500Y-90762637D01*
X12836090Y-90513814D01*
X12758241Y-90274220D01*
X12758239Y-90274217D01*
X12758239Y-90274215D01*
X12716747Y-90192783D01*
X12643870Y-90049754D01*
X12595335Y-89982951D01*
X12495798Y-89845949D01*
X12495794Y-89845944D01*
X12317654Y-89667804D01*
X12317649Y-89667800D01*
X12113848Y-89519731D01*
X12113847Y-89519730D01*
X12113845Y-89519729D01*
X12023936Y-89473918D01*
X11889383Y-89405359D01*
X11649785Y-89327509D01*
X11551114Y-89311881D01*
X11400962Y-89288099D01*
X10549038Y-89288099D01*
X10424626Y-89307804D01*
X10300214Y-89327509D01*
X10060616Y-89405359D01*
X9836151Y-89519731D01*
X9632350Y-89667800D01*
X9632345Y-89667804D01*
X9454205Y-89845944D01*
X9454201Y-89845949D01*
X9306132Y-90049750D01*
X9191760Y-90274215D01*
X9113910Y-90513813D01*
X9074500Y-90762637D01*
X7375500Y-90762637D01*
X7336090Y-90513814D01*
X7258241Y-90274220D01*
X7258239Y-90274217D01*
X7258239Y-90274215D01*
X7216747Y-90192783D01*
X7143870Y-90049754D01*
X7095335Y-89982951D01*
X6995798Y-89845949D01*
X6995794Y-89845944D01*
X6817654Y-89667804D01*
X6817649Y-89667800D01*
X6613848Y-89519731D01*
X6613847Y-89519730D01*
X6613845Y-89519729D01*
X6523936Y-89473918D01*
X6389383Y-89405359D01*
X6149785Y-89327509D01*
X6051114Y-89311881D01*
X5900962Y-89288099D01*
X5049038Y-89288099D01*
X4924626Y-89307804D01*
X4800214Y-89327509D01*
X4560616Y-89405359D01*
X4336151Y-89519731D01*
X4132350Y-89667800D01*
X4132345Y-89667804D01*
X3954205Y-89845944D01*
X3954201Y-89845949D01*
X3806132Y-90049750D01*
X3691757Y-90274221D01*
X3689898Y-90278713D01*
X3688378Y-90278083D01*
X3652985Y-90329835D01*
X3588624Y-90357027D01*
X3519779Y-90345106D01*
X3468307Y-90297858D01*
X3450500Y-90233834D01*
X3450500Y-88769336D01*
X3470185Y-88702297D01*
X3486819Y-88681655D01*
X6094617Y-86073857D01*
X8764500Y-86073857D01*
X8764500Y-86303340D01*
X8789446Y-86492814D01*
X8794452Y-86530837D01*
X8794453Y-86530839D01*
X8853842Y-86752486D01*
X8941650Y-86964475D01*
X8941657Y-86964489D01*
X9056392Y-87163216D01*
X9196081Y-87345260D01*
X9196089Y-87345269D01*
X9358330Y-87507510D01*
X9358338Y-87507517D01*
X9540382Y-87647206D01*
X9540385Y-87647207D01*
X9540388Y-87647210D01*
X9739112Y-87761943D01*
X9739117Y-87761945D01*
X9739123Y-87761948D01*
X9830480Y-87799789D01*
X9951113Y-87849757D01*
X10172762Y-87909147D01*
X10400266Y-87939099D01*
X10400273Y-87939099D01*
X10629727Y-87939099D01*
X10629734Y-87939099D01*
X10857238Y-87909147D01*
X11078887Y-87849757D01*
X11290888Y-87761943D01*
X11489612Y-87647210D01*
X11671661Y-87507518D01*
X11671665Y-87507513D01*
X11671670Y-87507510D01*
X11833911Y-87345269D01*
X11833914Y-87345264D01*
X11833919Y-87345260D01*
X11973611Y-87163211D01*
X12088344Y-86964487D01*
X12176158Y-86752486D01*
X12235548Y-86530837D01*
X12265500Y-86303333D01*
X12265500Y-86073865D01*
X12235548Y-85846361D01*
X12176158Y-85624712D01*
X12088344Y-85412711D01*
X11973611Y-85213987D01*
X11973608Y-85213984D01*
X11973607Y-85213981D01*
X11833918Y-85031937D01*
X11833911Y-85031929D01*
X11671670Y-84869688D01*
X11671661Y-84869680D01*
X11489617Y-84729991D01*
X11290890Y-84615256D01*
X11290876Y-84615249D01*
X11078887Y-84527441D01*
X11073804Y-84526079D01*
X10857238Y-84468051D01*
X10819215Y-84463045D01*
X10629741Y-84438099D01*
X10629734Y-84438099D01*
X10400266Y-84438099D01*
X10400258Y-84438099D01*
X10183715Y-84466608D01*
X10172762Y-84468051D01*
X10080318Y-84492821D01*
X9951112Y-84527441D01*
X9739123Y-84615249D01*
X9739109Y-84615256D01*
X9540382Y-84729991D01*
X9358338Y-84869680D01*
X9196081Y-85031937D01*
X9056392Y-85213981D01*
X8941657Y-85412708D01*
X8941650Y-85412722D01*
X8853842Y-85624711D01*
X8794453Y-85846358D01*
X8794451Y-85846369D01*
X8764500Y-86073857D01*
X6094617Y-86073857D01*
X6186349Y-85982125D01*
X6543763Y-85624711D01*
X7153828Y-85014646D01*
X7269524Y-84855405D01*
X7320430Y-84755495D01*
X7358884Y-84680025D01*
X7408903Y-84526083D01*
X7419709Y-84492827D01*
X7437407Y-84381082D01*
X7450500Y-84298422D01*
X7450500Y-82408908D01*
X7470185Y-82341869D01*
X7522989Y-82296114D01*
X7592147Y-82286170D01*
X7655703Y-82315195D01*
X7674819Y-82336023D01*
X7695524Y-82364522D01*
X8375000Y-81685046D01*
X8375000Y-81691261D01*
X8402259Y-81792994D01*
X8454920Y-81884206D01*
X8529394Y-81958680D01*
X8620606Y-82011341D01*
X8722339Y-82038600D01*
X8728553Y-82038600D01*
X8049076Y-82718074D01*
X8093650Y-82750459D01*
X8275968Y-82843355D01*
X8470582Y-82906590D01*
X8672683Y-82938600D01*
X8877317Y-82938600D01*
X9079417Y-82906590D01*
X9274031Y-82843355D01*
X9456349Y-82750459D01*
X9500921Y-82718074D01*
X8821447Y-82038600D01*
X8827661Y-82038600D01*
X8929394Y-82011341D01*
X9020606Y-81958680D01*
X9095080Y-81884206D01*
X9147741Y-81792994D01*
X9175000Y-81691261D01*
X9175000Y-81685048D01*
X9854474Y-82364522D01*
X9854474Y-82364521D01*
X9886859Y-82319949D01*
X9979755Y-82137631D01*
X10042990Y-81943017D01*
X10075000Y-81740917D01*
X10075000Y-81536282D01*
X10042990Y-81334182D01*
X9979755Y-81139568D01*
X9886859Y-80957250D01*
X9854474Y-80912677D01*
X9854474Y-80912676D01*
X9175000Y-81592151D01*
X9175000Y-81585939D01*
X9147741Y-81484206D01*
X9095080Y-81392994D01*
X9020606Y-81318520D01*
X8929394Y-81265859D01*
X8827661Y-81238600D01*
X8821446Y-81238600D01*
X9510099Y-80549947D01*
X9517263Y-80515851D01*
X9566315Y-80466094D01*
X9626516Y-80450500D01*
X11224848Y-80450500D01*
X11291887Y-80470185D01*
X11337642Y-80522989D01*
X11347586Y-80592147D01*
X11318561Y-80655703D01*
X11272301Y-80689061D01*
X11227403Y-80707658D01*
X11055342Y-80822624D01*
X10909024Y-80968942D01*
X10794058Y-81141003D01*
X10714870Y-81332179D01*
X10714868Y-81332187D01*
X10674500Y-81535130D01*
X10674500Y-81742069D01*
X10714868Y-81945012D01*
X10714870Y-81945020D01*
X10794059Y-82136198D01*
X10817704Y-82171585D01*
X10909024Y-82308257D01*
X11055342Y-82454575D01*
X11055345Y-82454577D01*
X11227402Y-82569541D01*
X11418580Y-82648730D01*
X11621530Y-82689099D01*
X11621534Y-82689100D01*
X11621535Y-82689100D01*
X11828466Y-82689100D01*
X11828467Y-82689099D01*
X12031420Y-82648730D01*
X12222598Y-82569541D01*
X12394655Y-82454577D01*
X12540977Y-82308255D01*
X12655941Y-82136198D01*
X12735130Y-81945020D01*
X12775500Y-81742065D01*
X12775500Y-81535135D01*
X12735130Y-81332180D01*
X12655941Y-81141002D01*
X12540977Y-80968945D01*
X12540975Y-80968942D01*
X12394657Y-80822624D01*
X12308626Y-80765141D01*
X12222598Y-80707659D01*
X12177699Y-80689061D01*
X12123296Y-80645220D01*
X12101231Y-80578926D01*
X12118510Y-80511226D01*
X12169648Y-80463616D01*
X12225152Y-80450500D01*
X13025500Y-80450500D01*
X13092539Y-80470185D01*
X13138294Y-80522989D01*
X13149500Y-80574500D01*
X13149500Y-94172554D01*
X13129815Y-94239593D01*
X13077011Y-94285348D01*
X13007853Y-94295292D01*
X12944297Y-94266267D01*
X12918113Y-94234554D01*
X12816519Y-94058589D01*
X12668889Y-93866193D01*
X12668883Y-93866186D01*
X12497412Y-93694715D01*
X12497405Y-93694709D01*
X12305009Y-93547079D01*
X12094993Y-93425826D01*
X12094978Y-93425819D01*
X11870939Y-93333020D01*
X11636687Y-93270252D01*
X11396264Y-93238600D01*
X11396248Y-93238599D01*
X11225000Y-93238599D01*
X11225000Y-94434478D01*
X11179182Y-94415500D01*
X11043944Y-94388599D01*
X10906056Y-94388599D01*
X10770818Y-94415500D01*
X10725000Y-94434478D01*
X10725000Y-93238599D01*
X10553752Y-93238599D01*
X10553735Y-93238600D01*
X10313312Y-93270252D01*
X10079060Y-93333020D01*
X9855021Y-93425819D01*
X9855006Y-93425826D01*
X9644990Y-93547079D01*
X9452594Y-93694709D01*
X9452587Y-93694715D01*
X9281116Y-93866186D01*
X9281110Y-93866193D01*
X9133480Y-94058589D01*
X9012227Y-94268605D01*
X9012220Y-94268620D01*
X8919421Y-94492659D01*
X8856653Y-94726911D01*
X8841950Y-94838599D01*
X10320879Y-94838599D01*
X10301901Y-94884417D01*
X10275000Y-95019655D01*
X10275000Y-95157543D01*
X10301901Y-95292781D01*
X10320879Y-95338599D01*
X8841950Y-95338599D01*
X8856653Y-95450286D01*
X8919421Y-95684538D01*
X9012220Y-95908577D01*
X9012227Y-95908592D01*
X9133480Y-96118608D01*
X9281110Y-96311004D01*
X9281116Y-96311011D01*
X9452587Y-96482482D01*
X9452594Y-96482488D01*
X9644990Y-96630118D01*
X9855006Y-96751371D01*
X9855021Y-96751378D01*
X10079060Y-96844177D01*
X10313312Y-96906945D01*
X10553735Y-96938597D01*
X10553752Y-96938599D01*
X10725000Y-96938599D01*
X10725000Y-95742719D01*
X10770818Y-95761698D01*
X10906056Y-95788599D01*
X11043944Y-95788599D01*
X11179182Y-95761698D01*
X11225000Y-95742719D01*
X11225000Y-96938599D01*
X11396248Y-96938599D01*
X11396264Y-96938597D01*
X11636687Y-96906945D01*
X11870939Y-96844177D01*
X12094978Y-96751378D01*
X12094993Y-96751371D01*
X12305009Y-96630118D01*
X12497405Y-96482488D01*
X12497412Y-96482482D01*
X12668883Y-96311011D01*
X12668889Y-96311004D01*
X12816519Y-96118608D01*
X12918113Y-95942643D01*
X12968680Y-95894428D01*
X13037287Y-95881204D01*
X13102152Y-95907172D01*
X13142680Y-95964086D01*
X13149500Y-96004643D01*
X13149500Y-97098422D01*
X13180290Y-97292826D01*
X13241117Y-97480030D01*
X13315401Y-97625819D01*
X13330476Y-97655405D01*
X13446172Y-97814646D01*
X14585355Y-98953829D01*
X14718411Y-99050500D01*
X14744595Y-99069524D01*
X14827455Y-99111743D01*
X14919970Y-99158882D01*
X14919972Y-99158882D01*
X14919975Y-99158884D01*
X15020317Y-99191487D01*
X15107173Y-99219709D01*
X15301578Y-99250500D01*
X15301583Y-99250500D01*
X15301584Y-99250500D01*
X15498417Y-99250500D01*
X16143295Y-99250500D01*
X16164481Y-99256721D01*
X16186511Y-99258274D01*
X16206086Y-99268937D01*
X16210334Y-99270185D01*
X16217505Y-99275158D01*
X16374710Y-99392592D01*
X16416638Y-99448483D01*
X16424500Y-99491934D01*
X16424500Y-100436462D01*
X16424501Y-100436481D01*
X16430908Y-100496080D01*
X16481202Y-100630926D01*
X16481203Y-100630927D01*
X16481204Y-100630929D01*
X16567454Y-100746145D01*
X16682670Y-100832395D01*
X16682671Y-100832395D01*
X16682672Y-100832396D01*
X16817518Y-100882690D01*
X16817517Y-100882690D01*
X16824445Y-100883434D01*
X16877128Y-100889099D01*
X16877137Y-100889099D01*
X19772863Y-100889099D01*
X19772872Y-100889099D01*
X19832482Y-100882690D01*
X19967330Y-100832395D01*
X20082546Y-100746145D01*
X20168796Y-100630929D01*
X20219091Y-100496081D01*
X20225500Y-100436471D01*
X20225500Y-99038599D01*
X21691950Y-99038599D01*
X23170879Y-99038599D01*
X23151901Y-99084417D01*
X23125000Y-99219655D01*
X23125000Y-99357543D01*
X23151901Y-99492781D01*
X23170879Y-99538599D01*
X21691950Y-99538599D01*
X21706653Y-99650286D01*
X21769421Y-99884538D01*
X21862220Y-100108577D01*
X21862227Y-100108592D01*
X21983480Y-100318608D01*
X22131110Y-100511004D01*
X22131116Y-100511011D01*
X22302587Y-100682482D01*
X22302594Y-100682488D01*
X22494990Y-100830118D01*
X22705006Y-100951371D01*
X22705021Y-100951378D01*
X22929060Y-101044177D01*
X23163312Y-101106945D01*
X23403735Y-101138597D01*
X23403752Y-101138599D01*
X23575000Y-101138599D01*
X23575000Y-99942719D01*
X23620818Y-99961698D01*
X23756056Y-99988599D01*
X23893944Y-99988599D01*
X24029182Y-99961698D01*
X24075000Y-99942719D01*
X24075000Y-101138599D01*
X24246248Y-101138599D01*
X24246264Y-101138597D01*
X24486687Y-101106945D01*
X24720939Y-101044177D01*
X24944978Y-100951378D01*
X24944993Y-100951371D01*
X25155009Y-100830118D01*
X25347405Y-100682488D01*
X25347412Y-100682482D01*
X25518883Y-100511011D01*
X25518889Y-100511004D01*
X25666519Y-100318608D01*
X25787772Y-100108592D01*
X25787779Y-100108577D01*
X25880578Y-99884538D01*
X25943346Y-99650286D01*
X25958050Y-99538599D01*
X24479121Y-99538599D01*
X24498099Y-99492781D01*
X24525000Y-99357543D01*
X24525000Y-99219655D01*
X24498099Y-99084417D01*
X24479121Y-99038599D01*
X25958049Y-99038599D01*
X25943346Y-98926911D01*
X25880578Y-98692659D01*
X25787779Y-98468620D01*
X25787772Y-98468605D01*
X25666519Y-98258589D01*
X25518889Y-98066193D01*
X25518883Y-98066186D01*
X25347412Y-97894715D01*
X25347405Y-97894709D01*
X25155009Y-97747079D01*
X24944993Y-97625826D01*
X24944978Y-97625819D01*
X24720939Y-97533020D01*
X24486687Y-97470252D01*
X24246264Y-97438600D01*
X24246248Y-97438599D01*
X24075000Y-97438599D01*
X24075000Y-98634478D01*
X24029182Y-98615500D01*
X23893944Y-98588599D01*
X23756056Y-98588599D01*
X23620818Y-98615500D01*
X23575000Y-98634478D01*
X23575000Y-97438599D01*
X23403752Y-97438599D01*
X23403735Y-97438600D01*
X23163312Y-97470252D01*
X22929060Y-97533020D01*
X22705021Y-97625819D01*
X22705006Y-97625826D01*
X22494990Y-97747079D01*
X22302594Y-97894709D01*
X22302587Y-97894715D01*
X22131116Y-98066186D01*
X22131110Y-98066193D01*
X21983480Y-98258589D01*
X21862227Y-98468605D01*
X21862220Y-98468620D01*
X21769421Y-98692659D01*
X21706653Y-98926911D01*
X21691950Y-99038599D01*
X20225500Y-99038599D01*
X20225500Y-98140727D01*
X20219091Y-98081117D01*
X20168796Y-97946269D01*
X20082546Y-97831053D01*
X19967330Y-97744803D01*
X19967328Y-97744802D01*
X19967327Y-97744801D01*
X19832481Y-97694507D01*
X19832482Y-97694507D01*
X19772882Y-97688100D01*
X19772880Y-97688099D01*
X19772872Y-97688099D01*
X19772864Y-97688099D01*
X18313174Y-97688099D01*
X18246135Y-97668414D01*
X18238964Y-97663441D01*
X18064374Y-97533020D01*
X17498668Y-97110429D01*
X17456741Y-97054539D01*
X17451686Y-96984852D01*
X17485109Y-96923495D01*
X17546398Y-96889948D01*
X17604973Y-96891313D01*
X17663313Y-96906945D01*
X17903735Y-96938597D01*
X17903752Y-96938599D01*
X18075000Y-96938599D01*
X18075000Y-95742719D01*
X18120818Y-95761698D01*
X18256056Y-95788599D01*
X18393944Y-95788599D01*
X18529182Y-95761698D01*
X18575000Y-95742719D01*
X18575000Y-96938599D01*
X18746248Y-96938599D01*
X18746264Y-96938597D01*
X18986687Y-96906945D01*
X19220939Y-96844177D01*
X19444978Y-96751378D01*
X19444993Y-96751371D01*
X19655009Y-96630118D01*
X19847405Y-96482488D01*
X19847412Y-96482482D01*
X20018883Y-96311011D01*
X20018889Y-96311004D01*
X20166519Y-96118608D01*
X20287772Y-95908592D01*
X20287779Y-95908577D01*
X20380578Y-95684538D01*
X20443346Y-95450286D01*
X20458050Y-95338599D01*
X18979121Y-95338599D01*
X18998099Y-95292781D01*
X19025000Y-95157543D01*
X19025000Y-95019655D01*
X18998099Y-94884417D01*
X18979121Y-94838599D01*
X20458049Y-94838599D01*
X21691950Y-94838599D01*
X23170879Y-94838599D01*
X23151901Y-94884417D01*
X23125000Y-95019655D01*
X23125000Y-95157543D01*
X23151901Y-95292781D01*
X23170879Y-95338599D01*
X21691950Y-95338599D01*
X21706653Y-95450286D01*
X21769421Y-95684538D01*
X21862220Y-95908577D01*
X21862227Y-95908592D01*
X21983480Y-96118608D01*
X22131110Y-96311004D01*
X22131116Y-96311011D01*
X22302587Y-96482482D01*
X22302594Y-96482488D01*
X22494990Y-96630118D01*
X22705006Y-96751371D01*
X22705021Y-96751378D01*
X22929060Y-96844177D01*
X23163312Y-96906945D01*
X23403735Y-96938597D01*
X23403752Y-96938599D01*
X23575000Y-96938599D01*
X23575000Y-95742719D01*
X23620818Y-95761698D01*
X23756056Y-95788599D01*
X23893944Y-95788599D01*
X24029182Y-95761698D01*
X24075000Y-95742719D01*
X24075000Y-96938599D01*
X24246248Y-96938599D01*
X24246264Y-96938597D01*
X24486687Y-96906945D01*
X24720939Y-96844177D01*
X24944978Y-96751378D01*
X24944993Y-96751371D01*
X25155009Y-96630118D01*
X25347405Y-96482488D01*
X25347412Y-96482482D01*
X25518883Y-96311011D01*
X25518889Y-96311004D01*
X25666519Y-96118608D01*
X25787772Y-95908592D01*
X25787779Y-95908577D01*
X25880578Y-95684538D01*
X25943346Y-95450286D01*
X25958050Y-95338599D01*
X24479121Y-95338599D01*
X24498099Y-95292781D01*
X24525000Y-95157543D01*
X24525000Y-95019655D01*
X24498099Y-94884417D01*
X24479121Y-94838599D01*
X25958049Y-94838599D01*
X25943346Y-94726911D01*
X25880578Y-94492659D01*
X25787779Y-94268620D01*
X25787772Y-94268605D01*
X25666519Y-94058589D01*
X25518889Y-93866193D01*
X25518883Y-93866186D01*
X25347412Y-93694715D01*
X25347405Y-93694709D01*
X25155009Y-93547079D01*
X24944993Y-93425826D01*
X24944978Y-93425819D01*
X24720939Y-93333020D01*
X24486687Y-93270252D01*
X24246264Y-93238600D01*
X24246248Y-93238599D01*
X24075000Y-93238599D01*
X24075000Y-94434478D01*
X24029182Y-94415500D01*
X23893944Y-94388599D01*
X23756056Y-94388599D01*
X23620818Y-94415500D01*
X23575000Y-94434478D01*
X23575000Y-93238599D01*
X23403752Y-93238599D01*
X23403735Y-93238600D01*
X23163312Y-93270252D01*
X22929060Y-93333020D01*
X22705021Y-93425819D01*
X22705006Y-93425826D01*
X22494990Y-93547079D01*
X22302594Y-93694709D01*
X22302587Y-93694715D01*
X22131116Y-93866186D01*
X22131110Y-93866193D01*
X21983480Y-94058589D01*
X21862227Y-94268605D01*
X21862220Y-94268620D01*
X21769421Y-94492659D01*
X21706653Y-94726911D01*
X21691950Y-94838599D01*
X20458049Y-94838599D01*
X20443346Y-94726911D01*
X20380578Y-94492659D01*
X20287779Y-94268620D01*
X20287772Y-94268605D01*
X20166519Y-94058589D01*
X20018889Y-93866193D01*
X20018883Y-93866186D01*
X19847412Y-93694715D01*
X19847405Y-93694709D01*
X19655009Y-93547079D01*
X19444993Y-93425826D01*
X19444978Y-93425819D01*
X19220939Y-93333020D01*
X18986687Y-93270252D01*
X18746264Y-93238600D01*
X18746248Y-93238599D01*
X18575000Y-93238599D01*
X18575000Y-94434478D01*
X18529182Y-94415500D01*
X18393944Y-94388599D01*
X18256056Y-94388599D01*
X18120818Y-94415500D01*
X18075000Y-94434478D01*
X18075000Y-93238599D01*
X17903752Y-93238599D01*
X17903735Y-93238600D01*
X17663312Y-93270252D01*
X17429060Y-93333020D01*
X17205021Y-93425819D01*
X17205006Y-93425826D01*
X16994990Y-93547079D01*
X16802594Y-93694709D01*
X16802587Y-93694715D01*
X16631116Y-93866186D01*
X16631110Y-93866193D01*
X16483480Y-94058589D01*
X16362227Y-94268605D01*
X16362220Y-94268620D01*
X16269421Y-94492659D01*
X16206653Y-94726911D01*
X16191950Y-94838599D01*
X17670879Y-94838599D01*
X17651901Y-94884417D01*
X17625000Y-95019655D01*
X17625000Y-95157543D01*
X17651901Y-95292781D01*
X17670879Y-95338599D01*
X16191950Y-95338599D01*
X16206653Y-95450286D01*
X16269421Y-95684538D01*
X16362220Y-95908577D01*
X16362227Y-95908592D01*
X16483480Y-96118608D01*
X16631110Y-96311004D01*
X16631116Y-96311011D01*
X16802587Y-96482482D01*
X16802594Y-96482488D01*
X16880389Y-96542182D01*
X16883062Y-96545844D01*
X16887167Y-96547775D01*
X16903481Y-96573807D01*
X16921592Y-96598610D01*
X16921861Y-96603136D01*
X16924270Y-96606979D01*
X16923920Y-96637695D01*
X16925747Y-96668356D01*
X16923526Y-96672309D01*
X16923475Y-96676844D01*
X16906576Y-96702492D01*
X16891535Y-96729276D01*
X16887529Y-96731401D01*
X16885034Y-96735189D01*
X16856945Y-96747632D01*
X16829818Y-96762029D01*
X16824140Y-96762165D01*
X16821153Y-96763489D01*
X16792416Y-96762929D01*
X16785861Y-96763087D01*
X16784841Y-96762928D01*
X16715000Y-96750915D01*
X16706845Y-96750806D01*
X16698445Y-96749501D01*
X16698422Y-96749500D01*
X16698417Y-96749500D01*
X16609154Y-96749500D01*
X16607509Y-96749489D01*
X16518192Y-96748303D01*
X16513328Y-96748622D01*
X16513327Y-96748611D01*
X16500994Y-96749500D01*
X15969336Y-96749500D01*
X15902297Y-96729815D01*
X15881655Y-96713181D01*
X15686819Y-96518345D01*
X15653334Y-96457022D01*
X15650500Y-96430664D01*
X15650500Y-82410908D01*
X15670185Y-82343869D01*
X15686819Y-82323227D01*
X16325000Y-81685046D01*
X16325000Y-81691261D01*
X16352259Y-81792994D01*
X16404920Y-81884206D01*
X16479394Y-81958680D01*
X16570606Y-82011341D01*
X16672339Y-82038600D01*
X16678553Y-82038600D01*
X15999076Y-82718074D01*
X16043650Y-82750459D01*
X16225968Y-82843355D01*
X16420582Y-82906590D01*
X16622683Y-82938600D01*
X16827317Y-82938600D01*
X17029417Y-82906590D01*
X17224031Y-82843355D01*
X17406349Y-82750459D01*
X17450921Y-82718074D01*
X16771447Y-82038600D01*
X16777661Y-82038600D01*
X16879394Y-82011341D01*
X16970606Y-81958680D01*
X17045080Y-81884206D01*
X17097741Y-81792994D01*
X17125000Y-81691261D01*
X17125000Y-81685048D01*
X17804474Y-82364522D01*
X17804474Y-82364521D01*
X17836859Y-82319949D01*
X17929755Y-82137631D01*
X17992990Y-81943017D01*
X18025000Y-81740917D01*
X18025000Y-81536282D01*
X17992990Y-81334182D01*
X17929755Y-81139568D01*
X17836859Y-80957250D01*
X17804474Y-80912677D01*
X17804474Y-80912676D01*
X17125000Y-81592151D01*
X17125000Y-81585939D01*
X17097741Y-81484206D01*
X17045080Y-81392994D01*
X16970606Y-81318520D01*
X16879394Y-81265859D01*
X16777661Y-81238600D01*
X16771446Y-81238600D01*
X17450922Y-80559124D01*
X17450921Y-80559123D01*
X17406359Y-80526747D01*
X17406350Y-80526741D01*
X17224031Y-80433844D01*
X17029417Y-80370609D01*
X16827317Y-80338600D01*
X16622683Y-80338600D01*
X16420582Y-80370609D01*
X16225968Y-80433844D01*
X16043644Y-80526743D01*
X15999077Y-80559123D01*
X15999077Y-80559124D01*
X16678554Y-81238600D01*
X16672339Y-81238600D01*
X16570606Y-81265859D01*
X16479394Y-81318520D01*
X16404920Y-81392994D01*
X16352259Y-81484206D01*
X16325000Y-81585939D01*
X16325000Y-81592153D01*
X15686819Y-80953972D01*
X15653334Y-80892649D01*
X15650500Y-80866291D01*
X15650500Y-69169335D01*
X15670185Y-69102296D01*
X15686815Y-69081658D01*
X16617175Y-68151297D01*
X16630047Y-68140088D01*
X16632896Y-68137934D01*
X16691981Y-68076522D01*
X16693553Y-68074919D01*
X16753828Y-68014646D01*
X16755933Y-68011747D01*
X16766893Y-67998663D01*
X17488433Y-67248731D01*
X17694368Y-67034692D01*
X17806969Y-66873249D01*
X17892929Y-66696178D01*
X17950132Y-66507840D01*
X17977166Y-66312873D01*
X17973369Y-66116076D01*
X17938833Y-65922297D01*
X17874407Y-65736306D01*
X17781681Y-65562683D01*
X17662935Y-65405704D01*
X17662934Y-65405703D01*
X17662931Y-65405699D01*
X17521097Y-65269235D01*
X17521094Y-65269233D01*
X17404769Y-65188100D01*
X17359650Y-65156631D01*
X17359648Y-65156630D01*
X17359638Y-65156624D01*
X17182585Y-65070673D01*
X17182581Y-65070671D01*
X16994246Y-65013469D01*
X16994233Y-65013466D01*
X16845558Y-64992851D01*
X16799273Y-64986434D01*
X16799271Y-64986434D01*
X16602481Y-64990230D01*
X16602469Y-64990232D01*
X16408709Y-65024763D01*
X16408705Y-65024764D01*
X16222707Y-65089192D01*
X16049085Y-65181918D01*
X16049074Y-65181925D01*
X15892103Y-65300665D01*
X14908087Y-66323404D01*
X14906412Y-66325112D01*
X13446174Y-67785351D01*
X13446172Y-67785354D01*
X13396485Y-67853741D01*
X13330476Y-67944594D01*
X13241117Y-68119969D01*
X13225067Y-68169368D01*
X13180291Y-68307173D01*
X13149500Y-68501577D01*
X13149500Y-77825500D01*
X13129815Y-77892539D01*
X13077011Y-77938294D01*
X13025500Y-77949500D01*
X6501578Y-77949500D01*
X6307172Y-77980291D01*
X6246348Y-78000053D01*
X6246348Y-78000054D01*
X6203103Y-78014105D01*
X6119970Y-78041117D01*
X5986799Y-78108972D01*
X5944595Y-78130476D01*
X5944594Y-78130477D01*
X5936696Y-78136215D01*
X5936691Y-78136217D01*
X5785352Y-78246173D01*
X5246174Y-78785351D01*
X5246174Y-78785352D01*
X5246172Y-78785354D01*
X5196485Y-78853741D01*
X5130476Y-78944594D01*
X5040669Y-79120851D01*
X5039608Y-79124612D01*
X4980291Y-79307169D01*
X4980291Y-79307172D01*
X4949500Y-79501577D01*
X4949500Y-81105614D01*
X4929815Y-81172653D01*
X4877011Y-81218408D01*
X4807853Y-81228352D01*
X4744297Y-81199327D01*
X4710940Y-81153069D01*
X4705942Y-81141004D01*
X4682295Y-81105614D01*
X4590977Y-80968945D01*
X4590975Y-80968942D01*
X4444657Y-80822624D01*
X4358626Y-80765141D01*
X4272598Y-80707659D01*
X4081420Y-80628470D01*
X4081412Y-80628468D01*
X3878469Y-80588100D01*
X3878465Y-80588100D01*
X3671535Y-80588100D01*
X3671530Y-80588100D01*
X3468587Y-80628468D01*
X3468579Y-80628470D01*
X3277403Y-80707658D01*
X3105342Y-80822624D01*
X3105341Y-80822625D01*
X2962181Y-80965786D01*
X2900858Y-80999271D01*
X2831166Y-80994287D01*
X2775233Y-80952415D01*
X2750816Y-80886951D01*
X2750500Y-80878105D01*
X2750500Y-78162228D01*
X2770185Y-78095189D01*
X2786814Y-78074552D01*
X5080946Y-75780420D01*
X5083905Y-75778403D01*
X5133199Y-75728167D01*
X5182951Y-75678416D01*
X5182958Y-75678405D01*
X5184211Y-75676879D01*
X5191550Y-75668701D01*
X5527588Y-75326248D01*
X5588591Y-75292187D01*
X5616093Y-75289099D01*
X6537517Y-75289099D01*
X6537518Y-75289099D01*
X6597129Y-75282691D01*
X6731977Y-75232396D01*
X6847192Y-75146146D01*
X6933442Y-75030931D01*
X6983737Y-74896083D01*
X6990146Y-74836473D01*
X6990145Y-73920547D01*
X9239646Y-73920547D01*
X9239646Y-74156652D01*
X9276580Y-74389847D01*
X9349543Y-74614402D01*
X9456733Y-74824774D01*
X9516984Y-74907704D01*
X9516986Y-74907705D01*
X10256683Y-74168008D01*
X10273721Y-74231593D01*
X10339547Y-74345607D01*
X10432639Y-74438699D01*
X10546653Y-74504525D01*
X10610236Y-74521562D01*
X9870539Y-75261258D01*
X9953474Y-75321514D01*
X10163843Y-75428702D01*
X10388398Y-75501665D01*
X10388397Y-75501665D01*
X10621594Y-75538600D01*
X10857698Y-75538600D01*
X11090893Y-75501665D01*
X11315448Y-75428702D01*
X11525809Y-75321518D01*
X11525815Y-75321514D01*
X11608750Y-75261258D01*
X11608751Y-75261258D01*
X10869054Y-74521562D01*
X10932639Y-74504525D01*
X11046653Y-74438699D01*
X11139745Y-74345607D01*
X11205571Y-74231593D01*
X11222608Y-74168009D01*
X11962304Y-74907705D01*
X11962304Y-74907704D01*
X12022560Y-74824769D01*
X12022564Y-74824763D01*
X12129748Y-74614402D01*
X12202711Y-74389847D01*
X12239646Y-74156652D01*
X12239646Y-73920547D01*
X12202711Y-73687352D01*
X12129748Y-73462797D01*
X12022560Y-73252428D01*
X11962304Y-73169494D01*
X11962304Y-73169493D01*
X11222608Y-73909190D01*
X11205571Y-73845607D01*
X11139745Y-73731593D01*
X11046653Y-73638501D01*
X10932639Y-73572675D01*
X10869055Y-73555637D01*
X11608751Y-72815940D01*
X11608750Y-72815938D01*
X11525820Y-72755687D01*
X11315448Y-72648497D01*
X11090893Y-72575534D01*
X11090894Y-72575534D01*
X10857698Y-72538600D01*
X10621594Y-72538600D01*
X10388398Y-72575534D01*
X10163843Y-72648497D01*
X9953476Y-72755684D01*
X9870540Y-72815940D01*
X10610237Y-73555637D01*
X10546653Y-73572675D01*
X10432639Y-73638501D01*
X10339547Y-73731593D01*
X10273721Y-73845607D01*
X10256683Y-73909191D01*
X9516986Y-73169494D01*
X9456730Y-73252430D01*
X9349543Y-73462797D01*
X9276580Y-73687352D01*
X9239646Y-73920547D01*
X6990145Y-73920547D01*
X6990145Y-73240728D01*
X6983737Y-73181117D01*
X6976751Y-73162387D01*
X6933443Y-73046271D01*
X6933441Y-73046268D01*
X6922173Y-73031216D01*
X6847192Y-72931054D01*
X6847188Y-72931051D01*
X6731981Y-72844806D01*
X6731974Y-72844802D01*
X6597128Y-72794508D01*
X6597129Y-72794508D01*
X6537529Y-72788101D01*
X6537527Y-72788100D01*
X6537519Y-72788100D01*
X6537510Y-72788100D01*
X4941775Y-72788100D01*
X4941769Y-72788101D01*
X4882162Y-72794508D01*
X4747317Y-72844802D01*
X4747310Y-72844806D01*
X4632101Y-72931052D01*
X4632098Y-72931055D01*
X4545852Y-73046264D01*
X4545848Y-73046271D01*
X4495554Y-73181117D01*
X4490207Y-73230860D01*
X4489147Y-73240723D01*
X4489146Y-73240735D01*
X4489146Y-74190747D01*
X4469461Y-74257786D01*
X4453652Y-74277595D01*
X4067244Y-74671379D01*
X4066419Y-74672212D01*
X1417050Y-77321580D01*
X1417044Y-77321588D01*
X1367812Y-77395268D01*
X1367813Y-77395269D01*
X1334921Y-77444496D01*
X1334914Y-77444508D01*
X1278342Y-77581086D01*
X1278340Y-77581092D01*
X1249500Y-77726079D01*
X1249500Y-77726082D01*
X1249500Y-84473918D01*
X1249500Y-84473920D01*
X1249499Y-84473920D01*
X1278340Y-84618907D01*
X1278343Y-84618917D01*
X1334912Y-84755488D01*
X1334919Y-84755501D01*
X1417048Y-84878415D01*
X1417051Y-84878419D01*
X1521580Y-84982948D01*
X1521584Y-84982951D01*
X1644498Y-85065080D01*
X1644511Y-85065087D01*
X1781082Y-85121656D01*
X1781087Y-85121658D01*
X1781091Y-85121658D01*
X1781092Y-85121659D01*
X1926079Y-85150500D01*
X1926082Y-85150500D01*
X2073920Y-85150500D01*
X2171462Y-85131096D01*
X2218913Y-85121658D01*
X2355495Y-85065084D01*
X2478416Y-84982951D01*
X2582951Y-84878416D01*
X2665084Y-84755495D01*
X2721658Y-84618913D01*
X2731096Y-84571462D01*
X2750500Y-84473920D01*
X2750500Y-82399095D01*
X2770185Y-82332056D01*
X2822989Y-82286301D01*
X2892147Y-82276357D01*
X2955703Y-82305382D01*
X2962181Y-82311414D01*
X3105342Y-82454575D01*
X3105345Y-82454577D01*
X3277402Y-82569541D01*
X3468580Y-82648730D01*
X3671530Y-82689099D01*
X3671534Y-82689100D01*
X3671535Y-82689100D01*
X3878466Y-82689100D01*
X3878467Y-82689099D01*
X4081420Y-82648730D01*
X4272598Y-82569541D01*
X4444655Y-82454577D01*
X4590977Y-82308255D01*
X4705941Y-82136198D01*
X4710939Y-82124133D01*
X4754780Y-82069729D01*
X4821074Y-82047664D01*
X4888773Y-82064943D01*
X4936384Y-82116080D01*
X4949500Y-82171585D01*
X4949500Y-83630664D01*
X4929815Y-83697703D01*
X4913181Y-83718345D01*
X1246174Y-87385351D01*
X1246174Y-87385352D01*
X1246172Y-87385354D01*
X1196485Y-87453741D01*
X1130476Y-87544594D01*
X1041114Y-87719976D01*
X998947Y-87849757D01*
X998947Y-87849758D01*
X980290Y-87907173D01*
X949500Y-88101577D01*
X550000Y-88101577D01*
X550000Y-66135130D01*
X2724500Y-66135130D01*
X2724500Y-66342069D01*
X2764868Y-66545012D01*
X2764870Y-66545020D01*
X2827484Y-66696184D01*
X2844059Y-66736198D01*
X2901541Y-66822226D01*
X2959024Y-66908257D01*
X3105342Y-67054575D01*
X3105345Y-67054577D01*
X3277402Y-67169541D01*
X3468580Y-67248730D01*
X3671530Y-67289099D01*
X3671534Y-67289100D01*
X3671535Y-67289100D01*
X3878466Y-67289100D01*
X3878467Y-67289099D01*
X4081420Y-67248730D01*
X4272598Y-67169541D01*
X4444655Y-67054577D01*
X4590977Y-66908255D01*
X4705941Y-66736198D01*
X4785130Y-66545020D01*
X4825500Y-66342065D01*
X4825500Y-66136282D01*
X7475000Y-66136282D01*
X7475000Y-66340917D01*
X7507009Y-66543017D01*
X7570244Y-66737631D01*
X7663141Y-66919950D01*
X7663147Y-66919959D01*
X7695523Y-66964521D01*
X7695524Y-66964522D01*
X8375000Y-66285046D01*
X8375000Y-66291261D01*
X8402259Y-66392994D01*
X8454920Y-66484206D01*
X8529394Y-66558680D01*
X8620606Y-66611341D01*
X8722339Y-66638600D01*
X8728553Y-66638600D01*
X8049076Y-67318074D01*
X8093650Y-67350459D01*
X8275968Y-67443355D01*
X8470582Y-67506590D01*
X8672683Y-67538600D01*
X8877317Y-67538600D01*
X9079417Y-67506590D01*
X9274031Y-67443355D01*
X9456349Y-67350459D01*
X9500921Y-67318074D01*
X8821447Y-66638600D01*
X8827661Y-66638600D01*
X8929394Y-66611341D01*
X9020606Y-66558680D01*
X9095080Y-66484206D01*
X9147741Y-66392994D01*
X9175000Y-66291261D01*
X9175000Y-66285047D01*
X9854474Y-66964521D01*
X9886859Y-66919949D01*
X9979755Y-66737631D01*
X10042990Y-66543017D01*
X10075000Y-66340917D01*
X10075000Y-66136282D01*
X10425000Y-66136282D01*
X10425000Y-66340917D01*
X10457009Y-66543017D01*
X10520244Y-66737631D01*
X10613141Y-66919950D01*
X10613147Y-66919959D01*
X10645523Y-66964521D01*
X10645524Y-66964522D01*
X11325000Y-66285046D01*
X11325000Y-66291261D01*
X11352259Y-66392994D01*
X11404920Y-66484206D01*
X11479394Y-66558680D01*
X11570606Y-66611341D01*
X11672339Y-66638600D01*
X11678553Y-66638600D01*
X10999076Y-67318074D01*
X11043650Y-67350459D01*
X11225968Y-67443355D01*
X11420582Y-67506590D01*
X11622683Y-67538600D01*
X11827317Y-67538600D01*
X12029417Y-67506590D01*
X12224031Y-67443355D01*
X12406349Y-67350459D01*
X12450921Y-67318074D01*
X11771447Y-66638600D01*
X11777661Y-66638600D01*
X11879394Y-66611341D01*
X11970606Y-66558680D01*
X12045080Y-66484206D01*
X12097741Y-66392994D01*
X12125000Y-66291261D01*
X12125000Y-66285048D01*
X12804474Y-66964522D01*
X12804474Y-66964521D01*
X12836859Y-66919949D01*
X12929755Y-66737631D01*
X12992990Y-66543017D01*
X13025000Y-66340917D01*
X13025000Y-66136282D01*
X12992990Y-65934182D01*
X12929755Y-65739568D01*
X12836859Y-65557250D01*
X12804474Y-65512677D01*
X12804474Y-65512676D01*
X12125000Y-66192151D01*
X12125000Y-66185939D01*
X12097741Y-66084206D01*
X12045080Y-65992994D01*
X11970606Y-65918520D01*
X11879394Y-65865859D01*
X11777661Y-65838600D01*
X11771446Y-65838600D01*
X12450922Y-65159124D01*
X12450921Y-65159123D01*
X12406359Y-65126747D01*
X12406350Y-65126741D01*
X12224031Y-65033844D01*
X12029417Y-64970609D01*
X11827317Y-64938600D01*
X11622683Y-64938600D01*
X11420582Y-64970609D01*
X11225968Y-65033844D01*
X11043644Y-65126743D01*
X10999077Y-65159123D01*
X10999077Y-65159124D01*
X11678554Y-65838600D01*
X11672339Y-65838600D01*
X11570606Y-65865859D01*
X11479394Y-65918520D01*
X11404920Y-65992994D01*
X11352259Y-66084206D01*
X11325000Y-66185939D01*
X11325000Y-66192153D01*
X10645524Y-65512677D01*
X10645523Y-65512677D01*
X10613143Y-65557244D01*
X10520244Y-65739568D01*
X10457009Y-65934182D01*
X10425000Y-66136282D01*
X10075000Y-66136282D01*
X10042990Y-65934182D01*
X9979755Y-65739568D01*
X9886859Y-65557250D01*
X9854474Y-65512677D01*
X9854474Y-65512676D01*
X9175000Y-66192151D01*
X9175000Y-66185939D01*
X9147741Y-66084206D01*
X9095080Y-65992994D01*
X9020606Y-65918520D01*
X8929394Y-65865859D01*
X8827661Y-65838600D01*
X8821446Y-65838600D01*
X9500922Y-65159124D01*
X9500921Y-65159123D01*
X9456359Y-65126747D01*
X9456350Y-65126741D01*
X9274031Y-65033844D01*
X9079417Y-64970609D01*
X8877317Y-64938600D01*
X8672683Y-64938600D01*
X8470582Y-64970609D01*
X8275968Y-65033844D01*
X8093644Y-65126743D01*
X8049077Y-65159123D01*
X8049077Y-65159124D01*
X8728554Y-65838600D01*
X8722339Y-65838600D01*
X8620606Y-65865859D01*
X8529394Y-65918520D01*
X8454920Y-65992994D01*
X8402259Y-66084206D01*
X8375000Y-66185939D01*
X8375000Y-66192153D01*
X7695524Y-65512677D01*
X7695523Y-65512677D01*
X7663143Y-65557244D01*
X7570244Y-65739568D01*
X7507009Y-65934182D01*
X7475000Y-66136282D01*
X4825500Y-66136282D01*
X4825500Y-66135135D01*
X4785130Y-65932180D01*
X4705941Y-65741002D01*
X4590977Y-65568945D01*
X4590975Y-65568942D01*
X4444657Y-65422624D01*
X4275332Y-65309486D01*
X4272598Y-65307659D01*
X4081420Y-65228470D01*
X4081412Y-65228468D01*
X3878469Y-65188100D01*
X3878465Y-65188100D01*
X3671535Y-65188100D01*
X3671530Y-65188100D01*
X3468587Y-65228468D01*
X3468579Y-65228470D01*
X3277403Y-65307658D01*
X3105342Y-65422624D01*
X2959024Y-65568942D01*
X2844058Y-65741003D01*
X2764870Y-65932179D01*
X2764868Y-65932187D01*
X2724500Y-66135130D01*
X550000Y-66135130D01*
X550000Y-59640734D01*
X3724500Y-59640734D01*
X3724500Y-62436469D01*
X3724501Y-62436475D01*
X3730908Y-62496082D01*
X3781202Y-62630927D01*
X3781206Y-62630934D01*
X3867452Y-62746143D01*
X3867455Y-62746146D01*
X3982664Y-62832392D01*
X3982671Y-62832396D01*
X4117517Y-62882690D01*
X4117516Y-62882690D01*
X4124444Y-62883434D01*
X4177127Y-62889099D01*
X6972872Y-62889098D01*
X7032483Y-62882690D01*
X7167331Y-62832395D01*
X7282546Y-62746145D01*
X7368796Y-62630930D01*
X7419091Y-62496082D01*
X7425500Y-62436472D01*
X7425499Y-60917310D01*
X8804500Y-60917310D01*
X8804500Y-61159887D01*
X8836161Y-61400384D01*
X8898947Y-61634703D01*
X8970670Y-61807856D01*
X8991776Y-61858811D01*
X9113064Y-62068888D01*
X9113066Y-62068891D01*
X9113067Y-62068892D01*
X9260733Y-62261335D01*
X9260739Y-62261342D01*
X9432256Y-62432859D01*
X9432263Y-62432865D01*
X9514648Y-62496081D01*
X9624711Y-62580535D01*
X9834788Y-62701823D01*
X10058900Y-62794653D01*
X10293211Y-62857437D01*
X10473586Y-62881183D01*
X10533711Y-62889099D01*
X10533712Y-62889099D01*
X10776289Y-62889099D01*
X10824970Y-62882690D01*
X11016789Y-62857437D01*
X11251100Y-62794653D01*
X11475212Y-62701823D01*
X11685289Y-62580535D01*
X11877738Y-62432864D01*
X12049265Y-62261337D01*
X12196936Y-62068888D01*
X12318224Y-61858811D01*
X12411054Y-61634699D01*
X12473838Y-61400388D01*
X12505500Y-61159887D01*
X12505500Y-61066628D01*
X12505684Y-61063252D01*
X12516255Y-61033370D01*
X12525185Y-61002960D01*
X12528366Y-60999136D01*
X12528987Y-60997383D01*
X12531350Y-60995550D01*
X12544618Y-60979605D01*
X12610958Y-60917310D01*
X13192986Y-60370770D01*
X13204969Y-60360857D01*
X13214646Y-60353828D01*
X13269007Y-60299465D01*
X13271709Y-60296847D01*
X13327752Y-60244223D01*
X13339860Y-60228613D01*
X13353828Y-60214646D01*
X13400126Y-60150922D01*
X13448395Y-60088697D01*
X13454153Y-60078221D01*
X13462498Y-60065074D01*
X13469524Y-60055405D01*
X13505289Y-59985210D01*
X13543223Y-59916213D01*
X13549913Y-59897630D01*
X13558884Y-59880025D01*
X13582631Y-59806935D01*
X13583880Y-59803289D01*
X13609898Y-59731030D01*
X13609899Y-59731026D01*
X13609902Y-59731018D01*
X13612142Y-59719272D01*
X13616012Y-59704202D01*
X13619709Y-59692826D01*
X13627960Y-59640727D01*
X13628295Y-59638612D01*
X14105000Y-59638612D01*
X14105000Y-60788599D01*
X15442639Y-60788599D01*
X15435743Y-60805248D01*
X15405000Y-60959806D01*
X15405000Y-61117392D01*
X15435743Y-61271950D01*
X15442639Y-61288599D01*
X14105001Y-61288599D01*
X14105001Y-62438585D01*
X14115494Y-62541296D01*
X14170641Y-62707718D01*
X14170643Y-62707723D01*
X14262684Y-62856944D01*
X14386654Y-62980914D01*
X14535875Y-63072955D01*
X14535880Y-63072957D01*
X14702302Y-63128104D01*
X14702309Y-63128105D01*
X14805019Y-63138598D01*
X15954999Y-63138598D01*
X15955000Y-63138597D01*
X15955000Y-61800959D01*
X15971649Y-61807856D01*
X16126207Y-61838599D01*
X16283793Y-61838599D01*
X16438351Y-61807856D01*
X16455000Y-61800959D01*
X16455000Y-63138598D01*
X17604972Y-63138598D01*
X17604986Y-63138597D01*
X17707697Y-63128104D01*
X17874119Y-63072957D01*
X17874124Y-63072955D01*
X18023345Y-62980914D01*
X18147315Y-62856944D01*
X18239356Y-62707723D01*
X18239358Y-62707718D01*
X18294505Y-62541296D01*
X18294506Y-62541289D01*
X18304999Y-62438585D01*
X18305000Y-62438572D01*
X18305000Y-61288599D01*
X16967361Y-61288599D01*
X16974257Y-61271950D01*
X17005000Y-61117392D01*
X17005000Y-60959806D01*
X16974257Y-60805248D01*
X16967361Y-60788599D01*
X18304999Y-60788599D01*
X18304999Y-59638627D01*
X18304998Y-59638612D01*
X18294505Y-59535901D01*
X18239358Y-59369479D01*
X18239356Y-59369474D01*
X18147315Y-59220253D01*
X18023345Y-59096283D01*
X17874124Y-59004242D01*
X17874119Y-59004240D01*
X17707697Y-58949093D01*
X17707690Y-58949092D01*
X17604986Y-58938599D01*
X16455000Y-58938599D01*
X16455000Y-60276238D01*
X16438351Y-60269342D01*
X16283793Y-60238599D01*
X16126207Y-60238599D01*
X15971649Y-60269342D01*
X15955000Y-60276238D01*
X15955000Y-58938599D01*
X14805028Y-58938599D01*
X14805012Y-58938600D01*
X14702302Y-58949093D01*
X14535880Y-59004240D01*
X14535875Y-59004242D01*
X14386654Y-59096283D01*
X14262684Y-59220253D01*
X14170643Y-59369474D01*
X14170641Y-59369479D01*
X14115494Y-59535901D01*
X14115493Y-59535908D01*
X14105000Y-59638612D01*
X13628295Y-59638612D01*
X13631727Y-59616945D01*
X13632405Y-59613064D01*
X13632561Y-59612246D01*
X13632565Y-59612224D01*
X13638500Y-59581115D01*
X13646789Y-59537672D01*
X13647164Y-59525724D01*
X13648630Y-59510219D01*
X13650500Y-59498417D01*
X13650500Y-59421605D01*
X13650561Y-59417708D01*
X13652975Y-59340936D01*
X13651477Y-59329073D01*
X13650500Y-59313538D01*
X13650500Y-59169336D01*
X13670185Y-59102297D01*
X13686819Y-59081655D01*
X14266897Y-58501577D01*
X14953829Y-57814645D01*
X15069524Y-57655405D01*
X15158884Y-57480026D01*
X15219709Y-57292826D01*
X15250500Y-57098421D01*
X15250500Y-55471989D01*
X16744500Y-55471989D01*
X16744500Y-55645211D01*
X16771598Y-55816301D01*
X16825127Y-55981045D01*
X16903768Y-56135388D01*
X17005586Y-56275528D01*
X17128072Y-56398014D01*
X17268212Y-56499832D01*
X17422555Y-56578473D01*
X17587299Y-56632002D01*
X17758389Y-56659100D01*
X17758390Y-56659100D01*
X17931610Y-56659100D01*
X17931611Y-56659100D01*
X18102701Y-56632002D01*
X18267445Y-56578473D01*
X18421788Y-56499832D01*
X18561928Y-56398014D01*
X18684414Y-56275528D01*
X18786232Y-56135388D01*
X18864873Y-55981045D01*
X18918402Y-55816301D01*
X18945500Y-55645211D01*
X18945500Y-55471989D01*
X18918402Y-55300899D01*
X18864873Y-55136155D01*
X18786232Y-54981812D01*
X18684414Y-54841672D01*
X18561928Y-54719186D01*
X18421788Y-54617368D01*
X18267445Y-54538727D01*
X18102701Y-54485198D01*
X18102699Y-54485197D01*
X18102698Y-54485197D01*
X17971271Y-54464381D01*
X17931611Y-54458100D01*
X17758389Y-54458100D01*
X17718728Y-54464381D01*
X17587302Y-54485197D01*
X17422552Y-54538728D01*
X17268211Y-54617368D01*
X17188256Y-54675459D01*
X17128072Y-54719186D01*
X17128070Y-54719188D01*
X17128069Y-54719188D01*
X17005588Y-54841669D01*
X17005588Y-54841670D01*
X17005586Y-54841672D01*
X16961859Y-54901856D01*
X16903768Y-54981811D01*
X16825128Y-55136152D01*
X16771597Y-55300902D01*
X16755153Y-55404727D01*
X16744500Y-55471989D01*
X15250500Y-55471989D01*
X15250500Y-52769335D01*
X15270185Y-52702296D01*
X15286814Y-52681659D01*
X15824552Y-52143921D01*
X16744500Y-52143921D01*
X16744500Y-53893278D01*
X16759032Y-53966335D01*
X16759033Y-53966339D01*
X16759034Y-53966340D01*
X16814399Y-54049201D01*
X16897260Y-54104566D01*
X16897264Y-54104567D01*
X16970321Y-54119099D01*
X16970324Y-54119100D01*
X16970326Y-54119100D01*
X18719676Y-54119100D01*
X18719677Y-54119099D01*
X18792740Y-54104566D01*
X18875601Y-54049201D01*
X18930966Y-53966340D01*
X18945500Y-53893274D01*
X18945500Y-52143926D01*
X18945500Y-52143923D01*
X18945499Y-52143921D01*
X18930967Y-52070864D01*
X18930966Y-52070860D01*
X18917130Y-52050153D01*
X18875601Y-51987999D01*
X18792740Y-51932634D01*
X18792739Y-51932633D01*
X18792735Y-51932632D01*
X18719677Y-51918100D01*
X18719674Y-51918100D01*
X16970326Y-51918100D01*
X16970323Y-51918100D01*
X16897264Y-51932632D01*
X16897260Y-51932633D01*
X16814399Y-51987999D01*
X16759033Y-52070860D01*
X16759032Y-52070864D01*
X16744500Y-52143921D01*
X15824552Y-52143921D01*
X17614465Y-50354007D01*
X17627875Y-50342393D01*
X18672676Y-49561143D01*
X18809932Y-49420063D01*
X18923428Y-49259247D01*
X19010371Y-49082656D01*
X19068617Y-48894638D01*
X19096734Y-48699824D01*
X19094030Y-48503009D01*
X19060569Y-48309041D01*
X18997178Y-48122695D01*
X18997176Y-48122691D01*
X18997173Y-48122684D01*
X18941948Y-48017887D01*
X18905416Y-47948561D01*
X18905415Y-47948559D01*
X18787547Y-47790928D01*
X18646466Y-47653672D01*
X18646462Y-47653668D01*
X18485646Y-47540172D01*
X18485645Y-47540171D01*
X18485643Y-47540170D01*
X18309054Y-47453228D01*
X18240501Y-47431991D01*
X18206784Y-47421546D01*
X18148573Y-47382906D01*
X18120492Y-47318927D01*
X18131459Y-47249924D01*
X18177991Y-47197803D01*
X18243478Y-47179100D01*
X18719676Y-47179100D01*
X18719677Y-47179099D01*
X18792740Y-47164566D01*
X18875601Y-47109201D01*
X18930966Y-47026340D01*
X18945500Y-46953274D01*
X18945500Y-45203926D01*
X18945500Y-45203923D01*
X18945499Y-45203921D01*
X18930967Y-45130864D01*
X18930966Y-45130860D01*
X18913535Y-45104772D01*
X18875601Y-45047999D01*
X18792740Y-44992634D01*
X18792739Y-44992633D01*
X18792735Y-44992632D01*
X18719677Y-44978100D01*
X18719674Y-44978100D01*
X16970326Y-44978100D01*
X16970323Y-44978100D01*
X16897264Y-44992632D01*
X16897260Y-44992633D01*
X16814399Y-45047999D01*
X16759033Y-45130860D01*
X16759032Y-45130864D01*
X16744500Y-45203921D01*
X16744500Y-46953278D01*
X16759032Y-47026335D01*
X16759033Y-47026339D01*
X16759034Y-47026340D01*
X16814399Y-47109201D01*
X16897260Y-47164566D01*
X16897264Y-47164567D01*
X16970321Y-47179099D01*
X16970324Y-47179100D01*
X17444173Y-47179100D01*
X17511212Y-47198785D01*
X17556967Y-47251589D01*
X17566911Y-47320747D01*
X17537886Y-47384303D01*
X17484108Y-47420493D01*
X17349096Y-47466421D01*
X17349094Y-47466422D01*
X17174959Y-47558184D01*
X16058751Y-48392829D01*
X16058024Y-48393372D01*
X15985354Y-48446172D01*
X15979244Y-48452280D01*
X15972331Y-48457450D01*
X15972325Y-48457455D01*
X15910263Y-48521245D01*
X15909068Y-48522456D01*
X13046174Y-51385351D01*
X13046172Y-51385354D01*
X12996485Y-51453741D01*
X12930476Y-51544594D01*
X12840669Y-51720851D01*
X12839608Y-51724612D01*
X12780291Y-51907169D01*
X12780291Y-51907172D01*
X12749500Y-52101577D01*
X12749500Y-52174868D01*
X12729815Y-52241907D01*
X12677011Y-52287662D01*
X12607853Y-52297606D01*
X12544297Y-52268581D01*
X12525182Y-52247754D01*
X12520934Y-52241907D01*
X12478828Y-52183953D01*
X12339646Y-52044771D01*
X12180405Y-51929075D01*
X12137412Y-51907169D01*
X12005029Y-51839716D01*
X11817826Y-51778889D01*
X11623422Y-51748099D01*
X11623417Y-51748099D01*
X11426583Y-51748099D01*
X11426578Y-51748099D01*
X11232173Y-51778889D01*
X11044970Y-51839716D01*
X10869594Y-51929075D01*
X10778741Y-51995084D01*
X10710354Y-52044771D01*
X10710352Y-52044773D01*
X10710351Y-52044773D01*
X10571174Y-52183950D01*
X10571174Y-52183951D01*
X10571172Y-52183953D01*
X10529066Y-52241907D01*
X10455476Y-52343193D01*
X10366117Y-52518569D01*
X10305290Y-52705772D01*
X10274500Y-52900176D01*
X10274500Y-53097021D01*
X10305290Y-53291425D01*
X10366117Y-53478628D01*
X10455476Y-53654004D01*
X10571172Y-53813245D01*
X10710354Y-53952427D01*
X10869595Y-54068123D01*
X10941119Y-54104566D01*
X11044970Y-54157481D01*
X11044972Y-54157481D01*
X11044975Y-54157483D01*
X11145317Y-54190086D01*
X11232173Y-54218308D01*
X11426578Y-54249099D01*
X11426583Y-54249099D01*
X11623422Y-54249099D01*
X11817826Y-54218308D01*
X12005025Y-54157483D01*
X12180405Y-54068123D01*
X12339646Y-53952427D01*
X12478828Y-53813245D01*
X12525182Y-53749443D01*
X12580512Y-53706778D01*
X12650125Y-53700799D01*
X12711920Y-53733405D01*
X12746277Y-53794243D01*
X12749500Y-53822329D01*
X12749500Y-56430664D01*
X12729815Y-56497703D01*
X12713181Y-56518345D01*
X11446174Y-57785351D01*
X11446174Y-57785352D01*
X11446172Y-57785354D01*
X11396485Y-57853741D01*
X11330476Y-57944594D01*
X11241117Y-58119971D01*
X11200653Y-58244506D01*
X11200653Y-58244507D01*
X11180290Y-58307175D01*
X11149500Y-58501577D01*
X11149500Y-58805183D01*
X11129815Y-58872222D01*
X11110382Y-58895577D01*
X10834653Y-59154493D01*
X10772308Y-59186034D01*
X10749771Y-59188099D01*
X10533711Y-59188099D01*
X10293214Y-59219760D01*
X10058895Y-59282546D01*
X9834794Y-59375372D01*
X9834785Y-59375376D01*
X9624706Y-59496666D01*
X9432263Y-59644332D01*
X9432256Y-59644338D01*
X9260739Y-59815855D01*
X9260733Y-59815862D01*
X9113067Y-60008305D01*
X8991777Y-60218384D01*
X8991773Y-60218393D01*
X8898947Y-60442494D01*
X8836161Y-60676813D01*
X8804500Y-60917310D01*
X7425499Y-60917310D01*
X7425499Y-59640727D01*
X7419091Y-59581116D01*
X7402887Y-59537672D01*
X7368797Y-59446270D01*
X7368793Y-59446263D01*
X7282547Y-59331054D01*
X7282544Y-59331051D01*
X7167335Y-59244805D01*
X7167328Y-59244801D01*
X7032482Y-59194507D01*
X7032483Y-59194507D01*
X6972883Y-59188100D01*
X6972881Y-59188099D01*
X6972873Y-59188099D01*
X6972864Y-59188099D01*
X4177129Y-59188099D01*
X4177123Y-59188100D01*
X4117516Y-59194507D01*
X3982671Y-59244801D01*
X3982664Y-59244805D01*
X3867455Y-59331051D01*
X3867452Y-59331054D01*
X3781206Y-59446263D01*
X3781202Y-59446270D01*
X3730908Y-59581116D01*
X3724501Y-59640715D01*
X3724501Y-59640722D01*
X3724500Y-59640734D01*
X550000Y-59640734D01*
X550000Y-52900176D01*
X5174500Y-52900176D01*
X5174500Y-53097021D01*
X5205290Y-53291425D01*
X5266117Y-53478628D01*
X5355476Y-53654004D01*
X5471172Y-53813245D01*
X5610354Y-53952427D01*
X5769595Y-54068123D01*
X5841119Y-54104566D01*
X5944970Y-54157481D01*
X5944972Y-54157481D01*
X5944975Y-54157483D01*
X6045317Y-54190086D01*
X6132173Y-54218308D01*
X6326578Y-54249099D01*
X6326583Y-54249099D01*
X6523422Y-54249099D01*
X6717826Y-54218308D01*
X6905025Y-54157483D01*
X7080405Y-54068123D01*
X7239646Y-53952427D01*
X7378828Y-53813245D01*
X7494524Y-53654004D01*
X7583884Y-53478624D01*
X7644709Y-53291425D01*
X7649500Y-53261175D01*
X7675500Y-53097021D01*
X7675500Y-52900176D01*
X7644709Y-52705772D01*
X7583882Y-52518569D01*
X7494523Y-52343193D01*
X7454177Y-52287662D01*
X7378828Y-52183953D01*
X7239646Y-52044771D01*
X7080405Y-51929075D01*
X7037412Y-51907169D01*
X6905029Y-51839716D01*
X6717826Y-51778889D01*
X6523422Y-51748099D01*
X6523417Y-51748099D01*
X6326583Y-51748099D01*
X6326578Y-51748099D01*
X6132173Y-51778889D01*
X5944970Y-51839716D01*
X5769594Y-51929075D01*
X5678741Y-51995084D01*
X5610354Y-52044771D01*
X5610352Y-52044773D01*
X5610351Y-52044773D01*
X5471174Y-52183950D01*
X5471174Y-52183951D01*
X5471172Y-52183953D01*
X5429066Y-52241907D01*
X5355476Y-52343193D01*
X5266117Y-52518569D01*
X5205290Y-52705772D01*
X5174500Y-52900176D01*
X550000Y-52900176D01*
X550000Y-41838190D01*
X569685Y-41771151D01*
X622489Y-41725396D01*
X691647Y-41715452D01*
X755203Y-41744477D01*
X777102Y-41769299D01*
X792031Y-41791642D01*
X822861Y-41837782D01*
X962218Y-41977139D01*
X962220Y-41977140D01*
X969286Y-41984206D01*
X969285Y-41984206D01*
X969289Y-41984209D01*
X4686105Y-45701026D01*
X4687508Y-45702451D01*
X5127650Y-46157022D01*
X5156403Y-46186717D01*
X5188894Y-46248572D01*
X5189792Y-46253574D01*
X5205290Y-46351423D01*
X5205291Y-46351426D01*
X5266116Y-46538625D01*
X5355476Y-46714005D01*
X5471172Y-46873246D01*
X5610354Y-47012428D01*
X5769595Y-47128124D01*
X5841117Y-47164566D01*
X5944970Y-47217482D01*
X5944972Y-47217482D01*
X5944975Y-47217484D01*
X6044814Y-47249924D01*
X6132173Y-47278309D01*
X6326578Y-47309100D01*
X6326583Y-47309100D01*
X6523422Y-47309100D01*
X6717826Y-47278309D01*
X6905025Y-47217484D01*
X7080405Y-47128124D01*
X7239646Y-47012428D01*
X7378828Y-46873246D01*
X7494524Y-46714005D01*
X7583884Y-46538625D01*
X7644709Y-46351426D01*
X7660207Y-46253574D01*
X7675500Y-46157022D01*
X7675500Y-45960177D01*
X10274500Y-45960177D01*
X10274500Y-46157022D01*
X10305290Y-46351426D01*
X10366117Y-46538629D01*
X10455476Y-46714005D01*
X10571172Y-46873246D01*
X10710354Y-47012428D01*
X10869595Y-47128124D01*
X10941117Y-47164566D01*
X11044970Y-47217482D01*
X11044972Y-47217482D01*
X11044975Y-47217484D01*
X11144814Y-47249924D01*
X11232173Y-47278309D01*
X11426578Y-47309100D01*
X11426583Y-47309100D01*
X11623422Y-47309100D01*
X11817826Y-47278309D01*
X12005025Y-47217484D01*
X12180405Y-47128124D01*
X12339646Y-47012428D01*
X12478828Y-46873246D01*
X12594524Y-46714005D01*
X12683884Y-46538625D01*
X12744709Y-46351426D01*
X12760207Y-46253574D01*
X12775500Y-46157022D01*
X12775500Y-45960177D01*
X12744709Y-45765773D01*
X12683882Y-45578570D01*
X12594523Y-45403194D01*
X12478828Y-45243954D01*
X12339646Y-45104772D01*
X12180405Y-44989076D01*
X12158863Y-44978100D01*
X12005029Y-44899717D01*
X11817826Y-44838890D01*
X11623422Y-44808100D01*
X11623417Y-44808100D01*
X11426583Y-44808100D01*
X11426578Y-44808100D01*
X11232173Y-44838890D01*
X11044970Y-44899717D01*
X10869594Y-44989076D01*
X10788495Y-45047999D01*
X10710354Y-45104772D01*
X10710352Y-45104774D01*
X10710351Y-45104774D01*
X10571174Y-45243951D01*
X10571174Y-45243952D01*
X10571172Y-45243954D01*
X10521485Y-45312341D01*
X10455476Y-45403194D01*
X10366117Y-45578570D01*
X10305290Y-45765773D01*
X10274500Y-45960177D01*
X7675500Y-45960177D01*
X7644709Y-45765773D01*
X7583882Y-45578570D01*
X7494523Y-45403194D01*
X7378828Y-45243954D01*
X7239646Y-45104772D01*
X7080405Y-44989076D01*
X6905025Y-44899716D01*
X6717826Y-44838891D01*
X6717824Y-44838890D01*
X6662836Y-44830181D01*
X6599702Y-44800251D01*
X6593151Y-44793964D01*
X6587100Y-44787715D01*
X6181661Y-44368985D01*
X6177140Y-44362219D01*
X6113163Y-44298242D01*
X6050229Y-44233245D01*
X6045582Y-44229305D01*
X6045728Y-44229132D01*
X6035612Y-44220691D01*
X2636819Y-40821898D01*
X2603334Y-40760575D01*
X2600500Y-40734217D01*
X2600500Y-37410735D01*
X4489146Y-37410735D01*
X4489146Y-39006470D01*
X4489147Y-39006476D01*
X4495554Y-39066083D01*
X4545848Y-39200928D01*
X4545852Y-39200935D01*
X4632098Y-39316144D01*
X4632101Y-39316147D01*
X4747310Y-39402393D01*
X4747317Y-39402397D01*
X4882163Y-39452691D01*
X4882162Y-39452691D01*
X4889090Y-39453435D01*
X4941773Y-39459100D01*
X6537518Y-39459099D01*
X6597129Y-39452691D01*
X6731977Y-39402396D01*
X6847192Y-39316146D01*
X6933442Y-39200931D01*
X6983737Y-39066083D01*
X6990146Y-39006473D01*
X6990145Y-38090547D01*
X9239646Y-38090547D01*
X9239646Y-38326652D01*
X9276580Y-38559847D01*
X9349543Y-38784402D01*
X9456733Y-38994774D01*
X9516984Y-39077704D01*
X9516986Y-39077705D01*
X10256683Y-38338008D01*
X10273721Y-38401593D01*
X10339547Y-38515607D01*
X10432639Y-38608699D01*
X10546653Y-38674525D01*
X10610236Y-38691562D01*
X9870539Y-39431258D01*
X9953474Y-39491514D01*
X10163843Y-39598702D01*
X10388398Y-39671665D01*
X10388397Y-39671665D01*
X10621594Y-39708600D01*
X10857698Y-39708600D01*
X11090893Y-39671665D01*
X11315448Y-39598702D01*
X11525809Y-39491518D01*
X11525815Y-39491514D01*
X11608750Y-39431258D01*
X11608751Y-39431258D01*
X10869054Y-38691562D01*
X10932639Y-38674525D01*
X11046653Y-38608699D01*
X11139745Y-38515607D01*
X11205571Y-38401593D01*
X11222608Y-38338008D01*
X11962304Y-39077705D01*
X11962304Y-39077704D01*
X12022560Y-38994769D01*
X12022564Y-38994763D01*
X12129748Y-38784402D01*
X12202711Y-38559847D01*
X12229955Y-38387840D01*
X12229955Y-38387839D01*
X12239646Y-38326653D01*
X12239646Y-38090547D01*
X12202711Y-37857352D01*
X12129748Y-37632797D01*
X12042600Y-37461759D01*
X12042599Y-37461757D01*
X12022562Y-37422430D01*
X11962304Y-37339494D01*
X11962304Y-37339493D01*
X11222608Y-38079190D01*
X11205571Y-38015607D01*
X11139745Y-37901593D01*
X11046653Y-37808501D01*
X10932639Y-37742675D01*
X10869055Y-37725637D01*
X11608751Y-36985940D01*
X11608750Y-36985938D01*
X11525820Y-36925687D01*
X11315448Y-36818497D01*
X11090893Y-36745534D01*
X11090894Y-36745534D01*
X10857698Y-36708600D01*
X10621594Y-36708600D01*
X10388398Y-36745534D01*
X10163843Y-36818497D01*
X9953476Y-36925684D01*
X9870540Y-36985940D01*
X10610237Y-37725637D01*
X10546653Y-37742675D01*
X10432639Y-37808501D01*
X10339547Y-37901593D01*
X10273721Y-38015607D01*
X10256683Y-38079191D01*
X9516986Y-37339494D01*
X9456730Y-37422430D01*
X9349543Y-37632797D01*
X9276580Y-37857352D01*
X9239646Y-38090547D01*
X6990145Y-38090547D01*
X6990145Y-37410728D01*
X6983737Y-37351117D01*
X6974398Y-37326079D01*
X6933443Y-37216271D01*
X6933441Y-37216268D01*
X6933438Y-37216264D01*
X6847192Y-37101054D01*
X6778615Y-37049717D01*
X6731981Y-37014806D01*
X6731974Y-37014802D01*
X6597128Y-36964508D01*
X6597129Y-36964508D01*
X6537529Y-36958101D01*
X6537527Y-36958100D01*
X6537519Y-36958100D01*
X6537510Y-36958100D01*
X4941775Y-36958100D01*
X4941769Y-36958101D01*
X4882162Y-36964508D01*
X4747317Y-37014802D01*
X4747310Y-37014806D01*
X4632101Y-37101052D01*
X4632098Y-37101055D01*
X4545852Y-37216264D01*
X4545848Y-37216271D01*
X4495554Y-37351117D01*
X4489147Y-37410716D01*
X4489147Y-37410723D01*
X4489146Y-37410735D01*
X2600500Y-37410735D01*
X2600500Y-30305130D01*
X3174500Y-30305130D01*
X3174500Y-30512069D01*
X3214868Y-30715012D01*
X3214870Y-30715020D01*
X3294059Y-30906198D01*
X3300339Y-30915597D01*
X3409024Y-31078257D01*
X3555342Y-31224575D01*
X3555345Y-31224577D01*
X3727402Y-31339541D01*
X3918580Y-31418730D01*
X4052062Y-31445281D01*
X4121530Y-31459099D01*
X4121534Y-31459100D01*
X4121535Y-31459100D01*
X4328466Y-31459100D01*
X4328467Y-31459099D01*
X4531420Y-31418730D01*
X4722598Y-31339541D01*
X4894655Y-31224577D01*
X5040977Y-31078255D01*
X5155941Y-30906198D01*
X5235130Y-30715020D01*
X5275500Y-30512065D01*
X5275500Y-30305135D01*
X5275499Y-30305130D01*
X5714500Y-30305130D01*
X5714500Y-30512069D01*
X5754868Y-30715012D01*
X5754870Y-30715020D01*
X5834059Y-30906198D01*
X5840339Y-30915597D01*
X5949024Y-31078257D01*
X6095342Y-31224575D01*
X6095345Y-31224577D01*
X6267402Y-31339541D01*
X6458580Y-31418730D01*
X6592062Y-31445281D01*
X6661530Y-31459099D01*
X6661534Y-31459100D01*
X6661535Y-31459100D01*
X6868466Y-31459100D01*
X6868467Y-31459099D01*
X7071420Y-31418730D01*
X7262598Y-31339541D01*
X7434655Y-31224577D01*
X7580977Y-31078255D01*
X7695941Y-30906198D01*
X7775130Y-30715020D01*
X7815500Y-30512065D01*
X7815500Y-30305135D01*
X7775130Y-30102180D01*
X7695941Y-29911002D01*
X7580977Y-29738945D01*
X7580975Y-29738942D01*
X7434657Y-29592624D01*
X7265332Y-29479486D01*
X7262598Y-29477659D01*
X7071420Y-29398470D01*
X7071412Y-29398468D01*
X6868469Y-29358100D01*
X6868465Y-29358100D01*
X6661535Y-29358100D01*
X6661530Y-29358100D01*
X6458587Y-29398468D01*
X6458579Y-29398470D01*
X6267403Y-29477658D01*
X6095342Y-29592624D01*
X5949024Y-29738942D01*
X5834058Y-29911003D01*
X5754870Y-30102179D01*
X5754868Y-30102187D01*
X5714500Y-30305130D01*
X5275499Y-30305130D01*
X5235130Y-30102180D01*
X5155941Y-29911002D01*
X5040977Y-29738945D01*
X5040975Y-29738942D01*
X4894657Y-29592624D01*
X4725332Y-29479486D01*
X4722598Y-29477659D01*
X4531420Y-29398470D01*
X4531412Y-29398468D01*
X4328469Y-29358100D01*
X4328465Y-29358100D01*
X4121535Y-29358100D01*
X4121530Y-29358100D01*
X3918587Y-29398468D01*
X3918579Y-29398470D01*
X3727403Y-29477658D01*
X3555342Y-29592624D01*
X3409024Y-29738942D01*
X3294058Y-29911003D01*
X3214870Y-30102179D01*
X3214868Y-30102187D01*
X3174500Y-30305130D01*
X2600500Y-30305130D01*
X2600500Y-27121160D01*
X2620185Y-27054121D01*
X2672989Y-27008366D01*
X2742147Y-26998422D01*
X2767834Y-27004978D01*
X2867623Y-27042197D01*
X2867627Y-27042198D01*
X2927155Y-27048599D01*
X2927172Y-27048600D01*
X3625000Y-27048600D01*
X3625000Y-26023877D01*
X3701306Y-26067933D01*
X3815756Y-26098600D01*
X3934244Y-26098600D01*
X4048694Y-26067933D01*
X4125000Y-26023877D01*
X4125000Y-27048600D01*
X4822828Y-27048600D01*
X4822844Y-27048599D01*
X4882372Y-27042198D01*
X4882379Y-27042196D01*
X5017086Y-26991954D01*
X5017093Y-26991950D01*
X5132187Y-26905790D01*
X5132190Y-26905787D01*
X5218350Y-26790693D01*
X5218354Y-26790686D01*
X5268596Y-26655979D01*
X5268598Y-26655972D01*
X5274999Y-26596444D01*
X5275000Y-26596427D01*
X5275000Y-26418506D01*
X5294685Y-26351467D01*
X5347489Y-26305712D01*
X5416647Y-26295768D01*
X5480203Y-26324793D01*
X5499319Y-26345622D01*
X5537443Y-26398097D01*
X5665500Y-26526154D01*
X5665505Y-26526158D01*
X5730361Y-26573278D01*
X5812006Y-26632596D01*
X5917484Y-26686340D01*
X5973360Y-26714811D01*
X5973363Y-26714812D01*
X6059476Y-26742791D01*
X6145591Y-26770771D01*
X6228429Y-26783891D01*
X6324449Y-26799100D01*
X6324454Y-26799100D01*
X6505551Y-26799100D01*
X6597310Y-26784566D01*
X6684409Y-26770771D01*
X6856639Y-26714811D01*
X7017994Y-26632596D01*
X7164501Y-26526153D01*
X7292553Y-26398101D01*
X7398996Y-26251594D01*
X7481211Y-26090239D01*
X7537171Y-25918009D01*
X7554954Y-25805731D01*
X7565500Y-25739151D01*
X7565500Y-25558048D01*
X7540245Y-25398600D01*
X7537171Y-25379191D01*
X7481211Y-25206961D01*
X7481211Y-25206960D01*
X7435015Y-25116297D01*
X7398996Y-25045606D01*
X7385396Y-25026887D01*
X7292558Y-24899105D01*
X7292554Y-24899100D01*
X7164499Y-24771045D01*
X7164494Y-24771041D01*
X7017997Y-24664606D01*
X7017996Y-24664605D01*
X7017994Y-24664604D01*
X6966300Y-24638264D01*
X6856639Y-24582388D01*
X6856636Y-24582387D01*
X6684410Y-24526429D01*
X6505551Y-24498100D01*
X6505546Y-24498100D01*
X6324454Y-24498100D01*
X6324449Y-24498100D01*
X6145589Y-24526429D01*
X5973363Y-24582387D01*
X5973360Y-24582388D01*
X5812002Y-24664606D01*
X5665505Y-24771041D01*
X5665500Y-24771045D01*
X5537445Y-24899100D01*
X5537441Y-24899105D01*
X5499318Y-24951578D01*
X5443988Y-24994244D01*
X5374375Y-25000223D01*
X5312580Y-24967618D01*
X5278223Y-24906779D01*
X5275000Y-24878693D01*
X5275000Y-24700772D01*
X5274999Y-24700755D01*
X5268598Y-24641227D01*
X5268596Y-24641220D01*
X5218354Y-24506513D01*
X5218350Y-24506506D01*
X5132190Y-24391412D01*
X5132187Y-24391409D01*
X5017093Y-24305249D01*
X5017086Y-24305245D01*
X4882379Y-24255003D01*
X4882372Y-24255001D01*
X4822844Y-24248600D01*
X4125000Y-24248600D01*
X4125000Y-25273322D01*
X4048694Y-25229267D01*
X3934244Y-25198600D01*
X3815756Y-25198600D01*
X3701306Y-25229267D01*
X3625000Y-25273322D01*
X3625000Y-24248600D01*
X2927155Y-24248600D01*
X2867627Y-24255001D01*
X2867619Y-24255003D01*
X2767833Y-24292221D01*
X2698141Y-24297205D01*
X2636818Y-24263720D01*
X2603334Y-24202396D01*
X2600500Y-24176039D01*
X2600500Y-21648867D01*
X2620185Y-21581828D01*
X2672989Y-21536073D01*
X2742147Y-21526129D01*
X2805703Y-21555154D01*
X2834985Y-21592572D01*
X2934849Y-21788566D01*
X3069004Y-21973214D01*
X3230385Y-22134595D01*
X3415033Y-22268750D01*
X3618395Y-22372369D01*
X3835455Y-22442895D01*
X3925000Y-22457078D01*
X3925000Y-21628601D01*
X3985402Y-21653621D01*
X4110981Y-21678600D01*
X4239019Y-21678600D01*
X4364598Y-21653621D01*
X4425000Y-21628601D01*
X4425000Y-22457077D01*
X4514544Y-22442895D01*
X4731604Y-22372369D01*
X4934966Y-22268750D01*
X5119614Y-22134595D01*
X5280995Y-21973214D01*
X5415150Y-21788566D01*
X5518769Y-21585204D01*
X5589295Y-21368144D01*
X5625000Y-21142716D01*
X5625000Y-20778600D01*
X4825000Y-20778600D01*
X4825000Y-20680735D01*
X6344500Y-20680735D01*
X6344500Y-21576470D01*
X6344501Y-21576476D01*
X6350908Y-21636083D01*
X6401202Y-21770928D01*
X6401206Y-21770935D01*
X6487452Y-21886144D01*
X6487455Y-21886147D01*
X6602664Y-21972393D01*
X6602671Y-21972397D01*
X6635202Y-21984530D01*
X6737517Y-22022691D01*
X6797127Y-22029100D01*
X7081086Y-22029099D01*
X7107177Y-22036760D01*
X7134043Y-22040976D01*
X7144039Y-22047583D01*
X7148125Y-22048783D01*
X7163487Y-22060438D01*
X7207901Y-22099934D01*
X7244916Y-22159193D01*
X7249500Y-22192595D01*
X7249500Y-22673918D01*
X7249500Y-22673920D01*
X7249499Y-22673920D01*
X7278340Y-22818907D01*
X7278343Y-22818917D01*
X7334914Y-22955492D01*
X7334915Y-22955494D01*
X7334916Y-22955495D01*
X7349687Y-22977602D01*
X7367812Y-23004727D01*
X7367813Y-23004730D01*
X7417046Y-23078414D01*
X7417052Y-23078421D01*
X8417049Y-24078416D01*
X8521584Y-24182951D01*
X8521587Y-24182953D01*
X8521588Y-24182954D01*
X8644501Y-24265082D01*
X8644503Y-24265083D01*
X8644505Y-24265084D01*
X8645527Y-24265507D01*
X8645983Y-24265874D01*
X8649879Y-24267957D01*
X8649484Y-24268695D01*
X8699934Y-24309343D01*
X8722005Y-24375636D01*
X8704731Y-24443336D01*
X8653598Y-24490951D01*
X8622277Y-24501689D01*
X8567263Y-24512632D01*
X8567260Y-24512633D01*
X8484399Y-24567999D01*
X8429033Y-24650860D01*
X8429032Y-24650864D01*
X8414500Y-24723921D01*
X8414500Y-26573278D01*
X8429032Y-26646335D01*
X8429033Y-26646339D01*
X8429034Y-26646340D01*
X8484399Y-26729201D01*
X8546614Y-26770771D01*
X8567260Y-26784566D01*
X8567264Y-26784567D01*
X8640321Y-26799099D01*
X8640324Y-26799100D01*
X8640326Y-26799100D01*
X10489676Y-26799100D01*
X10489677Y-26799099D01*
X10562740Y-26784566D01*
X10645601Y-26729201D01*
X10700966Y-26646340D01*
X10715500Y-26573274D01*
X10715500Y-25805731D01*
X10735185Y-25738692D01*
X10787989Y-25692937D01*
X10857147Y-25682993D01*
X10920703Y-25712018D01*
X10958477Y-25770796D01*
X10961973Y-25786333D01*
X10982829Y-25918010D01*
X11038787Y-26090236D01*
X11038788Y-26090239D01*
X11121006Y-26251597D01*
X11230310Y-26402043D01*
X11229294Y-26402780D01*
X11239901Y-26426454D01*
X11254413Y-26454674D01*
X11254398Y-26458812D01*
X11255492Y-26461253D01*
X11256056Y-26489930D01*
X11255457Y-26496126D01*
X11249500Y-26526082D01*
X11249500Y-26557855D01*
X11248926Y-26563803D01*
X11248831Y-26564037D01*
X11248752Y-26565491D01*
X11245920Y-26591144D01*
X11249037Y-26627104D01*
X11249500Y-26637809D01*
X11249500Y-29570099D01*
X11249326Y-29576662D01*
X11249273Y-29577658D01*
X11246204Y-29622496D01*
X11246694Y-29626307D01*
X11246181Y-29635996D01*
X11236213Y-29664303D01*
X11228621Y-29693335D01*
X11223836Y-29699457D01*
X11222976Y-29701900D01*
X11220300Y-29703981D01*
X11210036Y-29717114D01*
X10565000Y-30362151D01*
X10565000Y-30355939D01*
X10537741Y-30254206D01*
X10485080Y-30162994D01*
X10410606Y-30088520D01*
X10319394Y-30035859D01*
X10217661Y-30008600D01*
X10211446Y-30008600D01*
X10890922Y-29329124D01*
X10890921Y-29329123D01*
X10846359Y-29296747D01*
X10846350Y-29296741D01*
X10664031Y-29203844D01*
X10469417Y-29140609D01*
X10267317Y-29108600D01*
X10062683Y-29108600D01*
X9860582Y-29140609D01*
X9665968Y-29203844D01*
X9483644Y-29296743D01*
X9439077Y-29329123D01*
X9439077Y-29329124D01*
X10118554Y-30008600D01*
X10112339Y-30008600D01*
X10010606Y-30035859D01*
X9919394Y-30088520D01*
X9844920Y-30162994D01*
X9792259Y-30254206D01*
X9765000Y-30355939D01*
X9765000Y-30362153D01*
X9085524Y-29682677D01*
X9085523Y-29682677D01*
X9053143Y-29727244D01*
X8960244Y-29909568D01*
X8897009Y-30104182D01*
X8865000Y-30306282D01*
X8865000Y-30510917D01*
X8897009Y-30713017D01*
X8960244Y-30907631D01*
X9053141Y-31089950D01*
X9053147Y-31089959D01*
X9085523Y-31134521D01*
X9085524Y-31134522D01*
X9765000Y-30455046D01*
X9765000Y-30461261D01*
X9792259Y-30562994D01*
X9844920Y-30654206D01*
X9919394Y-30728680D01*
X10010606Y-30781341D01*
X10112339Y-30808600D01*
X10118553Y-30808600D01*
X9439076Y-31488074D01*
X9483650Y-31520459D01*
X9665968Y-31613355D01*
X9860582Y-31676590D01*
X10062683Y-31708600D01*
X10267317Y-31708600D01*
X10469417Y-31676590D01*
X10664031Y-31613355D01*
X10846349Y-31520459D01*
X10890921Y-31488074D01*
X10211447Y-30808600D01*
X10217661Y-30808600D01*
X10319394Y-30781341D01*
X10410606Y-30728680D01*
X10485080Y-30654206D01*
X10537741Y-30562994D01*
X10565000Y-30461261D01*
X10565000Y-30455047D01*
X11244474Y-31134521D01*
X11276859Y-31089949D01*
X11369755Y-30907631D01*
X11432988Y-30713022D01*
X11440275Y-30667013D01*
X11470204Y-30603878D01*
X11529515Y-30566946D01*
X11599377Y-30567942D01*
X11657611Y-30606551D01*
X11684366Y-30662217D01*
X11694868Y-30715014D01*
X11694870Y-30715020D01*
X11774059Y-30906198D01*
X11780339Y-30915597D01*
X11889024Y-31078257D01*
X12035342Y-31224575D01*
X12035345Y-31224577D01*
X12207402Y-31339541D01*
X12398580Y-31418730D01*
X12532062Y-31445281D01*
X12601530Y-31459099D01*
X12601534Y-31459100D01*
X12601535Y-31459100D01*
X12808466Y-31459100D01*
X12808467Y-31459099D01*
X13011420Y-31418730D01*
X13202598Y-31339541D01*
X13374655Y-31224577D01*
X13520977Y-31078255D01*
X13635941Y-30906198D01*
X13715130Y-30715020D01*
X13755500Y-30512065D01*
X13755500Y-30305135D01*
X13715130Y-30102180D01*
X13635941Y-29911002D01*
X13520977Y-29738945D01*
X13520975Y-29738942D01*
X13374657Y-29592624D01*
X13205332Y-29479486D01*
X13202598Y-29477659D01*
X13011420Y-29398470D01*
X13011414Y-29398468D01*
X12850308Y-29366422D01*
X12788397Y-29334037D01*
X12753823Y-29273321D01*
X12750500Y-29244805D01*
X12750500Y-26664894D01*
X12770185Y-26597855D01*
X12801614Y-26564576D01*
X12854501Y-26526153D01*
X12982553Y-26398101D01*
X13088996Y-26251594D01*
X13171211Y-26090239D01*
X13178459Y-26067933D01*
X13227171Y-25918010D01*
X13241453Y-25827840D01*
X13255500Y-25739151D01*
X13255500Y-25558048D01*
X13230245Y-25398600D01*
X13227171Y-25379191D01*
X13171211Y-25206961D01*
X13171211Y-25206960D01*
X13125015Y-25116297D01*
X13088996Y-25045606D01*
X13075396Y-25026887D01*
X12982558Y-24899105D01*
X12982554Y-24899100D01*
X12854499Y-24771045D01*
X12854494Y-24771041D01*
X12707997Y-24664606D01*
X12707996Y-24664605D01*
X12707994Y-24664604D01*
X12551734Y-24584985D01*
X12500938Y-24537010D01*
X12484143Y-24469189D01*
X12506681Y-24403054D01*
X12561396Y-24359603D01*
X12608029Y-24350500D01*
X13791242Y-24350500D01*
X13858281Y-24370185D01*
X13904036Y-24422989D01*
X13913980Y-24492147D01*
X13907424Y-24517833D01*
X13861403Y-24641220D01*
X13861401Y-24641227D01*
X13855000Y-24700755D01*
X13855000Y-25398600D01*
X14879722Y-25398600D01*
X14835667Y-25474906D01*
X14805000Y-25589356D01*
X14805000Y-25707844D01*
X14835667Y-25822294D01*
X14879722Y-25898600D01*
X13855000Y-25898600D01*
X13855000Y-26596444D01*
X13861401Y-26655972D01*
X13861403Y-26655979D01*
X13911645Y-26790686D01*
X13911649Y-26790693D01*
X13997809Y-26905787D01*
X13997812Y-26905790D01*
X14112906Y-26991950D01*
X14112913Y-26991954D01*
X14247620Y-27042196D01*
X14247627Y-27042198D01*
X14307155Y-27048599D01*
X14307172Y-27048600D01*
X15005000Y-27048600D01*
X15005000Y-26023877D01*
X15081306Y-26067933D01*
X15195756Y-26098600D01*
X15314244Y-26098600D01*
X15428694Y-26067933D01*
X15505000Y-26023877D01*
X15505000Y-27048600D01*
X16202828Y-27048600D01*
X16202844Y-27048599D01*
X16262372Y-27042198D01*
X16262379Y-27042196D01*
X16397086Y-26991954D01*
X16397093Y-26991950D01*
X16512187Y-26905790D01*
X16512190Y-26905787D01*
X16598350Y-26790693D01*
X16598354Y-26790686D01*
X16648596Y-26655979D01*
X16648598Y-26655972D01*
X16654999Y-26596444D01*
X16655000Y-26596427D01*
X16655000Y-26418506D01*
X16674685Y-26351467D01*
X16727489Y-26305712D01*
X16796647Y-26295768D01*
X16860203Y-26324793D01*
X16879319Y-26345622D01*
X16917443Y-26398097D01*
X17045500Y-26526154D01*
X17045505Y-26526158D01*
X17110361Y-26573278D01*
X17192006Y-26632596D01*
X17297484Y-26686340D01*
X17353360Y-26714811D01*
X17353363Y-26714812D01*
X17439476Y-26742791D01*
X17525591Y-26770771D01*
X17608429Y-26783891D01*
X17704449Y-26799100D01*
X17704454Y-26799100D01*
X17885551Y-26799100D01*
X17977310Y-26784566D01*
X18064409Y-26770771D01*
X18236639Y-26714811D01*
X18397994Y-26632596D01*
X18544501Y-26526153D01*
X18672553Y-26398101D01*
X18778996Y-26251594D01*
X18815015Y-26180902D01*
X18862990Y-26130107D01*
X18930811Y-26113312D01*
X18996946Y-26135850D01*
X19040397Y-26190565D01*
X19049500Y-26237198D01*
X19049500Y-27037770D01*
X19029815Y-27104809D01*
X19013181Y-27125451D01*
X18325451Y-27813181D01*
X18264128Y-27846666D01*
X18237770Y-27849500D01*
X16926076Y-27849500D01*
X16897242Y-27855234D01*
X16897243Y-27855235D01*
X16781093Y-27878339D01*
X16781083Y-27878342D01*
X16701081Y-27911479D01*
X16701082Y-27911480D01*
X16644502Y-27934917D01*
X16595269Y-27967813D01*
X16521588Y-28017044D01*
X16521580Y-28017050D01*
X16217049Y-28321581D01*
X16177289Y-28381086D01*
X16177290Y-28381087D01*
X16134914Y-28444508D01*
X16078343Y-28581082D01*
X16078340Y-28581092D01*
X16049500Y-28726079D01*
X16049500Y-29246794D01*
X16029815Y-29313833D01*
X15977011Y-29359588D01*
X15949692Y-29368411D01*
X15798585Y-29398468D01*
X15798579Y-29398470D01*
X15607403Y-29477658D01*
X15435342Y-29592624D01*
X15289024Y-29738942D01*
X15174058Y-29911003D01*
X15094870Y-30102179D01*
X15094868Y-30102187D01*
X15054500Y-30305130D01*
X15054500Y-30512069D01*
X15094868Y-30715012D01*
X15094870Y-30715020D01*
X15174059Y-30906198D01*
X15180339Y-30915597D01*
X15289024Y-31078257D01*
X15435342Y-31224575D01*
X15435345Y-31224577D01*
X15607402Y-31339541D01*
X15798580Y-31418730D01*
X15863676Y-31431678D01*
X15889682Y-31445281D01*
X15916853Y-31456392D01*
X15922583Y-31462492D01*
X15925585Y-31464062D01*
X15941019Y-31482115D01*
X16027035Y-31604813D01*
X16049400Y-31671007D01*
X16049500Y-31675993D01*
X16049500Y-33873918D01*
X16049500Y-33873920D01*
X16049499Y-33873920D01*
X16078340Y-34018907D01*
X16078343Y-34018917D01*
X16134914Y-34155492D01*
X16167812Y-34204727D01*
X16167813Y-34204730D01*
X16217046Y-34278414D01*
X16217052Y-34278421D01*
X18486369Y-36547737D01*
X18519854Y-36609060D01*
X18514870Y-36678752D01*
X18472998Y-36734685D01*
X18407534Y-36759102D01*
X18359685Y-36753124D01*
X18256992Y-36719095D01*
X18256982Y-36719093D01*
X18154278Y-36708600D01*
X17604292Y-36708600D01*
X17604292Y-37775588D01*
X17547285Y-37742675D01*
X17420118Y-37708600D01*
X17288466Y-37708600D01*
X17161299Y-37742675D01*
X17104292Y-37775588D01*
X17104292Y-36708600D01*
X16554320Y-36708600D01*
X16554304Y-36708601D01*
X16451594Y-36719094D01*
X16285172Y-36774241D01*
X16285167Y-36774243D01*
X16135946Y-36866284D01*
X16011976Y-36990254D01*
X15919935Y-37139475D01*
X15919933Y-37139480D01*
X15864786Y-37305902D01*
X15864785Y-37305909D01*
X15854292Y-37408613D01*
X15854292Y-37958600D01*
X16921280Y-37958600D01*
X16888367Y-38015607D01*
X16854292Y-38142774D01*
X16854292Y-38274426D01*
X16888367Y-38401593D01*
X16921280Y-38458600D01*
X15854293Y-38458600D01*
X15854293Y-39008586D01*
X15864786Y-39111297D01*
X15919933Y-39277719D01*
X15919935Y-39277724D01*
X16011976Y-39426945D01*
X16135946Y-39550915D01*
X16285167Y-39642956D01*
X16285172Y-39642958D01*
X16451594Y-39698105D01*
X16451601Y-39698106D01*
X16554311Y-39708599D01*
X17104291Y-39708599D01*
X17104292Y-39708598D01*
X17104292Y-38641612D01*
X17161299Y-38674525D01*
X17288466Y-38708600D01*
X17420118Y-38708600D01*
X17547285Y-38674525D01*
X17604292Y-38641612D01*
X17604292Y-39708599D01*
X18154264Y-39708599D01*
X18154278Y-39708598D01*
X18256989Y-39698105D01*
X18423411Y-39642958D01*
X18423416Y-39642956D01*
X18572637Y-39550915D01*
X18696607Y-39426945D01*
X18788648Y-39277724D01*
X18788650Y-39277719D01*
X18843797Y-39111297D01*
X18843798Y-39111290D01*
X18854291Y-39008586D01*
X18854292Y-39008573D01*
X18854292Y-38458600D01*
X17787304Y-38458600D01*
X17820217Y-38401593D01*
X17854292Y-38274426D01*
X17854292Y-38142774D01*
X17820217Y-38015607D01*
X17787304Y-37958600D01*
X18854291Y-37958600D01*
X18854291Y-37408628D01*
X18854290Y-37408613D01*
X18843798Y-37305904D01*
X18809767Y-37203208D01*
X18807365Y-37133379D01*
X18843096Y-37073337D01*
X18905617Y-37042144D01*
X18975076Y-37049704D01*
X19015154Y-37076522D01*
X19613181Y-37674549D01*
X19646666Y-37735872D01*
X19649500Y-37762230D01*
X19649500Y-55073918D01*
X19649500Y-55073920D01*
X19649499Y-55073920D01*
X19678340Y-55218907D01*
X19678343Y-55218917D01*
X19734914Y-55355492D01*
X19767812Y-55404727D01*
X19767813Y-55404730D01*
X19817046Y-55478414D01*
X19817052Y-55478421D01*
X23213181Y-58874549D01*
X23246666Y-58935872D01*
X23249500Y-58962230D01*
X23249500Y-60322341D01*
X23229815Y-60389380D01*
X23177011Y-60435135D01*
X23107853Y-60445079D01*
X23044297Y-60416054D01*
X23010939Y-60369794D01*
X22958927Y-60244227D01*
X22948224Y-60218387D01*
X22826936Y-60008310D01*
X22736675Y-59890679D01*
X22679266Y-59815862D01*
X22679260Y-59815855D01*
X22507743Y-59644338D01*
X22507736Y-59644332D01*
X22315293Y-59496666D01*
X22315292Y-59496665D01*
X22315289Y-59496663D01*
X22105212Y-59375375D01*
X22022069Y-59340936D01*
X21881104Y-59282546D01*
X21646785Y-59219760D01*
X21406289Y-59188099D01*
X21406288Y-59188099D01*
X21163712Y-59188099D01*
X21163711Y-59188099D01*
X20923214Y-59219760D01*
X20688895Y-59282546D01*
X20464794Y-59375372D01*
X20464785Y-59375376D01*
X20254706Y-59496666D01*
X20062263Y-59644332D01*
X20062256Y-59644338D01*
X19890739Y-59815855D01*
X19890733Y-59815862D01*
X19743067Y-60008305D01*
X19621777Y-60218384D01*
X19621773Y-60218393D01*
X19528947Y-60442494D01*
X19466161Y-60676813D01*
X19434500Y-60917310D01*
X19434500Y-61159887D01*
X19466161Y-61400384D01*
X19528947Y-61634703D01*
X19600670Y-61807856D01*
X19621776Y-61858811D01*
X19743064Y-62068888D01*
X19743066Y-62068891D01*
X19743067Y-62068892D01*
X19890733Y-62261335D01*
X19890739Y-62261342D01*
X20062256Y-62432859D01*
X20062263Y-62432865D01*
X20144648Y-62496081D01*
X20254711Y-62580535D01*
X20464788Y-62701823D01*
X20688900Y-62794653D01*
X20923211Y-62857437D01*
X21103586Y-62881183D01*
X21163711Y-62889099D01*
X21163712Y-62889099D01*
X21406289Y-62889099D01*
X21454970Y-62882690D01*
X21646789Y-62857437D01*
X21881100Y-62794653D01*
X22105212Y-62701823D01*
X22315289Y-62580535D01*
X22507738Y-62432864D01*
X22679265Y-62261337D01*
X22826936Y-62068888D01*
X22948224Y-61858811D01*
X22969330Y-61807856D01*
X23010939Y-61707404D01*
X23054780Y-61653000D01*
X23121074Y-61630935D01*
X23188773Y-61648214D01*
X23236384Y-61699351D01*
X23249500Y-61754856D01*
X23249500Y-72237769D01*
X23229815Y-72304808D01*
X23213181Y-72325450D01*
X22875460Y-72663170D01*
X22873699Y-72664897D01*
X22479720Y-73043508D01*
X22417743Y-73075766D01*
X22393800Y-73078100D01*
X22239095Y-73078100D01*
X22060235Y-73106429D01*
X21888009Y-73162387D01*
X21888006Y-73162388D01*
X21726648Y-73244606D01*
X21580151Y-73351041D01*
X21580146Y-73351045D01*
X21452091Y-73479100D01*
X21452087Y-73479105D01*
X21345650Y-73625604D01*
X21310139Y-73695297D01*
X21262164Y-73746093D01*
X21194343Y-73762887D01*
X21128208Y-73740349D01*
X21089170Y-73695296D01*
X20987034Y-73494843D01*
X20940712Y-73431085D01*
X20940711Y-73431085D01*
X20272608Y-74099189D01*
X20255571Y-74035607D01*
X20189745Y-73921593D01*
X20096653Y-73828501D01*
X19982639Y-73762675D01*
X19919053Y-73745637D01*
X20587159Y-73077532D01*
X20523402Y-73031211D01*
X20327056Y-72931167D01*
X20117481Y-72863073D01*
X19899827Y-72828600D01*
X19679465Y-72828600D01*
X19461810Y-72863073D01*
X19252235Y-72931167D01*
X19055879Y-73031216D01*
X18992131Y-73077531D01*
X18992131Y-73077532D01*
X19660236Y-73745637D01*
X19596653Y-73762675D01*
X19482639Y-73828501D01*
X19389547Y-73921593D01*
X19323721Y-74035607D01*
X19306683Y-74099190D01*
X18638578Y-73431085D01*
X18638577Y-73431085D01*
X18624465Y-73450510D01*
X18569136Y-73493177D01*
X18499522Y-73499157D01*
X18437727Y-73466551D01*
X18403369Y-73405713D01*
X18400146Y-73377626D01*
X18400146Y-73303923D01*
X18400145Y-73303921D01*
X18385613Y-73230864D01*
X18385612Y-73230860D01*
X18360770Y-73193681D01*
X18330247Y-73147999D01*
X18247386Y-73092634D01*
X18247385Y-73092633D01*
X18247381Y-73092632D01*
X18174323Y-73078100D01*
X18174320Y-73078100D01*
X16324972Y-73078100D01*
X16324969Y-73078100D01*
X16251910Y-73092632D01*
X16251906Y-73092633D01*
X16169045Y-73147999D01*
X16113679Y-73230860D01*
X16113678Y-73230864D01*
X16099146Y-73303921D01*
X16099146Y-75153278D01*
X16113678Y-75226335D01*
X16113679Y-75226339D01*
X16113680Y-75226340D01*
X16169045Y-75309201D01*
X16213205Y-75338707D01*
X16251906Y-75364566D01*
X16251910Y-75364567D01*
X16324967Y-75379099D01*
X16324970Y-75379100D01*
X16324972Y-75379100D01*
X18174322Y-75379100D01*
X18174323Y-75379099D01*
X18247386Y-75364566D01*
X18330247Y-75309201D01*
X18385612Y-75226340D01*
X18400146Y-75153274D01*
X18400146Y-75079572D01*
X18419831Y-75012533D01*
X18472635Y-74966778D01*
X18541793Y-74956834D01*
X18605349Y-74985859D01*
X18624465Y-75006688D01*
X18638578Y-75026113D01*
X19306683Y-74358008D01*
X19323721Y-74421593D01*
X19389547Y-74535607D01*
X19482639Y-74628699D01*
X19596653Y-74694525D01*
X19660236Y-74711562D01*
X18992131Y-75379665D01*
X18992131Y-75379666D01*
X19055889Y-75425988D01*
X19252235Y-75526032D01*
X19461810Y-75594126D01*
X19679465Y-75628600D01*
X19899827Y-75628600D01*
X20117481Y-75594126D01*
X20327056Y-75526032D01*
X20523406Y-75425986D01*
X20587159Y-75379666D01*
X20587160Y-75379666D01*
X19919055Y-74711562D01*
X19982639Y-74694525D01*
X20096653Y-74628699D01*
X20189745Y-74535607D01*
X20255571Y-74421593D01*
X20272608Y-74358010D01*
X20943896Y-75029298D01*
X20962899Y-75037976D01*
X20984145Y-75042439D01*
X20994049Y-75052202D01*
X21006703Y-75057981D01*
X21018441Y-75076247D01*
X21033904Y-75091489D01*
X21037730Y-75106261D01*
X21044477Y-75116759D01*
X21049500Y-75151694D01*
X21049500Y-75153396D01*
X21048798Y-75166573D01*
X21045895Y-75193732D01*
X21045895Y-75193735D01*
X21049000Y-75228193D01*
X21049500Y-75239320D01*
X21049500Y-82437769D01*
X21029815Y-82504808D01*
X21013181Y-82525450D01*
X19417052Y-84121578D01*
X19417049Y-84121581D01*
X19377289Y-84181086D01*
X19377290Y-84181087D01*
X19334914Y-84244508D01*
X19278343Y-84381082D01*
X19278340Y-84381092D01*
X19249500Y-84526079D01*
X19249500Y-89007240D01*
X19229815Y-89074279D01*
X19207872Y-89099927D01*
X19002892Y-89282095D01*
X18939705Y-89311915D01*
X18901122Y-89311881D01*
X18750967Y-89288099D01*
X18750962Y-89288099D01*
X17899038Y-89288099D01*
X17774626Y-89307804D01*
X17650214Y-89327509D01*
X17410616Y-89405359D01*
X17186151Y-89519731D01*
X16982350Y-89667800D01*
X16982345Y-89667804D01*
X16804205Y-89845944D01*
X16804201Y-89845949D01*
X16656132Y-90049750D01*
X16541760Y-90274215D01*
X16463910Y-90513813D01*
X16424500Y-90762637D01*
X16424500Y-91014560D01*
X16463910Y-91263384D01*
X16541760Y-91502982D01*
X16656132Y-91727447D01*
X16804201Y-91931248D01*
X16804205Y-91931253D01*
X16982345Y-92109393D01*
X16982350Y-92109397D01*
X17160117Y-92238551D01*
X17186155Y-92257469D01*
X17329184Y-92330346D01*
X17410616Y-92371838D01*
X17410618Y-92371838D01*
X17410621Y-92371840D01*
X17650215Y-92449689D01*
X17899038Y-92489099D01*
X17899039Y-92489099D01*
X18750961Y-92489099D01*
X18750962Y-92489099D01*
X18999785Y-92449689D01*
X19239379Y-92371840D01*
X19463845Y-92257469D01*
X19667656Y-92109392D01*
X19845793Y-91931255D01*
X19993870Y-91727444D01*
X20108241Y-91502978D01*
X20186090Y-91263384D01*
X20225500Y-91014561D01*
X20225500Y-90762637D01*
X21924500Y-90762637D01*
X21924500Y-91014560D01*
X21963910Y-91263384D01*
X22041760Y-91502982D01*
X22156132Y-91727447D01*
X22304201Y-91931248D01*
X22304205Y-91931253D01*
X22482345Y-92109393D01*
X22482350Y-92109397D01*
X22660117Y-92238551D01*
X22686155Y-92257469D01*
X22829184Y-92330346D01*
X22910616Y-92371838D01*
X22910618Y-92371838D01*
X22910621Y-92371840D01*
X23150215Y-92449689D01*
X23399038Y-92489099D01*
X23399039Y-92489099D01*
X24250961Y-92489099D01*
X24250962Y-92489099D01*
X24499785Y-92449689D01*
X24739379Y-92371840D01*
X24963845Y-92257469D01*
X25167656Y-92109392D01*
X25345793Y-91931255D01*
X25493870Y-91727444D01*
X25608241Y-91502978D01*
X25686090Y-91263384D01*
X25725500Y-91014561D01*
X25725500Y-90762637D01*
X25686090Y-90513814D01*
X25608241Y-90274220D01*
X25608239Y-90274217D01*
X25608239Y-90274215D01*
X25566747Y-90192783D01*
X25493870Y-90049754D01*
X25445335Y-89982951D01*
X25345798Y-89845949D01*
X25345794Y-89845944D01*
X25167654Y-89667804D01*
X25167649Y-89667800D01*
X24963848Y-89519731D01*
X24963847Y-89519730D01*
X24963845Y-89519729D01*
X24873936Y-89473918D01*
X24739383Y-89405359D01*
X24499785Y-89327509D01*
X24401114Y-89311881D01*
X24250962Y-89288099D01*
X23399038Y-89288099D01*
X23274626Y-89307804D01*
X23150214Y-89327509D01*
X22910616Y-89405359D01*
X22686151Y-89519731D01*
X22482350Y-89667800D01*
X22482345Y-89667804D01*
X22304205Y-89845944D01*
X22304201Y-89845949D01*
X22156132Y-90049750D01*
X22041760Y-90274215D01*
X21963910Y-90513813D01*
X21924500Y-90762637D01*
X20225500Y-90762637D01*
X20186090Y-90513814D01*
X20141780Y-90377446D01*
X20139786Y-90307606D01*
X20175866Y-90247773D01*
X20177260Y-90246513D01*
X20459927Y-89995304D01*
X20478416Y-89982951D01*
X20515055Y-89946311D01*
X20532758Y-89930578D01*
X20553799Y-89911880D01*
X20553800Y-89911878D01*
X20553803Y-89911876D01*
X20567227Y-89894139D01*
X20582951Y-89878416D01*
X20611744Y-89835323D01*
X20643023Y-89793998D01*
X20648995Y-89781680D01*
X20657471Y-89766887D01*
X20665084Y-89755495D01*
X20683521Y-89710981D01*
X20686510Y-89704327D01*
X20704225Y-89667800D01*
X20707533Y-89660980D01*
X20713147Y-89639458D01*
X20721658Y-89618913D01*
X20731768Y-89568086D01*
X20744853Y-89517933D01*
X20746161Y-89495730D01*
X20750500Y-89473918D01*
X20750500Y-89422087D01*
X20753548Y-89370354D01*
X20751670Y-89356781D01*
X20750500Y-89339785D01*
X20750500Y-86073857D01*
X21614500Y-86073857D01*
X21614500Y-86303340D01*
X21639446Y-86492814D01*
X21644452Y-86530837D01*
X21644453Y-86530839D01*
X21703842Y-86752486D01*
X21791650Y-86964475D01*
X21791657Y-86964489D01*
X21906392Y-87163216D01*
X22046081Y-87345260D01*
X22046089Y-87345269D01*
X22208330Y-87507510D01*
X22208338Y-87507517D01*
X22390382Y-87647206D01*
X22390385Y-87647207D01*
X22390388Y-87647210D01*
X22589112Y-87761943D01*
X22589117Y-87761945D01*
X22589123Y-87761948D01*
X22680480Y-87799789D01*
X22801113Y-87849757D01*
X23022762Y-87909147D01*
X23250266Y-87939099D01*
X23250273Y-87939099D01*
X23479727Y-87939099D01*
X23479734Y-87939099D01*
X23707238Y-87909147D01*
X23928887Y-87849757D01*
X24140888Y-87761943D01*
X24339612Y-87647210D01*
X24521661Y-87507518D01*
X24521665Y-87507513D01*
X24521670Y-87507510D01*
X24683911Y-87345269D01*
X24683914Y-87345264D01*
X24683919Y-87345260D01*
X24823611Y-87163211D01*
X24938344Y-86964487D01*
X25026158Y-86752486D01*
X25085548Y-86530837D01*
X25115500Y-86303333D01*
X25115500Y-86073865D01*
X25085548Y-85846361D01*
X25026158Y-85624712D01*
X24938344Y-85412711D01*
X24823611Y-85213987D01*
X24823608Y-85213984D01*
X24823607Y-85213981D01*
X24683918Y-85031937D01*
X24683911Y-85031929D01*
X24521670Y-84869688D01*
X24521661Y-84869680D01*
X24339617Y-84729991D01*
X24140890Y-84615256D01*
X24140876Y-84615249D01*
X23928887Y-84527441D01*
X23923804Y-84526079D01*
X23707238Y-84468051D01*
X23669215Y-84463045D01*
X23479741Y-84438099D01*
X23479734Y-84438099D01*
X23250266Y-84438099D01*
X23250258Y-84438099D01*
X23033715Y-84466608D01*
X23022762Y-84468051D01*
X22930318Y-84492821D01*
X22801112Y-84527441D01*
X22589123Y-84615249D01*
X22589109Y-84615256D01*
X22390382Y-84729991D01*
X22208338Y-84869680D01*
X22046081Y-85031937D01*
X21906392Y-85213981D01*
X21791657Y-85412708D01*
X21791650Y-85412722D01*
X21703842Y-85624711D01*
X21644453Y-85846358D01*
X21644451Y-85846369D01*
X21614500Y-86073857D01*
X20750500Y-86073857D01*
X20750500Y-84962229D01*
X20770185Y-84895190D01*
X20786819Y-84874548D01*
X22382948Y-83278419D01*
X22382951Y-83278416D01*
X22465084Y-83155495D01*
X22521658Y-83018913D01*
X22550500Y-82873918D01*
X22550500Y-82726083D01*
X22550500Y-75456638D01*
X22570185Y-75389599D01*
X22622989Y-75343844D01*
X22636174Y-75338710D01*
X22771285Y-75294811D01*
X22932640Y-75212596D01*
X23079147Y-75106153D01*
X23207199Y-74978101D01*
X23313642Y-74831594D01*
X23395857Y-74670239D01*
X23451817Y-74498009D01*
X23468948Y-74389847D01*
X23480146Y-74319151D01*
X23480146Y-74216664D01*
X23499831Y-74149625D01*
X23518224Y-74127258D01*
X23872152Y-73787137D01*
X23878416Y-73782952D01*
X23925433Y-73735934D01*
X23973321Y-73689915D01*
X23973329Y-73689902D01*
X23977278Y-73685283D01*
X23977463Y-73685441D01*
X23985378Y-73675988D01*
X24582951Y-73078416D01*
X24647983Y-72981088D01*
X24665084Y-72955495D01*
X24721658Y-72818913D01*
X24750500Y-72673918D01*
X24750500Y-58526082D01*
X24750500Y-58526079D01*
X24721659Y-58381092D01*
X24721658Y-58381091D01*
X24721658Y-58381087D01*
X24665084Y-58244505D01*
X24632186Y-58195270D01*
X24632185Y-58195268D01*
X24582956Y-58121589D01*
X24582952Y-58121584D01*
X21186819Y-54725451D01*
X21153334Y-54664128D01*
X21150500Y-54637770D01*
X21150500Y-39060832D01*
X21170185Y-38993793D01*
X21222989Y-38948038D01*
X21292147Y-38938094D01*
X21355703Y-38967119D01*
X21374816Y-38987945D01*
X21400464Y-39023246D01*
X21539646Y-39162428D01*
X21698887Y-39278124D01*
X21773506Y-39316144D01*
X21874262Y-39367482D01*
X21874264Y-39367482D01*
X21874267Y-39367484D01*
X21974609Y-39400087D01*
X22061465Y-39428309D01*
X22255870Y-39459100D01*
X22255875Y-39459100D01*
X22452714Y-39459100D01*
X22647118Y-39428309D01*
X22726866Y-39402397D01*
X22834317Y-39367484D01*
X23009697Y-39278124D01*
X23168938Y-39162428D01*
X23308120Y-39023246D01*
X23423816Y-38864005D01*
X23513176Y-38688625D01*
X23574001Y-38501426D01*
X23589813Y-38401593D01*
X23604792Y-38307022D01*
X23604792Y-38110177D01*
X23574001Y-37915773D01*
X23513174Y-37728570D01*
X23423815Y-37553194D01*
X23364764Y-37471918D01*
X23308120Y-37393954D01*
X23168938Y-37254772D01*
X23009697Y-37139076D01*
X22998516Y-37133379D01*
X22834321Y-37049717D01*
X22647118Y-36988890D01*
X22452714Y-36958100D01*
X22452709Y-36958100D01*
X22255875Y-36958100D01*
X22255870Y-36958100D01*
X22061465Y-36988890D01*
X21874262Y-37049717D01*
X21698886Y-37139076D01*
X21641071Y-37181082D01*
X21539646Y-37254772D01*
X21539644Y-37254774D01*
X21539643Y-37254774D01*
X21400465Y-37393952D01*
X21374818Y-37429253D01*
X21319487Y-37471918D01*
X21249874Y-37477897D01*
X21188079Y-37445291D01*
X21153722Y-37384452D01*
X21150500Y-37356367D01*
X21150500Y-37326079D01*
X21121659Y-37181092D01*
X21121658Y-37181091D01*
X21121658Y-37181087D01*
X21088507Y-37101054D01*
X21065085Y-37044507D01*
X21063506Y-37042144D01*
X21007351Y-36958101D01*
X20982952Y-36921584D01*
X17586819Y-33525451D01*
X17553334Y-33464128D01*
X17550500Y-33437770D01*
X17550500Y-31465449D01*
X17551965Y-31457114D01*
X17550500Y-31391619D01*
X17550500Y-31326082D01*
X17550500Y-31326081D01*
X17549903Y-31320024D01*
X17550039Y-31320010D01*
X17549527Y-31315344D01*
X17549391Y-31315361D01*
X17548659Y-31309315D01*
X17534738Y-31246689D01*
X17534738Y-31246687D01*
X17534434Y-31245322D01*
X17521658Y-31181087D01*
X17518419Y-31173268D01*
X17516582Y-31165002D01*
X17490154Y-31105030D01*
X17465084Y-31044505D01*
X17460381Y-31037466D01*
X17456967Y-31029719D01*
X17420108Y-30977141D01*
X17418593Y-30974926D01*
X17382952Y-30921585D01*
X17379082Y-30916869D01*
X17379186Y-30916783D01*
X17370759Y-30906745D01*
X17172341Y-30623708D01*
X17149979Y-30557518D01*
X17149948Y-30548405D01*
X17150285Y-30538280D01*
X17155500Y-30512065D01*
X17155500Y-30381684D01*
X17155569Y-30379612D01*
X17165899Y-30348321D01*
X17175185Y-30316700D01*
X17177258Y-30313918D01*
X17177474Y-30313265D01*
X17178159Y-30312710D01*
X17185462Y-30302913D01*
X17227326Y-30254206D01*
X17347660Y-30114202D01*
X17353990Y-30107375D01*
X17382951Y-30078416D01*
X17394603Y-30060977D01*
X17403667Y-30049041D01*
X17410469Y-30041127D01*
X17469092Y-30003117D01*
X17538961Y-30002835D01*
X17597891Y-30040371D01*
X17627173Y-30103809D01*
X17626125Y-30146143D01*
X17594501Y-30305134D01*
X17594500Y-30305137D01*
X17594500Y-30512069D01*
X17634868Y-30715012D01*
X17634870Y-30715020D01*
X17714059Y-30906198D01*
X17720339Y-30915597D01*
X17829024Y-31078257D01*
X17975342Y-31224575D01*
X17975345Y-31224577D01*
X18147402Y-31339541D01*
X18338580Y-31418730D01*
X18434801Y-31437869D01*
X18544886Y-31459767D01*
X18606797Y-31492152D01*
X18641371Y-31552867D01*
X18637632Y-31622637D01*
X18596766Y-31679309D01*
X18568148Y-31695945D01*
X18526089Y-31713366D01*
X18526079Y-31713371D01*
X18362218Y-31822860D01*
X18362214Y-31822863D01*
X18222863Y-31962214D01*
X18222860Y-31962218D01*
X18113371Y-32126079D01*
X18113364Y-32126092D01*
X18037950Y-32308160D01*
X18037947Y-32308170D01*
X17999500Y-32501456D01*
X17999500Y-32501459D01*
X17999500Y-32698541D01*
X17999500Y-32698543D01*
X17999499Y-32698543D01*
X18037947Y-32891829D01*
X18037950Y-32891839D01*
X18113364Y-33073907D01*
X18113371Y-33073920D01*
X18222860Y-33237781D01*
X18222863Y-33237785D01*
X18362214Y-33377136D01*
X18362218Y-33377139D01*
X18526079Y-33486628D01*
X18526092Y-33486635D01*
X18708160Y-33562049D01*
X18708165Y-33562051D01*
X18708169Y-33562051D01*
X18708170Y-33562052D01*
X18901456Y-33600500D01*
X18901459Y-33600500D01*
X20698543Y-33600500D01*
X20722375Y-33595758D01*
X20796131Y-33581088D01*
X20891836Y-33562051D01*
X20945165Y-33539961D01*
X21073914Y-33486632D01*
X21237782Y-33377139D01*
X21377139Y-33237782D01*
X21377139Y-33237780D01*
X21387347Y-33227573D01*
X21387348Y-33227570D01*
X24577139Y-30037782D01*
X24606783Y-29993417D01*
X24657665Y-29917267D01*
X24657666Y-29917265D01*
X24686627Y-29873922D01*
X24686628Y-29873919D01*
X24686632Y-29873914D01*
X24690945Y-29863502D01*
X24759699Y-29697514D01*
X24759700Y-29697510D01*
X24759702Y-29697506D01*
X24762051Y-29691836D01*
X24762052Y-29691829D01*
X24762054Y-29691825D01*
X24800499Y-29498545D01*
X24800500Y-29498543D01*
X24800500Y-11049949D01*
X24820185Y-10982910D01*
X24834727Y-10964411D01*
X25017241Y-10772860D01*
X25077737Y-10737904D01*
X25107014Y-10734398D01*
X26027431Y-10734398D01*
X26027434Y-10734398D01*
X26085404Y-10728167D01*
X26216539Y-10679256D01*
X26328582Y-10595381D01*
X26412457Y-10483338D01*
X26461368Y-10352203D01*
X26464818Y-10320115D01*
X26467599Y-10294250D01*
X26467599Y-10294243D01*
X26467600Y-10294234D01*
X26467599Y-8311365D01*
X26461368Y-8253395D01*
X26412457Y-8122260D01*
X26328582Y-8010217D01*
X26216539Y-7926342D01*
X26216537Y-7926341D01*
X26216539Y-7926341D01*
X26085410Y-7877432D01*
X26085405Y-7877431D01*
X26027443Y-7871199D01*
X24044568Y-7871199D01*
X24044559Y-7871200D01*
X23986597Y-7877430D01*
X23855458Y-7926343D01*
X23743418Y-8010217D01*
X23659542Y-8122260D01*
X23610633Y-8253388D01*
X23610632Y-8253393D01*
X23604400Y-8311347D01*
X23604400Y-9305294D01*
X23584715Y-9372333D01*
X23570173Y-9390832D01*
X23085052Y-9899972D01*
X23085053Y-9899973D01*
X23084003Y-9901075D01*
X23022861Y-9962218D01*
X23016089Y-9972352D01*
X23008708Y-9980099D01*
X23008706Y-9980099D01*
X23007687Y-9981169D01*
X23007686Y-9981171D01*
X22962201Y-10052935D01*
X22960570Y-10055440D01*
X22913366Y-10126087D01*
X22913364Y-10126092D01*
X22912798Y-10127458D01*
X22912799Y-10127459D01*
X22908704Y-10137345D01*
X22902181Y-10147638D01*
X22871045Y-10228257D01*
X22870466Y-10229657D01*
X22870464Y-10229658D01*
X22837948Y-10308163D01*
X22837656Y-10309635D01*
X22835571Y-10320115D01*
X22831181Y-10331485D01*
X22816372Y-10416630D01*
X22816072Y-10418142D01*
X22799500Y-10501454D01*
X22799500Y-10502945D01*
X22797666Y-10524193D01*
X22797412Y-10525652D01*
X22799464Y-10610587D01*
X22799500Y-10613582D01*
X22799500Y-28934217D01*
X22779815Y-29001256D01*
X22763181Y-29021898D01*
X20221899Y-31563181D01*
X20160576Y-31596666D01*
X20134218Y-31599500D01*
X19138392Y-31599500D01*
X19071353Y-31579815D01*
X19025598Y-31527011D01*
X19015654Y-31457853D01*
X19044679Y-31394297D01*
X19090939Y-31360939D01*
X19091676Y-31360633D01*
X19142598Y-31339541D01*
X19314655Y-31224577D01*
X19460977Y-31078255D01*
X19575941Y-30906198D01*
X19613032Y-30816649D01*
X19615421Y-30813684D01*
X19616054Y-30809925D01*
X19637175Y-30786689D01*
X19656871Y-30762249D01*
X19661232Y-30760225D01*
X19663052Y-30758224D01*
X19695490Y-30744332D01*
X19727282Y-30735813D01*
X19732835Y-30734463D01*
X19788281Y-30722353D01*
X19788283Y-30722351D01*
X19789757Y-30721820D01*
X19811069Y-30713570D01*
X19812479Y-30712986D01*
X19812480Y-30712985D01*
X19812485Y-30712984D01*
X19864108Y-30683179D01*
X19917060Y-30655824D01*
X19926708Y-30647037D01*
X19938015Y-30640510D01*
X19980173Y-30598351D01*
X20024233Y-30558230D01*
X20031278Y-30547246D01*
X21640510Y-28938015D01*
X21712984Y-28812485D01*
X21717254Y-28796546D01*
X21726454Y-28762218D01*
X21736137Y-28726079D01*
X21750500Y-28672475D01*
X21750500Y-22527525D01*
X21712984Y-22387515D01*
X21647399Y-22273918D01*
X21640510Y-22261985D01*
X21640508Y-22261983D01*
X21640507Y-22261981D01*
X21138016Y-21759491D01*
X21138015Y-21759490D01*
X21012485Y-21687016D01*
X21012482Y-21687015D01*
X20994882Y-21682298D01*
X20994882Y-21682299D01*
X20898472Y-21656466D01*
X20872475Y-21649500D01*
X20872474Y-21649500D01*
X19962230Y-21649500D01*
X19895191Y-21629815D01*
X19883531Y-21620419D01*
X19883126Y-21620914D01*
X19878415Y-21617048D01*
X19755501Y-21534919D01*
X19755488Y-21534912D01*
X19618917Y-21478343D01*
X19618907Y-21478340D01*
X19473920Y-21449500D01*
X19473918Y-21449500D01*
X19326082Y-21449500D01*
X19326080Y-21449500D01*
X19181092Y-21478340D01*
X19181082Y-21478343D01*
X19044511Y-21534912D01*
X19044498Y-21534919D01*
X18921584Y-21617048D01*
X18921579Y-21617052D01*
X18882165Y-21656466D01*
X18820842Y-21689951D01*
X18751150Y-21684965D01*
X18695217Y-21643093D01*
X18670801Y-21577629D01*
X18676554Y-21530466D01*
X18729295Y-21368144D01*
X18765000Y-21142716D01*
X18765000Y-20778600D01*
X17965000Y-20778600D01*
X17965000Y-20278600D01*
X18765000Y-20278600D01*
X18765000Y-19914483D01*
X18729295Y-19689055D01*
X18658769Y-19471995D01*
X18555150Y-19268633D01*
X18420995Y-19083985D01*
X18259614Y-18922604D01*
X18074966Y-18788449D01*
X17871602Y-18684829D01*
X17654541Y-18614303D01*
X17565000Y-18600121D01*
X17565000Y-19428598D01*
X17504598Y-19403579D01*
X17379019Y-19378600D01*
X17250981Y-19378600D01*
X17125402Y-19403579D01*
X17065000Y-19428598D01*
X17065000Y-18600121D01*
X17064999Y-18600121D01*
X16975458Y-18614303D01*
X16758397Y-18684829D01*
X16555033Y-18788449D01*
X16370385Y-18922604D01*
X16209004Y-19083985D01*
X16074849Y-19268633D01*
X15971230Y-19471995D01*
X15900704Y-19689055D01*
X15865000Y-19914483D01*
X15865000Y-20278600D01*
X16665000Y-20278600D01*
X16665000Y-20778600D01*
X15865000Y-20778600D01*
X15865000Y-21142716D01*
X15900704Y-21368144D01*
X15971230Y-21585204D01*
X16074849Y-21788566D01*
X16209004Y-21973214D01*
X16370385Y-22134595D01*
X16555033Y-22268750D01*
X16758395Y-22372369D01*
X16975455Y-22442895D01*
X17065000Y-22457078D01*
X17065000Y-21628601D01*
X17125402Y-21653621D01*
X17250981Y-21678600D01*
X17379019Y-21678600D01*
X17504598Y-21653621D01*
X17565000Y-21628601D01*
X17565000Y-22457077D01*
X17654544Y-22442895D01*
X17871604Y-22372369D01*
X18074966Y-22268750D01*
X18259614Y-22134595D01*
X18420998Y-21973211D01*
X18445321Y-21939733D01*
X18500650Y-21897066D01*
X18570264Y-21891086D01*
X18632059Y-21923692D01*
X18666417Y-21984530D01*
X18667257Y-22036808D01*
X18649500Y-22126077D01*
X18649500Y-22273918D01*
X18678340Y-22418907D01*
X18678343Y-22418917D01*
X18734912Y-22555488D01*
X18734919Y-22555501D01*
X18802478Y-22656609D01*
X18823356Y-22723286D01*
X18804872Y-22790667D01*
X18752893Y-22837357D01*
X18699376Y-22849500D01*
X9362229Y-22849500D01*
X9295190Y-22829815D01*
X9274548Y-22813181D01*
X8786819Y-22325451D01*
X8753334Y-22264128D01*
X8750500Y-22237770D01*
X8750500Y-21851792D01*
X8753539Y-21829880D01*
X8750500Y-21778030D01*
X8750500Y-21726082D01*
X8747851Y-21712767D01*
X8746017Y-21700213D01*
X8745810Y-21698016D01*
X8744889Y-21682299D01*
X8744012Y-21678935D01*
X8743138Y-21669651D01*
X8749081Y-21639021D01*
X8753091Y-21608085D01*
X8755681Y-21605009D01*
X8756448Y-21601060D01*
X8778010Y-21578503D01*
X8798106Y-21554649D01*
X8801948Y-21553462D01*
X8804728Y-21550555D01*
X8835056Y-21543238D01*
X8864865Y-21534033D01*
X8868739Y-21535112D01*
X8872649Y-21534169D01*
X8902125Y-21544412D01*
X8932172Y-21552783D01*
X8935507Y-21556013D01*
X8938647Y-21557105D01*
X8945015Y-21565224D01*
X8969693Y-21589130D01*
X9045535Y-21702634D01*
X9045538Y-21702638D01*
X9170961Y-21828061D01*
X9170965Y-21828064D01*
X9318446Y-21926609D01*
X9318459Y-21926616D01*
X9430952Y-21973211D01*
X9482334Y-21994494D01*
X9482336Y-21994494D01*
X9482341Y-21994496D01*
X9656304Y-22029099D01*
X9656307Y-22029100D01*
X9656309Y-22029100D01*
X9833693Y-22029100D01*
X9833694Y-22029099D01*
X9891682Y-22017564D01*
X10007658Y-21994496D01*
X10007661Y-21994494D01*
X10007666Y-21994494D01*
X10171547Y-21926613D01*
X10319035Y-21828064D01*
X10444464Y-21702635D01*
X10543013Y-21555147D01*
X10610894Y-21391266D01*
X10611545Y-21387997D01*
X10623383Y-21328482D01*
X10655768Y-21266571D01*
X10716483Y-21231997D01*
X10786253Y-21235736D01*
X10842925Y-21276603D01*
X10866617Y-21328482D01*
X10879103Y-21391258D01*
X10879106Y-21391267D01*
X10946983Y-21555140D01*
X10946990Y-21555153D01*
X11045535Y-21702634D01*
X11045538Y-21702638D01*
X11170961Y-21828061D01*
X11170965Y-21828064D01*
X11318446Y-21926609D01*
X11318459Y-21926616D01*
X11430952Y-21973211D01*
X11482334Y-21994494D01*
X11482336Y-21994494D01*
X11482341Y-21994496D01*
X11656304Y-22029099D01*
X11656307Y-22029100D01*
X11656309Y-22029100D01*
X11833693Y-22029100D01*
X11833694Y-22029099D01*
X11891682Y-22017564D01*
X12007658Y-21994496D01*
X12007661Y-21994494D01*
X12007666Y-21994494D01*
X12078587Y-21965117D01*
X12141969Y-21938865D01*
X12171540Y-21926616D01*
X12171540Y-21926615D01*
X12171547Y-21926613D01*
X12319035Y-21828064D01*
X12444464Y-21702635D01*
X12543013Y-21555147D01*
X12610894Y-21391266D01*
X12611545Y-21387997D01*
X12645139Y-21219106D01*
X12645500Y-21217291D01*
X12645500Y-21039909D01*
X12645500Y-21039905D01*
X12645140Y-21038093D01*
X13095000Y-21038093D01*
X13095000Y-21219106D01*
X13123317Y-21397893D01*
X13179251Y-21570044D01*
X13179252Y-21570047D01*
X13261431Y-21731330D01*
X13272913Y-21747132D01*
X13272913Y-21747133D01*
X13802861Y-21217184D01*
X13825667Y-21302294D01*
X13884910Y-21404906D01*
X13968694Y-21488690D01*
X14071306Y-21547933D01*
X14156414Y-21570737D01*
X13626466Y-22100685D01*
X13626466Y-22100686D01*
X13642267Y-22112166D01*
X13642275Y-22112171D01*
X13803552Y-22194347D01*
X13803555Y-22194348D01*
X13975706Y-22250282D01*
X14154494Y-22278600D01*
X14335506Y-22278600D01*
X14514293Y-22250282D01*
X14686444Y-22194348D01*
X14686452Y-22194345D01*
X14847730Y-22112168D01*
X14863532Y-22100685D01*
X14863533Y-22100685D01*
X14333585Y-21570737D01*
X14418694Y-21547933D01*
X14521306Y-21488690D01*
X14605090Y-21404906D01*
X14664333Y-21302294D01*
X14687137Y-21217185D01*
X15217085Y-21747133D01*
X15217085Y-21747132D01*
X15228568Y-21731330D01*
X15310745Y-21570052D01*
X15310748Y-21570044D01*
X15366682Y-21397893D01*
X15395000Y-21219106D01*
X15395000Y-21038093D01*
X15366682Y-20859306D01*
X15336222Y-20765556D01*
X15310748Y-20687155D01*
X15310747Y-20687152D01*
X15228571Y-20525875D01*
X15228566Y-20525867D01*
X15217085Y-20510066D01*
X14687137Y-21040014D01*
X14664333Y-20954906D01*
X14605090Y-20852294D01*
X14521306Y-20768510D01*
X14418694Y-20709267D01*
X14333584Y-20686461D01*
X14863533Y-20156513D01*
X14847730Y-20145031D01*
X14686447Y-20062852D01*
X14686444Y-20062851D01*
X14577771Y-20027542D01*
X14514293Y-20006917D01*
X14335506Y-19978600D01*
X14154494Y-19978600D01*
X13975706Y-20006917D01*
X13803555Y-20062851D01*
X13803547Y-20062854D01*
X13642269Y-20145032D01*
X13626466Y-20156512D01*
X13626466Y-20156513D01*
X14156415Y-20686461D01*
X14071306Y-20709267D01*
X13968694Y-20768510D01*
X13884910Y-20852294D01*
X13825667Y-20954906D01*
X13802861Y-21040015D01*
X13272912Y-20510066D01*
X13261432Y-20525869D01*
X13179254Y-20687147D01*
X13179251Y-20687155D01*
X13123317Y-20859306D01*
X13095000Y-21038093D01*
X12645140Y-21038093D01*
X12610896Y-20865941D01*
X12610893Y-20865932D01*
X12608148Y-20859306D01*
X12593923Y-20824963D01*
X12543016Y-20702059D01*
X12543009Y-20702046D01*
X12444464Y-20554565D01*
X12444461Y-20554561D01*
X12319038Y-20429138D01*
X12319034Y-20429135D01*
X12171553Y-20330590D01*
X12171540Y-20330583D01*
X12141964Y-20318333D01*
X12007667Y-20262706D01*
X12007658Y-20262703D01*
X11833694Y-20228100D01*
X11833691Y-20228100D01*
X11656309Y-20228100D01*
X11656306Y-20228100D01*
X11482341Y-20262703D01*
X11482332Y-20262706D01*
X11318459Y-20330583D01*
X11318446Y-20330590D01*
X11170965Y-20429135D01*
X11170961Y-20429138D01*
X11045538Y-20554561D01*
X11045535Y-20554565D01*
X10946990Y-20702046D01*
X10946983Y-20702059D01*
X10879106Y-20865932D01*
X10879104Y-20865940D01*
X10866617Y-20928718D01*
X10834232Y-20990628D01*
X10773516Y-21025203D01*
X10703747Y-21021463D01*
X10647075Y-20980596D01*
X10623383Y-20928718D01*
X10610895Y-20865940D01*
X10610894Y-20865934D01*
X10593923Y-20824963D01*
X10543016Y-20702059D01*
X10543009Y-20702046D01*
X10444464Y-20554565D01*
X10444461Y-20554561D01*
X10319038Y-20429138D01*
X10319034Y-20429135D01*
X10171553Y-20330590D01*
X10171540Y-20330583D01*
X10007667Y-20262706D01*
X10007658Y-20262703D01*
X9833694Y-20228100D01*
X9833691Y-20228100D01*
X9656309Y-20228100D01*
X9656306Y-20228100D01*
X9482341Y-20262703D01*
X9482332Y-20262706D01*
X9318459Y-20330583D01*
X9318446Y-20330590D01*
X9170965Y-20429135D01*
X9170961Y-20429138D01*
X9045538Y-20554561D01*
X9045535Y-20554565D01*
X8946990Y-20702046D01*
X8946983Y-20702059D01*
X8879106Y-20865932D01*
X8879103Y-20865941D01*
X8844500Y-21039904D01*
X8844500Y-21217295D01*
X8861930Y-21304923D01*
X8861250Y-21312518D01*
X8863951Y-21319651D01*
X8858180Y-21346831D01*
X8855703Y-21374515D01*
X8851023Y-21380538D01*
X8849440Y-21387997D01*
X8829889Y-21407743D01*
X8812839Y-21429692D01*
X8805647Y-21432229D01*
X8800282Y-21437648D01*
X8773156Y-21443690D01*
X8746950Y-21452936D01*
X8739529Y-21451182D01*
X8732084Y-21452841D01*
X8705994Y-21443257D01*
X8678953Y-21436868D01*
X8672013Y-21430776D01*
X8666499Y-21428751D01*
X8641421Y-21403922D01*
X8613997Y-21367667D01*
X8609790Y-21361753D01*
X8582953Y-21321586D01*
X8573359Y-21311992D01*
X8562145Y-21299116D01*
X8553961Y-21288296D01*
X8515145Y-21253778D01*
X8478416Y-21217049D01*
X8460020Y-21204757D01*
X8390254Y-21142716D01*
X8187098Y-20962054D01*
X8150082Y-20902795D01*
X8145499Y-20869393D01*
X8145499Y-20680729D01*
X8145498Y-20680723D01*
X8145497Y-20680716D01*
X8139091Y-20621117D01*
X8114267Y-20554561D01*
X8088797Y-20486271D01*
X8088793Y-20486264D01*
X8002547Y-20371055D01*
X8002544Y-20371052D01*
X7887335Y-20284806D01*
X7887328Y-20284802D01*
X7752482Y-20234508D01*
X7752483Y-20234508D01*
X7692883Y-20228101D01*
X7692881Y-20228100D01*
X7692873Y-20228100D01*
X7692864Y-20228100D01*
X6797129Y-20228100D01*
X6797123Y-20228101D01*
X6737516Y-20234508D01*
X6602671Y-20284802D01*
X6602664Y-20284806D01*
X6487455Y-20371052D01*
X6487452Y-20371055D01*
X6401206Y-20486264D01*
X6401202Y-20486271D01*
X6350908Y-20621117D01*
X6344501Y-20680716D01*
X6344501Y-20680723D01*
X6344500Y-20680735D01*
X4825000Y-20680735D01*
X4825000Y-20278600D01*
X5625000Y-20278600D01*
X5625000Y-19914483D01*
X5589295Y-19689055D01*
X5518769Y-19471995D01*
X5415150Y-19268633D01*
X5280995Y-19083985D01*
X5119614Y-18922604D01*
X4934966Y-18788449D01*
X4731602Y-18684829D01*
X4514541Y-18614303D01*
X4425000Y-18600121D01*
X4425000Y-19428598D01*
X4364598Y-19403579D01*
X4239019Y-19378600D01*
X4110981Y-19378600D01*
X3985402Y-19403579D01*
X3925000Y-19428598D01*
X3925000Y-18600121D01*
X3924999Y-18600121D01*
X3835458Y-18614303D01*
X3618397Y-18684829D01*
X3415033Y-18788449D01*
X3230385Y-18922604D01*
X3069004Y-19083985D01*
X2934849Y-19268633D01*
X2834985Y-19464627D01*
X2787010Y-19515423D01*
X2719189Y-19532218D01*
X2653054Y-19509680D01*
X2609603Y-19454965D01*
X2600500Y-19408332D01*
X2600500Y-18865782D01*
X2620185Y-18798743D01*
X2636819Y-18778101D01*
X5316320Y-16098600D01*
X8816522Y-16098600D01*
X9644999Y-16098600D01*
X9619979Y-16159002D01*
X9595000Y-16284581D01*
X9595000Y-16412619D01*
X9619979Y-16538198D01*
X9644999Y-16598600D01*
X8816522Y-16598600D01*
X8830704Y-16688144D01*
X8901230Y-16905204D01*
X9004849Y-17108566D01*
X9139004Y-17293214D01*
X9300385Y-17454595D01*
X9485033Y-17588750D01*
X9688395Y-17692369D01*
X9905455Y-17762895D01*
X10130884Y-17798600D01*
X10495000Y-17798600D01*
X10495000Y-16998600D01*
X10995000Y-16998600D01*
X10995000Y-17798600D01*
X11359116Y-17798600D01*
X11584544Y-17762895D01*
X11801604Y-17692369D01*
X12004966Y-17588750D01*
X12189614Y-17454595D01*
X12350995Y-17293214D01*
X12485150Y-17108566D01*
X12588769Y-16905204D01*
X12659295Y-16688144D01*
X12673478Y-16598600D01*
X11845001Y-16598600D01*
X11870021Y-16538198D01*
X11895000Y-16412619D01*
X11895000Y-16284581D01*
X11870021Y-16159002D01*
X11845001Y-16098600D01*
X12673478Y-16098600D01*
X12659295Y-16009055D01*
X12588769Y-15791995D01*
X12485150Y-15588633D01*
X12350995Y-15403985D01*
X12189614Y-15242604D01*
X12004966Y-15108449D01*
X11801604Y-15004830D01*
X11584544Y-14934304D01*
X11359116Y-14898600D01*
X10995000Y-14898600D01*
X10995000Y-15698600D01*
X10495000Y-15698600D01*
X10495000Y-14898600D01*
X10130884Y-14898600D01*
X9905455Y-14934304D01*
X9688395Y-15004830D01*
X9485033Y-15108449D01*
X9300385Y-15242604D01*
X9139004Y-15403985D01*
X9004849Y-15588633D01*
X8901230Y-15791995D01*
X8830704Y-16009055D01*
X8816522Y-16098600D01*
X5316320Y-16098600D01*
X9778101Y-11636819D01*
X9839424Y-11603334D01*
X9865782Y-11600500D01*
X11110969Y-11600500D01*
X11120334Y-11602180D01*
X11209442Y-11600500D01*
X11298541Y-11600500D01*
X11298543Y-11600500D01*
X11304601Y-11599903D01*
X11304608Y-11599981D01*
X11311344Y-11599253D01*
X11311335Y-11599175D01*
X11317367Y-11598465D01*
X11317379Y-11598465D01*
X11404437Y-11579435D01*
X11491835Y-11562051D01*
X11500621Y-11558411D01*
X11509916Y-11556380D01*
X11591591Y-11520730D01*
X11673914Y-11486632D01*
X11681823Y-11481346D01*
X11690541Y-11477542D01*
X11763685Y-11426648D01*
X11837782Y-11377139D01*
X11844507Y-11370413D01*
X11852315Y-11364981D01*
X11913343Y-11301606D01*
X11914875Y-11300044D01*
X11977139Y-11237782D01*
X11977141Y-11237778D01*
X11981001Y-11233076D01*
X11981060Y-11233125D01*
X11990074Y-11221927D01*
X12308255Y-10891519D01*
X12422982Y-10772385D01*
X12483663Y-10737750D01*
X12512300Y-10734398D01*
X13440631Y-10734398D01*
X13440634Y-10734398D01*
X13498604Y-10728167D01*
X13629739Y-10679256D01*
X13741782Y-10595381D01*
X13825657Y-10483338D01*
X13874568Y-10352203D01*
X13878018Y-10320115D01*
X13880799Y-10294250D01*
X13880799Y-10294243D01*
X13880800Y-10294234D01*
X13880799Y-8311365D01*
X13874568Y-8253395D01*
X13845926Y-8176604D01*
X13845003Y-8174130D01*
X15832000Y-8174130D01*
X15832000Y-8399467D01*
X15867251Y-8622034D01*
X15936882Y-8836340D01*
X15936883Y-8836343D01*
X15968510Y-8898413D01*
X16039186Y-9037121D01*
X16171637Y-9219424D01*
X16330975Y-9378762D01*
X16513278Y-9511213D01*
X16611753Y-9561388D01*
X16714055Y-9613515D01*
X16714058Y-9613516D01*
X16793341Y-9639276D01*
X16928366Y-9683148D01*
X17150931Y-9718399D01*
X17150932Y-9718399D01*
X17376268Y-9718399D01*
X17376269Y-9718399D01*
X17598834Y-9683148D01*
X17813144Y-9613515D01*
X18013922Y-9511213D01*
X18196225Y-9378762D01*
X18355563Y-9219424D01*
X18488014Y-9037121D01*
X18590316Y-8836343D01*
X18659949Y-8622033D01*
X18695200Y-8399468D01*
X18695200Y-8174130D01*
X18659949Y-7951565D01*
X18590316Y-7737255D01*
X18590316Y-7737254D01*
X18490659Y-7541669D01*
X18488014Y-7536477D01*
X18355563Y-7354174D01*
X18196225Y-7194836D01*
X18013922Y-7062385D01*
X17813144Y-6960082D01*
X17813141Y-6960081D01*
X17598835Y-6890450D01*
X17487551Y-6872824D01*
X17376269Y-6855199D01*
X17150931Y-6855199D01*
X17076742Y-6866949D01*
X16928364Y-6890450D01*
X16714058Y-6960081D01*
X16714055Y-6960082D01*
X16513277Y-7062385D01*
X16409267Y-7137953D01*
X16330975Y-7194836D01*
X16330973Y-7194838D01*
X16330972Y-7194838D01*
X16171639Y-7354171D01*
X16171639Y-7354172D01*
X16171637Y-7354174D01*
X16114754Y-7432466D01*
X16039186Y-7536476D01*
X15936883Y-7737254D01*
X15936882Y-7737257D01*
X15867251Y-7951563D01*
X15832000Y-8174130D01*
X13845003Y-8174130D01*
X13825657Y-8122260D01*
X13825655Y-8122257D01*
X13741782Y-8010217D01*
X13629739Y-7926342D01*
X13629737Y-7926341D01*
X13629739Y-7926341D01*
X13498610Y-7877432D01*
X13498605Y-7877431D01*
X13440643Y-7871199D01*
X11457768Y-7871199D01*
X11457759Y-7871200D01*
X11399797Y-7877430D01*
X11268658Y-7926343D01*
X11156618Y-8010217D01*
X11072742Y-8122260D01*
X11023833Y-8253388D01*
X11023832Y-8253393D01*
X11017600Y-8311347D01*
X11017600Y-9297047D01*
X11009271Y-9325410D01*
X11003533Y-9354412D01*
X10998840Y-9360932D01*
X10997915Y-9364086D01*
X10982919Y-9383059D01*
X10811069Y-9561514D01*
X10750390Y-9596148D01*
X10721752Y-9599500D01*
X9301457Y-9599500D01*
X9231002Y-9613515D01*
X9231001Y-9613515D01*
X9108167Y-9637947D01*
X9108159Y-9637950D01*
X9054834Y-9660037D01*
X9054834Y-9660038D01*
X9009315Y-9678892D01*
X8926089Y-9713366D01*
X8926079Y-9713371D01*
X8762219Y-9822859D01*
X8702981Y-9882098D01*
X8622861Y-9962218D01*
X8622858Y-9962221D01*
X962221Y-17622858D01*
X962218Y-17622861D01*
X892710Y-17692369D01*
X822859Y-17762219D01*
X777102Y-17830700D01*
X723489Y-17875505D01*
X654164Y-17884212D01*
X591137Y-17854057D01*
X554418Y-17794614D01*
X550000Y-17761809D01*
X550000Y-8176620D01*
X2995700Y-8176620D01*
X2995700Y-8396977D01*
X2995701Y-8396993D01*
X3024463Y-8615467D01*
X3081500Y-8828332D01*
X3165829Y-9031919D01*
X3165833Y-9031928D01*
X3276017Y-9222772D01*
X3324321Y-9285722D01*
X3970596Y-8639448D01*
X3979015Y-8659773D01*
X4065186Y-8788737D01*
X4174862Y-8898413D01*
X4303826Y-8984584D01*
X4324149Y-8993002D01*
X3677875Y-9639276D01*
X3740826Y-9687580D01*
X3740833Y-9687585D01*
X3931670Y-9797765D01*
X3931679Y-9797769D01*
X4135266Y-9882098D01*
X4348131Y-9939135D01*
X4566605Y-9967897D01*
X4566622Y-9967899D01*
X4786978Y-9967899D01*
X4786994Y-9967897D01*
X5005468Y-9939135D01*
X5218333Y-9882098D01*
X5421920Y-9797769D01*
X5421929Y-9797765D01*
X5612769Y-9687583D01*
X5675723Y-9639276D01*
X5675723Y-9639275D01*
X5029449Y-8993002D01*
X5049774Y-8984584D01*
X5178738Y-8898413D01*
X5288414Y-8788737D01*
X5374585Y-8659773D01*
X5383003Y-8639448D01*
X6029276Y-9285722D01*
X6029277Y-9285722D01*
X6077584Y-9222768D01*
X6187766Y-9031928D01*
X6187770Y-9031919D01*
X6272099Y-8828332D01*
X6329136Y-8615467D01*
X6357898Y-8396993D01*
X6357900Y-8396977D01*
X6357900Y-8176620D01*
X6357898Y-8176604D01*
X6329136Y-7958130D01*
X6272099Y-7745265D01*
X6187770Y-7541678D01*
X6187766Y-7541669D01*
X6077586Y-7350832D01*
X6077581Y-7350825D01*
X6029277Y-7287874D01*
X5383003Y-7934148D01*
X5374585Y-7913825D01*
X5288414Y-7784861D01*
X5178738Y-7675185D01*
X5049774Y-7589014D01*
X5029449Y-7580595D01*
X5675723Y-6934320D01*
X5612773Y-6886016D01*
X5421929Y-6775832D01*
X5421920Y-6775828D01*
X5218333Y-6691499D01*
X5005468Y-6634462D01*
X4786994Y-6605700D01*
X4786978Y-6605699D01*
X4566622Y-6605699D01*
X4566605Y-6605700D01*
X4348131Y-6634462D01*
X4135266Y-6691499D01*
X3931679Y-6775828D01*
X3931669Y-6775832D01*
X3740836Y-6886009D01*
X3740829Y-6886015D01*
X3677875Y-6934319D01*
X3677875Y-6934320D01*
X4324150Y-7580595D01*
X4303826Y-7589014D01*
X4174862Y-7675185D01*
X4065186Y-7784861D01*
X3979015Y-7913825D01*
X3970596Y-7934149D01*
X3324321Y-7287874D01*
X3324320Y-7287874D01*
X3276016Y-7350828D01*
X3276010Y-7350835D01*
X3165833Y-7541668D01*
X3165829Y-7541678D01*
X3081500Y-7745265D01*
X3024463Y-7958130D01*
X2995701Y-8176604D01*
X2995700Y-8176620D01*
X550000Y-8176620D01*
X550000Y-4214220D01*
X6805700Y-4214220D01*
X6805700Y-4434577D01*
X6805701Y-4434593D01*
X6834463Y-4653067D01*
X6891500Y-4865932D01*
X6975829Y-5069519D01*
X6975833Y-5069528D01*
X7086017Y-5260372D01*
X7134321Y-5323322D01*
X7780596Y-4677048D01*
X7789015Y-4697373D01*
X7875186Y-4826337D01*
X7984862Y-4936013D01*
X8113826Y-5022184D01*
X8134149Y-5030602D01*
X7487875Y-5676876D01*
X7550826Y-5725180D01*
X7550833Y-5725185D01*
X7741670Y-5835365D01*
X7741679Y-5835369D01*
X7945266Y-5919698D01*
X8158131Y-5976735D01*
X8376605Y-6005497D01*
X8376622Y-6005499D01*
X8596978Y-6005499D01*
X8596994Y-6005497D01*
X8815468Y-5976735D01*
X9028333Y-5919698D01*
X9231920Y-5835369D01*
X9231929Y-5835365D01*
X9422769Y-5725183D01*
X9485723Y-5676876D01*
X9485723Y-5676875D01*
X8839449Y-5030602D01*
X8859774Y-5022184D01*
X8988738Y-4936013D01*
X9098414Y-4826337D01*
X9184585Y-4697373D01*
X9193003Y-4677048D01*
X9839276Y-5323322D01*
X9839277Y-5323322D01*
X9887584Y-5260368D01*
X9997766Y-5069528D01*
X9997770Y-5069519D01*
X10082099Y-4865932D01*
X10139136Y-4653067D01*
X10167898Y-4434593D01*
X10167900Y-4434577D01*
X10167900Y-4214212D01*
X10167573Y-4211730D01*
X19642000Y-4211730D01*
X19642000Y-4437067D01*
X19677251Y-4659634D01*
X19746882Y-4873940D01*
X19746883Y-4873943D01*
X19778510Y-4936013D01*
X19849186Y-5074721D01*
X19981637Y-5257024D01*
X20140975Y-5416362D01*
X20323278Y-5548813D01*
X20421753Y-5598988D01*
X20524055Y-5651115D01*
X20524058Y-5651116D01*
X20603341Y-5676876D01*
X20738366Y-5720748D01*
X20960931Y-5755999D01*
X20960932Y-5755999D01*
X21186268Y-5755999D01*
X21186269Y-5755999D01*
X21408834Y-5720748D01*
X21623144Y-5651115D01*
X21823922Y-5548813D01*
X22006225Y-5416362D01*
X22165563Y-5257024D01*
X22298014Y-5074721D01*
X22400316Y-4873943D01*
X22469949Y-4659633D01*
X22505200Y-4437068D01*
X22505200Y-4211730D01*
X22469949Y-3989165D01*
X22400316Y-3774855D01*
X22400316Y-3774854D01*
X22300659Y-3579269D01*
X22298014Y-3574077D01*
X22165563Y-3391774D01*
X22006225Y-3232436D01*
X21823922Y-3099985D01*
X21623144Y-2997682D01*
X21623141Y-2997681D01*
X21408835Y-2928050D01*
X21297551Y-2910424D01*
X21186269Y-2892799D01*
X20960931Y-2892799D01*
X20886742Y-2904549D01*
X20738364Y-2928050D01*
X20524058Y-2997681D01*
X20524055Y-2997682D01*
X20323277Y-3099985D01*
X20219267Y-3175553D01*
X20140975Y-3232436D01*
X20140973Y-3232438D01*
X20140972Y-3232438D01*
X19981639Y-3391771D01*
X19981639Y-3391772D01*
X19981637Y-3391774D01*
X19924754Y-3470066D01*
X19849186Y-3574076D01*
X19746883Y-3774854D01*
X19746882Y-3774857D01*
X19677251Y-3989163D01*
X19642000Y-4211730D01*
X10167573Y-4211730D01*
X10139136Y-3995730D01*
X10082099Y-3782865D01*
X9997770Y-3579278D01*
X9997766Y-3579269D01*
X9887586Y-3388432D01*
X9887581Y-3388425D01*
X9839277Y-3325474D01*
X9193003Y-3971748D01*
X9184585Y-3951425D01*
X9098414Y-3822461D01*
X8988738Y-3712785D01*
X8859774Y-3626614D01*
X8839449Y-3618195D01*
X9485723Y-2971920D01*
X9422773Y-2923616D01*
X9231929Y-2813432D01*
X9231920Y-2813428D01*
X9028333Y-2729099D01*
X8815468Y-2672062D01*
X8596994Y-2643300D01*
X8596978Y-2643299D01*
X8376622Y-2643299D01*
X8376605Y-2643300D01*
X8158131Y-2672062D01*
X7945266Y-2729099D01*
X7741679Y-2813428D01*
X7741669Y-2813432D01*
X7550836Y-2923609D01*
X7550829Y-2923615D01*
X7487875Y-2971919D01*
X7487875Y-2971920D01*
X8134150Y-3618195D01*
X8113826Y-3626614D01*
X7984862Y-3712785D01*
X7875186Y-3822461D01*
X7789015Y-3951425D01*
X7780596Y-3971749D01*
X7134321Y-3325474D01*
X7134320Y-3325474D01*
X7086016Y-3388428D01*
X7086010Y-3388435D01*
X6975833Y-3579268D01*
X6975829Y-3579278D01*
X6891500Y-3782865D01*
X6834463Y-3995730D01*
X6805701Y-4214204D01*
X6805700Y-4214220D01*
X550000Y-4214220D01*
X550000Y-674000D01*
X569685Y-606961D01*
X622489Y-561206D01*
X674000Y-550000D01*
X29806000Y-550000D01*
X29873039Y-569685D01*
G37*
%TD.AperFunction*%
%TD*%
M02*
