<?xml version="1.0" standalone="no"?>
<!DOCTYPE svg PUBLIC "-//W3C//DTD SVG 20010904//EN"
 "http://www.w3.org/TR/2001/REC-SVG-20010904/DTD/svg10.dtd">
<svg version="1.0" xmlns="http://www.w3.org/2000/svg"
 width="1280.000000pt" height="1280.000000pt" viewBox="0 0 1280.000000 1280.000000"
 preserveAspectRatio="xMidYMid meet">
<g transform="translate(0.000000,1280.000000) scale(0.100000,-0.100000)"
fill="#000000" stroke="none">
<path d="M6301 12435 c-35 -8 -107 -35 -159 -61 -81 -39 -109 -60 -182 -133
-95 -96 -139 -164 -177 -272 -104 -301 -4 -627 253 -825 115 -88 317 -150 455
-140 276 20 477 143 612 376 76 133 107 338 73 496 -74 337 -369 576 -710 573
-56 0 -130 -7 -165 -14z"/>
<path d="M8963 11789 c-450 -53 -739 -488 -617 -929 15 -52 62 -159 75 -170 3
-3 17 -23 31 -45 51 -81 187 -192 288 -237 105 -47 245 -71 355 -63 245 18
481 176 588 395 63 127 81 201 81 330 0 359 -275 677 -621 715 -32 3 -69 8
-83 9 -14 2 -58 0 -97 -5z"/>
<path d="M3485 11670 c-160 -25 -311 -106 -427 -229 -188 -199 -244 -472 -153
-734 36 -104 81 -173 175 -267 152 -153 335 -224 547 -214 87 4 111 9 222 51
220 83 381 266 441 503 19 71 21 103 17 200 -6 127 -21 190 -74 295 -72 144
-194 264 -340 331 -122 58 -283 83 -408 64z"/>
<path d="M7046 10615 c4 -8 8 -15 10 -15 2 0 4 7 4 15 0 8 -4 15 -10 15 -5 0
-7 -7 -4 -15z"/>
<path d="M7025 10470 c-8 -13 -1 -24 14 -19 6 3 7 10 2 18 -6 10 -10 10 -16 1z"/>
<path d="M4956 10421 c-3 -5 1 -11 9 -14 9 -4 12 -1 8 9 -6 16 -10 17 -17 5z"/>
<path d="M4997 10315 c-6 -13 1 -25 14 -25 14 0 18 28 4 34 -7 2 -16 -1 -18
-9z"/>
<path d="M7675 10310 c-3 -5 1 -10 10 -10 9 0 13 5 10 10 -3 6 -8 10 -10 10
-2 0 -7 -4 -10 -10z"/>
<path d="M10895 9846 c-141 -28 -254 -87 -362 -189 -61 -58 -163 -196 -163
-220 0 -4 -8 -26 -19 -50 -39 -88 -56 -227 -41 -338 14 -99 40 -182 83 -263
40 -73 57 -96 131 -169 375 -372 1020 -218 1191 283 54 158 54 306 -1 468 -73
219 -277 411 -499 467 -86 22 -236 27 -320 11z"/>
<path d="M1695 9779 c-170 -26 -296 -89 -415 -209 -145 -144 -212 -307 -212
-510 0 -337 226 -624 557 -705 161 -40 413 -5 522 73 17 12 34 22 38 22 4 0
37 26 73 57 197 173 294 435 248 671 -66 344 -333 581 -681 606 -38 2 -97 0
-130 -5z"/>
<path d="M3860 9776 c0 -2 8 -10 18 -17 15 -13 16 -12 3 4 -13 16 -21 21 -21
13z"/>
<path d="M9080 9702 c0 -10 -6 -24 -12 -32 -7 -8 -3 -6 10 4 23 20 30 46 12
46 -5 0 -10 -8 -10 -18z"/>
<path d="M9007 9611 c-3 -14 0 -17 14 -14 22 6 26 33 5 33 -7 0 -16 -8 -19
-19z"/>
<path d="M3720 9519 c0 -5 5 -7 10 -4 6 3 10 8 10 11 0 2 -4 4 -10 4 -5 0 -10
-5 -10 -11z"/>
<path d="M3240 9206 c0 -2 8 -10 18 -17 15 -13 16 -12 3 4 -13 16 -21 21 -21
13z"/>
<path d="M3120 9146 c0 -2 7 -7 16 -10 8 -3 12 -2 9 4 -6 10 -25 14 -25 6z"/>
<path d="M3247 9045 c3 -8 9 -12 14 -9 12 7 11 11 -5 17 -10 4 -13 1 -9 -8z"/>
<path d="M9947 8614 c-16 -9 -27 -18 -24 -20 7 -8 57 15 57 26 0 12 1 13 -33
-6z"/>
<path d="M2460 7880 c20 -13 43 -13 35 0 -3 6 -16 10 -28 10 -18 0 -19 -2 -7
-10z"/>
<path d="M2455 7600 c3 -5 8 -10 11 -10 2 0 4 5 4 10 0 6 -5 10 -11 10 -5 0
-7 -4 -4 -10z"/>
<path d="M11530 7114 c-106 -22 -260 -106 -338 -183 -95 -94 -114 -119 -154
-207 -99 -219 -96 -441 9 -652 40 -80 47 -89 151 -194 142 -144 385 -221 592
-189 170 27 284 86 410 211 201 200 266 474 175 740 -118 347 -481 551 -845
474z"/>
<path d="M1065 7111 c-292 -47 -524 -251 -601 -531 -28 -101 -26 -293 4 -390
41 -130 87 -206 187 -306 78 -78 104 -98 185 -137 115 -55 209 -77 328 -77
261 0 520 154 635 377 71 140 102 303 81 433 -22 135 -79 279 -139 350 -153
181 -330 272 -550 284 -44 3 -103 1 -130 -3z"/>
<path d="M2305 6900 c3 -5 8 -10 11 -10 2 0 4 5 4 10 0 6 -5 10 -11 10 -5 0
-7 -4 -4 -10z"/>
<path d="M6336 6596 c-78 -29 -128 -88 -141 -167 -23 -137 118 -266 252 -230
146 39 204 197 120 322 -46 68 -154 103 -231 75z"/>
<path d="M2120 6440 c0 -5 5 -10 10 -10 6 0 10 5 10 10 0 6 -4 10 -10 10 -5 0
-10 -4 -10 -10z"/>
<path d="M10570 6440 c-11 -7 -4 -10 25 -9 31 0 36 2 20 9 -26 11 -28 11 -45
0z"/>
<path d="M2285 6191 c-3 -5 -1 -12 5 -16 5 -3 10 1 10 9 0 18 -6 21 -15 7z"/>
<path d="M10470 5854 c0 -8 5 -12 10 -9 6 4 8 11 5 16 -9 14 -15 11 -15 -7z"/>
<path d="M10625 5830 c-3 -5 -1 -10 4 -10 6 0 11 5 11 10 0 6 -2 10 -4 10 -3
0 -8 -4 -11 -10z"/>
<path d="M2265 5630 c-4 -6 5 -10 20 -10 15 0 24 4 20 10 -3 6 -12 10 -20 10
-8 0 -17 -4 -20 -10z"/>
<path d="M2385 5470 c3 -5 8 -10 11 -10 2 0 4 5 4 10 0 6 -5 10 -11 10 -5 0
-7 -4 -4 -10z"/>
<path d="M10310 5156 c0 -9 5 -16 10 -16 6 0 10 4 10 9 0 6 -4 13 -10 16 -5 3
-10 -1 -10 -9z"/>
<path d="M10458 5103 c7 -3 16 -2 19 1 4 3 -2 6 -13 5 -11 0 -14 -3 -6 -6z"/>
<path d="M10250 4990 c0 -5 7 -10 16 -10 8 0 12 5 9 10 -3 6 -10 10 -16 10 -5
0 -9 -4 -9 -10z"/>
<path d="M10405 4940 c-3 -5 -1 -10 4 -10 6 0 11 5 11 10 0 6 -2 10 -4 10 -3
0 -8 -4 -11 -10z"/>
<path d="M2605 4790 c3 -5 8 -10 11 -10 2 0 4 5 4 10 0 6 -5 10 -11 10 -5 0
-7 -4 -4 -10z"/>
<path d="M10030 4490 c0 -5 7 -10 16 -10 8 0 12 5 9 10 -3 6 -10 10 -16 10 -5
0 -9 -4 -9 -10z"/>
<path d="M1670 4419 c-259 -34 -469 -186 -576 -416 -103 -221 -90 -464 37
-681 53 -89 180 -209 276 -260 219 -115 463 -115 686 0 113 58 236 181 294
293 84 163 109 313 78 465 -23 113 -64 218 -110 283 -119 168 -317 294 -490
312 -33 3 -76 7 -95 9 -19 2 -64 0 -100 -5z"/>
<path d="M10910 4415 c-101 -16 -160 -33 -218 -63 -223 -117 -362 -308 -399
-547 -55 -359 178 -711 534 -807 107 -28 259 -28 366 0 252 68 451 267 519
519 28 107 28 259 0 366 -75 278 -321 498 -592 531 -112 14 -127 14 -210 1z"/>
<path d="M9970 4380 c0 -5 5 -10 10 -10 6 0 10 5 10 10 0 6 -4 10 -10 10 -5 0
-10 -4 -10 -10z"/>
<path d="M2776 4355 c-3 -10 1 -15 13 -15 10 0 21 7 25 15 3 10 -1 15 -13 15
-10 0 -21 -7 -25 -15z"/>
<path d="M2685 4290 c-3 -5 -2 -10 4 -10 5 0 13 5 16 10 3 6 2 10 -4 10 -5 0
-13 -4 -16 -10z"/>
<path d="M2940 4160 c0 -5 5 -10 10 -10 6 0 10 5 10 10 0 6 -4 10 -10 10 -5 0
-10 -4 -10 -10z"/>
<path d="M9645 3890 c-3 -5 1 -10 10 -10 9 0 13 5 10 10 -3 6 -8 10 -10 10 -2
0 -7 -4 -10 -10z"/>
<path d="M9761 3794 c13 -16 29 -19 29 -5 0 5 -9 11 -21 14 -16 4 -18 3 -8 -9z"/>
<path d="M3380 3600 c0 -5 5 -10 11 -10 5 0 7 5 4 10 -3 6 -8 10 -11 10 -2 0
-4 -4 -4 -10z"/>
<path d="M9160 3360 c0 -5 5 -10 10 -10 6 0 10 5 10 10 0 6 -4 10 -10 10 -5 0
-10 -4 -10 -10z"/>
<path d="M9265 3240 c4 -6 11 -8 16 -5 14 9 11 15 -7 15 -8 0 -12 -5 -9 -10z"/>
<path d="M3780 3230 c0 -5 5 -10 11 -10 5 0 7 5 4 10 -3 6 -8 10 -11 10 -2 0
-4 -4 -4 -10z"/>
<path d="M9027 3209 c7 -25 33 -33 33 -10 0 10 -8 21 -19 24 -14 3 -17 0 -14
-14z"/>
<path d="M3910 3120 c0 -5 5 -10 11 -10 5 0 7 5 4 10 -3 6 -8 10 -11 10 -2 0
-4 -4 -4 -10z"/>
<path d="M9105 3120 c3 -5 10 -10 16 -10 5 0 9 5 9 10 0 6 -7 10 -16 10 -8 0
-12 -4 -9 -10z"/>
<path d="M8595 2931 c-3 -5 -1 -12 5 -16 5 -3 10 1 10 9 0 18 -6 21 -15 7z"/>
<path d="M4330 2844 c0 -8 5 -12 10 -9 6 4 8 11 5 16 -9 14 -15 11 -15 -7z"/>
<path d="M8675 2790 c4 -6 11 -8 16 -5 14 9 11 15 -7 15 -8 0 -12 -5 -9 -10z"/>
<path d="M4520 2734 c0 -8 5 -12 10 -9 6 4 8 11 5 16 -9 14 -15 11 -15 -7z"/>
<path d="M4260 2705 c0 -8 4 -15 10 -15 5 0 7 7 4 15 -4 8 -8 15 -10 15 -2 0
-4 -7 -4 -15z"/>
<path d="M7955 2601 c-3 -5 -1 -12 5 -16 5 -3 10 1 10 9 0 18 -6 21 -15 7z"/>
<path d="M3635 2513 c-76 -7 -196 -42 -264 -78 -364 -191 -499 -622 -309 -988
59 -114 181 -236 295 -295 221 -115 471 -115 682 -1 308 166 456 523 355 854
-30 98 -109 228 -176 291 -103 97 -164 135 -286 178 -54 20 -232 51 -252 44
-3 -1 -23 -3 -45 -5z"/>
<path d="M7864 2494 c2 -15 9 -30 16 -32 8 -3 10 2 5 19 -11 37 -24 45 -21 13z"/>
<path d="M5190 2464 c0 -8 5 -12 10 -9 6 4 8 11 5 16 -9 14 -15 11 -15 -7z"/>
<path d="M8945 2446 c-351 -56 -608 -359 -608 -716 0 -278 157 -528 408 -650
108 -53 198 -73 320 -72 199 1 360 68 505 212 98 97 154 192 191 326 31 110
31 258 0 368 -56 203 -190 367 -371 459 -146 74 -289 98 -445 73z"/>
<path d="M7270 2380 c0 -5 5 -10 10 -10 6 0 10 5 10 10 0 6 -4 10 -10 10 -5 0
-10 -4 -10 -10z"/>
<path d="M5845 2320 c4 -6 11 -8 16 -5 14 9 11 15 -7 15 -8 0 -12 -5 -9 -10z"/>
<path d="M5615 2281 c-9 -40 -2 -49 12 -18 6 13 8 30 3 37 -5 8 -10 2 -15 -19z"/>
<path d="M6555 2290 c4 -6 11 -8 16 -5 14 9 11 15 -7 15 -8 0 -12 -5 -9 -10z"/>
<path d="M7300 2230 c0 -5 5 -10 11 -10 5 0 7 5 4 10 -3 6 -8 10 -11 10 -2 0
-4 -4 -4 -10z"/>
<path d="M7090 2190 c0 -5 5 -10 11 -10 5 0 7 5 4 10 -3 6 -8 10 -11 10 -2 0
-4 -4 -4 -10z"/>
<path d="M5820 2170 c0 -5 5 -10 11 -10 5 0 7 5 4 10 -3 6 -8 10 -11 10 -2 0
-4 -4 -4 -10z"/>
<path d="M6305 1884 c-113 -14 -132 -19 -225 -58 -121 -50 -227 -139 -308
-260 -82 -123 -122 -253 -122 -404 0 -112 23 -209 77 -321 38 -79 59 -108 131
-181 96 -96 177 -147 300 -188 66 -22 95 -26 207 -26 149 -1 217 14 331 70
184 91 325 266 381 474 23 87 23 261 0 350 -39 147 -127 286 -240 381 -72 60
-201 124 -287 143 -139 31 -155 32 -245 20z"/>
</g>
</svg>
